<svg xmlns="http://www.w3.org/2000/svg" xmlns:xlink="http://www.w3.org/1999/xlink" viewBox="0 0 538.42 538.72">
    <defs>
        <style>.cls-1{fill:url(#Dégradé_sans_nom_325);}.cls-2{fill:url(#Dégradé_sans_nom_325-2);}.cls-3{fill:url(#Dégradé_sans_nom_325-3);}.cls-4{fill:url(#Dégradé_sans_nom_325-4);}.cls-5{fill:url(#Dégradé_sans_nom_325-5);}.cls-6{fill:url(#Dégradé_sans_nom_325-6);}.cls-7{fill:url(#Dégradé_sans_nom_325-7);}.cls-8{fill:url(#Dégradé_sans_nom_325-8);}.cls-9{fill:url(#Dégradé_sans_nom_325-9);}.cls-10{fill:url(#Dégradé_sans_nom_325-10);}.cls-11{fill:url(#Dégradé_sans_nom_325-11);}.cls-12{fill:url(#Dégradé_sans_nom_325-12);}.cls-13{fill:url(#Dégradé_sans_nom_325-13);}.cls-14{fill:url(#Dégradé_sans_nom_325-14);}.cls-15{fill:url(#Dégradé_sans_nom_325-15);}.cls-16{fill:url(#Dégradé_sans_nom_325-16);}.cls-17{fill:url(#Dégradé_sans_nom_325-17);}.cls-18{fill:url(#Dégradé_sans_nom_325-18);}.cls-19{fill:url(#Dégradé_sans_nom_325-19);}.cls-20{fill:url(#Dégradé_sans_nom_325-20);}.cls-21{fill:url(#Dégradé_sans_nom_325-21);}.cls-22{fill:url(#Dégradé_sans_nom_325-22);}.cls-23{fill:url(#Dégradé_sans_nom_325-23);}.cls-24{fill:url(#Dégradé_sans_nom_325-24);}.cls-25{fill:url(#Dégradé_sans_nom_325-25);}.cls-26{fill:url(#Dégradé_sans_nom_325-26);}.cls-27{fill:url(#Dégradé_sans_nom_325-27);}.cls-28{fill:url(#Dégradé_sans_nom_325-28);}.cls-29{fill:url(#Dégradé_sans_nom_325-29);}.cls-30{fill:url(#Dégradé_sans_nom_325-30);}.cls-31{fill:url(#Dégradé_sans_nom_325-31);}.cls-32{fill:url(#Dégradé_sans_nom_325-32);}.cls-33{fill:url(#Dégradé_sans_nom_325-33);}.cls-34{fill:url(#Dégradé_sans_nom_325-34);}.cls-35{fill:url(#Dégradé_sans_nom_325-35);}.cls-36{fill:url(#Dégradé_sans_nom_325-36);}.cls-37{fill:url(#Dégradé_sans_nom_325-37);}.cls-38{fill:url(#Dégradé_sans_nom_325-38);}.cls-39{fill:url(#Dégradé_sans_nom_325-39);}.cls-40{fill:url(#Dégradé_sans_nom_325-40);}.cls-41{fill:url(#Dégradé_sans_nom_325-41);}</style>
        <linearGradient id="Dégradé_sans_nom_325" x1="269.21" y1="-22.23" x2="269.21" y2="618.74" gradientUnits="userSpaceOnUse">
            <stop offset="0.48" stop-color="#5ab1b6" />
            <stop offset="0.56" stop-color="#74bcb8" />
            <stop offset="0.77" stop-color="#b9d9bd" />
            <stop offset="0.92" stop-color="#e4ecc1" />
            <stop offset="1" stop-color="#f5f3c2" />
        </linearGradient>
        <linearGradient id="Dégradé_sans_nom_325-2" x1="268.88" y1="-22.23" x2="268.88" y2="618.74" xlink:href="#Dégradé_sans_nom_325" />
        <linearGradient id="Dégradé_sans_nom_325-3" x1="269.75" y1="-22.23" x2="269.75" y2="618.74" xlink:href="#Dégradé_sans_nom_325" />
        <linearGradient id="Dégradé_sans_nom_325-4" x1="271.15" y1="-22.23" x2="271.15" y2="618.74" xlink:href="#Dégradé_sans_nom_325" />
        <linearGradient id="Dégradé_sans_nom_325-5" x1="272.95" y1="-22.23" x2="272.95" y2="618.74" xlink:href="#Dégradé_sans_nom_325" />
        <linearGradient id="Dégradé_sans_nom_325-6" x1="273.38" y1="-22.23" x2="273.38" y2="618.74" xlink:href="#Dégradé_sans_nom_325" />
        <linearGradient id="Dégradé_sans_nom_325-7" x1="274.24" y1="-22.23" x2="274.24" y2="618.74" xlink:href="#Dégradé_sans_nom_325" />
        <linearGradient id="Dégradé_sans_nom_325-8" x1="273.48" y1="-22.23" x2="273.48" y2="618.74" xlink:href="#Dégradé_sans_nom_325" />
        <linearGradient id="Dégradé_sans_nom_325-9" x1="272.9" y1="-22.23" x2="272.9" y2="618.74" xlink:href="#Dégradé_sans_nom_325" />
        <linearGradient id="Dégradé_sans_nom_325-10" x1="272.59" y1="-22.23" x2="272.59" y2="618.74" xlink:href="#Dégradé_sans_nom_325" />
        <linearGradient id="Dégradé_sans_nom_325-11" x1="272.56" y1="-22.23" x2="272.56" y2="618.74" xlink:href="#Dégradé_sans_nom_325" />
        <linearGradient id="Dégradé_sans_nom_325-12" x1="272.75" y1="-22.23" x2="272.75" y2="618.74" xlink:href="#Dégradé_sans_nom_325" />
        <linearGradient id="Dégradé_sans_nom_325-13" x1="273.11" y1="-22.23" x2="273.11" y2="618.74" xlink:href="#Dégradé_sans_nom_325" />
        <linearGradient id="Dégradé_sans_nom_325-14" x1="274.13" y1="-22.23" x2="274.13" y2="618.74" xlink:href="#Dégradé_sans_nom_325" />
        <linearGradient id="Dégradé_sans_nom_325-15" x1="274.81" y1="-22.23" x2="274.81" y2="618.74" xlink:href="#Dégradé_sans_nom_325" />
        <linearGradient id="Dégradé_sans_nom_325-16" x1="273.18" y1="-22.23" x2="273.18" y2="618.74" xlink:href="#Dégradé_sans_nom_325" />
        <linearGradient id="Dégradé_sans_nom_325-17" x1="274.47" y1="-22.23" x2="274.47" y2="618.74" xlink:href="#Dégradé_sans_nom_325" />
        <linearGradient id="Dégradé_sans_nom_325-18" x1="276.33" y1="-22.23" x2="276.33" y2="618.74" xlink:href="#Dégradé_sans_nom_325" />
        <linearGradient id="Dégradé_sans_nom_325-19" x1="277.51" y1="-22.23" x2="277.51" y2="618.74" xlink:href="#Dégradé_sans_nom_325" />
        <linearGradient id="Dégradé_sans_nom_325-20" x1="278.46" y1="-22.23" x2="278.46" y2="618.74" xlink:href="#Dégradé_sans_nom_325" />
        <linearGradient id="Dégradé_sans_nom_325-21" x1="279.02" y1="-22.23" x2="279.02" y2="618.74" xlink:href="#Dégradé_sans_nom_325" />
        <linearGradient id="Dégradé_sans_nom_325-22" x1="278.94" y1="-22.23" x2="278.94" y2="618.74" xlink:href="#Dégradé_sans_nom_325" />
        <linearGradient id="Dégradé_sans_nom_325-23" x1="279.52" y1="-22.23" x2="279.52" y2="618.74" xlink:href="#Dégradé_sans_nom_325" />
        <linearGradient id="Dégradé_sans_nom_325-24" x1="279.33" y1="-22.23" x2="279.33" y2="618.74" xlink:href="#Dégradé_sans_nom_325" />
        <linearGradient id="Dégradé_sans_nom_325-25" x1="279.5" y1="-22.23" x2="279.5" y2="618.74" xlink:href="#Dégradé_sans_nom_325" />
        <linearGradient id="Dégradé_sans_nom_325-26" x1="279.07" y1="-22.23" x2="279.07" y2="618.74" xlink:href="#Dégradé_sans_nom_325" />
        <linearGradient id="Dégradé_sans_nom_325-27" x1="277.64" y1="-22.23" x2="277.64" y2="618.74" xlink:href="#Dégradé_sans_nom_325" />
        <linearGradient id="Dégradé_sans_nom_325-28" x1="277.25" y1="-22.23" x2="277.25" y2="618.74" xlink:href="#Dégradé_sans_nom_325" />
        <linearGradient id="Dégradé_sans_nom_325-29" x1="275.13" y1="-22.23" x2="275.13" y2="618.74" xlink:href="#Dégradé_sans_nom_325" />
        <linearGradient id="Dégradé_sans_nom_325-30" x1="275" y1="-22.23" x2="275" y2="618.74" xlink:href="#Dégradé_sans_nom_325" />
        <linearGradient id="Dégradé_sans_nom_325-31" x1="274.8" y1="-22.23" x2="274.8" y2="618.74" xlink:href="#Dégradé_sans_nom_325" />
        <linearGradient id="Dégradé_sans_nom_325-32" x1="274.89" y1="-22.23" x2="274.89" y2="618.74" xlink:href="#Dégradé_sans_nom_325" />
        <linearGradient id="Dégradé_sans_nom_325-33" x1="274.83" y1="-22.23" x2="274.83" y2="618.74" xlink:href="#Dégradé_sans_nom_325" />
        <linearGradient id="Dégradé_sans_nom_325-34" x1="274.91" y1="-22.23" x2="274.91" y2="618.74" xlink:href="#Dégradé_sans_nom_325" />
        <linearGradient id="Dégradé_sans_nom_325-35" x1="274.91" y1="-22.23" x2="274.91" y2="618.74" xlink:href="#Dégradé_sans_nom_325" />
        <linearGradient id="Dégradé_sans_nom_325-36" x1="274.71" y1="-22.23" x2="274.71" y2="618.74" xlink:href="#Dégradé_sans_nom_325" />
        <linearGradient id="Dégradé_sans_nom_325-37" x1="272.97" y1="-22.23" x2="272.97" y2="618.74" xlink:href="#Dégradé_sans_nom_325" />
        <linearGradient id="Dégradé_sans_nom_325-38" x1="272" y1="-22.23" x2="272" y2="618.74" xlink:href="#Dégradé_sans_nom_325" />
        <linearGradient id="Dégradé_sans_nom_325-39" x1="270.63" y1="-22.23" x2="270.63" y2="618.74" xlink:href="#Dégradé_sans_nom_325" />
        <linearGradient id="Dégradé_sans_nom_325-40" x1="270.51" y1="-22.23" x2="270.51" y2="618.7" xlink:href="#Dégradé_sans_nom_325" />
        <linearGradient id="Dégradé_sans_nom_325-41" x1="270.18" y1="-22.23" x2="270.18" y2="618.74" xlink:href="#Dégradé_sans_nom_325" />
    </defs>
    <title>Fichier 1</title>
    <g id="Calque_2" data-name="Calque 2">
        <g id="Calque_1-2" data-name="Calque 1">
            <path class="cls-1" d="M537.2,209.33a54.43,54.43,0,0,1-2.72,5.23,4.23,4.23,0,0,0,0,5.43,22.06,22.06,0,0,1,1.78,3.67c.17.37.23,1,.5,1.09,2.82,1.18,1.17,2.94.84,4.71a44.55,44.55,0,0,0-.42,6.72,3.76,3.76,0,0,1-2.74,3.85,7.58,7.58,0,0,0-4.6,5.13l3.23.94c-1.47,2-2.67,3.72-4,5.35-1.92,2.29-3.86,4.58-6,6.68-1.72,1.7-4,2.86-4.79,5.38a8.46,8.46,0,0,1-1.53,2.89,9.39,9.39,0,0,1-3.15,2.59c-2.62,1.09-4.79,2.52-6.12,5.26l2.17.89c-.77.82-1.44,1.51-2.07,2.23-.95,1.07-1.66,2,.23,3.05a2.35,2.35,0,0,1,.75,2.18c-1.93,3.37-4,6.69-6.2,9.84-.42.59-2,.62-3,.45a3.21,3.21,0,0,0-3.79,1.55c-1.12,1.78-2.46,3.42-3.9,5.39l3.25,1.33c-1.52,1.68-2.79,3.31-4.3,4.7-1.26,1.16-2.46,4.28-2.1,6a2.83,2.83,0,0,1-.29,2c-2.06,2.9-4.14,5.79-6.41,8.51-.62.74-1.94.88-2.92,1.33-.67.3-1.54.49-1.92,1a20.86,20.86,0,0,0-2.1,3.75,5.54,5.54,0,0,1-3.31,3.4,3.5,3.5,0,0,0-1.51,1.55c-1.34,2.22-2.46,4.6-4,6.7a8.8,8.8,0,0,1-3.4,2.71c-1.27.59-2.12,1.26-2.18,2.64-.08,1.77,0,3.54-.05,5.32a2.75,2.75,0,0,1-.34.94c-1.79,4.13-3.61,8.24-5.36,12.38-.77,1.81-1.57,3.28-3.82,3.81-2.59.61-3.8,3-4.86,5.23-.16.34.31,1.26.74,1.56a1.58,1.58,0,0,1,.6,2.42c-1.27,2-2.53,4-3.92,6-1.54,2.15-3.89,3.76-3.32,7.08.17,1-1.4,2.18-2.07,3.35a13.19,13.19,0,0,0-1,2.45c-.19.57-.09,1.29-.4,1.75-2.07,3.09-1.2,6.08-.2,9.3.46,1.5-.19,3.39-.54,5.07a20.85,20.85,0,0,1-1.32,3.73,19.92,19.92,0,0,0-1.61,3.5,18.1,18.1,0,0,0,0,4.21c0,.54.4,1.43.2,1.57-1.95,1.35-1.93,3.53-2.4,5.48s-1.24,2.74-3.3,2.22c-1.9-.48-3,.71-4,2.2a3.91,3.91,0,0,0,.43.5c2.57,2.1,2.48,3.21-.46,4.86a15.24,15.24,0,0,1-2,.94c-1.63.62-3.1,1.28-1.23,3.5-1.75.4-3.19.81-4.66,1s-1.89.73-1.78,2.15c.16,2,.12,4,.14,6,0,.24-.13.66-.27.69-2.67.63-3.07,3.58-5,4.87a3.27,3.27,0,0,1-2.52.62c-2.22-1-4-.28-5.71.94,0,.15-.05.32,0,.4,1.73,2.32,1.78,2.44-.86,3.53-2.89,1.2-5.87,2.15-8.83,3.17a1.4,1.4,0,0,1-1.17-.08c-1.85-1.74-3.67-.79-5.52,0-.63.26-1.28.48-1.93.7-3.16,1.06-3.22,1.18-1.58,4.5a14.48,14.48,0,0,1-3.41-.25c-2.87-1-5.43-.94-7.75,1.33a31.14,31.14,0,0,1-3.62,2.76,2.27,2.27,0,0,1-.93.34c-3.21.55-6.4,1.16-9.63,1.58-.8.1-1.69-.46-2.54-.67a40.32,40.32,0,0,0-4.22-.89c-.28,0-1,.7-1,1,.11,1.51-.72,1.85-1.94,2.37-.95.4-1.61,1.58-2.29,2.49-.87,1.16-1.42,2.65-2.48,3.56a74.62,74.62,0,0,1-6.33,4.37l-.86-4.07a32.4,32.4,0,0,0-3.93,2.5,2.8,2.8,0,0,0-.71,2.15c.17,1.52-.53,2.74-1.77,2.77-2.3.07-3.14,1.78-3.5,3.22-.78,3.18-3.61,3.56-5.84,5.36l-.81-3-3,2.74a10.87,10.87,0,0,1-.57-2c-.13-1.83-1.55-2.47-2.9-2.66-.58-.08-1.56,1-2,1.82-1,1.91-1.81,3.95-2.7,5.93-.11.25-.24.65-.42.68-3,.48-3.83,3.53-6,5-.22.14-.46.25-.79.43a4.3,4.3,0,0,0-.59-1.1c-.52-.5-1.35-1.41-1.66-1.27a3.3,3.3,0,0,0-1.84,1.82c-1,4.56-.91,4.63-5.7,5.07-2.26.21-2.13,2.16-2.9,3.78a10.82,10.82,0,0,1-2.43-.67c-1.36-.74-2-.13-2.53,1-1.47,3.11-3,6.2-4.49,9.3a1.31,1.31,0,0,1-.34.51c-2.57,1.82-5.15,3.62-8,5.62a8.06,8.06,0,0,0-.54-2.09c-.38-.63-1.1-1.61-1.52-1.53a4.55,4.55,0,0,0-2.1,1.47c-.29.29-.24.9-.35,1.37-.57,2.38-2.23,3.21-4.47,2.07-1.16-.59-2-.93-2.91.45-.63,1-1.64,1.08-2.19-.23s-1.37-1-2.36-.71c-1.72.58-3.47,1.09-5.73,1.8l1.29-7.48-.73-.36a13.08,13.08,0,0,0-1.4,1.58c-.63,1-1.34,1.32-2.38.67a6.09,6.09,0,0,0-.55-.27c-3.35-1.65-3.47-1.71-5.08,1.55-1,2-2.55.51-3.87,1.43l-.12-1.76-4.52-1.21-.21-.76c-.29.45-.56.9-.87,1.33-.69,1-1.48,1.15-2.38.25a2.23,2.23,0,0,0-.49-.37c-4.24-2.33-4.51-3.39-8,.88a14.42,14.42,0,0,1-1.71,1.42l-.81-5.6-9.59,1.68c-1.67-.93-3-1.55-4.19-2.37s-2-1.73-3-2.53c-1.61-1.25.22-2.26.23-3.18L191,524l-.37-.58,4.34-6.34-.49-.53-2.76,1.81-1.4-4.24-3.46,3.06c-1.57-1.17-1.57-1.17-.79-3.18l-.17-3.49-1.94.72,1.64-7.69c-1.93,1.27-3.35,2.31-4.88,3.16a7,7,0,0,1-2.2.41,9,9,0,0,1,.43-2.44c.37-.78,1.19-1.32,1.65-2.07a20.06,20.06,0,0,0,1.13-2.56l-.48-.29-3.84,1.94c0-3.24,3-3.82,4.15-5.78a6.77,6.77,0,0,1,.58-8.06,27.8,27.8,0,0,0,3.79-6.22c.52-1.2,0-2.81.1-4.22.19-1.88.59-3.74,1-6.17l-2.87,2.52c0-2.25-.59-4.2.66-6.06a3.08,3.08,0,0,0,.54-1.66,45.71,45.71,0,0,0-.56-6.54,13.87,13.87,0,0,1-.89-3c-.18-2.59-.17-5.19-.22-7.79,0-2.16-.91-2.76-3-2a18.46,18.46,0,0,1-1.85.41,45.89,45.89,0,0,0,.9-5c.17-2.43.29-5-1.74-6.83-1.85-1.68-3.89-3.14-5.78-4.76a2.59,2.59,0,0,1-.87-1.53c-.23-2.39-1.64-4-3.33-5.44-2-1.7-4.52-2.87-5.28-5.72-.1-.39-.65-.67-1-1-1.68-1.47-3.48-2.82-5-4.43-1.2-1.26-2.24-2.32-4.19-2.49a4.7,4.7,0,0,1-3.13-2c-2.78-4.53-5.36-9.18-7.92-13.83-1.4-2.54-2.8-4.87-6.21-4.89-.5,0-1.29-.82-1.44-1.4a52.22,52.22,0,0,1-1.72-7.8,9,9,0,0,0-2.42-5.5c-3.51-3.64-6.76-7.63-10.69-10.74-6.39-5.05-10.59-12-16.18-17.68a1.61,1.61,0,0,1,0-2.65,1.76,1.76,0,0,0,.44-1.1c.14-1.89-2.86-5.87-4.74-6.21-3.19-.58-4.36-3.33-5.94-5.55-1.14-1.6-1.69-3.63-2.88-5.18a36.84,36.84,0,0,0-4.37-4.15l.92-1.29c-5.88-.55-6.57-1.07-5.93-4.28L65,309.6c1.43-1.1,2.39-1.73,3.22-2.51a13.87,13.87,0,0,0,1.48-2c-1-.51-2.24-1.69-2.94-1.43-3.18,1.19-4.84-1-6.82-2.56a13.28,13.28,0,0,1-2.24-2.1c-2-2.5-4.23-3.25-7.17-1.69-1,.52-5.7-1.63-6-2.73-.16-.59.27-1.34.48-2.2-1.83-1.72-3.76-3.65-5.85-5.39a3.34,3.34,0,0,0-2.29-.33A2.62,2.62,0,0,1,33.79,285c-1.06-2.21-2.29-4.35-3.56-6.46A5.87,5.87,0,0,0,24,276c-2.54.46-2.95.06-2.54-2.48.95-5.88,1.93-4.46-3.27-8.62-2.21-1.77-4.47-3.49-6.65-5.29a2.09,2.09,0,0,1-.71-1.41,10,10,0,0,0-2.38-6A19.38,19.38,0,0,1,7,249.5c-1.56-3.08-1.59-3.11.79-5.56,1.28-1.32.84-2.76.57-4.24s-1.46-1.22-2.42-1.3c-1.74-.15-2.61-1-2.51-2.79.06-1-.07-2.06.05-3.08.2-1.65-.09-2.69-1.87-3.51-.84-.39-1.27-2.25-1.36-3.48-.05-.75.9-1.57,1.4-2.36s1.44-1.79,1.57-2.76c.08-.59-1-1.32-1.58-2S-.09,216.91,0,216.3c.14-.86,1.18-1.58,2.2-2.8-.37-1.06-.83-2.79,1.38-4,.4-.21.37-1.52.29-2.3-.19-1.77-.49-3.52-.82-5.27-.24-1.23.15-2,1.37-2.31,2.71-.62,4-2.4,4.78-5a49.08,49.08,0,0,1,3.3-6.8c-.61-1.3-3.54.55-3.26-2.18.19-1.87,1-3.26,3.16-3.42-.88-2.81,1.17-4.22,2.74-6.08-1.93-.9-1.51-2.1-.54-3.43,1.16-1.61,2.22-3.29,3.36-4.91,1.55-2.21,1.28-3-1.27-3.67a18,18,0,0,1-1.83-.77,38.8,38.8,0,0,1,4.63-2.79,4.57,4.57,0,0,0,3-4.81,39.3,39.3,0,0,1,.56-4.34c0-.35-.26-.72-.32-1.09s-.22-1,0-1.29c1.67-2.79,3.44-5.51,5.1-8.31a2.73,2.73,0,0,1,3-1.57c2.53.28,3.58-1.83,5-3.28-2.19-2.35-2.21-3,.13-5.16a27.8,27.8,0,0,1,3.59-2.72,9.12,9.12,0,0,0,4.25-6.48c.25-1.79.81-3.17,2.84-3.8a2.54,2.54,0,0,0,.91-4c-.94-.84-1.86-1.8-1-2.93.51-.68,1.78-.79,2.72-1.14a2.87,2.87,0,0,1,.7-.09c.55-2.53,1.16-5,1.58-7.41.36-2.1,1.39-2.58,3.29-1.89a6.61,6.61,0,0,0,2.61.44,2.29,2.29,0,0,0,1.53-1c.19-.3-.3-1-.36-1.48s-.28-1.44,0-1.88a42.67,42.67,0,0,1,2.93-3.69c1.51-1.83,1.51-1.86-.61-3.12-.23-.14-.45-.29-.79-.51.92-1.66.89-4.13,4-3.56,0-2.74,1.94-3.91,4.07-5.13-1.19-1.83,0-2.7,1.36-3.65,1.81-1.23,3.49-2.65,5.2-4,1.28-1,2-2.06.5-3.55-.89-.89-.48-1.6.67-1.91a.67.67,0,0,1,.2-.06c5.75.38,8.58-3.73,10.93-7.8,1.2-2.09,2.84-2.73,4.57-3.77,2-1.23,3.87-2.78,5.8-4.19a3,3,0,0,1,3.76-.2c2.19,1.37,4-.48,5.92-.81-.34-3.59-1-3.41,2.92-4.38,1.32-.33,2.66-.61,4-.93,1.33-3.35,4.08-4,6.92-1.55a6.7,6.7,0,0,0,1.17.83c2.47,1.32,3.29.81,3.25-2,0-.26,0-.53.06-.91,2,.18,3.53.75,4.52,2.65a3.53,3.53,0,0,0,2.34,1.34c3.92.67,8.06.29,11.71,2.85.67-2.28,1.88-1.79,3.63-1.42a21.7,21.7,0,0,0,7.86.15c2.43-.41,4.12,0,5.57,1.93,1.16,1.51,4,2.28,5.49,1.42.38-.22.59-1.15.52-1.7-.27-2.07.55-3.12,2.63-3.24s3.95-.32,5.92-.34,4-.39,5.41-2c1.23-1.36,2.28-1.61,3.37.15A8.47,8.47,0,0,0,186,44.68c.23-1.48.09-2.82.68-3.63s1.84-.72,3.13-1.15c-.4-2.33,1.75-3.27,3.34-4.72,1.26-1.16,2-2.82,3.2-4.11,1.6-1.76,3.31-3.43,5.06-5,.76-.7,1.33-1.21.86-2.39-.58-1.46.49-2,1.64-2.56q4.81-2.19,9.58-4.48c.46-.22.77-.76,1.13-1.17,1.75-1.94,3.49-3.89,5.25-5.82a1.93,1.93,0,0,1,.69-.43c3.39-1.4,6.75-2.88,10.19-4.14a5.87,5.87,0,0,1,2.79.26,37.87,37.87,0,0,0,3.89.85,1.62,1.62,0,0,0,1.92-2A1.81,1.81,0,0,1,241,1.93c1.4-.29,2.82-.47,4.23-.7,2.06-.34,4.15-.55,6.17-1.05a2,2,0,0,1,2.73,1.33c.93,2.24,2.39,3.64,5.07,3.61,1.92,0,2.7-.46,3-2.45.09-.65.31-1.29.66-2.67a32.52,32.52,0,0,1,3,3.53c1.24,2,2.68,2.84,5.09,2a32.76,32.76,0,0,1,5.29-1,1.27,1.27,0,0,1,.92.29c2.6,2.27,5.21,4.55,7.75,6.89a4.35,4.35,0,0,1,1,1.73c1.24,3.46,2.43,6.94,3.8,10.89.39-.78.56-1.08.69-1.4.63-1.51,1.4-1.34,2.15-.13,1.41,2.26,2.78,4.55,4.17,6.83l.74,1.24c1.21.34,2.42.36,2.58.78,1.91,4.91,5.89,8.36,8.64,12.67a7.31,7.31,0,0,1,1.06,3,15.23,15.23,0,0,0,4.06,9.31l1.38-2.24c.76.89,1.39,1.61,2,2.34,1.1,1.31,2.08,2.41,4.11,1.15.78-.48,2.45-.14,3.41.39,3,1.64,5.84,3.54,8.75,5.34a1.59,1.59,0,0,1,.41,2.73c-1.37,1.58-.68,2.55.86,3.34.79.41,1.56.85,2.35,1.25,2.81,1.41,3.06,1.37,5.7-1.05,1.45,1.09,3,2.24,4.51,3.36a1.8,1.8,0,0,0,1.1.4c1.77-.19,3.53-.46,5.3-.7.27,0,.57-.16.8-.08,2.79,1,5.57,2.07,8.47,3.16l-1.08,2.28c4.21.76,8.3,1.61,12.43,2.2,1.65.24,2.73.66,2.82,2.5.07,1.33.79,1.42,2,1.14a19.06,19.06,0,0,1,5.88-.82,8.86,8.86,0,0,1,4.35,2.08,5.64,5.64,0,0,0,3.32,1.53c.47,0,.85,1.36,1.17,1.92.87-.25,2-1,3.06-.77a7,7,0,0,1,3,2c1.31,1.2,2.29,2.46,4.54,1.65,1-.35,2.52.7,3.72,1.3,3.69,1.85,3.65,1.87,6-1.54.21-.3,1-.26,1.46-.3.13,0,.33.25.42.42,1.92,3.78,5.44,4.13,9.05,4.15a4.74,4.74,0,0,0,1.78-.6c2.69,1.4,5.13,2.77,7.66,4,1.82.86,2.64,2,2.06,4.07-.68,2.4,1.75,2.71,2.53,4.12,3.16-1.9,4.61-1.59,6.73,1.52.8,1.17,1.42,1.64,2.95,1.08,2.43-.89,4.75,1.1,4.73,3.74a2.84,2.84,0,0,0,3.12,2.51,4.78,4.78,0,0,0,1.14-.45c1-.52,2.23-1.38,3,0,.49.84.34,2.05.52,3.48l6.36,2.94c.49.23,1.15.36,1.44.75,1.06,1.44,2.23,2.28,4.08,1.48a.81.81,0,0,1,.75.21c1.85,2.82,5.28,3,7.79,4.66.56.38,1.08.81,1.7,1.29a6.46,6.46,0,0,0-1,2.06,3.64,3.64,0,0,0,.58,2.49,2.91,2.91,0,0,0,2.43.7c3.06-.86,5.07-.07,6.31,2.87.82,2,1.46,4,3.62,5,.23.11.23,1.15,0,1.62a11.52,11.52,0,0,1-1.6,2l3.62-.2.27,2.45a3,3,0,0,1,3.91,1,5.88,5.88,0,0,0,2.16,1.49c2.24,1,4.53,2,6.8,2.95l-.13.62,2.91-2.08c.24.33.44.48.45.64.16,3.06,2.82,4.8,3.9,7.38.19.46.94.71,1.46,1,1.18.63,2.38,1.22,3.56,1.84.18.09.37.34.5.31,2.49-.67,2.67,1.19,3.29,2.8a12.77,12.77,0,0,0,1.92,2.62c.89,1.21,1.78,2.41,2.63,3.64a2,2,0,0,1-.33,2.93c-1.81,1.64-1.34,3.62-.59,5.48a2.14,2.14,0,0,0,2,.59c1.81-.65,2.59,0,2.87,1.73.19,1.15.38,2.29.5,3.45.28,2.69.63,5.38.73,8.08a5.15,5.15,0,0,1-.94,2.68,7.62,7.62,0,0,1-1.91,1.84c-2.6,2-2,4.75-1.73,7.35a1.87,1.87,0,0,0,2.4,1.64C534.92,209.4,535.72,209.41,537.2,209.33Zm-298,307.39c2.79.17,6.83.32,10.85.67,9.87.85,18.37-2.45,25.65-8.84,5.75-5,11.2-10.43,16.64-15.81,7.72-7.63,16.32-13.71,27.08-16.19,4.79-1.11,9.72-1.77,14.38-3.27,8.58-2.76,17-5.89,25.48-9.05,5.82-2.18,11.66-4.39,17.23-7.11,8.78-4.27,15.61-11.17,22.74-17.7C411,428.7,418.8,416,421.2,400.13c1.67-11,4.85-21.63,10.6-31.25,10.72-18,21.4-35.95,32.58-53.61,7.16-11.31,14.88-22.32,23-33,5.89-7.77,12.75-14.81,19.23-22.14,6.21-7,10.38-14.95,10.67-24.49.34-11.07.65-22.15.62-33.22a34.48,34.48,0,0,0-4.93-18,78,78,0,0,0-14.21-17.71c-9.24-8.33-18.43-16.74-27.88-24.82A118.54,118.54,0,0,0,434,120.5q-20.5-7.46-40.68-15.79A272.42,272.42,0,0,0,363.43,94q-11.32-3.18-22.49-6.9c-14.5-4.84-27.52-12.18-37.53-24-5.69-6.72-10.9-13.86-16.25-20.86-4.45-5.82-8.87-11.64-14.79-16.11-7.25-5.46-15.29-7.63-24.15-5.29C235,24.4,222.44,29.62,211.3,37.71c-7.74,5.62-15.14,11.71-22.87,17.35-9.82,7.16-20.73,11.58-33.09,10.54-7.47-.63-14.88-2.1-22.29-3.36-7.85-1.34-15.54-1.64-22.74,2.52-2.72,1.57-5.41,3.21-8,4.95C91.29,77,82.41,86.14,76.69,98.2a50.35,50.35,0,0,1-5.77,9.67c-6.31,8-12.75,15.89-19.47,23.53a98.62,98.62,0,0,0-22.59,43.17c-1.67,7.11-3.77,14.12-5.73,21.15-1.22,4.34-2.66,8.62-3.82,13a39.65,39.65,0,0,0,2.46,28c4.51,9.47,10.94,17.64,17.8,25.47C51.1,275.34,64.51,286.5,77.7,297.91c8.53,7.38,17.1,14.75,25,22.75,6.47,6.54,11.87,14.12,18,21,11,12.44,21.22,25.43,29.07,40.1a86.08,86.08,0,0,0,27.58,30.64c4.78,3.3,9.64,6.51,14.22,10.08,6,4.67,9.77,10.73,9.8,18.57a73.93,73.93,0,0,1-.65,10.83c-1.2,8.25-2.85,16.43-4,24.69a30.13,30.13,0,0,0,2.74,17.6,119.33,119.33,0,0,1,4.84,11.08c2.5,6.75,7.33,10.22,14.38,10.62C225.14,516.27,231.56,516.43,239.23,516.72Z" />
            <path class="cls-2" d="M513,215.74c-.42,6.69-.77,13.38-1.29,20.06-.81,10.4-5.41,19.12-12.43,26.61a304,304,0,0,0-32.45,41c-9.84,15-19.17,30.24-27.74,46-3.27,6-6.86,11.82-10.36,17.7a81.18,81.18,0,0,0-11,31.92,96.81,96.81,0,0,1-2.69,12.17c-2,7.92-6.89,14.21-12.21,20.15-9.08,10.14-18.73,19.64-31.4,25.29-8,3.59-16.23,6.89-24.36,10.29a109,109,0,0,1-24.95,7.19c-10.74,1.71-19.77,6.89-27.68,14.19q-8.21,7.58-16.4,15.18c-7.51,7-16.07,11-26.61,9.79-1.9-.23-3.82-.31-5.73-.4-7-.32-14.07-.58-21.1-.93a36.2,36.2,0,0,1-6.5-.73c-4.11-1-7.16-3.34-8.52-7.51-.7-2.14-1.31-4.32-2-6.46-1.19-3.63-2.24-7.32-3.69-10.85-3-7.37-2.66-14.83-1.13-22.39,1.25-6.16,2.79-12.28,3.63-18.5a47.35,47.35,0,0,0-.23-11.44c-.83-7.44-5.39-12.59-11.28-16.59-4.24-2.87-8.79-5.27-13.14-8a76,76,0,0,1-25.65-26.09c-10.2-17.36-23-32.71-35.75-48.2-15.82-19.27-33.85-36.27-52.26-52.94-12.28-11.12-24.21-22.62-33.59-36.41a81.62,81.62,0,0,1-7.27-13C23.54,224.25,24,215.55,27,206.9c3.2-9.16,6.66-18.28,7.8-28,2.12-18,10.61-32.69,22.66-45.69,7.4-8,14.87-15.89,20.59-25.23,3.25-5.31,6.22-10.79,9.71-15.93a67.73,67.73,0,0,1,24.52-21.67c6.49-3.48,13.4-3.27,20.42-2.36,8.47,1.09,16.93,2.34,25.44,3,12.71,1,24.23-2.86,34.53-10.11,8.1-5.7,15.94-11.75,23.76-17.83,9-7,19.31-11,30.06-14.11,10-2.85,18.73.3,25.85,7.16,6.37,6.15,12,13.06,17.81,19.8,7.5,8.74,15.1,17.34,25,23.56,9,5.66,18.81,9.29,28.83,12.53,12.51,4.06,25.33,7.13,37.49,12.3,13.07,5.55,26.23,10.85,39.41,16.14,6.14,2.47,12.45,4.52,18.59,7a87.47,87.47,0,0,1,25.22,15.9c11,9.68,21.55,19.78,32.1,29.9a55.41,55.41,0,0,1,12.64,17.31C512.46,197.46,513.59,205.51,513,215.74ZM242.54,509.17v.91c4.17,0,8.35-.25,12.5.05,8.31.61,15.32-2.12,21.42-7.55,5.47-4.86,11-9.69,16.32-14.67,9.16-8.51,19.78-14.11,32.15-16.07,10.57-1.68,20.47-5.27,30.1-9.77,3.71-1.73,7.47-3.4,11.26-4.95,17.74-7.21,30.85-20,41.88-35.12,5.43-7.45,7.14-16.34,8.34-25.24,1.33-9.88,4-19.3,9.06-27.88C437.53,348.47,449.41,328,461.9,308a259.44,259.44,0,0,1,32.94-42.89c9.65-10.05,15.53-21.72,15-36.07a54.29,54.29,0,0,1,.38-10.23c1.38-8.84,1-17.43-2.41-25.78a56,56,0,0,0-13.34-19.29q-16-15.34-32.56-30a94.78,94.78,0,0,0-30-17.74c-10-3.74-20.16-7.3-30.11-11.26-9.44-3.76-18.56-8.36-28.1-11.84C362,98.53,350,95.12,338.15,91.19,325.61,87,313.6,81.66,303.91,72.45c-7.12-6.77-13.68-14.14-20.33-21.4-4.57-5-8.72-10.37-14.25-14.4-7-5.09-14.53-7.54-23.13-4.92-10.64,3.25-21,7.19-29.61,14.54-6.72,5.7-13.47,11.34-21.09,15.91-12.27,7.37-25.31,11.69-39.74,10.57-7.35-.57-14.65-1.81-22-2.67-6.93-.82-13.84-1-20.29,2.27A62,62,0,0,0,88.34,95c-3.78,6.1-7,12.62-11.29,18.32-5.67,7.51-12.06,14.5-18.34,21.53-9,10.09-16.42,21-19.27,34.52-1.16,5.48-1.53,11.13-2.88,16.55-1.61,6.48-3.89,12.79-5.87,19.17-1.79,5.77-3.3,11.58-2.76,17.71.74,8.5,4.77,15.62,9.5,22.4C45,256,54.22,265.34,63.73,274.42S83,292.72,92.65,301.77c11.78,11,22,23.43,32.34,35.7,12.19,14.43,24.1,29,33.95,45.21a67.57,67.57,0,0,0,20.54,21.49c4.61,3,9.44,5.78,14.26,8.51,12.34,7,17.21,17.67,15.53,31.48-.66,5.42-1.64,10.82-2.76,16.17-1.3,6.2-1.57,12.28.16,18.46,1.79,6.38,3.38,12.82,4.89,19.27,1.71,7.29,4.88,10.21,12.32,11,1.09.11,2.19.13,3.28.13C232.28,509.18,237.41,509.17,242.54,509.17Z" />
            <path class="cls-3" d="M243.28,506.74c-5.33,0-10.67.05-16,0a23.94,23.94,0,0,1-5.07-.68,9.52,9.52,0,0,1-7.6-7.24c-.71-2.84-1.08-5.77-1.58-8.66-.9-5.17-1.44-10.44-2.75-15.5a46.05,46.05,0,0,1-.56-18.9,135.23,135.23,0,0,0,1.86-18.12c.18-10.64-4.55-19-13.45-24.83-4.57-3-9.46-5.48-14.11-8.36-10.68-6.62-18.89-15.71-25.64-26.17-12.46-19.31-27.32-36.74-42.22-54.14a542.11,542.11,0,0,0-44.31-45.28c-9.6-8.87-19-17.94-27-28.37a114.17,114.17,0,0,1-10.94-16.78,31.54,31.54,0,0,1-1.15-26.49,153.94,153.94,0,0,0,8.83-35.93c1.63-12.53,7.83-23.21,16.08-32.69,6.51-7.47,13.35-14.69,19.44-22.5,4.44-5.69,7.94-12.11,11.76-18.26a67.05,67.05,0,0,1,23.56-22.67c6.83-4,14.18-4.18,21.69-3.37,7.2.77,14.37,2,21.59,2.55,16.67,1.34,31.61-3.84,45.14-13.17,6.85-4.72,13.17-10.2,19.78-15.27,8.42-6.46,18.15-10.06,28.39-12.22,7.54-1.58,14.37,1,20.06,5.76a146.85,146.85,0,0,1,13.82,13.66c7.58,8.18,15,16.49,23.88,23.35,10.71,8.28,23,13.22,35.76,17.26,8.9,2.82,17.94,5.25,26.66,8.54,11.22,4.24,22.13,9.32,33.28,13.77,9.76,3.9,19.64,7.5,29.52,11.09a90.28,90.28,0,0,1,29.52,18.15c11.13,10,22,20.34,32.6,30.88,3.79,3.76,6.79,8.4,9.73,12.9,4.18,6.4,5.41,13.75,5.14,21.23-.33,9.15-1,18.3-1.81,27.42-.75,8.62-4.71,15.91-10.16,22.44-6.14,7.35-12.62,14.43-18.44,22a462.87,462.87,0,0,0-36.23,54.42c-5,8.88-10.15,17.67-15.35,26.43a87.56,87.56,0,0,0-12,35.22,54.58,54.58,0,0,1-13.86,30.68c-9.07,10.29-18.91,19.64-31.62,25.33-10.59,4.74-21.22,9.45-32,13.61-4.78,1.84-10.08,2.4-15.17,3.37-12.17,2.3-22.16,8.55-31.2,16.72-5.57,5-11.35,9.86-17.17,14.62a22.62,22.62,0,0,1-14.26,5c-5.47.09-10.94,0-16.41,0Zm2.08-2.76v.89c4.92,0,9.85-.15,14.77,0,6.34.23,11.38-2.8,16.09-6.34,5.72-4.32,11.19-9,16.62-13.67,9.23-8,19.42-13.82,31.66-15.77,5.24-.84,10.63-1.57,15.55-3.43,7.91-3,15.44-6.95,23.21-10.29a96.63,96.63,0,0,0,30-20.09c11-10.86,19-23.11,20.58-39,1.13-11.72,5.21-22.57,11-32.78,3.56-6.24,7.16-12.45,10.65-18.72a492.41,492.41,0,0,1,57.24-82.16c7.07-8.2,11.86-17.35,12.68-28.3.64-8.52,1.65-17,1.65-25.57,0-4.59-1.36-9.33-2.85-13.75-2.13-6.3-6.27-11.52-10.68-16.42-11.59-12.88-24.41-24.5-37.6-35.7a85.59,85.59,0,0,0-25.82-15.22C414.89,122,399.64,116.42,384.72,110c-13.38-5.74-26.85-11-40.91-14.79-19.24-5.18-36.22-14.4-50.3-28.66-7.26-7.34-14.42-14.78-21.73-22.07-4.33-4.32-9.32-7.61-15.57-8.5-4.4-.62-8.56.45-12.67,1.82C233,41.35,223,45.77,214.87,53.64A83.82,83.82,0,0,1,196.8,66.35C185,72.84,172.57,76.85,159,76.13c-7.91-.42-15.78-1.51-23.66-2.37-9.49-1-18.27.34-26.25,6.19a69.49,69.49,0,0,0-19.27,21A145.91,145.91,0,0,1,73.06,124.5c-4.28,4.8-8.48,9.67-12.83,14.41C50.6,149.4,44.85,161.62,44,175.9c-.46,7.56-2.57,14.64-5.15,21.65-1,2.63-1.73,5.33-2.65,8-4.75,13.56-1.89,25.75,6.25,37.21,7.65,10.76,16.63,20.31,26,29.49,10.08,9.84,20.52,19.34,30.22,29.54,10.4,10.94,20.25,22.42,30.13,33.85,11.22,13,22.09,26.24,31.38,40.74,5.67,8.85,12.45,16.87,21.23,22.87,4.67,3.2,9.65,6,14.5,8.9,11.85,7.19,18.49,17.41,18.1,31.58-.13,4.58-.62,9.14-.92,13.71s-1,9.22.75,13.61a38.32,38.32,0,0,1,2.44,16.08,61.24,61.24,0,0,0,.49,10.83c.9,6.16,4,8.92,10.15,9.71a41.51,41.51,0,0,0,4.91.32C236.34,504,240.85,504,245.36,504Z" />
            <path class="cls-4" d="M248,501.28c-5,0-10,.07-15,0-9.43-.17-12.76-3.39-12.75-12.82a117.87,117.87,0,0,1,1.08-13.9c.64-5.33.08-10.35-2.62-15.07-2.11-3.68-1.8-7.79-1.82-11.82,0-4.85.28-9.72-.06-14.55-.76-10.89-6.39-19-15.29-24.95-4.83-3.22-9.87-6.14-14.77-9.25a73.05,73.05,0,0,1-21.95-22.13c-9.31-14.24-20.05-27.32-31.14-40.16-10.63-12.32-21-24.89-31.92-36.93C93.21,290.28,84,281.47,75,272.5c-11.27-11.22-22.08-22.79-30.28-36.55-5-8.42-6.32-17.22-3.11-26.56,2.11-6.14,4.46-12.21,6.34-18.42a34.39,34.39,0,0,0,1.78-10.44c-.34-16.24,5.67-29.75,16.44-41.63C73.75,130.54,80.9,121.8,88,113c3.42-4.25,6.07-9.11,9.35-13.48a67.52,67.52,0,0,1,20.09-17.62c6.38-3.75,13.44-3.81,20.55-3.22,8.1.67,16.2,2,24.31,1.95,20.08,0,37.89-6.82,53.18-19.85,7.19-6.13,14.68-11.62,23.79-14.59,5.11-1.67,10.24-3.06,15.68-2.4,6.38.77,11.53,4,16.21,8.19,8.39,7.44,16.67,15,25.18,22.3,12,10.34,26,17.21,41.09,21.91,10.93,3.39,21.9,6.73,32.55,10.88,16.77,6.54,33.29,13.72,49.91,20.65,6,2.52,12.16,4.9,18.08,7.7,8.64,4.09,15.55,10.58,22.54,16.94A292.89,292.89,0,0,1,491.61,185c6.53,8.11,11.19,17.08,10.81,27.89-.17,4.85-.61,9.69-1,14.53-.23,2.93-.52,5.86-.9,8.77-1.39,10.61-6.71,19.44-13,27.69-6.79,8.84-14.12,17.27-20.79,26.2a395,395,0,0,0-33.19,52.7q-4.34,8.26-9.1,16.29c-7.17,12.09-12.15,24.95-13.42,39-1.29,14.23-8.45,25.29-18.14,35.12A87.45,87.45,0,0,1,368,451c-5.62,2.67-11.23,5.36-16.78,8.16-7.85,4-15.91,7.13-24.74,8.29-13.59,1.79-25.09,8.07-35.25,17.07-6.35,5.63-12.87,11-20.45,15a16.25,16.25,0,0,1-8.21,2.11c-4.85-.13-9.71,0-14.57,0Zm-.61-2.63v.19c4.58,0,9.16,0,13.74,0a31.13,31.13,0,0,0,19.58-7.35c5.75-4.63,11.54-9.21,17.47-13.6,8.54-6.33,18-10.61,28.66-11.78,8.37-.92,16-3.85,23.38-7.75,6.4-3.38,12.86-6.67,19.32-9.94a85.79,85.79,0,0,0,24-17.65c8.31-8.81,14.27-18.78,15.8-31.24,1.46-11.88,4.23-23.52,10.17-34.16,2.73-4.89,5.14-10,7.92-14.83,7.27-12.76,14.14-25.79,22.14-38.08,7.71-11.84,16.63-22.89,25-34.28,4.83-6.55,9.84-13,14.47-19.65,7.52-10.86,10.37-23.19,10.92-36.22.25-5.89.69-11.76-.76-17.55-2.08-8.3-6.75-15.2-12.14-21.64a353.63,353.63,0,0,0-28.34-30.2c-10.12-9.56-21.13-17.61-34.4-22.51-13.88-5.12-27.57-10.79-41.22-16.51-10.82-4.53-21.56-9.19-32.78-12.71-8.9-2.79-17.76-5.76-26.51-9-12.56-4.62-23.11-12.56-33.31-21-7.8-6.44-15.46-13.06-23.3-19.45-5.41-4.41-11.58-7.12-18.65-5.06-6.48,1.89-13.05,3.85-19.06,6.83-5.25,2.61-9.94,6.47-14.6,10.14-18.4,14.5-39.23,20.4-62.49,18.29-7.21-.65-14.45-1.12-21.69-1.3a21.51,21.51,0,0,0-13.12,4.09c-7.12,5-13.82,10.64-19,17.67q-15,20.23-31.84,38.87a53.43,53.43,0,0,0-14.12,35.22,62.93,62.93,0,0,1-4.71,22.79q-1.52,3.59-2.79,7.28c-2.58,7.49-3.7,15.14-.41,22.63A88.86,88.86,0,0,0,52,242.24a96.65,96.65,0,0,0,13.72,17c5.64,5.38,10.85,11.19,16.26,16.8,7.6,7.87,15.48,15.48,22.74,23.66,10.48,11.81,20.54,24,30.7,36.09,9.45,11.25,19.27,22.2,27.49,34.44,4.46,6.64,9,13.2,14.84,18.8,6.2,6,13.35,10.65,20.62,15.17s13.39,9.92,17.12,17.76c2.86,6,3.54,12.44,3.64,19a44.93,44.93,0,0,0,2.59,15.48,32.21,32.21,0,0,1,2,15.11,131.11,131.11,0,0,0-1,17c.12,6.8,2.85,9.57,9.64,10.06C237.35,498.93,242.36,498.65,247.35,498.65Z" />
            <path class="cls-5" d="M248.75,496.37c-4,0-7.93,0-11.9,0a19,19,0,0,1-2.85-.28c-5.13-.82-8-3.68-7.87-8.88a160.35,160.35,0,0,1,1.34-17c.92-7.29.73-14.26-3.06-20.89-2.26-4-1.89-8.61-2.51-13a88.29,88.29,0,0,0-2.68-13.82c-2-6.54-6.56-11.46-11.95-15.53a80.35,80.35,0,0,0-8.45-5.81,82.34,82.34,0,0,1-28-25.48c-12.35-18.31-27-34.74-41.17-51.58-7.83-9.31-15.29-18.95-23.4-28-10.12-11.32-20.68-22.24-31.13-33.25-7-7.41-13.79-15-19.22-23.72A65.11,65.11,0,0,1,49.69,227c-2.76-7.64-.82-15.06,2.1-22.34,2.08-5.19,4.36-10.39,5.55-15.81,1.07-4.88,1-10.06,1-15.1.06-11.63,4.12-21.56,11.78-30.24,7.88-8.92,15.75-17.86,23.25-27.08,5.22-6.42,9.82-13.34,16.21-18.73,2.66-2.25,5.48-4.32,8.14-6.58,6.26-5.31,13.59-7,21.6-6.64,7.31.37,14.62.85,21.93,1,19.66.39,37.44-5.54,53.36-16.87,8.68-6.18,17.58-11.68,27.78-15.12,10-3.35,18.67-1.67,26.81,4.56,9.28,7.11,18.54,14.23,27.87,21.28,12.81,9.68,27.24,16,42.56,20.47,27.88,8,54.09,20.33,80.73,31.54,6.29,2.65,12.56,5.38,18.61,8.52,7.49,3.89,13.24,10.07,19.31,15.79,10.84,10.22,19.85,22,29.25,33.51,8.79,10.72,10.73,23,9.73,36.43A69.62,69.62,0,0,1,484,262.5c-7.72,10.53-15.55,21-23.33,31.48a364.57,364.57,0,0,0-32.18,51.63c-3.32,6.52-6.93,12.89-10.26,19.4a95.48,95.48,0,0,0-9.8,33.64c-1.4,13.08-7.67,23.61-16.7,32.75a80.39,80.39,0,0,1-20.91,15c-7.43,3.79-14.86,7.56-22.22,11.49a65.86,65.86,0,0,1-22.18,6.9c-10.88,1.52-20.48,6.12-29.23,12.61-5.16,3.83-10.26,7.74-15.41,11.58a37.22,37.22,0,0,1-22.19,7.43c-3.62.06-7.25,0-10.87,0Zm2.46-2.54V494c2.46,0,4.92,0,7.38,0a41.52,41.52,0,0,0,26.78-9.27c2.89-2.29,6-4.35,8.91-6.57,8.93-6.72,18.43-12.22,29.6-14.35,4.62-.88,9.43-1.38,13.76-3.07a201.92,201.92,0,0,0,20-9.4c8.29-4.33,16.75-8.49,24.49-13.69,12-8,20.75-18.82,23.95-33.31,1.31-5.93,2.05-12,3.3-17.92A100.68,100.68,0,0,1,419.89,359c7.25-13.32,13.88-27,22-39.8,9.05-14.22,19.63-27.46,29.27-41.31,5.58-8,10.81-16.3,15.86-24.66,6-9.95,7.41-21.1,8.08-32.49.66-11.19-2.78-20.86-9.43-29.6-2.48-3.27-5-6.47-7.55-9.72a230.79,230.79,0,0,0-21.42-24.82c-8.06-7.85-16.23-15.5-26.78-20-12.49-5.33-25-10.61-37.45-16-18.07-7.87-36.36-15.13-55.34-20.55a131.12,131.12,0,0,1-41.35-20.22c-8.9-6.47-17.76-13-26.67-19.47-8.13-5.89-16.78-7.45-26.55-4.18-10.53,3.53-19.78,9.13-28.91,15.25C198.37,81.61,181.47,87.14,163,87.08c-7.72,0-15.45-.58-23.17-.69-5.59-.08-11.13.59-15.95,3.76C116,95.28,108.61,100.89,102.52,108,92.2,120.17,82,132.42,71.72,144.58,65,152.5,61.38,161.49,61.32,172a64.48,64.48,0,0,1-1.14,13.87A123.74,123.74,0,0,1,54.48,204c-4.61,11.61-4,22.47,3,33,7.79,11.68,17.27,21.88,26.92,32,5.57,5.84,11.22,11.63,16.46,17.76,12.39,14.5,24.51,29.23,36.82,43.8,10.77,12.75,21.51,25.49,31,39.28,5.39,7.84,11.26,15.38,18.78,21.33,5.24,4.15,10.86,7.84,16.36,11.66,10.69,7.42,18,16.88,19.64,30.3a67.84,67.84,0,0,0,3.78,15.47,40.37,40.37,0,0,1,2.29,18.53c-.55,5.51-1.19,11-1.43,16.55-.28,6.37,2.64,9.7,9,10.14C241.75,494.1,246.49,493.83,251.2,493.83Z" />
            <path class="cls-6" d="M154.34,88a88.67,88.67,0,0,0,43-6.18C206,78.2,213.88,73.12,221.7,68a80,80,0,0,1,26-10.83c7.87-1.84,14.7.94,21,5.26,9.6,6.55,19.11,13.23,28.7,19.79a140.44,140.44,0,0,0,39.1,18.47,537.72,537.72,0,0,1,59,21.87q17.09,7.41,34.07,15.08c10.29,4.63,18.58,11.95,26.19,20.09a310.16,310.16,0,0,1,31.56,40.59,33.2,33.2,0,0,1,5.51,20c-.37,10.31-1.59,20.47-5.43,30.13-3.11,7.8-7.61,14.85-12.46,21.65-8.43,11.8-17,23.48-25.53,35.22-10.72,14.77-19.4,30.72-27.57,47-5.15,10.27-10.44,20.47-12.86,31.81C407.78,390,407,396,405.73,401.87c-3.19,15-11.46,26.45-24.13,35-8.38,5.68-17.63,9.62-26.51,14.29-5.31,2.8-10.57,5.81-16.16,7.93-4.35,1.64-9.15,2.14-13.77,3-10.53,1.93-19.63,6.91-28.25,13-5,3.5-9.94,7-15,10.36a39,39,0,0,1-19.71,6.2c-8.13.47-16.25,1.17-24.38.16-5.29-.65-7.41-2.76-7.57-8.12-.13-4.36.24-8.74.47-13.11.12-2.32.37-4.64.62-7A35.66,35.66,0,0,0,228.4,445a46.48,46.48,0,0,1-3.73-13.37c-1.42-11.37-7.68-19.87-16.41-26.72-4.68-3.67-9.61-7-14.46-10.45-9.11-6.47-16.29-14.83-22.68-23.82-11.79-16.57-24.89-32.09-37.87-47.7-8.34-10-16.44-20.3-25-30.13C98.51,281.69,88.28,271,78.45,260c-7.23-8.12-14.19-16.46-19.86-25.82a30.19,30.19,0,0,1-3.36-25.41c2.17-7.2,4.8-14.26,6.89-21.47.88-3,1-6.32,1.3-9.51.53-5.37.57-10.81,1.48-16.1,1.31-7.57,5.63-13.78,10.51-19.47q14.69-17.13,29.79-33.91c5.6-6.23,12.27-11.29,19.19-16A26.58,26.58,0,0,1,139.16,88C144.22,87.87,149.28,88,154.34,88Zm1.22,2c-6.39,0-11.11-.12-15.83,0a24.42,24.42,0,0,0-12.5,3.52c-7.19,4.55-14.07,9.55-19.86,15.8-9.06,9.79-17.69,20-26.86,29.65-9,9.52-14.2,20.45-14.4,33.65a86.24,86.24,0,0,1-6,29.8c-1,2.67-1.72,5.48-2.55,8.23A24.07,24.07,0,0,0,59,228.83a118.6,118.6,0,0,0,18.71,27.1c8.86,9.88,18.06,19.46,26.72,29.5,10.18,11.8,19.9,24,29.91,36,12.69,15.15,25.54,30.15,36.78,46.45A116,116,0,0,0,202,398.67a109,109,0,0,1,11.61,9.42A38.06,38.06,0,0,1,225,426.25c1.93,6.69,4.22,13.27,6.32,19.91a15.37,15.37,0,0,1,.92,3.77c.27,5.66.55,11.32.55,17,0,5.12-.63,10.24-.49,15.35.12,4.49,2.68,6.76,7.14,7.23a113.7,113.7,0,0,0,22.52.08c9.63-.9,18.4-3.79,26.13-9.74,3.08-2.37,6.33-4.55,9.58-6.7,8.82-5.83,18-10.93,28.62-12.68,6.29-1,12.52-2.16,18.24-5.17,11-5.75,22-11.38,32.86-17.25,16.19-8.75,25.24-22.61,28.06-40.58,2-12.49,5-24.63,10.47-36,4.44-9.23,9-18.44,13.83-27.46a207.47,207.47,0,0,1,11.59-19.09c10.19-14.82,20.78-29.36,31-44.15,9.15-13.23,16.45-27.2,17.62-43.78.77-10.91-.2-21.19-6.86-30.28-8.32-11.36-16.43-22.9-25.17-33.93-7.33-9.25-16-17.33-26.64-22.77-6.38-3.25-13-6.1-19.5-9.07-21.73-9.9-43.58-19.54-66.52-26.32-21-6.22-40.61-15.07-58.44-27.91-7.3-5.26-15.07-9.91-22.83-14.49a22.3,22.3,0,0,0-16.88-2.24,91.55,91.55,0,0,0-30.07,13.2,102.75,102.75,0,0,1-35.41,15.09C172.49,90.21,163.19,90.19,155.56,90Z" />
            <path class="cls-7" d="M251.1,488.34c-2.71-.24-6.28-.39-9.78-.92-4.15-.63-6.44-2.74-6.6-6.91a106.49,106.49,0,0,1,.59-15.95c1-9,.62-17.67-3.67-26a48.34,48.34,0,0,1-3.46-10.71c-2.55-10.43-8.35-18.61-16.83-25-4.31-3.25-8.63-6.51-13-9.66-9.34-6.73-16.75-15.29-23.27-24.65-12.24-17.6-26.46-33.63-39.72-50.41C127.47,308.16,120,297.88,112,288c-8.55-10.59-17.57-20.8-26.2-31.33-5.67-6.92-11.27-13.93-16.46-21.21-4.79-6.72-7.22-14.31-5.38-22.69a32.68,32.68,0,0,1,2.8-8.11c5.09-9.71,6.56-20,5.84-30.82-.81-12.19,3.43-22.44,12-31.14,9-9.12,17.34-18.85,26.6-27.64,6.16-5.84,13.33-10.65,20.25-15.65,5.14-3.72,11.31-4.27,17.44-4.48,5.33-.18,10.67-.24,16-.36,16.57-.37,32-5,46.78-12.25,8.88-4.38,17.8-8.74,26.94-12.52,10.59-4.38,21.15-3.62,31.22,2,9.71,5.45,19.42,10.9,29,16.5,14.08,8.19,29.18,13.88,44.73,18.44a396.24,396.24,0,0,1,60.06,23.12c8.8,4.23,17.56,8.57,26.16,13.18a76.32,76.32,0,0,1,29.93,28.47c5.49,9.13,11.27,18.12,17.45,26.8,6.94,9.72,8.78,20.37,7.71,31.93-1.14,12.28-5.65,23.38-11.9,33.77-5.67,9.42-11.71,18.64-17.93,27.72-9.61,14-20,27.56-27.56,42.89-7,14.27-14.63,28.33-19.19,43.66A145.3,145.3,0,0,0,404,398.7c-2.5,17.1-11.44,29.67-26.38,37.87-11,6-22.23,11.46-33.43,17a65.33,65.33,0,0,1-17.38,5.33c-11.48,2.1-21.32,7.84-30.88,14.16-3.81,2.52-7.59,5.11-11.44,7.57A44.23,44.23,0,0,1,264,487.35C260,487.7,256,488,251.1,488.34Zm-12-26.2c.22,3.28.37,8,.91,12.67.39,3.37,2.65,5.48,5.86,6.44a13,13,0,0,0,4.22.74c7.23-.36,14.5-.52,21.67-1.42,8-1,14.68-5.37,21.25-9.72,7.36-4.88,14.82-9.56,23.1-12.74,4.2-1.61,8.58-2.74,12.81-4.26,6.15-2.22,12.56-4,18.3-7,9.21-4.86,18.58-9.28,28.2-13.22,10.44-4.28,18.27-11.2,22-22.11a93.9,93.9,0,0,0,3.84-13.36,207.11,207.11,0,0,1,13.23-44.88c6.81-15.88,14.17-31.4,24.61-45.28C451,292.24,461.31,275.64,469,257.44c3.79-8.94,6.89-18,7.79-27.72,1-10.7-2.22-20.32-8.33-29A129.79,129.79,0,0,1,455.56,178c-6.08-13.85-15.39-24.76-28.75-32.07-7.73-4.23-15.4-8.57-23.16-12.75-17.8-9.58-36.62-16.59-56-22.22a265.92,265.92,0,0,1-50-19.68c-9.23-4.86-18.83-9-28.35-13.33A38.5,38.5,0,0,0,239,76.78c-8.11,3.07-16.23,6.2-24.08,9.87-17.19,8-35,13.18-54.11,13.15-7.22,0-14.4.45-21,3.69-8.51,4.15-16.86,8.73-23.84,15.12-8.67,7.93-16.69,16.56-25,24.84a38.38,38.38,0,0,0-11.62,24.06c-.5,5-.78,10-1.22,14.92-.78,8.8-3.53,17.12-6.13,25.48A26.42,26.42,0,0,0,75,230.74c2.65,4.22,5.53,8.32,8.56,12.28,9.68,12.67,19.53,25.2,29.21,37.87,8.3,10.87,16.32,21.94,24.67,32.77q17.91,23.23,36.12,46.22c6.39,8.1,12.5,16.51,19.64,23.9,6.38,6.6,13.9,12.12,21.11,17.88,8.1,6.47,14.57,14,17.58,24.13a44,44,0,0,0,2.42,6.32C238.56,441.18,239.94,450.76,239.13,462.14ZM402,401c-.19.69-.38,1.38-.57,2.07-1.83,6.47-4,12.79-8.11,18.24-5.28,7-12.51,11.25-20.3,14.86-8.06,3.73-16,7.7-23.91,11.75-5.18,2.66-10.32,5.33-16.08,6.53a104.58,104.58,0,0,0-37,15.93c-5.22,3.48-10.52,7-16.21,9.58-11.1,5-23,5.1-34.85,3.78-4.2-.47-6.19-2.76-7-6.93a18.8,18.8,0,0,1-.37-3.87c.07-4.72.16-9.44.38-14.15.24-5.1.12-10.18-1.47-15-2-6-4.45-11.91-6.41-18a45,45,0,0,0-14.24-20.91c-5-4.23-10-8.53-15.14-12.6a108,108,0,0,1-20.74-21.19c-5.82-8-11.59-16.09-17.71-23.89-12.11-15.44-24.54-30.63-36.65-46.06-6.92-8.82-13.29-18.07-20.23-26.88-8.21-10.42-17-20.43-25.09-30.91a90.3,90.3,0,0,1-10-15.94c-3.85-8-2.78-16.29.36-24.34A89.86,89.86,0,0,0,76.53,171a37.44,37.44,0,0,1,8.71-24.22c3.49-4.2,7.52-7.94,11.15-12,11.1-12.53,23.3-23.74,38.16-31.69A36.7,36.7,0,0,1,145,99.12a80.79,80.79,0,0,1,15.3-1.23,106.74,106.74,0,0,0,45-9.36c9.37-4.16,18.65-8.51,28-12.64,11-4.85,22.31-6,33.63-1.08,7.38,3.22,14.8,6.46,21.85,10.33,17.76,9.75,36,18.26,55.56,23.8a342.24,342.24,0,0,1,40.32,14c14.94,6.33,29.09,14.17,43.31,21.86a64.63,64.63,0,0,1,23.8,21.25c3,4.54,5.1,9.65,7.86,14.36,4.19,7.13,8.45,14.23,12.94,21.18,5.82,9,8.86,18.57,7.16,29.38a107.4,107.4,0,0,1-6.8,23.8c-6.73,16.54-16.06,31.54-26.79,45.72a241.64,241.64,0,0,0-35.92,66.92c-.26.74-.48,1.5-.72,2.25a2.15,2.15,0,0,0,.91-1.22c9.23-22.26,19.37-44,33.63-63.64,7.95-10.95,15.43-22.26,22.54-33.77,6.85-11.08,12.21-22.89,14.68-35.88,2.53-13.32.65-25.59-7.69-36.54A172.69,172.69,0,0,1,458.82,175c-6.32-11.87-14.73-21.91-26.52-28.68-6.69-3.84-13.62-7.25-20.41-10.92a338.25,338.25,0,0,0-65-26.57c-16.63-4.94-33-10.57-48.14-19.25q-14.67-8.39-29.78-16c-8.75-4.4-18-5.45-27.46-2.11-5,1.76-9.94,3.5-14.75,5.63-7.81,3.45-15.41,7.39-23.25,10.77a96.34,96.34,0,0,1-31.85,7.93c-7.44.49-14.89.76-22.33,1.17-5.87.32-11.47,1.47-16.53,4.78-11.09,7.24-21.64,15.09-30.55,25-5.66,6.31-11.92,12.09-17.43,18.52a39.44,39.44,0,0,0-9.72,29.41,32.13,32.13,0,0,1-.5,9.78c-1.89,7.69-3.95,15.37-6.58,22.82-3.12,8.84-2.6,17.15,2.48,24.92,4,6.11,8.31,12,12.86,17.75,7.59,9.52,15.67,18.65,23.22,28.2,11,13.89,21.66,28,32.52,42,12.54,16.14,25.26,32.14,37.65,48.4,7.72,10.13,16.1,19.47,26.58,26.86a142.73,142.73,0,0,1,11.26,9.23c6.65,5.79,12.2,12.33,14.51,21.15a55,55,0,0,0,3.3,8.82,51.54,51.54,0,0,1,4.81,23.71c-.18,4.78-.7,9.55-.89,14.33-.41,9.88,2.5,12.94,12.39,13.33,16.22.64,31.23-2.43,44.6-12.54a93.15,93.15,0,0,1,35.33-16.7,78.18,78.18,0,0,0,15.31-5.07c11.51-5.37,22.8-11.22,34.16-16.92a42.25,42.25,0,0,0,14.28-11.15C397.72,417,401.4,409.69,402,401Z" />
            <path class="cls-8" d="M241.07,460.05c1.53-17.1-5.1-31.93-13-46.3-3.18-5.77-8.47-9.8-13.58-13.83-8.54-6.73-17.37-13.19-24.38-21.59-5.64-6.77-10.81-13.93-16.21-20.9-11.27-14.53-22.75-28.91-33.79-43.62-9.11-12.13-17.65-24.68-26.58-37-7.72-10.62-15.66-21.09-23.43-31.67-3.4-4.63-6.67-9.36-9.92-14.09-5.23-7.6-6.5-15.81-2.8-24.34,3.89-9,5.1-18.35,5.45-28a140.82,140.82,0,0,1,1.75-16.91,26.54,26.54,0,0,1,6.86-13.37c10.06-11.19,20.49-22.13,33-30.6,6.08-4.11,12.89-7.16,19.5-10.45,5-2.52,10.63-3.13,16.16-3.38a157.65,157.65,0,0,0,51.31-10.8c6.73-2.67,13.2-6,19.84-8.86a51.2,51.2,0,0,1,37.81-1.66,309,309,0,0,1,36.8,15c16,7.72,32.81,13.07,49.8,17.93,20.56,5.88,39.95,14.22,57.82,26,3.87,2.56,7.89,4.92,12,7.16a53.31,53.31,0,0,1,25.71,30.66,105,105,0,0,0,13.17,25.43c6.57,9.6,9.28,20.11,6,31.57-5.54,19.16-12.27,37.87-23,54.84-5,8-10.39,15.76-15.66,23.58a149.91,149.91,0,0,0-16.06,30.83c-5.1,13.47-10.55,26.81-13.57,41q-2,9.61-4.29,19.18c-2.67,11.32-9.22,19.4-19.88,24.28-12.29,5.63-24.38,11.71-36.72,17.23a133,133,0,0,1-16.44,5.64c-11.95,3.56-22.49,9.86-32.75,16.66-11.22,7.44-23.36,11.19-36.85,9.93a51.18,51.18,0,0,1-7.63-1.49,7.2,7.2,0,0,1-5.77-6.88C241.33,467.53,241.25,463.76,241.07,460.05Zm19,17.7c11.55,0,22.1-2.81,31.66-9.58a120.26,120.26,0,0,1,35.54-17.4,132.52,132.52,0,0,0,22.08-9.23c6.46-3.26,13.1-6.14,19.69-9.14,3.36-1.53,6.8-2.87,10.15-4.43,7.35-3.43,12.69-8.9,15.26-16.6a190.77,190.77,0,0,0,5.65-20.27,263.41,263.41,0,0,1,21.46-62c4.58-9.25,10.81-17.71,16.53-26.37,6-9.14,12.23-18.18,16.14-28.49,3.27-8.63,6.47-17.29,9.44-26a99.48,99.48,0,0,0,4.5-16.15c1.53-9.64-1.66-18.42-6.78-26.45A121.12,121.12,0,0,1,448.6,178.9c-3.59-10.71-9.8-19.53-19.38-25.66-10.48-6.71-20.94-13.46-31.69-19.69-13.82-8-28.82-13.31-44.15-17.66-17.55-5-34.74-10.84-51.26-18.69A199.16,199.16,0,0,0,264.26,84a48.42,48.42,0,0,0-31.11,2.28c-7.89,3.28-15.68,6.81-23.63,9.94a140.24,140.24,0,0,1-36.1,9c-6,.66-12,.8-17.94,1.87a75.1,75.1,0,0,0-33.77,15.59c-9,7.26-17.33,15.47-25.59,23.63a35.81,35.81,0,0,0-11,24.1c-.31,5.59-1,11.16-1.44,16.75-.5,6.81-2.31,13.32-4.26,19.81-2.28,7.61-2.18,15,2.3,21.89,3.17,4.87,6.31,9.79,9.85,14.38,9.6,12.47,19.07,25,27.55,38.3q8.76,13.73,18.59,26.77c14.19,18.84,28.86,37.32,43,56.21A164.12,164.12,0,0,0,212.49,397a82.8,82.8,0,0,1,11.86,10.7c10.95,12.4,16.59,27.17,18.11,43.53.49,5.24.41,10.53.82,15.77.47,6.05,3,8.83,9,9.92C254.88,477.37,257.48,477.48,260.07,477.76Z" />
            <path class="cls-9" d="M464.87,230.13c.09,3.42-1.4,8.41-3.13,13.32-4.25,12-8.54,24-13,35.88-3.48,9.38-9.15,17.55-14.62,25.82-6.11,9.22-12.62,18.21-16.82,28.56-8,19.83-14.83,40.05-19.29,61a114.92,114.92,0,0,1-5.2,16.57,25,25,0,0,1-13.34,14.11c-6.82,3.15-13.8,6-20.6,9.16-7.66,3.6-15.1,7.7-22.84,11.11-6.17,2.72-12.64,4.76-19,7a108.59,108.59,0,0,0-25.42,13.54A46.42,46.42,0,0,1,265.41,475,44.17,44.17,0,0,1,251.27,473a7.39,7.39,0,0,1-5.51-6.25,90.16,90.16,0,0,1-1.16-11.82c-.27-17.34-6.89-32.42-16.95-46-3.59-4.85-8.59-8.8-13.42-12.56a173.25,173.25,0,0,1-34.55-35.67c-10.14-14.09-20.94-27.71-31.65-41.38-12.47-15.91-23.38-32.84-34.16-49.9-5.58-8.83-12.15-17-18.17-25.6-4-5.76-8.13-11.51-11.76-17.53a19.48,19.48,0,0,1-2.05-16.45c3.74-11.3,4.93-22.95,5.76-34.7.26-3.61.78-7.21,1.37-10.78a24.43,24.43,0,0,1,5.16-11.5c13.82-17.09,29.71-31.55,50.69-39.47,7.16-2.7,14.63-3.95,22.19-4.82,21-2.41,41.56-6.66,60.56-16.6,8.09-4.23,16.65-7.38,25.95-6.32,6.62.75,13.16,2.36,19.7,3.78,13.34,2.89,26,7.71,38.43,13.35,15.89,7.22,32.62,12,49.35,16.77a152.74,152.74,0,0,1,43.72,20.1c6,4,12.15,7.91,18.27,11.79,11.23,7.12,19.67,16.26,23.21,29.55,2.55,9.55,7.11,18.32,12.26,26.78A41.83,41.83,0,0,1,464.87,230.13ZM266.6,473.21a42,42,0,0,0,24.06-7.93,104.69,104.69,0,0,1,27.47-14.38,199.49,199.49,0,0,0,28.57-11.75c6.9-3.58,14-6.73,21.08-10,3-1.42,6.08-2.83,9.18-4.08,8-3.22,13.22-9.08,16-17.09a115.15,115.15,0,0,0,3.82-12.74,460.22,460.22,0,0,1,13.91-48.38c5.24-15.18,12.14-29.36,21.81-42.23a102.89,102.89,0,0,0,15-28.35c3.93-11.37,7.5-22.87,11.64-34.16s3.13-21.66-2.65-31.95a147,147,0,0,1-13-30.72C440.49,169,434,161.13,425.18,155c-5.4-3.73-11.07-7.08-16.33-11a146,146,0,0,0-49-23.93c-17.65-4.83-35.13-10.11-51.81-17.8-13.37-6.16-27.68-9.24-42-12.39-7.49-1.65-15-2.41-22.57-1.07-7,1.24-13.34,4.43-19.7,7.45A117.8,117.8,0,0,1,204.15,104c-13.57,3.68-27.51,5.28-41.3,7.78S135.62,118.62,124,127c-8.79,6.35-16.35,14.09-23.85,21.9a36.33,36.33,0,0,0-10.07,22.58,304.11,304.11,0,0,1-5.68,37.7,25.71,25.71,0,0,0,1.52,15.08c2.47,6.37,6.81,11.52,10.88,16.82,8.87,11.57,17.7,23.18,24.56,36.09a194.48,194.48,0,0,0,17,26.82q19.33,25.37,38.62,50.77c7,9.22,13.44,18.88,21.9,26.82,6.87,6.45,14.09,12.55,21.37,18.54,13.34,11,21,25.19,24.3,41.87,1.25,6.36,1.67,12.88,2.48,19.32s2.74,8.71,8.89,10.16C259.42,472.29,263,472.65,266.6,473.21Z" />
            <path class="cls-10" d="M267.21,470.57c-2.79-.27-5.58-.49-8.37-.82-4.78-.56-8.13-3.19-9.28-7.79A138.28,138.28,0,0,1,247,447.45c-2.3-16.37-8.36-31-20.13-42.86-4.47-4.49-9.62-8.31-14.53-12.35-11.17-9.19-20.58-20-29.19-31.53-12.81-17.23-25.95-34.22-38.81-51.41a220.46,220.46,0,0,1-22-36c-5.05-10.43-11.92-19.77-18.83-29.06-4.36-5.87-8.68-11.8-12.54-18-3.62-5.81-3.88-12.3-2-18.84a105.34,105.34,0,0,0,4-25.47,135.61,135.61,0,0,1,1.36-13.66,28.9,28.9,0,0,1,7.32-15.36c8.18-9.15,16.89-17.74,27.27-24.44,8.89-5.74,18.81-8.68,29.11-10.61q23.58-4.41,47.13-9a64.55,64.55,0,0,0,20.67-8.27c6.14-3.67,12.49-7.21,19.76-7.46a89.45,89.45,0,0,1,19,1.11c11.94,2.17,23.87,4.65,35.55,7.9,8.24,2.3,16.1,6,24.07,9.23,11.68,4.71,23.82,7.93,36,11a116.31,116.31,0,0,1,43.15,21c6.86,5.32,14.17,10.05,21.11,15.27,8.13,6.1,13.79,13.9,16,24.05,1.83,8.42,5.62,16.11,9.29,23.84,1.91,4,3.65,8.1,5.36,12.21a27.87,27.87,0,0,1,.61,20.06q-7.09,21.3-14.3,42.56a101.79,101.79,0,0,1-13.18,25.19c-11.26,16.18-17.78,34.38-23.11,53.1-4,13.91-7.64,27.9-11.6,41.8-1.81,6.36-4.19,12.56-9.78,16.68a61.16,61.16,0,0,1-8.75,5.3c-12.08,6.09-24.1,12.32-36.4,17.95-7.92,3.63-16.22,6.45-24.44,9.38A89.28,89.28,0,0,0,291,463.21C283.26,468.91,276.73,470.89,267.21,470.57Zm2.87-2.05c2.2-.15,5.09.2,7.59-.64,4-1.34,8.25-2.88,11.64-5.36a98,98,0,0,1,31.24-15.41c8.79-2.5,17-6.43,25-10.77,6.79-3.68,13.65-7.22,20.53-10.74,4.44-2.27,9-4.39,13.45-6.59a19.27,19.27,0,0,0,9.41-9.65A81,81,0,0,0,392.8,399c4.45-15.41,8.77-30.85,13.1-46.29,4.62-16.46,10.64-32.29,20.51-46.45,4-5.72,7.63-11.71,9.91-18.36q8.3-24.26,16.44-48.57a30.22,30.22,0,0,0-1.12-22.23c-1.49-3.45-3.4-6.74-4.69-10.25-3-8.21-5.94-16.46-8.61-24.78s-6.9-15.52-13.89-20.82c-10.84-8.23-21.7-16.44-32.79-24.32-10.57-7.52-22.79-11.34-35.22-14.51A285.63,285.63,0,0,1,315,108.92a113.16,113.16,0,0,0-19.17-6.52C284.69,99.88,273.3,98.3,262,96.08a46.87,46.87,0,0,0-33.75,5.81c-6.92,4-14.16,7.5-22.11,9.08q-23.83,4.76-47.67,9.46A91.69,91.69,0,0,0,126.64,133c-8.23,5.28-15,12.3-21.44,19.61a38.22,38.22,0,0,0-9.38,21c-1.31,10.59-2.83,21.15-4.29,31.72-.65,4.7-1,9.37,0,14.08,1.31,6.09,4.82,10.93,8.48,15.75,10,13.27,19.64,26.85,26.6,42.06a180.53,180.53,0,0,0,19.84,32.51c10.94,14.7,22.36,29,33.13,43.87,12.58,17.32,26.75,33,43.68,46.2,12.79,10,20.35,23.44,24,39.12,1.42,6.12,2.19,12.38,3.49,18.53,1.25,5.92,5,9.43,11,10.33C264.34,468.2,266.95,468.27,270.08,468.52Z" />
            <path class="cls-11" d="M271,467c-2.84-.41-5.7-.68-8.5-1.25a12,12,0,0,1-9.65-8.55c-1.29-4.16-1.93-8.52-3-12.75-1.35-5.29-2.6-10.63-4.34-15.8-4.31-12.82-13-22.56-23.12-31-10.64-8.85-21.16-17.82-29.71-28.78-6.68-8.57-13.06-17.38-19.58-26.08-9.1-12.14-18.29-24.23-27.3-36.44-7.31-9.9-12.81-20.86-17.66-32.11-5.45-12.61-13-23.85-21.26-34.73a135.76,135.76,0,0,1-10-15.46,20,20,0,0,1-2.1-12.37c1.5-12.29,3.09-24.56,4.59-36.85a36.47,36.47,0,0,1,10.3-21.88,215.32,215.32,0,0,1,16.23-15.33c6.61-5.42,14.68-8.28,22.9-10.17,13.72-3.15,27.55-5.81,41.34-8.68,6.56-1.37,13.13-2.66,19.67-4.14,6.87-1.56,13.11-4.68,19.1-8.31s12-6.82,19-7a90.37,90.37,0,0,1,15.5,1.07c12,1.72,24,3.28,35.77,5.85,7.61,1.66,14.93,4.8,22.24,7.62,13.28,5.12,27,8.75,40.76,12.25A90.51,90.51,0,0,1,398.85,145c6.84,5.78,14.08,11.09,21.12,16.63a42.51,42.51,0,0,1,15.5,23.29,196,196,0,0,0,12.45,33.84c3.44,7.35,3.26,14.84.75,22.38C444,255,439.3,268.82,434.74,282.71a109.53,109.53,0,0,1-10.62,22.8q-3.78,6.21-7.22,12.63c-5.93,11-9.21,23-12.63,35-4.51,15.74-9,31.51-13.44,47.26A28.25,28.25,0,0,1,376,418.54c-14.93,7.72-29.58,16-44.65,23.42-6.55,3.23-13.84,5-20.81,7.38a64,64,0,0,0-18.89,10.06C284.32,465.09,279.18,466.77,271,467ZM97.06,208.67l.5.07c-.28,9.32,1.27,14.87,6.48,22.6,2.22,3.29,4.51,6.53,6.92,9.69a145.42,145.42,0,0,1,20.65,36.24,102.67,102.67,0,0,0,10.75,20.95c5.92,8.78,12.06,17.42,18.32,26,8.36,11.42,17,22.64,25.39,34a217,217,0,0,0,38.45,39.69c13.56,11,22.55,24.76,26.34,41.88,1,4.73,2.24,9.45,3.59,14.1,1.52,5.23,5.08,8.44,10.4,9.72,9,2.17,17.5,1.07,24.9-4.66a78.67,78.67,0,0,1,25.43-12.87c6.25-1.92,12.74-3.54,18.49-6.52,14-7.26,27.6-15.34,41.46-22.89A29.77,29.77,0,0,0,390,397.9c4.35-15,8.81-30,13-45s8.63-30.2,16.88-43.8c4.5-7.42,8.7-15,11.51-23.3,4.72-13.85,9.24-27.76,14.08-41.56A36.25,36.25,0,0,0,445,218c-4.35-11.14-8.3-22.44-12.28-33.72-2.06-5.85-4.32-11.57-8.79-16-2.22-2.22-4.62-4.26-7-6.27-6.3-5.26-12.85-10.24-18.95-15.73a85,85,0,0,0-38.21-19.66A309.53,309.53,0,0,1,313.27,112c-8.46-3.47-17.37-5.26-26.42-6.39-8.27-1-16.57-1.93-24.79-3.32a45.13,45.13,0,0,0-31.59,5.6c-5.66,3.33-11.47,6.48-18,7.92q-29.23,6.47-58.5,12.79c-13,2.81-24.8,8-34.65,17.21-8.58,8-15.53,17.12-17.56,29C99.87,186,98.61,197.36,97.06,208.67Z" />
            <path class="cls-12" d="M101.69,207c1-9.31,1.76-18.66,3.1-27.92,2-13.69,9.47-24.25,19.8-33,8.44-7.17,18.47-10.74,29.1-13,15-3.16,30-6.73,45.16-9.44a104.79,104.79,0,0,0,35.75-13.17c8.73-5.22,18.2-5.71,28-4.34,12,1.68,24.12,3.19,36.17,4.8,7,.93,13.55,3.26,20,5.9,11.8,4.85,24.1,7.94,36.44,11,8.3,2,16.72,3.93,24.13,8.3a116.17,116.17,0,0,1,15.12,10.84c7.37,6.11,14.38,12.65,21.56,19a48.14,48.14,0,0,1,14.27,22.56c3.12,10.11,6.58,20.15,10.5,30,3.35,8.4,4.12,16.71,1.26,25.22-5.5,16.32-10.86,32.69-16.94,48.8-2.87,7.62-7.25,14.68-11,22C409,324.55,406,335.4,403,346.25q-6.75,24.15-13.9,48.19c-2.4,8-6.86,14.58-14.3,19-12.36,7.42-24.49,15.23-36.81,22.73-8.09,4.93-17.16,7.39-26.25,9.67A52.07,52.07,0,0,0,291,456.21a26.73,26.73,0,0,1-21.69,5.85c-6.2-.89-10.84-3.85-12.92-9.91-1.55-4.52-2.81-9.15-3.94-13.79-3.87-15.93-12.1-29.32-24.87-39.35-19.61-15.4-35.25-34.24-49.73-54.25-8.22-11.35-16.78-22.45-25-33.82a135.38,135.38,0,0,1-18.27-34.26c-4.84-13.73-12.32-26.05-20.81-37.8-1.6-2.22-3.15-4.48-4.81-6.65-5.73-7.47-8.25-15.82-6.78-25.27Zm152-99.65a33.86,33.86,0,0,0-14.16,3.15c-3.51,1.69-7,3.49-10.53,5.07-4.74,2.11-9.4,4.66-14.36,6-13.67,3.62-27.48,6.76-41.26,10-8.92,2.07-18,3.47-26.82,6-21.15,6-34.07,20.36-38.87,41.46-2.12,9.32-2.08,19.14-2.92,28.73a31.88,31.88,0,0,0,3.82,18.62,97.89,97.89,0,0,0,7,11.3c8.52,11.33,15.92,23.25,20.36,36.82a135.78,135.78,0,0,0,17.4,34.71c4.91,7.15,10.25,14,15.43,21,8.48,11.41,16.85,22.92,25.53,34.18,9.69,12.59,21.37,23.24,33.67,33.22,12.12,9.83,20.9,21.92,25.45,36.94,1.53,5,2.94,10.11,4.66,15.09a14.37,14.37,0,0,0,12.27,10.18c6.8.92,13.42.26,19.09-4.18,8.52-6.65,18.24-10.41,28.68-13a70.36,70.36,0,0,0,17.93-6.78,340.37,340.37,0,0,0,41.19-27.27A28.39,28.39,0,0,0,386.66,396a377.45,377.45,0,0,0,12.71-41.27c2.95-11.57,5.42-23.32,10.2-34.32,3.24-7.44,7.3-14.53,10.59-22,7.87-17.77,13.55-36.36,19.72-54.75a31.93,31.93,0,0,0-.2-21.17c-4.16-11.8-8.22-23.64-12.43-35.42a50,50,0,0,0-13.61-20.23c-6.85-6.29-13.83-12.46-20.47-19-9.84-9.67-21.68-15.21-35-18.14a280.21,280.21,0,0,1-41.25-12,106.31,106.31,0,0,0-19.47-5.44c-7.78-1.4-15.74-1.8-23.62-2.68C267.11,108.94,260.4,108.12,253.68,107.32Z" />
            <path class="cls-13" d="M109.56,206.43c1.12-9.29,1.49-18.75,3.51-27.84,4.28-19.2,16.64-31.18,35.64-36C159,140,169.45,138.27,179.79,136q17-3.8,33.94-7.92c7-1.7,13.35-5.21,19.7-8.58,2.66-1.41,5.37-2.71,8.08-4,5.77-2.81,11.89-2.91,18.08-2.27,12.51,1.29,25,2.69,37.51,3.92a82.73,82.73,0,0,1,21.4,5.33c12.55,4.78,25.62,7.67,38.67,10.67,9.72,2.24,19.2,5.16,26.79,12.09,4,3.64,7.83,7.45,11.6,11.32q8.88,9.11,17.55,18.42a54.41,54.41,0,0,1,11.1,18.79q5.44,15,10.63,30.16c3,8.75,2,17.46-1,26-7.49,21.69-14.64,43.52-24.61,64.27-5,10.36-7.44,21.51-10,32.65-3.05,13.52-6.47,26.94-11.41,39.94-3.23,8.5-7.9,15.82-15,21.67a303.9,303.9,0,0,1-37.85,27c-6.38,3.81-13.6,5.23-20.59,7.31-2.81.84-5.65,1.61-8.5,2.3a39.06,39.06,0,0,0-14.68,7.45c-5.61,4.32-11.77,6.76-19.08,5.58-6.18-1-10.47-4.1-12.54-10.07-1.12-3.23-2.26-6.46-3.2-9.74-4.64-16.2-13.29-29.89-26.39-40.44-19.37-15.6-35.21-34.31-49.7-54.33q-8.84-12.21-17.92-24.25c-9.94-13.19-17-27.82-22.22-43.43a133.9,133.9,0,0,0-20.07-38.61,63.9,63.9,0,0,1-5.85-9.63c-3.75-7.42-4.55-11.9-4.26-21Zm3.68-4c-.4,14.43,1.9,22.64,9.25,33.42a172.65,172.65,0,0,1,21.42,43.24,203.91,203.91,0,0,0,8.37,20.46c4.43,9.7,10.92,18.13,17.27,26.63,8.39,11.23,16.67,22.55,25.2,33.67,10.71,14,23.32,26.05,36.9,37.23,12.24,10.07,21.32,22.48,26.09,37.81,1.24,4,2.66,7.91,4.19,11.79,2.25,5.73,6.65,8.59,12.7,9.23,6.32.67,11.75-1.55,16.64-5.18,6.58-4.89,14-7.59,21.91-9.22,9.5-2,18.75-4.77,26.76-10.39A322.57,322.57,0,0,0,371.85,406a58.07,58.07,0,0,0,16.61-25.24c3-9.2,5.5-18.57,8-27.93,2.64-10,4.49-20.15,7.65-29.94,2.82-8.74,7.15-17,10.45-25.57,5.54-14.41,10.84-28.91,16.15-43.41,2.51-6.85,4.6-13.93,3.46-21.26a101,101,0,0,0-4.45-17.22c-3.66-10.59-7.23-21.31-13.31-30.8a143.14,143.14,0,0,0-13.16-17c-5.82-6.62-12-13-18.27-19.15-8.5-8.38-19.26-12.19-30.69-14.52-12.72-2.59-25.38-5.46-37.52-10.23a68.83,68.83,0,0,0-18.43-4.55c-11.7-1.16-23.42-2.2-35.09-3.59-9.21-1.1-18-.42-26.28,4.14-1.68.93-3.37,1.84-5.12,2.6-5.95,2.59-11.72,5.9-17.93,7.5-18.54,4.76-37.25,8.85-55.91,13.16-7.07,1.63-14.19,3.06-20.7,6.45-10.77,5.61-16.91,14.94-20.36,26.16C114.13,184.7,113.8,194.27,113.23,202.39Z" />
            <path class="cls-14" d="M259.07,118.34c3.65.41,9.14,1.1,14.65,1.62,6.87.65,13.76,1.12,20.64,1.74,8.63.78,16.84,3.26,25.1,5.83,9.63,3,19.5,5.28,29.34,7.55s19.79,4.12,28.06,10.28a75.75,75.75,0,0,1,11.5,10.73c6.77,7.71,13.35,15.6,19.63,23.71A114,114,0,0,1,426.4,216c1.61,5.14,3.47,10.27,4.44,15.54,1.49,8.07-.41,16-3,23.57-6.38,18.69-13.22,37.21-21.31,55.25-5.09,11.36-7.57,23.45-10.15,35.56-2.13,10-4.77,19.9-7.68,29.69a62.52,62.52,0,0,1-16.77,27.1c-11.28,11-23.14,21.31-36.38,29.93-5.48,3.57-11.79,4.86-18,6.42-7.79,1.95-15.77,3.49-22.78,7.77-3,1.85-6,3.86-9.1,5.51a18.11,18.11,0,0,1-12.78,1.34,12.5,12.5,0,0,1-9.08-7.32,116.29,116.29,0,0,1-4.59-12.06c-4.54-14.22-12.72-25.92-24-35.63-6-5.24-12.14-10.45-17.89-16A300.28,300.28,0,0,1,181,339.83c-6.6-9.32-13.23-18.62-19.8-28-5.4-7.67-8.95-16.23-12-25-4.22-12.21-8.09-24.58-14.35-36-3.46-6.29-7.33-12.35-11-18.52a46.21,46.21,0,0,1-6.95-26c.43-10.54.85-21.11,4-31.25,3.68-11.8,10.86-20.62,23-24.62,4-1.3,8-2.5,12-3.46,19.55-4.66,39.14-9.17,58.68-13.87,7.37-1.77,14.05-5.28,20.65-8.94A44.38,44.38,0,0,1,259.07,118.34ZM120,203.41a51.31,51.31,0,0,0,7.78,30,228.44,228.44,0,0,1,22,48.46c3.11,9.5,6.6,18.86,12,27.36a571.86,571.86,0,0,0,33.46,46.64,216.85,216.85,0,0,0,29.28,31.23c4.77,4.1,9.44,8.33,14.23,12.4a73.41,73.41,0,0,1,23.2,35.34,71.6,71.6,0,0,0,3.87,9.7c2.17,4.61,6,6.86,11.06,7.32S286,450.6,290.1,448c3-1.91,5.95-4.09,9.24-5.22a178.34,178.34,0,0,1,19.1-5.34,56.26,56.26,0,0,0,22.76-10.35,236.58,236.58,0,0,0,27.4-24.41c6.08-6.5,12.13-13,16-21.17,5.59-11.72,8.29-24.25,10.6-36.89,2.44-13.4,5.59-26.58,11.32-39,7.5-16.28,13.22-33.26,19.38-50.06,3.87-10.55,4.48-21.29.48-31.93-3.12-8.31-6.06-16.77-10.16-24.6-9-17.23-20.88-32.56-34.21-46.7a47.53,47.53,0,0,0-8.44-6.8c-7.57-5-16.24-7-25-8.67a241.11,241.11,0,0,1-34.09-8.8,86.89,86.89,0,0,0-17.36-3.87c-11-1.41-22.17-2.16-33.24-3.35a45.81,45.81,0,0,0-28.08,5.57,90.92,90.92,0,0,1-11.43,5.54c-12.58,4.89-25.68,8-38.78,11.18-13.43,3.22-26.88,6.35-40.28,9.69-5.36,1.34-10.18,4-13.33,8.65a77.82,77.82,0,0,0-7.22,12.82C120.83,183.52,120.4,193.5,120,203.41Z" />
            <path class="cls-15" d="M427.43,238.91c0,8-1.93,14.74-4.23,21.42-5.66,16.41-12.45,32.37-19.56,48.2-4.91,10.93-7.37,22.55-9.25,34.32-1.81,11.35-4.17,22.54-8.59,33.23A63.45,63.45,0,0,1,374,394a320.84,320.84,0,0,1-28.6,28.54,58.61,58.61,0,0,1-29.5,14.18,66.05,66.05,0,0,0-25.68,9.8c-4.12,2.72-8.71,4.24-13.82,3.36-4.34-.75-7.76-2.93-9.69-6.82a97,97,0,0,1-4.87-11.94c-3.93-11.64-10-21.8-19.51-29.81-7.12-6-14.22-12-20.95-18.43A312.49,312.49,0,0,1,183,338c-5.25-7.34-10.33-14.8-15.57-22.15-6.83-9.57-11.33-20.18-14.94-31.31-5.54-17.07-12.14-33.75-21.4-49.18-9.66-16.1-10.74-33.12-6.75-50.91.76-3.4,1.7-6.76,2.59-10.13,3-11.36,10.59-18.24,21.57-21.24,8.89-2.43,18.06-3.81,27-6.1,14.62-3.74,29.25-7.53,43.68-11.93,6.88-2.1,13.43-5.42,19.93-8.6a42.61,42.61,0,0,1,24.49-4.06c11.06,1.32,22.24,1.78,33.24,3.42a152.19,152.19,0,0,1,23,5.65A208.15,208.15,0,0,0,348.21,138c11,1.83,21.62,4.74,29.93,12.67A92.7,92.7,0,0,1,388.61,163c8.05,11,16.17,21.91,23.68,33.24S424.46,220.5,427,234A42.77,42.77,0,0,1,427.43,238.91ZM125.66,202.46c-.29,9.75,1.34,17.47,4.78,24.75,3.68,7.79,8,15.31,11.32,23.23,4.45,10.5,8.8,21.11,12.2,32a141.82,141.82,0,0,0,19.35,39.14c12.57,18,25.76,35.53,40.76,51.64,8.38,9,17.84,16.78,27.32,24.51,10.89,8.88,18.63,19.68,22.67,33.17a54.34,54.34,0,0,0,3.7,9.1c2.89,5.65,8,8.38,14.22,7.52a16.94,16.94,0,0,0,7.08-2.47c7.81-5.34,16.55-8.17,25.7-9.69,11.92-2,22.35-6.79,30.89-15.3,9.1-9.08,18-18.38,26.87-27.68a61.43,61.43,0,0,0,11.26-15.81c5.37-11.19,7.49-23.2,9.39-35.3,2.13-13.54,5.52-26.7,11.25-39.24,6.31-13.79,12.55-27.62,17.11-42.13,2.44-7.76,4.28-15.57,3.42-23.77a72,72,0,0,0-10.64-30.56,574,574,0,0,0-33.18-48.62,39.72,39.72,0,0,0-13.11-11,63.93,63.93,0,0,0-19.67-6.19A225.7,225.7,0,0,1,317,132.6a132.9,132.9,0,0,0-26.46-5.54c-8.84-.91-17.7-1.56-26.52-2.6s-17,.77-24.92,4.38q-8.77,4-17.72,7.58c-14.32,5.76-29.41,8.91-44.31,12.69-8.88,2.25-17.92,3.83-26.85,5.87-5.58,1.28-10.85,3.51-14.08,8.47a57.17,57.17,0,0,0-6.29,12.37C126.72,184.94,126.08,194.55,125.66,202.46Z" />
            <path class="cls-16" d="M126.94,201.61a99.75,99.75,0,0,1,5.16-28.34c3.14-9.06,10.29-13.42,19.24-15.41,12.75-2.84,25.56-5.42,38.21-8.63a257.91,257.91,0,0,0,49.72-17.79A39.1,39.1,0,0,1,261,127.81c9.86,1,19.81,1.41,29.58,2.94,8.54,1.33,16.88,3.9,25.33,5.84,8.92,2,17.83,4.11,26.79,5.94,7.38,1.51,14.78,2.79,21.44,6.61a34.87,34.87,0,0,1,12,11c10.4,15.67,20.87,31.29,31.14,47a90.89,90.89,0,0,1,10.5,23.32c2.73,8.95,1.74,17.87-.56,26.72-3.29,12.69-8.62,24.61-13.74,36.62-3.34,7.84-6.58,15.74-9.49,23.75-3,8.34-3.78,17.18-4.89,25.92-1.32,10.4-3.34,20.62-7.85,30.2-3,6.29-7.43,11.45-12.1,16.46-7.88,8.46-16,16.7-23.67,25.34-9,10.15-20.17,16.12-33.37,18.62a96.23,96.23,0,0,0-11.37,2.64,84.58,84.58,0,0,0-9.34,4.08,73.59,73.59,0,0,1-7,3.32c-6.91,2.32-12.87-.06-16.23-6.57-1.69-3.26-2.79-6.82-4.3-10.19-2.34-5.24-4.59-10.52-7.23-15.6-3.47-6.66-9.17-11.48-15.1-15.7-16.4-11.67-29.81-26.3-42.58-41.61-11.31-13.57-21.36-28.07-31.06-42.82-6.21-9.45-9.89-20.06-13.38-30.73-5.87-18-13.36-35.27-21.47-52.33A57.18,57.18,0,0,1,126.94,201.61Zm3.23-.44c-.34,10.36,2.75,19.86,6.52,29.27,6.69,16.68,13.42,33.35,19.69,50.19,3.48,9.35,6.39,18.93,11.58,27.51a388.44,388.44,0,0,0,48.52,63.69,188.21,188.21,0,0,0,27.39,23.77A57.09,57.09,0,0,1,264,422c1.67,4.34,3.13,8.78,5.15,12.94,3.32,6.84,9.22,9.16,16.42,6.82a17.67,17.67,0,0,0,4.27-2,46.52,46.52,0,0,1,19.1-6.94c14.27-2.16,26.46-8,36-19.37,6.58-7.85,14-15,20.9-22.59a130,130,0,0,0,10.53-12.29c7-9.91,9.67-21.4,11.14-33.26.89-7.18,1.79-14.37,3.12-21.48,1.78-9.53,5.78-18.32,9.6-27.17,4.55-10.52,9.18-21,13.24-31.74,6.14-16.2,5.1-32.11-3.61-47.23-4.06-7-8.52-13.85-12.86-20.73q-10.62-16.82-21.33-33.59c-7-10.85-17.23-16.52-29.72-18.42a244,244,0,0,1-36.4-8,109.29,109.29,0,0,0-16.76-3.83c-9-1.31-18.07-2-27.1-3.09a52.6,52.6,0,0,0-29.7,5.06c-4.68,2.24-9.46,4.29-14.31,6.13-21.73,8.28-44.27,13.63-67,18.1-5.59,1.1-11,2.51-14.78,7.21a33.35,33.35,0,0,0-7.17,15.27C131.55,188.24,131,194.72,130.17,201.17Z" />
            <path class="cls-17" d="M133.66,199.85c.23-7.39.83-14.74,3.28-21.81,3.19-9.22,9.5-14.56,19.16-16.48,20.73-4.12,41.27-9.08,61.07-16.61,8-3,15.87-6.31,23.72-9.66a40,40,0,0,1,19.64-3.23c12.64,1.21,25.32,2.42,37.84,4.53,9.61,1.62,18.95,4.76,28.47,6.95,7.26,1.67,14.6,3,21.93,4.29,10.59,1.89,18.67,7.28,24.26,16.54q9.27,15.36,18.89,30.52c5.09,8,10.59,15.79,15.6,23.86,8.1,13,9.81,27,5.54,41.77-3.58,12.41-8.76,24.12-14.42,35.66-5,10.17-9,20.67-10.67,31.92-1,6.76-1.78,13.55-2.54,20.34-1.59,14.18-6.93,26.56-16.95,36.92s-19.63,20.59-29.25,31.06c-6.29,6.84-14.17,10.57-23,12.73-4.11,1-8.28,1.82-12.45,2.54a36.82,36.82,0,0,0-13.15,5.5c-3.08,1.92-6.39,3.2-10.08,2.84-4.94-.49-8.39-3.34-10.48-7.62-2-4-3.44-8.33-5.18-12.49-4.18-10-9.86-18.84-18.95-25.22-25.93-18.21-45.77-42.15-63.48-68-5.24-7.66-10.25-15.5-14.92-23.52-4.38-7.53-6.51-16-9.49-24.19-6.33-17.34-12.85-34.6-19.41-51.86C135.36,218.3,133.25,209.32,133.66,199.85Zm126.8-66c-3.46.38-6.93.62-10.37,1.15-7.4,1.15-13.91,4.83-20.76,7.54-17.18,6.8-34.62,12.8-52.7,16.76-7.54,1.65-15.09,3.32-22.58,5.18-7,1.73-11.4,6.33-13.55,13.07-4.88,15.3-5.32,30.72-.13,46,6.94,20.38,14.36,40.6,21.45,60.93a137.81,137.81,0,0,0,17.46,34.68c6.21,8.76,12.38,17.56,18.95,26,14.13,18.25,29.57,35.19,49.08,48A39.37,39.37,0,0,1,260.57,408c2.32,4.41,4.42,8.94,6.59,13.43,1.46,3,2.66,6.18,4.36,9,4.43,7.46,10.79,9.25,18.29,5a61,61,0,0,1,21-7.15c11.78-1.84,22.23-6.51,29.86-16,8.13-10.1,17.34-19.17,26.32-28.47,4.72-4.89,9-10,11.89-16.32,4.56-10.06,5.4-20.8,6.58-31.53a144.26,144.26,0,0,1,2.8-17.16c2.39-10.24,7.2-19.59,11.64-29,4.75-10.09,9.47-20.16,12-31.1,2.46-10.58,2.32-20.93-2.79-30.79a134.38,134.38,0,0,0-7.24-12.86c-10.24-15.36-20.64-30.62-29.43-46.89-6.2-11.49-15.89-17.58-28.66-19.51-8.84-1.34-17.78-2.65-26.35-5.08A268.68,268.68,0,0,0,260.46,133.82Z" />
            <path class="cls-18" d="M142.15,203.35c1-6,1.68-12,3-17.95,2-9.35,8.25-14.5,17.43-16.7,12-2.87,24-5.55,35.7-9.3,12.8-4.11,25.3-9.17,37.8-14.15a74.11,74.11,0,0,1,37.6-4.88c7.79,1,15.69,1.53,23.37,3.09,17.28,3.51,34.45,7.57,51.67,11.35a28.23,28.23,0,0,1,19,13.85c6.45,10.87,12.78,21.82,19.49,32.54,4.67,7.47,10.07,14.5,14.8,21.94,5,7.93,8.75,16.4,8.57,26.13a59.46,59.46,0,0,1-4.45,21.57C401.89,281,397.32,291,392.77,301a108.4,108.4,0,0,0-9.62,40.8c-.52,12.3-3,24.21-10.8,34.26a71.64,71.64,0,0,1-9.06,9.74,173.18,173.18,0,0,0-22.37,23.68c-7.17,9.28-16.68,14.69-28.22,16.82-7.39,1.36-14.68,3.08-21.25,7.14a18.67,18.67,0,0,1-7.18,2.17c-4.51.61-8-1.56-10.5-5.13a62.65,62.65,0,0,1-4.25-7.7c-3.07-6.1-6-12.3-9.15-18.33a32,32,0,0,0-9.54-10.88c-27.2-19.81-48.38-45.11-67.2-72.71a147.82,147.82,0,0,1-18.52-37.52q-10-30.4-19.67-60.88a59.84,59.84,0,0,1-2.67-19Zm127.08-61.2a61.27,61.27,0,0,0-30.33,4.41c-11.62,4.77-23.27,9.57-35.2,13.48-13.24,4.34-26.77,7.8-40.24,11.41-7.85,2.1-13,6.69-15.11,14.57a67.12,67.12,0,0,0-.29,36.1c5,18,11,35.79,16.58,53.67,2.68,8.61,5.24,17.25,9.27,25.38,5.13,10.34,11.74,19.71,18.4,29.07,16,22.42,34,42.84,56.22,59.32a52,52,0,0,1,15.85,18.82c2.31,4.65,4.41,9.41,6.87,14a37,37,0,0,0,5.27,7.74,10.13,10.13,0,0,0,11.26,2.86,48.7,48.7,0,0,0,7-3.28,36.14,36.14,0,0,1,13.38-4.29,48.54,48.54,0,0,0,19.26-6.58c6.1-3.54,10.58-8.81,14.89-14.23A120.79,120.79,0,0,1,360,386.25c6-5,11.43-10.59,15.18-17.61,4.65-8.73,6.1-18.17,6.59-27.88.57-11.46,2.41-22.74,6.87-33.36,4.09-9.75,8.76-19.25,13.09-28.9a77.5,77.5,0,0,0,6.67-23.57c1.17-11-2.31-20.69-8.15-29.67-5.18-8-10.91-15.58-16-23.62-5.89-9.37-11.63-18.87-16.87-28.61s-13-15.11-23.67-17.08q-14.21-2.63-28.3-5.9C299.87,146.43,284.52,142,269.24,142.15Z" />
            <path class="cls-19" d="M266.08,144.08c14.86-.51,29.6,3.65,44.5,6.84,10.42,2.23,20.86,4.43,31.34,6.35,9.65,1.77,17.37,6.37,22.24,14.91,9.61,16.82,19.87,33.19,31.07,49,2.71,3.83,4.69,8.18,7.05,12.26,5.74,9.93,5.93,20.42,3.11,31.19-2.51,9.57-6.7,18.45-11.26,27.18-5.43,10.4-9.87,21.2-11.74,32.84-1,6.46-1.51,13-1.94,19.56-1,15.08-6.27,28.07-18.08,37.91a160.74,160.74,0,0,0-23.71,24.36,44,44,0,0,1-30.45,17.09,38.9,38.9,0,0,0-13.49,4.65,40.06,40.06,0,0,1-3.89,1.84c-6.63,2.63-12.2,1.15-16.07-4.83a111.3,111.3,0,0,1-7.19-13.34c-4.64-9.91-11-18.3-19.93-24.81a179.43,179.43,0,0,1-18-15A277,277,0,0,1,191.05,326c-6.91-10.18-14.24-20.15-18.55-31.79Q167.35,280.24,163,266c-4.63-15.23-9.14-30.51-13.32-45.87-2.94-10.8-2.21-21.72.69-32.46,2.18-8.09,7.49-13.32,15.67-15.16,23.28-5.24,45.71-13.08,67.75-22.1C244,146.26,254.37,143.32,266.08,144.08ZM150.4,207.45c.67,4.66.84,9.45,2.09,13.95q8.13,29.45,16.81,58.74c3,10,6.66,19.88,12.48,28.66q10.77,16.24,22.15,32.06a195.29,195.29,0,0,0,44.19,44.52c5.54,4,10.61,8.53,14.21,14.36,3.48,5.64,6.39,11.61,9.74,17.33a51.43,51.43,0,0,0,5.83,8.37,10,10,0,0,0,11.22,3,63.91,63.91,0,0,0,7.5-3.26,44.63,44.63,0,0,1,12.67-3.93,54,54,0,0,0,9.72-2.45c8-2.89,14.38-8.26,19.41-15a133.43,133.43,0,0,1,22.51-22.92c11.14-9.14,16.81-21.12,17.94-35.37.45-5.66.76-11.33,1.38-17,1.31-11.9,5.43-22.94,10.66-33.61,4.3-8.77,9-17.34,11.81-26.78,2.75-9.27,3.83-18.64.14-27.77a85.09,85.09,0,0,0-8.64-16C383,208,372.16,191.42,362.36,174.15c-4.57-8.05-11.69-12.58-20.7-14.41-9.38-1.9-18.76-3.8-28.07-6-14.77-3.56-29.49-7.25-44.82-7.5-10.34-.16-20.46.79-30.16,4.76a548.63,548.63,0,0,1-71.26,24c-7.14,1.83-11.71,6.52-13.8,13.58A78.24,78.24,0,0,0,150.4,207.45Z" />
            <path class="cls-20" d="M265.08,148.7c16.51.35,32.56,3.62,48.54,7.51,7.9,1.92,15.84,3.8,23.86,5.08,10.68,1.7,18.47,7.32,23.8,16.4,10.3,17.52,21.78,34.27,33.06,51.15,3.73,5.58,7,11.46,8.28,18.19,1.72,9,.19,17.65-3.16,25.91-3.25,8-7.24,15.74-10.86,23.61-4.06,8.83-7.75,17.83-9.12,27.52-.93,6.55-1.45,13.18-1.86,19.79-.88,14.35-6.57,26.26-17.63,35.47-7.32,6.1-14.45,12.35-20.36,19.89a89.82,89.82,0,0,1-7.14,8.18,40.44,40.44,0,0,1-23.56,11.81c-4.38.62-8.58,2.6-12.84,4.06-2,.68-3.9,1.64-5.89,2.37-4.88,1.78-9.21.69-12.31-3.37A70.22,70.22,0,0,1,270.83,411a80.06,80.06,0,0,0-26.41-30.51c-12.12-8.46-22.34-19.12-31.6-30.6a400.3,400.3,0,0,1-31-44.56c-5.56-9.19-9.1-19.24-12-29.51-4.81-16.89-9.58-33.79-14.15-50.75-2.64-9.79-2.49-19.71-.75-29.69,1.71-9.83,7.47-15.87,16.71-18.85,12.82-4.13,25.74-8,38.48-12.32,11-3.75,21.73-8.15,32.65-12.07A61.13,61.13,0,0,1,265.08,148.7ZM388.72,291.5A84.11,84.11,0,0,0,401,264.06a32.91,32.91,0,0,0-3.66-24.93c-2.59-4.43-5.22-8.83-8-13.16-9.62-15.1-19.35-30.14-29-45.26-4.11-6.46-9.21-11.78-16.46-14.54a80.78,80.78,0,0,0-11.63-3.26c-17-3.68-33.61-8.66-50.92-10.86-17-2.15-33.19-.76-49,6A390.13,390.13,0,0,1,189,174a150.93,150.93,0,0,0-16.62,5.83c-8.34,3.56-13.71,9.73-15.15,19-1.34,8.6-1.63,17.17.58,25.65,4,15.47,8.17,30.92,12.31,46.36,3.1,11.57,6.62,23,12.94,33.31,4.86,7.92,10.24,15.51,15.17,23.39C211,348,226.57,366.05,246.48,380A77.27,77.27,0,0,1,272,409.95a53,53,0,0,0,5,8.2c3.52,4.76,9.36,8,16.79,4a52.78,52.78,0,0,1,19.23-6.1,20.68,20.68,0,0,0,10.76-4.24c3.93-3.15,8-6.33,11.17-10.17a175.59,175.59,0,0,1,23.69-23.82,54.4,54.4,0,0,0,7.55-7.51c7.12-8.69,9.58-19.09,10-30a113,113,0,0,1,6.92-34.59c1.77-4.8,3.72-9.53,5.6-14.29Z" />
            <path class="cls-21" d="M388.79,291.43c-1.82,3.72-3.8,7.38-5.44,11.18-4.17,9.7-6,19.93-7.05,30.39a182.26,182.26,0,0,1-2.68,20.28c-2,9.33-7.24,16.94-14.59,23a182.83,182.83,0,0,0-25,24.84c-5,6.07-11.18,10.9-18.88,13.28-3.52,1.09-7.19,1.68-10.71,2.77a95.41,95.41,0,0,0-9.77,3.67c-6.48,2.82-11.87,1.84-16.41-3.57a46.08,46.08,0,0,1-6-8.79c-6.13-12.23-15.07-21.83-26.18-29.68-17.94-12.7-32-29.1-44.17-47.23-4.87-7.27-9.78-14.51-14.51-21.88a121.12,121.12,0,0,1-14.9-33.6c-4.36-15.95-8.66-31.92-12.69-48a67.73,67.73,0,0,1-1.69-24.61c1.54-13.08,8.28-21.36,21-25.13q17-5.05,33.74-10.92c9.34-3.28,18.41-7.32,27.73-10.66,10.39-3.72,21.25-4.29,32.18-3.78,16.22.75,31.82,5,47.53,8.59,5.06,1.16,10.11,2.44,15.22,3.34,10.13,1.79,17.4,7.6,22.86,16,6.43,9.84,12.72,19.78,19.12,29.65,5.58,8.61,11.4,17.07,16.79,25.79,7.37,11.93,7.8,24.55,2.55,37.36-2.32,5.67-5.17,11.13-7.77,16.69a7.61,7.61,0,0,0-.34,1.12Zm-229-79.06c.94,6.3,1.4,12.62,2.87,18.7,3.58,14.81,7.54,29.53,11.51,44.24,2.68,9.91,6,19.62,11.53,28.37,6.94,11.06,14,22.06,21.21,32.92a145.31,145.31,0,0,0,25.36,29.2c6.64,5.79,13.73,11.07,20.74,16.43a64.66,64.66,0,0,1,17,18.71c1.79,3.07,3.36,6.29,5.39,9.2a38.51,38.51,0,0,0,6.38,7.38,9.72,9.72,0,0,0,10.32,1.75c6.84-2.53,13.79-4.88,20.84-6.71,5.25-1.36,10-3.42,13.85-7.12,3.31-3.15,6.27-6.67,9.53-9.88,7.11-7,14.14-14.09,21.52-20.8,7.08-6.44,12.63-13.74,14.52-23.23a143,143,0,0,0,2.19-17.67,109.3,109.3,0,0,1,10.36-39c3.67-7.84,7.56-15.61,10.7-23.66a33.87,33.87,0,0,0-2.39-30.79c-2.63-4.48-5.09-9.07-7.91-13.43q-14.6-22.56-29.41-45a33.47,33.47,0,0,0-21.28-14.58c-8.06-1.84-16.09-3.84-24.13-5.78-11.57-2.78-23.14-5.5-35.09-6.27-14.69-1-28.87.74-42.56,6.41-10.22,4.23-20.58,8.15-30.95,12-8.32,3.12-16.77,5.9-25.11,9a22.25,22.25,0,0,0-14.62,16.47C161.17,203.54,160.62,208,159.83,212.37Z" />
            <path class="cls-22" d="M164.46,216.39c.61-3.41,1-7.51,2.11-11.43,2.61-9.41,9.09-15.25,18.22-18.16,14.94-4.77,29.39-10.76,43.78-16.92a97.4,97.4,0,0,1,54-6.86c17.63,2.72,35.14,6.19,52.22,11.55A31.44,31.44,0,0,1,351.41,186,600.08,600.08,0,0,1,388,242.43c6.51,11.5,7.08,23.37,1.94,35.47-2.83,6.66-6,13.16-8.92,19.78a116.34,116.34,0,0,0-9.3,38c-.38,5-1,9.93-1.85,14.84a36.6,36.6,0,0,1-12.64,21.94,311.81,311.81,0,0,0-26.92,26.45c-4.54,5-9.64,9.35-16.27,11.43-2.08.66-4.22,1.15-6.3,1.81-5.07,1.61-10.15,3.2-15.18,4.94a9.35,9.35,0,0,1-9.31-1.5,43.87,43.87,0,0,1-6.86-7.23,64.51,64.51,0,0,1-4.92-7.8,64.79,64.79,0,0,0-17.43-19.4c-10.23-7.78-20.48-15.54-29.35-25-11.23-11.92-20.38-25.34-28.67-39.37-4.2-7.11-8.57-14.16-12.16-21.58-4.36-9-6.66-18.76-8.95-28.47-3-12.84-6.12-25.66-9-38.53C165.15,224.63,165,220.84,164.46,216.39Zm102.83-52.5c-11.28.26-19.75,1.42-27.52,4.42q-27.25,10.53-54.36,21.4c-9.86,4-15.58,11.48-17.43,21.93-1.39,7.83-.41,15.59,1.29,23.21,2.52,11.34,5.55,22.56,8.17,33.88,2.27,9.8,4.36,19.69,9.19,28.6,5.53,10.2,11.36,20.26,17.4,30.17,11,18.07,24.79,33.71,42.2,45.87C258.77,382.14,270,392,277,406a1.57,1.57,0,0,0,.23.34c1.94,2.18,3.65,4.66,5.89,6.48,3.35,2.73,7.22,3.11,11.4,1.58a118.58,118.58,0,0,1,15.6-5,31.91,31.91,0,0,0,17-9.72c9.5-10.14,19.16-20.1,29.78-29.1,4.13-3.5,6.91-8,9.09-13,3.3-7.49,3.69-15.52,4.57-23.43,1.31-11.67,3.63-23.09,8-34,2.93-7.28,6.44-14.32,9.35-21.61,3-7.46,4.84-15.21,2.25-23.19a92.22,92.22,0,0,0-5.4-13.27c-9.43-18.53-21.43-35.44-33.69-52.16a37.16,37.16,0,0,0-21.55-14.4c-9.28-2.32-18.59-4.55-27.85-7A155.08,155.08,0,0,0,267.29,163.89Z" />
            <path class="cls-23" d="M266.92,166.87c13.52-.81,26.39,2.21,39.27,5.07q10.8,2.4,21.53,5.08a41,41,0,0,1,24,16.53c11,15.43,21.64,31.11,30.69,47.79,2.77,5.11,5.47,10.29,6.56,16.08,1.3,6.87,0,13.54-2.34,19.94s-5.28,12.58-7.94,18.87a126.87,126.87,0,0,0-8.9,33.55c-.81,6.37-1.42,12.77-2.51,19.09-1.35,7.85-5.28,14.43-10.94,20-9.3,9.17-18.67,18.28-27.9,27.51-5,5-10.65,8.94-17.55,11-5.51,1.61-11,3.4-16.46,5.05-4.66,1.4-8.88.47-12.25-3.05a37.24,37.24,0,0,1-5.87-7.33c-6.45-11.6-15.64-20.43-26.61-27.67-19.71-13-35.09-30.1-47-50.42-6.07-10.37-12.82-20.44-17-31.75-2.92-7.92-4.89-16.2-7-24.39q-4-15.49-7.42-31.11a63.63,63.63,0,0,1-1.5-19.77c1.16-12.38,7.06-21.17,19-25.83,13.69-5.34,27.23-11,40.77-16.74A90.69,90.69,0,0,1,266.92,166.87ZM172,223.29a94.17,94.17,0,0,0,.93,9.58c2.06,10.46,4.13,20.92,6.6,31.29,2.17,9.09,4.35,18.24,7.51,27,4.7,13,12.18,24.74,19.27,36.57a135.05,135.05,0,0,0,45.26,46.13c10.19,6.31,18.65,14.23,24.65,24.72a49.54,49.54,0,0,0,5.48,7.41c3.5,4.1,8.07,5.25,13.19,4,4-1,8-2.39,12-3.46a48,48,0,0,0,22.5-13.64c6.79-7,14-13.66,20.9-20.59a107.9,107.9,0,0,0,9.94-10.88c5-6.68,6.24-14.73,7-22.82a166.73,166.73,0,0,1,5.17-29.22,187.44,187.44,0,0,1,9.82-25.6c3.42-7.64,5.74-15.55,4.3-24.07-1.07-6.37-4-12-7-17.67-8.14-15.38-17.7-29.88-27.56-44.2-6.35-9.22-14.73-15.74-25.48-18.55-15.72-4.12-31.46-8.25-47.73-9.74-17-1.56-33.58.22-49.4,7-11.87,5.11-23.65,10.41-35.53,15.49-4.68,2-9.29,4.07-13,7.68C174.35,206.21,172,214.29,172,223.29Z" />
            <path class="cls-24" d="M176.09,228.55c.8-4.63,1.15-9.39,2.5-13.85,2.17-7.15,7.49-11.91,14-15,12.47-5.93,25-11.74,37.67-17.23,13.42-5.8,27.62-7.61,42.14-6.9,17.35.85,34.24,4.64,51,8.81a42.63,42.63,0,0,1,24.49,16.51c11.95,16,22.58,32.78,30.47,51.18a63.59,63.59,0,0,1,3.58,11.1c1.39,6.19.08,12.27-1.9,18.13-2.34,6.92-5,13.71-7.55,20.57-3.47,9.49-5.12,19.39-6.48,29.36-1,7.36-1.39,14.83-3.89,21.95a36.83,36.83,0,0,1-9,14.52Q338.67,381.86,324,396a33.28,33.28,0,0,1-13.43,8c-4.71,1.44-9.38,3-14.08,4.45a12.74,12.74,0,0,1-13.87-3.65,36.75,36.75,0,0,1-5.33-7,67.61,67.61,0,0,0-24.58-24.73c-23.81-14.39-40.51-35.13-53.56-59.42-8.7-16.21-13.72-33.39-17.06-51.26-1.66-8.86-3.44-17.71-5-26.58a67.77,67.77,0,0,1-.55-7.15Zm92-50.86c-11.56.08-22.94,1.51-33.8,5.6-14.23,5.36-27.7,12.4-41,19.73-6.66,3.67-11.48,9.24-12.95,16.89a46.21,46.21,0,0,0-.75,12.83c.75,8,2,16,3.4,23.93,1.73,9.54,3.65,19.07,5.94,28.49,2.68,11,8.34,20.87,13.22,31A126.14,126.14,0,0,0,255,372.55a60,60,0,0,1,21.7,21.05,60.32,60.32,0,0,0,7.25,9.38,10.91,10.91,0,0,0,11.77,3.28c2.22-.68,4.51-1.13,6.72-1.84,8.43-2.71,16.69-5.64,23.19-12.15,8.46-8.47,17.15-16.71,25.65-25.13a40.37,40.37,0,0,0,11.94-25c.67-6.11,1.3-12.24,2.27-18.31,2.15-13.42,6.59-26.19,11.26-38.9,4.09-11.15,4.11-22.08-1-33a310.84,310.84,0,0,0-29.5-49.43,39.88,39.88,0,0,0-24.06-15.92q-11-2.58-22-4.76C289.53,179.65,278.92,177.62,268,177.69Z" />
            <path class="cls-25" d="M268.48,181.95c11.6-.12,24.54,1.85,37.39,4.7,5.33,1.18,10.74,2,16,3.3,10.39,2.52,18.13,8.84,24.43,17.28,7.81,10.46,14,21.87,20,33.4a119.8,119.8,0,0,1,8.86,20.94c2.33,7.78,1.82,15.38-.59,23-2.31,7.29-5,14.48-6.7,21.92-2.4,10.78-4.08,21.73-5.92,32.64-1,5.92-1.12,12.13-4.36,17.36a63.38,63.38,0,0,1-8.75,11.31c-8.48,8.54-17.26,16.79-26,25a33.77,33.77,0,0,1-14.1,8.09c-3.94,1.12-7.79,2.56-11.68,3.84-4.58,1.49-8.83.64-12.16-2.71a49.06,49.06,0,0,1-7.52-9.4c-5.75-9.72-13.74-16.78-23.6-22.16-22-12-38.19-29.62-49.53-51.83-6-11.69-11.77-23.5-14.5-36.45-3.16-15-6.42-30-7.41-45.29a55.42,55.42,0,0,1,.89-14.26c1.6-8,7-13.65,14-17.35,11.12-5.86,22.34-11.58,33.81-16.72C242.37,183.51,254.48,181.69,268.48,181.95Zm-.69,2.07c-12.2.07-24.16,1.68-35.5,6.33a205.18,205.18,0,0,0-34.05,18,35.16,35.16,0,0,0-8.44,8.23c-4.64,6.1-5.07,13.4-4.85,20.75.39,13,3.07,25.65,5.26,38.38,2.47,14.37,7.89,27.78,14.24,40.85a116.47,116.47,0,0,0,20.1,29.78c8.7,9.16,18.33,17.07,29.8,22.47a52.32,52.32,0,0,1,20.39,16.72c2.13,2.92,4,6,6.08,9,5.59,8.07,9.54,9.59,19,7.13,9.17-2.39,17.78-6,24.8-12.59,8.11-7.55,16-15.38,24-23,6.56-6.27,10-14.07,11.38-22.88,1-6.28,1.66-12.6,2.63-18.87,2-12.78,5.38-25.23,9.14-37.58,3.14-10.33,3.15-20.52-1.4-30.43q-7-15.27-14.47-30.36A89.72,89.72,0,0,0,343,206.45c-6.93-8-15.29-13.29-25.85-15-5.32-.88-10.59-2.05-15.86-3.2C290.24,185.82,279.14,184,267.78,184Z" />
            <path class="cls-26" d="M190,244c.33-4.19.55-7.46.86-10.73.82-8.41,5.17-14.67,11.9-19.49,9-6.44,18.78-11.42,28.88-15.88,14.05-6.2,28.83-7.56,43.8-6.07,13.11,1.3,26.12,3.61,39.15,5.64,12.71,2,22.21,9,29.54,19.3a125.14,125.14,0,0,1,13.41,25.11c2.91,7.08,5.71,14.21,8.33,21.41,3,8.37,2.76,17,.86,25.5-3.3,14.74-6.38,29.51-8.32,44.5-.61,4.74-.94,9.55-1.95,14.21A36.31,36.31,0,0,1,345.91,366c-8.2,7.95-16.53,15.79-25.16,23.26-6.56,5.67-14.5,9-22.93,11-6,1.43-10.81-.53-14.47-5.31-2.24-2.93-4.25-6-6.3-9.11a52.65,52.65,0,0,0-22.64-19.25c-21-9.44-35.5-25.57-46-45.65A146,146,0,0,1,192.3,266C191.62,258.35,190.71,250.75,190,244Zm2.61,3.32c.63,7.54,1.12,14.43,1.79,21.3A141.32,141.32,0,0,0,214,328.27c8,13.22,18.28,24.38,31.82,32.2a71.13,71.13,0,0,0,7.74,3.75,57.16,57.16,0,0,1,25.89,21.95,77.43,77.43,0,0,0,6.51,8.67c2.34,2.67,5.49,3.6,9.1,3.17a45.52,45.52,0,0,0,23.68-10.1c9-7.38,17.63-15.36,26.13-23.38a33,33,0,0,0,9.49-15.84c1.13-4.41,1.48-9,2.23-13.52,2.28-13.74,4.44-27.51,6.92-41.21,2.09-11.5,2.52-22.8-1.89-33.91-3.13-7.88-6-15.86-9.25-23.69a83.9,83.9,0,0,0-13.12-21.93,40.32,40.32,0,0,0-24.18-14.34c-8.19-1.51-16.42-2.84-24.67-4-7-1-13.95-2.24-20.95-2.46-15.83-.5-31,2.54-45.07,10.15-8.07,4.36-16.2,8.6-22.86,15.09-3.72,3.63-6.5,7.78-7.17,13S193.13,242.57,192.6,247.33Z" />
            <path class="cls-27" d="M195,250.36c.36-4.22.55-8.39,1.11-12.52A30.75,30.75,0,0,1,209.5,216c13.52-9.52,28.15-16.19,44.68-18.27a88.67,88.67,0,0,1,23.32.38c11.3,1.56,22.59,3.22,33.9,4.75A37.89,37.89,0,0,1,336.27,217a78.79,78.79,0,0,1,13.19,23.27c3,8.09,5.59,16.29,8.27,24.48,3.55,10.83,2.91,21.82,1.28,32.88-1.7,11.56-3.37,23.13-4.79,34.73-1.11,9-2.32,18.1-8.07,25.46A121.79,121.79,0,0,1,332.6,372c-7.34,6.77-15,13.26-24,17.81a65.36,65.36,0,0,1-10,4.1c-5.31,1.65-10.06.25-13.83-3.81a63.78,63.78,0,0,1-5.83-7.39,57.13,57.13,0,0,0-27.19-21.59c-16.9-6.53-28.77-18.8-37.37-34.18-9.15-16.37-15.52-33.89-17.66-52.67C195.8,266.32,195.52,258.31,195,250.36Zm2.3,6.83c.63,7.44.92,13.67,1.73,19.83a135.79,135.79,0,0,0,18.61,52.73C225,342,234.84,352,248.18,358c3.36,1.51,6.82,2.83,10.16,4.38,8.89,4.11,15.36,11,21.26,18.59a80.36,80.36,0,0,0,6,7.28,12.23,12.23,0,0,0,12.65,3.28,32.61,32.61,0,0,0,5.17-1.95,113.84,113.84,0,0,0,26-17.47c2.89-2.51,5.67-5.15,8.5-7.73,9.59-8.76,13.63-19.92,14.76-32.6.93-10.48,2.44-20.91,3.9-31.34,1.41-10.09,2.26-20.15-.7-30.1s-5.84-20.09-9.27-30a81.41,81.41,0,0,0-7.32-15.31c-6.59-10.87-15.94-18-28.9-19.8-6.09-.85-12.13-2-18.2-3-10.46-1.63-20.88-3.31-31.58-2.73-18.06,1-34.11,7.16-48.52,17.86-7.78,5.78-12.61,13.41-13.51,23.22C198,246.53,197.6,252.46,197.25,257.19Z" />
            <path class="cls-28" d="M199.59,259.48c.38-5.32.68-10.64,1.15-16,1.09-12.31,7.8-21,17.9-27.46a83.72,83.72,0,0,1,47.55-13.67c7.21.14,14.42,1.24,21.59,2.19,7.72,1,15.39,2.4,23.09,3.55,13.16,2,21.9,9.82,28.19,21,4.47,7.93,7,16.61,9.51,25.28,2.68,9.19,5.76,18.32,6.23,28a125,125,0,0,1-.43,17.4c-1.06,11.56-2.57,23.08-3.75,34.63a44.42,44.42,0,0,1-14.24,28.73,151,151,0,0,1-33.07,23.72c-4.43,2.34-9.08,3.89-13.87,1.31a27.82,27.82,0,0,1-6.21-4.92,69.4,69.4,0,0,1-5.67-6.75,55.93,55.93,0,0,0-25.36-18.5c-17.1-6.3-28.65-18.57-36.77-34.24A140.37,140.37,0,0,1,200,271.39c-.35-3.93-.05-7.93-.05-11.89Zm2.45,2.28c0,3.28-.17,6.57,0,9.84,1,16.23,5.67,31.48,12.13,46.3,7.94,18.22,20.19,31.91,39.24,39a56.91,56.91,0,0,1,22.3,15.31c3.17,3.49,6.17,7.15,9.51,10.48,4.7,4.68,10.08,5.67,15.73,2.35,10.9-6.41,21.78-12.83,31.4-21.21,9.93-8.65,15.77-19.21,17-32.36,1-11.1,2.36-22.17,3-33.29a71.22,71.22,0,0,0-.74-18c-2.11-10.71-5.18-21.24-7.89-31.83a70.26,70.26,0,0,0-7.26-18.68c-4.09-6.89-9.23-12.89-16.73-16.07a67.44,67.44,0,0,0-13-3.5,270.43,270.43,0,0,0-38.34-5.28,77.4,77.4,0,0,0-48.85,13.55c-8.28,5.57-13.91,12.92-15.87,23A79.43,79.43,0,0,0,202,261.76Z" />
            <path class="cls-29" d="M204.59,266.12c.39-4.56.72-11,1.54-17.35,1.56-12.17,8.38-20.79,18.74-26.93a72.77,72.77,0,0,1,29.63-9.5c10.75-1.18,21.27.87,31.81,2.3,6.35.87,12.62,2.33,19,3.37,13.17,2.17,22,9.87,26.69,22,3.11,8.06,5.09,16.57,7.34,25,1.84,6.86,3.61,13.77,4.88,20.75,2,11,1.73,22.19.71,33.33-.48,5.17-1.15,10.32-1.7,15.49-1.26,11.72-7,21-16.26,27.88-9,6.61-18.33,12.68-27.71,18.69-5,3.17-9.9,2.52-14.44-1.23a36.46,36.46,0,0,1-4.71-4.56,68.9,68.9,0,0,0-27.56-20.13c-18.87-7.46-30.85-21.32-38.09-39.78-4.27-10.89-8-21.93-9.07-33.69C204.95,277.15,204.89,272.56,204.59,266.12Zm139.23,40.2c-.38-5.11-.24-9.77-1.14-14.22q-3.47-17.07-7.77-34a118,118,0,0,0-6.33-19c-4.19-9.33-11.31-15.7-21.69-17.67-11.54-2.19-23.05-4.59-34.66-6.31a70.93,70.93,0,0,0-42.67,6.82c-9,4.47-16.19,10.93-19.21,20.82A78.12,78.12,0,0,0,207.48,258c-1.61,16.63-.84,33,5.34,48.86,3,7.65,5.95,15.25,10.19,22.32,6.93,11.56,17.15,19.06,29.22,24.49,10.55,4.75,20.34,10.68,28.07,19.54a39.13,39.13,0,0,0,3.29,3.38c4.91,4.42,9.82,5.07,15.37,1.53,8.48-5.41,16.91-10.9,25.11-16.71,10.6-7.51,16.87-17.78,18-30.87C342.77,322.32,343.26,314.06,343.82,306.31Z" />
            <path class="cls-30" d="M208.65,272c.63-5.83,1.14-12.93,2.21-19.94,2.09-13.64,10-22.89,22.4-28.56,11.23-5.14,23.09-6.55,35.26-5.63,13.06,1,25.76,4.06,38.42,7.22,9.24,2.31,15.89,8,19.37,16.82A203,203,0,0,1,333,262.37c3.06,11.07,6.19,22.14,7.43,33.61a130,130,0,0,1,.92,15.56c-.12,9.49-.84,19-3.73,28.1-2.63,8.31-8.19,14.47-15.21,19.32-7.66,5.28-15.43,10.41-23.24,15.46-6.44,4.17-11.26,4-16.63-1.48-9.1-9.32-19.78-16.2-31.49-21.52C234.69,344,224.16,331.5,217.78,315c-3.33-8.6-6.75-17.19-7.89-26.42C209.27,283.55,209.11,278.41,208.65,272Zm131,38.35c-.8-7.25-.84-14.77-2.57-21.87-3.44-14.2-7.62-28.22-11.85-42.21a25.42,25.42,0,0,0-18.09-17.8c-9.17-2.63-18.47-4.93-27.81-6.86-12.76-2.64-25.52-2.52-38.1,1.43-14.68,4.61-25,13.58-28,29.14A152,152,0,0,0,211,273.36a83.21,83.21,0,0,0,.49,15.34c1.62,12,6.09,23.19,11.41,34a54.6,54.6,0,0,0,25.46,25.76c5.4,2.64,10.65,5.59,15.92,8.48,6.52,3.58,12.11,8.37,17.58,13.37,5.85,5.34,10.5,5.59,16.87,1.36q11.37-7.54,22.61-15.27c8.41-5.78,14.27-13.47,15.91-23.68C338.49,325.4,338.86,317.93,339.6,310.36Z" />
            <path class="cls-31" d="M212.2,275.94c.88-7.26,1.28-14.54,2.71-21.61,3.12-15.36,13-24.63,27.7-29.23a65.43,65.43,0,0,1,30.81-1.78c11.4,1.91,22.7,4.19,33.56,8.23a25,25,0,0,1,15.65,15.7c4.9,13.86,9.63,27.77,12.44,42.24,2.9,14.93,3.38,29.89-.15,44.77a29.61,29.61,0,0,1-12.86,18.36c-8.37,5.57-16.54,11.42-24.82,17.13-4.24,2.93-8.65,3-12.86.13-3.56-2.4-6.72-5.43-10.34-7.72-6.92-4.38-13.76-9-21.14-12.51-16.77-7.92-27.28-21-33.37-38.08A155,155,0,0,1,213.71,292C212.6,286.79,212.66,281.31,212.2,275.94Zm1.65,3.84.72.06c-.59,11.63,2.76,22.39,7,33,5.68,14.3,14.3,26.08,28.19,33.39,11.19,5.9,22.23,12,32.19,19.92,5.83,4.65,9.68,4.36,15.89.18,6.69-4.5,13.42-9,20-13.61a53.28,53.28,0,0,0,8-6.71,30.88,30.88,0,0,0,8.41-18.3c1.06-9.58,2.16-19.15.46-28.79a257.75,257.75,0,0,0-14.29-49.76,25.69,25.69,0,0,0-17.21-15.79c-7.7-2.34-15.46-4.53-23.27-6.45-10.82-2.67-21.74-3.19-32.69-.58-15.35,3.66-26.3,12.24-29.83,28.13C215.54,262.75,215,271.33,213.85,279.78Z" />
            <path class="cls-32" d="M260.85,226.37c10.57.31,20.62,2.86,30.58,5.91,3.46,1.06,6.89,2.23,10.33,3.33,8.37,2.67,14,8.3,17.47,16.21,4.59,10.42,7.79,21.3,10.63,32.3,2.44,9.42,4.45,18.9,4.15,28.72-.26,8.54-.92,17-4.54,25a24.09,24.09,0,0,1-8.16,9.85c-8.06,5.66-16.23,11.18-24.22,16.93-5,3.6-9.76,3.4-14.86.26-11.4-7-22.9-13.9-34.36-20.82s-19-17-24.24-28.92a94.17,94.17,0,0,1-7-22c-1.64-9.56-.83-19.1.6-28.59a75.5,75.5,0,0,1,2.41-11.42c4.44-14.1,14.59-21.9,28.64-25C252.4,227.17,256.66,226.92,260.85,226.37Zm-43.94,56.18.51.1c.21,2.86.36,5.73.63,8.58.73,7.45,3.75,14.22,6.39,21.1,5.58,14.55,15,25.72,28.77,33.19,6.67,3.62,13.18,7.53,19.73,11.35,3.66,2.14,7.18,4.52,10.91,6.52a10.65,10.65,0,0,0,11.66-.71q10.91-7.49,21.73-15.12c3.66-2.57,7-5.45,9.3-9.41,5.13-8.89,6.42-18.71,5.6-28.58a166.45,166.45,0,0,0-15.07-56,28.08,28.08,0,0,0-14.46-14.44,132.26,132.26,0,0,0-23.28-7.83c-9.8-2.36-19.64-3.42-29.64-1.26-15.3,3.3-25.39,12.23-28.88,27.61C219,265.84,218.18,274.25,216.91,282.55Z" />
            <path class="cls-33" d="M260.07,233.37a102.12,102.12,0,0,1,42.29,12.09c6.25,3.34,10.05,8.9,13.12,15.07,6,12.09,9.7,25,12.35,38.13a67.36,67.36,0,0,1,.13,27.48C326.09,335,321.71,342,314,347c-6,3.86-11.77,8-17.46,12.26-4.87,3.65-9.77,3.91-14.92,1-8-4.55-16.1-9-24-13.81a123,123,0,0,1-13.67-9.39c-8.25-6.66-12.9-15.91-17.45-25.25-7.77-16-7.37-32.32-3.15-49,1.58-6.23,3.61-12.18,7.85-17.18,6.14-7.25,14.19-10.69,23.4-11.81C256.41,233.57,258.26,233.5,260.07,233.37ZM222,288.08c-.1,4.14,1.32,10.69,3.6,17.12,5.69,16,14.72,29.41,29.66,38.18,8.25,4.84,16.67,9.39,24.89,14.27,4.9,2.91,9.57,2.67,14.35,0a28.23,28.23,0,0,0,2.64-1.57c5.88-4.23,11.77-8.46,17.61-12.75a27.83,27.83,0,0,0,8.87-10.58c3.67-7.72,4.5-15.92,3.7-24.24-1.33-13.85-5.3-27-10.79-39.79-4.61-10.76-11-19.36-22.25-24.17-11.95-5.11-24-9.41-37.15-8.76s-23.7,6.61-28.84,19.22C224.38,264.62,222.14,274.83,222,288.08Z" />
            <path class="cls-34" d="M324.64,314.12c-1,5-1.68,10.1-3.12,15-2.19,7.39-7.81,12.2-13.81,16.53-3.77,2.72-7.71,5.22-11.33,8.13-4.66,3.75-9.55,4.28-15,2.06A147,147,0,0,1,256.31,342a63.82,63.82,0,0,1-19.94-20.63c-4.86-8.13-8.71-16.72-10.48-26.09A38.11,38.11,0,0,1,226,280,159.28,159.28,0,0,1,231.66,259c4-10.81,12.37-17.16,23.73-17.76,19.51-1,36.62,5.32,50.26,19.63,5,5.26,7.59,12.13,10.44,18.73,4.65,10.76,7.85,24.78,7.95,34.36Zm-86.85,4.18,1.18,2.84c2.12,2.93,4,6.06,6.39,8.76,8.41,9.54,19,16.16,30.18,22a32.17,32.17,0,0,0,7.65,2.86c3.87.88,7.83.87,11.25-1.59,4.49-3.24,9-6.5,13.29-10,4.65-3.76,8.8-8,11.46-13.51,4.67-9.63,4.4-19.57,1.94-29.65a118.37,118.37,0,0,0-15.23-35.24,28,28,0,0,0-5.82-6.5,77.1,77.1,0,0,0-8.71-5.78c-8.73-5.38-18.05-9.25-28.36-10-10.69-.79-24.58,3.91-30.49,18.48A70.13,70.13,0,0,0,227.62,282c-.39,5.06-.53,10.11.66,15.09,1.72,7.24,5,13.84,8.49,20.36C237,317.85,237.44,318,237.78,318.31Z" />
            <path class="cls-35" d="M239,321.15l-1.18-2.84c-1.22-2.44-2.52-4.85-3.64-7.33-2.42-5.35-4.91-10.71-5.6-16.63a61.34,61.34,0,0,1,3.85-29.4c2.27-5.92,5.14-11.56,10.7-15.19a33.52,33.52,0,0,1,27.67-4.63c8.28,2.11,15.52,6.35,22.63,10.92,4.24,2.73,8.27,5.72,11.07,9.95,8.56,13,15.44,26.67,17,42.4,1,10.32-1.14,19.89-8.24,27.88-5.94,6.69-13.56,11.22-20.87,16.15a7.54,7.54,0,0,1-2.1.79c-4.58,1.35-9,.37-13.11-1.51-14.79-6.76-27.66-16-37-29.57A5.92,5.92,0,0,0,239,321.15Zm-8.83-33c.21,2.65.24,5.33.67,7.94,1.07,6.41,3.83,12.22,6.73,17.95,9.2,18.18,24.25,29.54,42.85,36.76a13.65,13.65,0,0,0,12.78-1.2c4.1-2.59,8.19-5.22,12.08-8.11C316.5,333.16,320.77,321.81,319,308a87.28,87.28,0,0,0-11.69-33.23c-9.9-16.85-24.56-26.49-44-28.61-7.62-.83-14.72.82-20.58,6.18-4.16,3.81-6.51,8.74-8.48,13.88C231.56,273.31,230.71,280.7,230.13,288.2Z" />
            <path class="cls-36" d="M316.42,314.34c.7,10.83-4,19.2-12.1,25.87A111.35,111.35,0,0,1,294,347.56c-5.11,3.33-10.53,3.36-16.06,1-16.3-6.9-29.13-17.62-37.17-33.65-3-6-6.36-11.81-7.33-18.58-1.4-9.73.34-19.09,3.73-28.15a37.87,37.87,0,0,1,5.1-9.29c5.8-7.75,13.9-10.09,23.14-8.56,17.71,2.94,30.55,12.93,39.65,28.07A83.21,83.21,0,0,1,316.24,309a22.59,22.59,0,0,1,.18,2.66C316.44,312.56,316.42,313.45,316.42,314.34ZM235,290.78c.2,1.71.32,4,.74,6.18,1.54,8.11,5.16,15.37,9.49,22.3A69.55,69.55,0,0,0,276.13,346c6.81,3.12,13.29,2.68,19.43-1.6a95,95,0,0,0,7.83-6c9.17-7.93,12.4-18,10.57-29.88-2-13.21-7.56-24.94-15.69-35.43-8.36-10.8-19-18.21-32.65-20.7-10.73-2-18.43,1.58-23.77,11C237.16,271.74,235.54,280.84,235,290.78Z" />
            <path class="cls-37" d="M309.39,318c.52,12.72-13.32,24.54-22.68,27.22-4.47,1.28-8.7,0-12.76-1.7-12.15-5.14-21-14.1-28-25a74.05,74.05,0,0,1-8.86-20.63c-.84-3.06-.5-6.52-.32-9.78.37-6.72,1.41-13.34,4.61-19.4,5.45-10.29,13.43-13.9,24.76-11.3,9.28,2.13,16.8,7.15,23,14.14a85.8,85.8,0,0,1,16.64,26.63A56.13,56.13,0,0,1,309.39,318Zm-70.65-26c.22,1.83.18,5,1,7.89a71.35,71.35,0,0,0,9.3,20c6.32,9.25,14.15,16.83,24.42,21.62,6.25,2.92,12.51,2.87,18.47-.71a32.57,32.57,0,0,0,13.21-15c3.08-7,2.25-14.21.3-21.31-3.85-14-11.64-25.71-22.16-35.58a40.07,40.07,0,0,0-17.23-9.59c-10-2.66-16.61.1-21.82,9C240.19,275.19,239.17,282.87,238.74,292Z" />
            <path class="cls-38" d="M241.49,291c.31-7.13,1.67-14,6-19.93s10.86-8.18,18.12-6.22c7.55,2,13.36,6.65,18.55,12.27,8.72,9.44,14.92,20.25,17.68,32.83,2.2,10-.64,18.73-8.19,25.67-5.9,5.42-12.73,6.92-20.29,3.68A44.74,44.74,0,0,1,257.06,327c-7.51-8.71-13.26-18.38-15.2-29.95a25.72,25.72,0,0,1-.35-2.85C241.45,293.15,241.49,292.06,241.49,291Zm2,2.57a36.74,36.74,0,0,0,.6,5,65.94,65.94,0,0,0,8.11,19.18c5,8.06,11.4,14.69,19.94,19,6.24,3.15,12.64,3.2,18.16-1.29,7.84-6.36,11.52-14.65,9.36-24.89-2.93-13.83-10.21-25.23-20.07-35.1A31.51,31.51,0,0,0,265.74,267c-6.74-1.88-13.35.14-16.55,5.35C245.29,278.62,243.64,285.63,243.51,293.53Z" />
            <path class="cls-39" d="M248.55,294.46a18.25,18.25,0,0,1,3.24-10.18c4.45-6.72,12-8.27,18.52-3.56,12.34,8.84,19.48,21,22.15,35.84a17.65,17.65,0,0,1-2.41,12.24c-4.05,6.87-10.25,8.81-17.55,5.61-5-2.21-8.75-6-12.24-10.07C253.24,316.18,248.85,306.91,248.55,294.46Zm41.63,23.6c0-.37,0-1.33-.2-2.27a47.64,47.64,0,0,0-8.63-20.61c-3.72-5.11-7.83-9.9-13.45-13-5.18-2.87-10.56-1.42-13.75,3.57A20.23,20.23,0,0,0,251,298.64a42.92,42.92,0,0,0,10,23.81c3.53,4.33,7.4,8.26,12.8,10.25a11.16,11.16,0,0,0,13.27-4C289.22,325.68,290.08,322.29,290.18,318.06Z" />
            <path class="cls-40" d="M286.5,320.9a36.53,36.53,0,0,1-1.61,5.65c-2.17,4.71-6.75,6.44-11.46,4.3-7.25-3.29-12-9.12-15.33-16.12-2.37-5-4-10.16-3.5-15.79a11,11,0,0,1,.47-2.2c2.49-8.09,9.25-10.06,15.88-4.76,8.66,6.92,13.44,16,15.15,26.79.11.67.11,1.36.17,2Zm-2.84-1.2c0-4.83-1.9-9.09-4-13.24a31.4,31.4,0,0,0-10.22-12.09c-4.92-3.37-10.36-1.31-11.79,4.46a17.74,17.74,0,0,0-.55,3.64c-.23,6.47,2.62,11.9,6.06,17.06a22.12,22.12,0,0,0,10.14,8.66c4.41,1.76,8.65-.45,9.85-5.06A31.22,31.22,0,0,0,283.67,319.7Z" />
            <path class="cls-41" d="M258.87,303.93c0-.41,0-.82,0-1.23.15-2.71.72-5.27,3.48-6.48,2.91-1.28,5.64-.6,8,1.36a29.91,29.91,0,0,1,10.08,15.14,23.07,23.07,0,0,1,.92,8.43c-.66,6.68-6.39,6.95-9.91,4.78a31.45,31.45,0,0,1-6.62-6A24.13,24.13,0,0,1,258.87,303.93ZM279,317.06c-.84-6.38-3.62-12.1-9.35-16.16-1.66-1.18-3.42-2.17-5.51-1.2s-2.5,3.1-2.61,5.19c-.39,7.18,3,12.57,8.21,17,1.94,1.66,4.14,2.57,6.61,1.41S278.81,319.79,279,317.06Z" />
        </g>
    </g>
</svg>