<svg xmlns="http://www.w3.org/2000/svg" xmlns:xlink="http://www.w3.org/1999/xlink" viewBox="0 0 487.25 546.81">
    <defs>
        <style>.cameroon-cls-1{fill:url(#Dégradé_sans_nom_7);}.cameroon-cls-2{fill:url(#Dégradé_sans_nom_7-2);}.cameroon-cls-3{fill:url(#Dégradé_sans_nom_7-3);}.cameroon-cls-4{fill:url(#Dégradé_sans_nom_7-4);}.cameroon-cls-5{fill:url(#Dégradé_sans_nom_7-5);}.cameroon-cls-6{fill:url(#Dégradé_sans_nom_7-6);}.cameroon-cls-7{fill:url(#Dégradé_sans_nom_7-7);}.cameroon-cls-8{fill:url(#Dégradé_sans_nom_7-8);}.cameroon-cls-9{fill:url(#Dégradé_sans_nom_7-9);}.cameroon-cls-10{fill:url(#Dégradé_sans_nom_7-10);}.cameroon-cls-11{fill:url(#Dégradé_sans_nom_7-11);}.cameroon-cls-12{fill:url(#Dégradé_sans_nom_7-12);}.cameroon-cls-13{fill:url(#Dégradé_sans_nom_7-13);}.cameroon-cls-14{fill:url(#Dégradé_sans_nom_7-14);}.cameroon-cls-15{fill:url(#Dégradé_sans_nom_7-15);}.cameroon-cls-16{fill:url(#Dégradé_sans_nom_7-16);}.cameroon-cls-17{fill:url(#Dégradé_sans_nom_7-17);}.cameroon-cls-18{fill:url(#Dégradé_sans_nom_7-18);}.cameroon-cls-19{fill:url(#Dégradé_sans_nom_7-19);}.cameroon-cls-20{fill:url(#Dégradé_sans_nom_7-20);}.cameroon-cls-21{fill:url(#Dégradé_sans_nom_7-21);}.cameroon-cls-22{fill:url(#Dégradé_sans_nom_7-22);}.cameroon-cls-23{fill:url(#Dégradé_sans_nom_7-23);}.cameroon-cls-24{fill:url(#Dégradé_sans_nom_7-24);}.cameroon-cls-25{fill:url(#Dégradé_sans_nom_7-25);}.cameroon-cls-26{fill:url(#Dégradé_sans_nom_7-26);}.cameroon-cls-27{fill:url(#Dégradé_sans_nom_7-27);}.cameroon-cls-28{fill:url(#Dégradé_sans_nom_7-28);}.cameroon-cls-29{fill:url(#Dégradé_sans_nom_7-29);}.cameroon-cls-30{fill:url(#Dégradé_sans_nom_7-30);}.cameroon-cls-31{fill:url(#Dégradé_sans_nom_7-31);}.cameroon-cls-32{fill:url(#Dégradé_sans_nom_7-32);}.cameroon-cls-33{fill:url(#Dégradé_sans_nom_7-33);}.cameroon-cls-34{fill:url(#Dégradé_sans_nom_7-34);}.cameroon-cls-35{fill:url(#Dégradé_sans_nom_7-35);}.cameroon-cls-36{fill:url(#Dégradé_sans_nom_7-36);}.cameroon-cls-37{fill:url(#Dégradé_sans_nom_7-37);}.cameroon-cls-38{fill:url(#Dégradé_sans_nom_7-38);}.cameroon-cls-39{fill:url(#Dégradé_sans_nom_7-39);}.cameroon-cls-40{fill:url(#Dégradé_sans_nom_7-40);}.cameroon-cls-41{fill:url(#Dégradé_sans_nom_7-41);}.cameroon-cls-42{fill:url(#Dégradé_sans_nom_7-42);}</style>
        <linearGradient id="Dégradé_sans_nom_7" x1="243.63" y1="-29.23" x2="243.63" y2="575.87" gradientUnits="userSpaceOnUse">
            <stop offset="0.17" stop-color="#ef5259" />
            <stop offset="1" stop-color="#f87636" />
        </linearGradient>
        <linearGradient id="Dégradé_sans_nom_7-2" x1="243.17" y1="-29.23" x2="243.17" y2="575.87" xlink:href="#Dégradé_sans_nom_7" />
        <linearGradient id="Dégradé_sans_nom_7-3" x1="242.46" y1="-29.23" x2="242.46" y2="575.87" xlink:href="#Dégradé_sans_nom_7" />
        <linearGradient id="Dégradé_sans_nom_7-4" x1="242.89" y1="-29.23" x2="242.89" y2="575.87" xlink:href="#Dégradé_sans_nom_7" />
        <linearGradient id="Dégradé_sans_nom_7-5" x1="241.91" y1="-29.23" x2="241.91" y2="575.87" xlink:href="#Dégradé_sans_nom_7" />
        <linearGradient id="Dégradé_sans_nom_7-6" x1="242.12" y1="-29.23" x2="242.12" y2="575.87" xlink:href="#Dégradé_sans_nom_7" />
        <linearGradient id="Dégradé_sans_nom_7-7" x1="242.77" y1="-29.23" x2="242.77" y2="575.87" xlink:href="#Dégradé_sans_nom_7" />
        <linearGradient id="Dégradé_sans_nom_7-8" x1="243.67" y1="-29.23" x2="243.67" y2="575.87" xlink:href="#Dégradé_sans_nom_7" />
        <linearGradient id="Dégradé_sans_nom_7-9" x1="245.51" y1="-29.23" x2="245.51" y2="575.87" xlink:href="#Dégradé_sans_nom_7" />
        <linearGradient id="Dégradé_sans_nom_7-10" x1="247" y1="-29.23" x2="247" y2="575.87" xlink:href="#Dégradé_sans_nom_7" />
        <linearGradient id="Dégradé_sans_nom_7-11" x1="249.35" y1="-29.23" x2="249.35" y2="575.87" xlink:href="#Dégradé_sans_nom_7" />
        <linearGradient id="Dégradé_sans_nom_7-12" x1="251.62" y1="-29.23" x2="251.62" y2="575.87" xlink:href="#Dégradé_sans_nom_7" />
        <linearGradient id="Dégradé_sans_nom_7-13" x1="253.77" y1="-29.23" x2="253.77" y2="575.87" xlink:href="#Dégradé_sans_nom_7" />
        <linearGradient id="Dégradé_sans_nom_7-14" x1="255.11" y1="-29.23" x2="255.11" y2="575.87" xlink:href="#Dégradé_sans_nom_7" />
        <linearGradient id="Dégradé_sans_nom_7-15" x1="255.66" y1="-29.23" x2="255.66" y2="575.87" xlink:href="#Dégradé_sans_nom_7" />
        <linearGradient id="Dégradé_sans_nom_7-16" x1="255.42" y1="-29.23" x2="255.42" y2="575.87" xlink:href="#Dégradé_sans_nom_7" />
        <linearGradient id="Dégradé_sans_nom_7-17" x1="257.92" y1="-29.23" x2="257.92" y2="575.87" xlink:href="#Dégradé_sans_nom_7" />
        <linearGradient id="Dégradé_sans_nom_7-18" x1="257.23" y1="-29.23" x2="257.23" y2="575.87" xlink:href="#Dégradé_sans_nom_7" />
        <linearGradient id="Dégradé_sans_nom_7-19" x1="256.48" y1="-29.23" x2="256.48" y2="575.87" xlink:href="#Dégradé_sans_nom_7" />
        <linearGradient id="Dégradé_sans_nom_7-20" x1="255.84" y1="-29.23" x2="255.84" y2="575.87" xlink:href="#Dégradé_sans_nom_7" />
        <linearGradient id="Dégradé_sans_nom_7-21" x1="255.49" y1="-29.23" x2="255.49" y2="575.87" xlink:href="#Dégradé_sans_nom_7" />
        <linearGradient id="Dégradé_sans_nom_7-22" x1="255.09" y1="-29.23" x2="255.09" y2="575.87" xlink:href="#Dégradé_sans_nom_7" />
        <linearGradient id="Dégradé_sans_nom_7-23" x1="256.08" y1="-29.23" x2="256.08" y2="575.87" xlink:href="#Dégradé_sans_nom_7" />
        <linearGradient id="Dégradé_sans_nom_7-24" x1="256.56" y1="-29.23" x2="256.56" y2="575.87" xlink:href="#Dégradé_sans_nom_7" />
        <linearGradient id="Dégradé_sans_nom_7-25" x1="258.38" y1="-29.23" x2="258.38" y2="575.87" xlink:href="#Dégradé_sans_nom_7" />
        <linearGradient id="Dégradé_sans_nom_7-26" x1="259.95" y1="-29.23" x2="259.95" y2="575.87" xlink:href="#Dégradé_sans_nom_7" />
        <linearGradient id="Dégradé_sans_nom_7-27" x1="262.65" y1="-29.23" x2="262.65" y2="575.87" xlink:href="#Dégradé_sans_nom_7" />
        <linearGradient id="Dégradé_sans_nom_7-28" x1="264.85" y1="-29.23" x2="264.85" y2="575.87" xlink:href="#Dégradé_sans_nom_7" />
        <linearGradient id="Dégradé_sans_nom_7-29" x1="265.92" y1="-29.23" x2="265.92" y2="575.87" xlink:href="#Dégradé_sans_nom_7" />
        <linearGradient id="Dégradé_sans_nom_7-30" x1="269.41" y1="-29.23" x2="269.41" y2="575.87" xlink:href="#Dégradé_sans_nom_7" />
        <linearGradient id="Dégradé_sans_nom_7-31" x1="270.08" y1="-29.23" x2="270.08" y2="575.87" xlink:href="#Dégradé_sans_nom_7" />
        <linearGradient id="Dégradé_sans_nom_7-32" x1="270.39" y1="-29.23" x2="270.39" y2="575.87" xlink:href="#Dégradé_sans_nom_7" />
        <linearGradient id="Dégradé_sans_nom_7-33" x1="270.57" y1="-29.23" x2="270.57" y2="575.87" xlink:href="#Dégradé_sans_nom_7" />
        <linearGradient id="Dégradé_sans_nom_7-34" x1="271.01" y1="-29.23" x2="271.01" y2="575.87" xlink:href="#Dégradé_sans_nom_7" />
        <linearGradient id="Dégradé_sans_nom_7-35" x1="271.65" y1="-29.23" x2="271.65" y2="575.87" xlink:href="#Dégradé_sans_nom_7" />
        <linearGradient id="Dégradé_sans_nom_7-36" x1="271.56" y1="-29.23" x2="271.56" y2="575.87" xlink:href="#Dégradé_sans_nom_7" />
        <linearGradient id="Dégradé_sans_nom_7-37" x1="272.69" y1="-29.23" x2="272.69" y2="575.87" xlink:href="#Dégradé_sans_nom_7" />
        <linearGradient id="Dégradé_sans_nom_7-38" x1="275.75" y1="-29.23" x2="275.75" y2="575.87" xlink:href="#Dégradé_sans_nom_7" />
        <linearGradient id="Dégradé_sans_nom_7-39" x1="278.19" y1="-29.23" x2="278.19" y2="575.87" xlink:href="#Dégradé_sans_nom_7" />
        <linearGradient id="Dégradé_sans_nom_7-40" x1="281.71" y1="-29.23" x2="281.71" y2="575.87" xlink:href="#Dégradé_sans_nom_7" />
        <linearGradient id="Dégradé_sans_nom_7-41" x1="283.43" y1="-29.23" x2="283.43" y2="575.87" xlink:href="#Dégradé_sans_nom_7" />
        <linearGradient id="Dégradé_sans_nom_7-42" x1="283.76" y1="-29.23" x2="283.76" y2="575.87" xlink:href="#Dégradé_sans_nom_7" />
    </defs>
    <title>Fichier 9</title>
    <g id="Calque_2" data-name="Calque 2">
        <g id="Calque_1-2" data-name="Calque 1">
            <path class="cameroon-cls-1" d="M178.37,36.22c1.39-1.09,2.49-2,3.65-2.85a3.39,3.39,0,0,0,1.66-3.63c-.36-2.06,1.64-2.8,2.79-2.91,3-.3,3.43-3,5.14-4.49a39.62,39.62,0,0,1,2.94-2.88c1.71-1.17,3.61-2.07,5.62-3.19l.46,2.41,5-3.58c0,2.67,1.37,3.53,3.5,3.23a5.23,5.23,0,0,0,2.87-1c2.1-2.13,4-4.48,6-6.73a2.25,2.25,0,0,1,.78-.63c3.14-1.26,6.31-2.45,9.43-3.76,1.12-.47,1.74-.27,2.29.82.83,1.65,2.44,1.5,3.78,1.08.77-.24,1.28-1.28,1.94-1.93s1.16-1.47,1.74-1.47a39.56,39.56,0,0,1,6.64.51c1.68.28,3.21.71,4.46-1a1.62,1.62,0,0,1,1.4-.25,7.26,7.26,0,0,1,2.42,1.08c2.42,1.87,4.56,1.45,6.84-.34a22.54,22.54,0,0,1,4-1.91c.4-.2.69-.63,1.09-.85a7.1,7.1,0,0,1,2.22-1c1.79-.25,3.61-.26,5.41-.42,1.22-.11,2.44-.29,3.66-.46a2.77,2.77,0,0,1,3.4,1.67c.51,1,2.45,1.36,3.82,1.72s1.53-.93,2-1.82A2.25,2.25,0,0,1,286.91.52a34.76,34.76,0,0,1,5.51,1.26c1.06.33,1.91.77,3-.06s2.21-.35,3.27.6a4.8,4.8,0,0,0,2.83,1.11A36.12,36.12,0,0,0,306.86,3c1.74-.21,2.6.41,2.46,2.26a16.9,16.9,0,0,0,0,3.48,2.08,2.08,0,0,0,1.08,1.47c.36.13,1.22-.41,1.46-.86a1.39,1.39,0,0,1,2.2-.62c1.38.75,2.8,1.46,4.11,2.32,1.59,1,2.48.78,2.86-1.13A11.57,11.57,0,0,1,321.77,8c1.44,1.11,4.48-.46,4.11,3.15,2.33,0,4.29.67,5.4,3.18,1.53-2.77,2.73-1.82,4.1-.24a33,33,0,0,0,3.5,3.16c1.42,1.23,2.25,1.09,3.32-.48.48-.7,1-1.38,1.48-2.07l.65,0a31.25,31.25,0,0,1,1.13,4.38c.24,2.07,1,3,3.27,2.8a40.68,40.68,0,0,1,6,0c.34,0,.66.57,1,.9,1,1.11,2.09,2.21,3.07,3.37A56.21,56.21,0,0,1,363.4,32c.46.72-.09,2.08-.15,2.86,2,.32,3.9.67,5.8.91,2.1.26,2.39,1.42,1.77,3.17a26.76,26.76,0,0,0-1.2,3.91,6.49,6.49,0,0,0,.4,2.22c.53-.33,1-.85,1.59-.93a2.54,2.54,0,0,1,1.95.42c1.31,1.45,2.42,3.08,3.79,4.87L380,45.75c1.64,1.09,4,1.55,2.41,4.44,2.85-.14,3.28,2,4,4.14,2-1.74,3-.7,3.86,1.13.62,1.37,1.38,2.67,2.07,4,.91,1.76,1.63,1.89,3.11.51.45-.42.78-1,1.25-1.35,1-.8,1.88-1.95,3.4-1.08a3.32,3.32,0,0,1,1.6,3.68,4.89,4.89,0,0,0,.25,2.5c.46,1,1.27,1.25,2.32.42.75-.59,1.42-2,2.72-.9s.69,2.3-.11,3.44a6.42,6.42,0,0,0-.53,1c2.09,1.62,4,3.07,5.87,4.6a1.44,1.44,0,0,1,.35,1.25c-.71,2.39-1.51,4.76-2.1,6.55,3,2.09,3.14,5.35,4.71,8.06l2.74-2.21c2.49,2.24,2.71,3,1.9,4.88l3.1,6.17c1.65-.38,2.24.95,2.74,2.68A49.06,49.06,0,0,0,428,106c.63,1.42,1.88,1.33,3.1.68.64-.34,1.26-.73,2.22-1.29a7.07,7.07,0,0,1,.25,2.2c-.65,2.48.17,4.78.71,7.11a1.74,1.74,0,0,0,.67,1c2.08,1.37,4.22,2.66,6.29,4a1.84,1.84,0,0,1,.82,1.25c-.07,2.89,1.72,4.58,3.64,6.33a9.24,9.24,0,0,1,1.51,2.87,7.76,7.76,0,0,0,.53,1.29c1.31,1.75,2.67,3.45,4.19,5.4,1.56-.65,2.56.44,3.31,2.25.89,2.15,2,4.22,2.93,6.32,1.18,2.55,2.09,2.82,4.37,1.26.44-.3.9-.57,1.88-1.18a52.79,52.79,0,0,1-.08,7.19,3.61,3.61,0,0,0,1.53,3.86c1.73,1.33,3.14,3.29,5.05,4.14,2.64,1.17,3,3.16,3.73,5.51.84,2.69,2.69,5.05,3.82,7.67a3.63,3.63,0,0,1-.22,3.15c-2.37,2.74-1.33,5.45-.54,8.38.55-.13.95-.18,1.32-.31,1.66-.58,2.69,0,3,1.7a28.79,28.79,0,0,1,.78,5.43c0,3.47-.68,6.95,1.08,10.27.28.52-.3,1.6-.68,2.32-.25.49-.84.8-1.1,1.61l3-.58c2.22,3.36-.74,5.32-2,7.76,3.11,2.56,3,6.31,3.52,9.75.12.81-1,2-1.8,2.71-2.56,2.05-5.29,3.88-7.89,5.89A4.47,4.47,0,0,0,475,236l3-1.06c-1.69,5.52-5.46,9.53-7.31,14.73l4.54-1.87c-.91,3-1.65,5.85-4.12,7.52a13.67,13.67,0,0,0-4.32,5.33c-1.27,2.4-2.62,4.76-4,7.35l2.07.29a17.21,17.21,0,0,1-.81,1.68c-2.15,3.41-4.32,6.81-6.47,10.22a6.87,6.87,0,0,0-1,2,6.19,6.19,0,0,0-.08,2.87c.07.25,1.5.14,2.31.19.19,0,.39,0,1,0-.77,1.09-1.36,2-2,2.79-.46.6-1,1.14-1.47,1.72-5.38,6.25-5.38,6.25-5.15,14.46,1.94,2.67-.56,4.54-1.14,6.78a58,58,0,0,0-1.36,7.86,4.7,4.7,0,0,1-2.35,3.82c-2.26,1.36-3.16,3.44-3.21,6.12l1.67.29c1.08.2,1.53.79,1.22,1.9s-.58,2.25-.83,3.39c-.33,1.47-1.09,2.91,1.15,3.83,1.32.54,1.06,4.39-.13,5.32-2.22,1.73-2,3.37.53,4.68.64.33,1.65.82,1.68,1.29a4.79,4.79,0,0,1-1,2.7c.21,1.26,1.9,2.39.28,4.11-.22.23.43,1.5.9,2.11,1.48,1.94,3.06,3.81,4.6,5.7-2.79,2.45-2.75,2.43-1,5.78a17.77,17.77,0,0,1,1.5,4c.3,1.27,1.06,1.85,2.16,1.7,2.74-.37,4.16,1.25,5.47,3.37l-.69.52c.93,1.7,1.74,3.25,2.64,4.74a2.06,2.06,0,0,0,1.19.89,4.43,4.43,0,0,1,3.48,3.11c.23.64.63,1.23.8,1.88.87,3.18,3.17,4.19,6.19,4.21a25.85,25.85,0,0,1,3,.42,15.8,15.8,0,0,1-2.21,2.48c-1.17.82-1,1.54-.1,2.29a24.3,24.3,0,0,0,2.31,1.7c2.15,1.47,4.31,2.91,6.47,4.37.16.11.42.32.4.43-.56,2.7,2,4.23,2.47,6.51a12.14,12.14,0,0,1,.14,1.27c-1.94.76-5.19-1-5.36,3,1,.3,2,.58,3,.95,2,.73,2.3,2,.93,3.61-.09.1-.19.2-.29.29-3.17,3.11-3.12,3.09-1.57,7.26.18.48-.33,1.32-.71,1.86s-1.39.89-1.33,1.12a3.71,3.71,0,0,0,1.21,2c.8.6,1.92.76,2.74,1.35a7.52,7.52,0,0,1,1.39,1.86c-.7.24-1.39.53-2.11.71a5.51,5.51,0,0,1-1.2.09c.7,2.33,1.35,4.57,2,6.81.41,1.35-.1,1.8-1.41,1.56-1.61-.3-3.22-.69-4.84-.85-.61-.06-1.27.42-1.91.65.4.54.69,1.31,1.22,1.57,1.19.58,1.31,1.27.63,2.26s-1.3,1.92-2,2.86c-1.37,1.88-1.32,2.16.74,3.08s2.54,1.94,1.16,3.76c-.53.69-1.8.82-2.88,1.27.84,2.7-1.59,3.65-3.71,5.05,2.67,1.93,1,3-.58,4.19s-3.05,2.74-4.54,4.15-1.3,2.54,0,3.88a11.36,11.36,0,0,1,1.23,1.94l-2.16.9a.55.55,0,0,1-.2,0c-4.11,0-6.87,1.67-7.62,6-.3,1.73-2.27,3-1.66,5.08.07.24-.78.78-1.23,1.14-1.58,1.24-3.2,2.43-4.76,3.69a34.2,34.2,0,0,1-3.26,2.78,3.09,3.09,0,0,1-2.62.36c-2.73-1.89-4.92-.42-7.19.75,0,.2-.09.36,0,.46,1.43,3.37,1.43,3.36-1.93,4.71-1.39.56-2.78,1.14-4.13,1.69-.06,3.95-2.6,5.63-6.29,4.51a4.44,4.44,0,0,0-3.23.5c-.5.3-.42,1.67-.46,2.57a8.14,8.14,0,0,0,.36,1.84c-1.76.58-3.38,1.64-4.81-.46-.17-.24-1.12-.21-1.54,0-2.39,1.31-4.71,2.74-7.09,4.07a2.86,2.86,0,0,1-1.76.4c-1.48-.29-2.34-.07-2.54,1.67-.05.46-1,1-1.66,1.18-2.82.95-5.74,1.65-8.5,2.74-1.79.7-3.5,1-4.71-.49-1.93-2.36-4.23-1.61-6.52-1.5a3.39,3.39,0,0,0-.22.78c.12,3.25-.18,3.62-3.43,3.37-2-.15-3.91-.69-5.87-.83a22.19,22.19,0,0,0-5.42.17,2.62,2.62,0,0,1-3-1c-.59-.8-1.3-1.51-2.22-2.55l-.7,3.17L359,526.42c.62,2.15-.62,2.42-2.16,2.6s-3.13.43-3.83,2.46c-.28.81-1.87,1.2-2.9,1.72-.66.33-1.38.56-2.17.87L349.1,537c-.41.21-.64.42-.88.43-3,.11-5.92.14-8.88.32a4.24,4.24,0,0,0-2.08.86c-1.13.83-2.15,1.8-3.22,2.72-.15.13-.42.26-.43.41-.22,2.64-2.09,2.06-3.77,2a8.32,8.32,0,0,0-2.56.57c-1.3.43-2.56,1-3.84,1.43a4.87,4.87,0,0,1-5.72-1.27c-1.11-1.11-3-1.57-4.58-2-1.45-.44-2,.38-1.72,1.83.38,2.34.19,2.61-2.21,2.54a20.19,20.19,0,0,1-4.65-.65c-2.58-.69-5.08-1.49-7.85-.82-.69.17-1.77-.5-2.41-1.07a8.86,8.86,0,0,1-1.75-2.51c-1.44-2.74-3.87-3.6-6.74-3.78-2.05-.12-2.86.66-2.76,2.76,0,.67,0,1.34,0,2.58a10.6,10.6,0,0,1-2.64-1.45c-3.13-3.44-6.54-4.63-10.73-1.81a25,25,0,0,1-3.88,2,2.1,2.1,0,0,1-1.68.08c-2-1.33-4.11-1.27-6.32-1.22-1.16,0-2.32-.19-3.48-.21a3.72,3.72,0,0,1-2.81-1.64,59.22,59.22,0,0,0-5.51-4.81c-.22.63-.32.93-.42,1.23-.8,2.44-1.23,2.67-3.75,1.95-1.18-.34-2.35-.74-3.51-1.15s-2.46-1-3.12.88a1.66,1.66,0,0,1-1.51.51c-2.54-1.78-5.42-1.16-8.18-1.26-2.28-.08-4-.32-4.57-3.17-.45-2.37-2.91-2.78-5-3.71a12.51,12.51,0,0,0-.6,1.68c-.34,1.74-1.06,2.58-3,1.7a2.78,2.78,0,0,0-3.95,1.45,5.9,5.9,0,0,1-5.91,3.26c-2.39-.08-4.79-.09-7.18-.1-1.6,0-2-.68-1.56-2.22,1.28-4,1.25-4-2.94-4.54-2.86-.36-3-.25-5.85,3.8-1.57-.81-3.88.05-4.89-2.22a.8.8,0,0,0-.73-.2c-1.8.65-3.57,1.4-5.38,2a4.89,4.89,0,0,1-2.45.32A41.69,41.69,0,0,1,167.1,533c-3.26-1.12-3.26-1.12-2.19-4.28-4.6-1.05-9.18-2.17-13.78-3.11-1.8-.37-2.84-1.07-2.86-3,0-1.59-.63-2.41-2.47-1.76a8.85,8.85,0,0,1-3-.1c-1.6,1.56-3,1.71-5.64.08-1.81-1.15-3.46-2.55-5.21-3.81a2.12,2.12,0,0,0-1.11-.45c-2.19,0-3.79-.57-2.75-3.52-3.56,2.15-5.09,2-8.11-.64-.78-.67-1.54-1.36-2.29-2.06a3.21,3.21,0,0,0-3.52-.92,4.11,4.11,0,0,1-2.72-.45c-1.84-.9-3.59-2-5.36-3-2.05-1.2-3.35-.9-4.61,1.1-1.1,1.75-1.44,1.77-2.65,0a18.22,18.22,0,0,1-1.63-2.61A4.92,4.92,0,0,0,93,501.43c-1.64-.11-3.17-2.09-4.57-.49-1.83-2-3.48-4-5.38-5.79-1.65-1.52-1.78-3.21-.6-4.73,1.61-2.08.93-3.93.18-6a3.83,3.83,0,0,0-.81.27c-2.58,1.65-3.6,1.19-4-1.91a26,26,0,0,1,0-3.17,7.07,7.07,0,0,0-.91.07c-1,.23-2.09,1-2.92-.33s-1.22-2.51-.39-4a8.86,8.86,0,0,0,1.1-3.57c.07-1.24-.73-1.85-2.06-1.18-.78.39-1.6.69-2.61,1.12-.8-2-.51-3.61,1-4.91,1-.9,1.17-1.42.11-2.59a14.57,14.57,0,0,1-2.41-4.47,48,48,0,0,1-1.39-5c-2.05.41-2.54-.79-2.55-2.89a8.05,8.05,0,0,0-1.34-3.35c-.67-1.26-1.51-2.42-2.26-3.64a3.35,3.35,0,0,1,.41-4.46,4.67,4.67,0,0,0,.91-5.32c-.48-1.12-1-1.73-2.28-1-1.76,1-3,.41-3.66-1.48a32.42,32.42,0,0,1-1.38-4.67c-.46-2.71-.64-5.44-3-7.4-.35-.29-.13-1.56.16-2.23a14.36,14.36,0,0,1,1.77-2.48c-1.53-.12-2.93.16-3.69-.42s-.51-2-.76-3.18c-2,1.08-3.06-.32-4.38-1.64s-2.91-1.86-4.38-2.77a57.46,57.46,0,0,1-5.5-3.48c-1.19-.93-2-1.23-3,0-1.29,1.52-2.26,1-2.65-.68-.84-3.72-4.43-5.59-5.86-8.91-.22-.5-1.12-.69-1.68-1.07-1.33-.91-2.64-1.84-4-2.76-.27-.19-.57-.57-.81-.54-2.35.33-2.33-1.43-2.79-2.93a40.92,40.92,0,0,0-1.82-4.53c-.74-1.69-1.55-3.34-2.31-5a3.76,3.76,0,0,1,.63-4.34c1.67-2,.86-4.44.27-6.68-.08-.31-1.21-.63-1.73-.5-1.75.47-2.43-.32-2.63-1.88-.22-1.76-.43-3.52-.65-5.29-.33-2.62-.56-5.27-1.06-7.86-.28-1.47-.31-2.67,1-3.67,2.82-2.24,4-5,3-8.65-.49-1.86-1.16-2.51-3.09-2.26a25.29,25.29,0,0,1-2.76,0A37.52,37.52,0,0,1,5.55,332c1.35-2.15,1.33-4-.37-5.93A23.55,23.55,0,0,1,3,322.32c-.31-.52-.55-1.32-1-1.48-2.11-.74-1.53-2.08-1.17-3.62a10.72,10.72,0,0,0,0-3.43c-.1-1-.44-2-.62-3-.43-2.55-.73-4.86,2.4-6.31,1.91-.88,2.19-3.13,2-5.19-.18-.11-.28-.23-.4-.25-3.17-.42-3.24-.43-2.78-3.51a13.2,13.2,0,0,1,1.22-3.88c1.18-2.35,2.23-4.7,2-7.41,0-.27,0-.65.11-.79,2.75-2.53,1.33-5.61,1-8.44-.27-2.11-.39-3.61,2.07-4.51,1.75-.64,2.54-3.1,1.88-4.93a2.44,2.44,0,0,0-1.55-1.19c-1.39-.36-1.8-1.12-1.36-2.4.72-2.07-.09-3.17-2-4.26a7.34,7.34,0,0,1-3.27-3.85,58.55,58.55,0,0,1-1.24-9.11c-.18-1.69.67-2.22,2.26-1.77,1,.27,2,.45,3.35.76.12-2.38.34-4.6.27-6.81,0-.58-.82-1.37-1.45-1.64C2.21,234.15,1.61,232.51,3,230c.34-.61,1.1-1.31,1-1.78a12.94,12.94,0,0,0-1.86-4.69,3,3,0,0,1-.61-3.15c.53-1.62,1.05-3.25,1.65-4.85.83-2.24,1.12-2.35,3.28-1.43l1.27.51A25.67,25.67,0,0,0,8.63,211c.15-1.43.71-2,2.2-2.05a3.47,3.47,0,0,0,1.87-1.07,7.35,7.35,0,0,0,1-1.53c1.92-2.92,2.72-3.17,6.14-2.3a5.35,5.35,0,0,0,2.38,0,18.91,18.91,0,0,0,.1-3.91c0-.28-.53-.54-.88-.87a86.6,86.6,0,0,1,9.27-4.85c1.43-.56,3.41,0,5.07.42,3.1.71,6.15,1.67,9.24,2.46a12.17,12.17,0,0,0,2.44,0l-3.15-2.94.12-.55a44.63,44.63,0,0,1,5.13.29c3,.51,6,1.32,9,1.81,1.5.24,3.21,1.29,4.54-.63.2-.29,1.18-.13,1.78,0a23,23,0,0,0,3.62.67c3,0,6.1-.18,9.12-.52,1.5-.17,3.34-2.25,3.49-3.68,2.42-.44,4.95-.83,7.44-1.37a28.05,28.05,0,0,0,3-1.14,44.6,44.6,0,0,0,5.74-2,22.26,22.26,0,0,0,4-3.14c.43-.37.71-1.12,1.17-1.23,4.25-1.05,7.06-4.31,10.47-6.65,1.15-.79,2.74-.9,4-1.56,2-1.05,3.94-2.3,5.89-3.48.15-.09.31-.41.26-.52-1.38-2.94,1.19-4.05,2.68-5.52,1.84-1.82,4-3.36,5.88-5.11.84-.77,2-1.68,2.13-2.65.45-3.09,2.8-4.41,4.95-5.87a8.09,8.09,0,0,0,3.43-4.64c1.2-4.18,2.46-8.34,3.71-12.5a2.27,2.27,0,0,1,.28-.76c3.25-4.11,3.85-9.28,5.6-14,.36-1,.69-1.88,2-1.05a1.35,1.35,0,0,0,1.13-.08c1.18-.65,2.66-4.71,2-5.85-2.22-3.8-.52-7.26.71-10.8.91-2.61,1.73-5.25,2.58-7.88.1-.31.19-.62.27-.89.25,0,.41-.09.51,0,.67.38,1.32.78,2,1.17a10.89,10.89,0,0,0,.86-2.43c.3-2.83.9-5.74.55-8.51-.25-1.93-1.81-3.73-2.91-5.5-1.33-2.14-1.25-2.71,1.1-3.53a1.93,1.93,0,0,0,1.35-2.72c-1.19-3.9-2.45-7.79-3.67-11.68a2.46,2.46,0,0,1-.2-1.35c.68-2,1.54-3.89,2.19-5.88.55-1.68,1.19-2.33,2.89-1.1a3.23,3.23,0,0,0,2.43.3c1.37-.36,1.86-1.34,1-2.65s-.9-2.17.51-3.24a3.34,3.34,0,0,0,.55-2.94,5.41,5.41,0,0,1,1.75-6.09c1.26-1.16,2.42-2.42,3.71-3.54,1.5-1.32,1.78-1.2,2.47.74C177.76,34.74,178,35.36,178.37,36.22ZM344.9,513.89c4.37,0,8.76.23,13.12,0,10.47-.65,20.37-3.93,30.33-6.89,7.61-2.26,15.25-4.46,22.16-8.52a122.67,122.67,0,0,0,33-28.33c4.79-5.86,9-12.17,11.22-19.45a218.12,218.12,0,0,1,10.36-27.42,18.45,18.45,0,0,0-.72-17.94,162.8,162.8,0,0,0-10.06-14.43c-4.28-5.67-9.24-10.86-13.11-16.78-5.54-8.47-7.47-18.28-8.46-28.24-1.34-13.5-2.21-27,1.06-40.39a186.22,186.22,0,0,1,11.86-32.94c5.41-11.89,11.14-23.63,16.3-35.62,4.34-10.09,5.42-20.7,2-31.3-4.7-14.72-9.81-29.31-14.7-44a49.06,49.06,0,0,0-18.88-25.38A49,49,0,0,1,413.11,115c-2-4.65-4.14-9.23-6.16-13.87-5.22-12-12.67-22.19-24.26-28.85-9.84-5.65-17.75-13.37-24.56-22.36a37.81,37.81,0,0,0-15.51-12.45c-10.4-4.37-20.76-8.81-31.23-13-18.71-7.46-37.84-7.85-57.22-3a261.89,261.89,0,0,0-33,11A196.83,196.83,0,0,0,186,50.16c-5.1,3.32-8.47,7.95-8.92,14-.47,6.26-.37,12.57-.3,18.85.12,10.71-.25,21.39-2.88,31.79-4.73,18.75-14,35.32-26.12,50.17-11.55,14.11-25.54,25.61-40.11,36.52A65.36,65.36,0,0,1,71.18,215c-7.64.42-15.3,1-22.89,1.94-12.11,1.52-19.47,9.12-20.85,21.19-.49,4.27-.63,8.59-.82,12.89-.41,9.55-2.52,18.83-4.67,28.08a68.48,68.48,0,0,0-1.49,22c1.29,13.82,2.32,27.65,3.63,41.47a128.49,128.49,0,0,0,2.28,16.22c2.83,12.54,8.62,23.41,19,31.54,3.32,2.62,6.35,5.61,9.49,8.46,8.28,7.53,15.29,16,19.78,26.39,3.16,7.28,6,14.67,9.05,22s7,13.8,13.45,18.77c5.45,4.22,10.53,8.93,15.6,13.62A65.48,65.48,0,0,0,131,491.93c18.63,8.14,38.31,12.15,58.35,14.32,17.1,1.85,34.06,4.1,50.62,8.91,23.27,6.76,46.82,8.18,70.61,3.12A178.1,178.1,0,0,1,344.9,513.89Z" />
            <path class="cameroon-cls-2" d="M346.69,504.86c-11.21-1-21.64.76-32,3.4-10,2.55-20,4.58-30.32,4.81a112.18,112.18,0,0,1-35.24-4.64c-19-5.76-38.41-8.26-58.09-10-20-1.74-39.41-6.27-57.58-15.27a65.19,65.19,0,0,1-14.37-9.76,172.29,172.29,0,0,0-15.59-12.67,45.47,45.47,0,0,1-16.41-21c-3.27-8-7-15.9-10.91-23.63-5-9.85-12.9-17.4-20.8-24.9-3.37-3.2-6.64-6.51-10-9.69-6.91-6.49-10.22-14.91-12.82-23.71-2.2-7.47-2.83-15.14-3.28-22.89-.71-12.22-1.73-24.42-2.73-36.61a70.67,70.67,0,0,1,2.74-25.15,123.82,123.82,0,0,0,4.47-27.06c.28-5.21,1.08-10.39,4-14.88a21.81,21.81,0,0,1,14.82-9.43c6.91-1.24,14-1.55,20.94-2.51S87.25,217.3,94,216c5.71-1.1,10.43-4.16,14.71-8.09,8.81-8.09,17.68-16.12,26.68-24,12.4-10.84,21.73-24,29.19-38.51,4.81-9.39,9.26-18.93,11.64-29.26,2.88-12.49,3.22-25.19,2.75-37.95-.14-3.82-.17-7.66.07-11.48.42-6.68,3.69-11.71,9.3-15.34,8.53-5.52,17.74-9.61,27.08-13.54a271.57,271.57,0,0,1,45.69-14.41c15.45-3.49,30.6-2.47,45.25,3.69q18,7.55,35.73,15.53c5.85,2.63,10.4,7,14.28,12.09,4.89,6.37,10,12.56,16.36,17.48a105.44,105.44,0,0,0,9.5,6.45,50.9,50.9,0,0,1,21.66,26.46c2.14,5.69,4.55,11.29,7,16.87,3.13,7.19,7.72,13.44,14.44,17.47,11.37,6.81,18.12,16.67,21.58,29.23,3.76,13.64,7.88,27.19,11.65,40.83,2.66,9.62,1.27,19.11-2.37,28.14-4.38,10.83-9.39,21.4-14.14,32.07-5.67,12.74-11.23,25.52-14.18,39.25a81.18,81.18,0,0,0-1.34,23.88c.65,7.83,1.44,15.65,2.19,23.47,1.07,11.17,6.24,20.38,13.64,28.54,5.34,5.88,10.53,11.88,14,19.17a19.3,19.3,0,0,1,1,15.17c-3.54,9.91-6.78,20-11,29.58-12.36,28.05-33.85,45.32-63.76,51.83-8.73,1.9-17.64,3-26.51,4.2C352.79,505.22,349.47,504.86,346.69,504.86ZM31.7,333a85.12,85.12,0,0,0,4.54,27.84c2.48,7.42,5.74,14.37,11.36,20,3,3,6.07,5.93,9.22,8.76,10.43,9.38,19.25,20,25.18,32.79,2.9,6.26,5.52,12.66,8.41,18.93,3.16,6.88,7.48,12.82,14,17.06a112.91,112.91,0,0,1,11,8.23,119.72,119.72,0,0,0,31.33,18.87c16.41,6.87,33.59,10.15,51.22,11.42a250.43,250.43,0,0,1,53.65,9.31,113,113,0,0,0,25,4.27c11.84.77,23.32-1.27,34.63-4.44,11.79-3.3,23.65-5.65,36-4.53a103,103,0,0,0,32.59-2.62c13.91-3.22,27.07-8.06,38.3-17.39,13.57-11.27,23.62-24.72,28.36-42a110.35,110.35,0,0,1,6.15-16.5c3.85-8.43,3.49-16.39-1.85-23.89A174.52,174.52,0,0,0,439.58,385c-7.35-8.35-12.26-17.74-13.35-28.93-.62-6.39-1.27-12.79-1.79-19.19-.85-10.48-.74-20.9,1.9-31.18,3.42-13.3,9-25.78,14.52-38.27,4-9,8.25-18,11.8-27.26a52.35,52.35,0,0,0,1.75-33.63c-3.19-11.39-6.1-22.86-9.21-34.28-1.49-5.47-3.12-10.91-6.22-15.77-3.77-5.92-9.05-10.16-14.86-13.9A34.9,34.9,0,0,1,411,127.94c-2.65-5.7-5.33-11.41-7.48-17.31C399.35,99.07,392.83,89.54,382.11,83a88.64,88.64,0,0,1-25.75-23.81c-4.36-6-9.61-11.11-16.49-14.15-11.94-5.29-23.93-10.45-35.94-15.58-13.28-5.68-27-7.26-41.15-4a348.59,348.59,0,0,0-40.54,11.82,144.56,144.56,0,0,0-34.76,17.72c-3.4,2.42-5.91,5.53-6.3,9.67a161.15,161.15,0,0,0-.63,17c.16,13-.27,26-3.88,38.62-3.43,12-8.91,23.05-14.92,33.88A115.92,115.92,0,0,1,137,185.37q-12.08,10.63-23.4,22.1a39.86,39.86,0,0,1-17,10.63c-7.57,2.31-15.4,3-23.24,3.76-6.65.62-13.39,1.11-19.88,2.57-8,1.8-13.58,6.9-15.55,15.17-.82,3.45-1.24,7-1.84,10.49-1.22,7.13-1.8,14.45-3.8,21.35a85.7,85.7,0,0,0-2.67,32.88C30.65,314.28,32.65,324.19,31.7,333Z" />
            <path class="cameroon-cls-3" d="M355.69,498.63c-4.37,0-8.76.25-13.12-.05-10.1-.7-19.69,1.65-29.26,4.37-8.89,2.52-17.84,4.78-27.15,5.13a108.07,108.07,0,0,1-34.65-4.34,228.39,228.39,0,0,0-41.07-7.66c-13.8-1.4-27.73-2-41.17-5.82-6.36-1.79-12.63-4-18.83-6.3a145.56,145.56,0,0,1-15.82-6.81,96.84,96.84,0,0,1-12-7.79c-5.7-4.12-11-8.89-16.92-12.62-6.9-4.33-11.29-10.33-14.5-17.55-3.53-7.93-7-15.88-11-23.61-5.14-10.14-13-18.14-21-26.06-4.85-4.81-10-9.45-14-15a58.63,58.63,0,0,1-10.55-29.2c-.84-9.25-1.05-18.56-1.63-27.84-.31-5-.61-10-1.27-14.92a74.72,74.72,0,0,1,2.65-30.84,111.57,111.57,0,0,0,4-22.58c.63-8.46,3.67-15.66,11.22-20.33,4.43-2.74,9.39-3.59,14.45-4.17,9.24-1,18.52-1.85,27.68-3.33,10.38-1.68,18.93-6.68,26-14.76a164.23,164.23,0,0,1,18-17.36c12.56-10.61,22.1-23.43,29.49-38,5-9.88,9.67-19.92,12.66-30.62,3.24-11.56,3.82-23.43,3.83-35.37,0-5.33.13-10.67.32-16,.22-6.2,3.09-10.84,8.31-14.24a145.39,145.39,0,0,1,31-15.26C233.7,35.37,246.2,31.49,259,28.31a67,67,0,0,1,43.77,3.33q18.66,8,37.13,16.43c5.7,2.6,10.15,6.9,14.1,11.7,6.27,7.6,12.39,15.35,20.18,21.51a107.84,107.84,0,0,0,10.16,7.3c8.86,5.46,13.86,13.66,17.48,23.09,2.49,6.5,5.32,12.89,8.39,19.14a35.23,35.23,0,0,0,13.34,14.46A42.32,42.32,0,0,1,443.13,172c3,12,5.47,24.14,8.56,36.13,2,7.91,3,15.8.88,23.71a154.19,154.19,0,0,1-6.35,19.45c-5.49,13.32-11.6,26.39-17.16,39.69-3.75,9-6.51,18.33-7,28.11a137.2,137.2,0,0,0,.29,17.21q.9,12.16,2.54,24.27c1.32,9.78,6.46,17.73,12.75,25.06,3,3.53,6.05,7.07,8.88,10.75,6.32,8.23,8.1,16.92,3.54,26.85-3.44,7.49-5.53,15.6-8.77,23.2-10.37,24.3-27.73,40.92-53.59,48.05A103.15,103.15,0,0,1,355.69,498.63ZM183.48,84.85c-.41,10.27-.77,20.53-2.94,30.6-3,14.08-9,27.06-15.58,39.77-6.82,13.18-15.42,25-26.88,34.62a141.58,141.58,0,0,0-20.18,20.63,29.22,29.22,0,0,1-14.29,9.92,93.66,93.66,0,0,1-13.7,3.46c-8.78,1.36-17.64,2.17-26.45,3.36-12.85,1.74-20.21,8.88-22.17,20.64-1.61,9.63-3.66,19.2-5.59,28.77a74.51,74.51,0,0,0-1.69,21c.85,10.29,1.33,20.61,1.92,30.92.29,5.12.06,10.3.82,15.34,2.1,13.9,6.66,26.8,16.9,37.05,2,2,3.93,4,5.92,6,6.49,6.47,12.92,13,18.11,20.61,6,8.82,10.41,18.45,14.24,28.34,3.46,9,9,15.91,17.54,20.59a82.43,82.43,0,0,1,12.78,9.23,62.67,62.67,0,0,0,16,9.89c4.67,1.94,9.44,3.69,14,5.91a97.48,97.48,0,0,0,29.53,8.93c10.83,1.5,21.75,2.37,32.6,3.7A311.1,311.1,0,0,1,261,503.16a68.74,68.74,0,0,0,34.69,1.14c7.06-1.64,14.05-3.57,21-5.48,9.1-2.49,18.26-4,27.75-3.13a120.6,120.6,0,0,0,39.91-2.91c24-5.75,41.22-20.12,51.71-42.17,4.89-10.28,8.34-21.25,12.23-32a19.74,19.74,0,0,0-2.79-19.47c-3.27-4.38-6.53-8.81-10.21-12.83a47.87,47.87,0,0,1-12.27-24.64c-1.45-8.54-2.24-17.2-3-25.84-1-10.55-.5-21,2.43-31.3,3.15-11.08,7.7-21.61,12.39-32.08,4.8-10.72,10.06-21.26,13.15-32.67,2.26-8.33,3.52-16.72,1.67-25.33-2.71-12.57-5.52-25.11-8-37.72a42.64,42.64,0,0,0-19.75-28.94A34.37,34.37,0,0,1,410.76,136a181.94,181.94,0,0,1-11.56-24.22c-3.46-8.5-8.77-15.48-17-20.14a45.36,45.36,0,0,1-10.08-7.68c-6.14-6.32-11.9-13-17.72-19.65-4.59-5.23-9.34-10.29-15.75-13.24-13.66-6.29-27.35-12.5-41.13-18.51-10.1-4.41-20.82-4.81-31.45-3a209.53,209.53,0,0,0-39.32,10.67C214.72,44.8,203,49.85,192,56.71c-5,3.15-8.19,7.27-8.49,13.18C183.28,74.86,183.48,79.86,183.48,84.85Z" />
            <path class="cameroon-cls-4" d="M39.39,295.83c-.27-11.37.69-18.94,3.07-26.43a169.57,169.57,0,0,0,4.47-19c2.23-11.51,9.36-17.94,20.55-20,8.2-1.5,16.5-2.41,24.73-3.76s16.28-3,23.39-7.7a29.4,29.4,0,0,0,9.33-9.35A75.44,75.44,0,0,1,139.87,192c13.7-12.07,23.12-27,30.56-43.47,4.8-10.59,9.39-21.26,11.77-32.71,2.07-10,2.39-20.08,2.69-30.2.15-4.85.34-9.71.82-14.53.6-5.92,3.8-10.12,8.91-13.22,9.33-5.66,18.89-10.76,29.34-14,11.55-3.59,23.06-7.35,34.71-10.58,9.22-2.56,18.75-2.17,28.13-.89a42.26,42.26,0,0,1,10.87,3.54c13,5.68,26,11.44,39,17.39,7.32,3.37,12.65,9.19,17.6,15.4s10.13,12.4,15.26,18.54a46.08,46.08,0,0,0,14.17,11.35c6.15,3.21,10.1,8.23,12.76,14.45,2.34,5.47,4.62,11,7,16.41C407.62,139,413.68,147,422.38,153a35,35,0,0,1,15,22.46c2.86,13.86,5.72,27.73,8.29,41.65,1.81,9.81.1,19.45-3.31,28.63-4,10.75-8.64,21.26-13.11,31.82-4.15,9.81-8.6,19.5-11.29,29.87a82.82,82.82,0,0,0-2.08,29.07c.74,7.62,1,15.29,1.84,22.9a44.32,44.32,0,0,0,10.73,25.24,148.59,148.59,0,0,1,11.84,15.94,16.62,16.62,0,0,1,2,15c-4.89,14.43-9.22,29.15-17.92,41.92-6.89,10.12-15,19-26.74,23.81A83.43,83.43,0,0,1,369,487.83c-7.91.3-15.85.1-23.76-.29-11-.55-21.5,1.48-31.8,5-10.06,3.48-20.31,6-31,6.21a80.51,80.51,0,0,1-21.08-2.8c-18.74-4.72-37.81-7.51-57-9.39-12.35-1.21-24.74-2.48-36.33-7.08C154.17,474,140.06,469,127.5,460.75c-6.63-4.35-13.12-8.91-19.65-13.41-6.32-4.35-10.24-10.6-13.24-17.43-4.3-9.79-8.77-19.5-15.39-28C73.74,395,68,388.14,62,381.68c-11.19-11.89-17.5-26-20-41.92-.93-5.91-.63-12-1-18C40.42,311.91,39.78,302.08,39.39,295.83Zm3,12.16h.15c.25,5.4.48,10.8.75,16.19.37,7.44.56,14.92,2.65,22.15,3.9,13.53,10,25.78,19.78,36.18,7.48,8,14.6,16.34,19.92,26,4.22,7.65,8,15.55,11.91,23.37,3.52,7,8.09,13,15.47,16.35a24.63,24.63,0,0,1,3,1.8c7.88,5,15.23,11,23.93,14.67,5.91,2.52,12,4.73,17.73,7.57a124.38,124.38,0,0,0,44.66,12.21,523.84,523.84,0,0,1,65.39,10.38c8.63,1.87,17.17,2.57,25.79.33,6.82-1.77,13.65-3.49,20.39-5.54a98.12,98.12,0,0,1,36.22-4.34A115.48,115.48,0,0,0,383.78,483c15-3.32,27.21-10.81,35.77-23.78A166.32,166.32,0,0,0,439.74,415a15.55,15.55,0,0,0-1.21-12.55,107.8,107.8,0,0,0-9.61-14.22c-7.55-9.18-12.72-19.2-13.37-31.3-.36-6.69-.94-13.37-1.67-20-1.38-12.52.53-24.65,4.3-36.51,1.71-5.38,4.14-10.52,6.31-15.75,4.89-11.8,10.11-23.47,14.63-35.41a62,62,0,0,0,3.6-32.48c-2-12.27-4.49-24.48-6.62-36.74a41.06,41.06,0,0,0-15.42-25.8c-.85-.68-1.66-1.43-2.5-2.13A45.26,45.26,0,0,1,406.42,138c-3-5.84-6.17-11.6-8.77-17.62-3.42-7.91-7.88-14.68-15.41-19.39a58.07,58.07,0,0,1-11.48-9.54C365,85.22,359.48,78.72,354.26,72c-6.37-8.15-13.87-14.56-23.54-18.56-11.12-4.59-22-9.77-33.08-14.41-10.72-4.48-21.86-6.7-33.48-4.33-24,4.89-47.08,12.1-68,25.25-5.4,3.39-8.82,7.66-9.24,14q-.53,7.88-.77,15.77c-.31,10.4-.77,20.77-3.56,30.88a187.15,187.15,0,0,1-15.64,38.22c-5.48,10.29-11.49,20.32-19.86,28.52a163.4,163.4,0,0,0-20.92,24.64c-4.4,6.46-10.67,10.38-18.12,12.67a182.29,182.29,0,0,1-30.52,6.11c-2.77.36-5.53.89-8.27,1.44C58.44,234.48,52,241.37,49,251.57c-1.93,6.55-3.4,13.24-4.86,19.91-1,4.46-2.06,9-2.2,13.53C41.72,292.66,42.21,300.33,42.4,308Z" />
            <path class="cameroon-cls-5" d="M350,480.08a85.47,85.47,0,0,0-32.82,3.4c-5.68,1.76-11.43,3.32-17.09,5.13-11.45,3.66-22.94,3.54-34.66,1.34-13.16-2.47-26.4-4.54-39.65-6.54-11.08-1.68-22.24-2.91-33.33-4.56a103.64,103.64,0,0,1-28.15-8.62c-6.14-2.83-12.58-5-18.75-7.8a133.1,133.1,0,0,1-15.3-7.85c-7.15-4.42-14-9.38-20.95-14.06A33.33,33.33,0,0,1,97.36,426a169.74,169.74,0,0,0-20.54-34.67c-5.08-6.61-10.66-12.9-15.19-19.87-6.93-10.66-12.42-22.15-14.06-34.94-1.2-9.35-1.58-18.81-2.27-28.22-.29-4-.31-7.93-.65-11.88-.81-9.45.45-18.73,2.47-27.9,1.29-5.85,2.71-11.7,4.56-17.4,3-9.32,9.81-14.82,19.2-16.93C78.2,232.52,85.69,231.61,93,230a160.86,160.86,0,0,0,19.18-5.09c8.26-2.9,14.28-8.55,18.82-16.22a79.84,79.84,0,0,1,11.86-15.1,136.75,136.75,0,0,0,23.49-31.69A218.53,218.53,0,0,0,183,123c2.52-8.24,3.39-16.72,3.87-25.26.35-6.14.57-12.3.85-18.45.33-7.51,3.66-13,10.08-17.22,19.83-13,41.68-20.61,64.81-24.78,12-2.17,23.81,0,35,4.61,12.51,5.15,24.83,10.79,37.1,16.49,6.84,3.18,11.89,8.64,16.51,14.5,5.84,7.41,11.58,14.92,17.77,22a42,42,0,0,0,10.66,9.19c8,4.5,12.66,11.26,16.09,19.47,3.36,8.06,6.92,16.12,12.49,23a47.28,47.28,0,0,0,7.34,7.7c10,7.78,15.61,17.85,17.52,30.28,1.65,10.67,3.62,21.29,5.49,31.93,2,11.48.24,22.6-3,33.6C432.13,261.45,426.76,272,422,282.8c-4.45,10-8.6,20.08-10.64,30.92a90.09,90.09,0,0,0-1,24.1c.65,8,1.25,16.09,1.71,24.15.53,9.11,4.74,16.54,10.15,23.53,3.43,4.43,6.79,8.92,9.91,13.57a16.43,16.43,0,0,1,2.1,14.34c-4.94,16.94-11.68,33-22.57,47.08-7.69,9.93-18,15.25-30.16,17.52A142,142,0,0,1,350,480.08Zm2.4-2.53a145.45,145.45,0,0,0,29.49-2.47c10.13-2,19.2-6.2,25.86-14.35a122.87,122.87,0,0,0,24-47.85,17.73,17.73,0,0,0-2.34-14.34c-1.47-2.38-3.13-4.65-4.77-6.92-2.31-3.22-4.73-6.37-7-9.61a38.48,38.48,0,0,1-6.91-18.65c-.89-9-1.74-18-2.31-27-.62-9.65-.49-19.34,2.48-28.64,2.42-7.6,5.31-15.06,8.33-22.45,4.2-10.29,9.06-20.32,13-30.71,4-10.58,5.94-21.65,4.33-33-1.69-11.91-3.62-23.79-5.41-35.69a47.37,47.37,0,0,0-16-29.26,41.85,41.85,0,0,1-7.94-9.08c-4.46-7.27-8.65-14.74-12.43-22.39s-8.39-13.9-15.4-18.77a77.07,77.07,0,0,1-12.75-11.5c-5.05-5.56-9.54-11.63-14.22-17.52-5.31-6.69-10.91-13.11-18.84-16.75-11.92-5.48-23.86-11-36-16a65.75,65.75,0,0,0-39-4.14,170.19,170.19,0,0,0-56.56,22.13c-7.67,4.73-12.33,10.72-12.78,19.82-.27,5.39-.74,10.78-1.09,16.17-.59,9.09-1.51,18.15-4.45,26.83-8.44,24.89-19.86,48.08-38,67.6a132.09,132.09,0,0,0-13.71,17.85c-3.61,5.55-7.82,10.12-13.62,13.25-6.95,3.75-14.56,5.47-22.18,7.11-8,1.73-16.12,3.05-24.08,5-9.12,2.23-15.2,8-18.69,16.84-4.13,10.42-5.63,21.34-5.92,32.32-.3,11.19.48,22.42,1.13,33.61.4,6.88.7,13.9,2.35,20.53,4,16.07,11.71,30.42,22,43.43,9.72,12.32,18.43,25.28,24.78,39.73,3.77,8.58,9.48,15.46,18,19.82a46.23,46.23,0,0,1,4.69,2.94c7.78,5.25,15.64,10.35,24.33,14s17.18,7.52,26,10.73a154.09,154.09,0,0,0,22.2,6.46c9.57,1.93,19.34,2.83,29,4.31,14.47,2.22,28.93,4.45,43.36,6.87,10.37,1.74,20.67,2.26,30.91-.59,5.73-1.59,11.48-3.16,17.12-5A99.85,99.85,0,0,1,352.37,477.55Z" />
            <path class="cameroon-cls-6" d="M353.27,475.46c-18.27-1.58-34,2.83-49.67,7.68-8.92,2.76-18,5-27.43,3.87-6.45-.76-12.85-1.92-19.28-2.82-12.87-1.8-25.75-3.5-38.62-5.33-12.18-1.74-24.45-3.14-36.17-7.09-6.86-2.31-13.55-5.13-20.28-7.81-7.81-3.11-15.92-5.7-23.28-9.65-9.61-5.16-18.72-11.3-27.86-17.31-5-3.31-8.34-8.33-10.86-13.68-7.8-16.6-17.73-31.87-28.58-46.58-6.12-8.29-9.84-17.8-14.08-27.06-3.66-8-5.2-16.35-5.69-25-.59-10.38-1.36-20.75-2.13-31.12a78.37,78.37,0,0,1,1.87-23.23,161.57,161.57,0,0,1,4.84-17.13c2.74-7.88,8.72-12.74,16.53-14.94,7.62-2.14,15.47-3.43,23.16-5.31,5.9-1.44,11.8-3,17.55-4.91a35.42,35.42,0,0,0,20.33-16.62c4.11-7.37,9.81-13.45,15.15-19.85,18-21.53,30.86-45.75,37.83-72.9,2-7.61,2.26-15.66,3.16-23.52.48-4.14.6-8.32.92-12.48.53-6.79,4-11.51,9.62-15.33a154.45,154.45,0,0,1,45.26-21.7c10.88-3.08,21.88-4.82,33.22-3.55,8.25.92,16,3.58,23.55,6.83,9.73,4.18,19.38,8.57,29.07,12.85a42.14,42.14,0,0,1,16.17,12.6c5.36,6.75,10.92,13.33,16.37,20a69,69,0,0,0,14.94,14.26A42.28,42.28,0,0,1,394.09,127c2.19,4.85,5.06,9.39,7.64,14.05A90.57,90.57,0,0,0,417.05,161c7.05,7.08,10.84,15.94,12.46,25.63,2,12,3.75,24.05,5.16,36.14,1.28,11-.52,21.8-4.2,32.1s-8.26,20.52-12.6,30.69c-3.86,9-7.78,18-9.76,27.73a76.55,76.55,0,0,0-1.4,20.41c.6,9.14,1.49,18.26,2.29,27.39a49.93,49.93,0,0,0,11.25,27.47,91.85,91.85,0,0,1,8.21,12.24,16.48,16.48,0,0,1,1.35,13.35,145,145,0,0,1-23.42,44.66c-6.32,8.24-15.22,12.45-25.3,13.82C371.35,473.93,361.52,474.63,353.27,475.46Zm-4.11-3.11c1.5,0,3,.1,4.51,0,8.58-.68,17.21-1,25.73-2.22,10.19-1.42,19.33-5.6,25.64-14,9.58-12.83,17.33-26.72,22.25-42.07a16.75,16.75,0,0,0-1.68-14.22c-2.35-3.93-4.87-7.77-7.54-11.49-5.38-7.5-9.5-15.53-10.51-24.83-.71-6.52-1.19-13.07-1.72-19.61-.37-4.56-.89-9.13-.9-13.7,0-14.2,3.93-27.49,9.56-40.38,4.37-10,8.93-20,12.74-30.17,4.18-11.22,6.65-22.9,5.26-35-1.28-11.14-3.05-22.22-4.39-33.36-1.55-12.88-7.38-23.51-15.92-33.08-4.11-4.61-7.42-10-10.76-15.2-2.94-4.61-5.51-9.45-8-14.3-3.8-7.26-8.53-13.67-15.44-18.31a34.47,34.47,0,0,1-3.94-3.27c-8.77-8-16.27-17.17-23.6-26.47-4.42-5.61-9-11.1-15.49-14.45-13.2-6.8-26.65-13-40.76-17.77C284,45,273.78,43.06,263.08,44.6c-12.26,1.77-23.95,5.53-35.4,10.1-9.81,3.91-18.19,10.21-26.88,16-5.08,3.4-7.66,8.23-8.4,14.15-.51,4.07-.83,8.16-1.35,12.23-1,7.72-1.55,15.53-3.21,23.11-2.84,13-8.69,24.84-14.81,36.55-7.08,13.56-15.07,26.46-25.18,38.05A121.36,121.36,0,0,0,136,211.24a42.92,42.92,0,0,1-14.31,14.63c-7.17,4.39-15.2,6.36-23.27,8.25-7.78,1.82-15.64,3.46-23.26,5.81-9,2.77-15.87,8.15-18.64,17.7a109.41,109.41,0,0,0-4.26,27.3A209.17,209.17,0,0,0,53,306.64c.71,9.4,1.07,18.93,2.91,28.13,2.82,14.07,9.2,26.93,16.89,39,9.54,14.92,19.06,29.81,27,45.68,3.16,6.32,6.78,12.48,12.92,16.43,7.94,5.1,15.86,10.28,24.13,14.79,5.67,3.09,11.93,5.08,17.92,7.57,8.27,3.44,16.48,7,24.83,10.28,12.28,4.75,25.28,6.43,38.2,8.32q21.11,3.08,42.25,5.95c6.64.89,13.3,1.74,20,2.12,8.39.48,16.38-2,24.32-4.28C319,476.3,333.59,471.75,349.16,472.35Z" />
            <path class="cameroon-cls-7" d="M56.16,283.75c.6-5.84,1-11.72,1.86-17.52,2-12.73,9-21.44,21.51-25.16,8.44-2.51,17.06-4.44,25.49-7A136.7,136.7,0,0,0,121.1,228a36,36,0,0,0,17.07-16,149.72,149.72,0,0,1,16.58-24.12c9-10.84,15.55-23.29,21.9-35.8,5.2-10.24,10.3-20.61,12.82-31.87,1.65-7.37,2.2-15,3.24-22.48.43-3,.79-6.1,1.32-9.13,1.35-7.74,5.55-13.41,11.86-18.16,16.15-12.15,34.28-19.36,54-22.9a64.6,64.6,0,0,1,31,2.12,255.51,255.51,0,0,1,41.35,17.4c7,3.65,12.13,9.45,16.95,15.56,5.29,6.72,10.54,13.48,16.17,19.91a63.66,63.66,0,0,0,10.85,10,49.55,49.55,0,0,1,15.18,18c6.17,11.78,12.67,23.32,21.45,33.42,6.46,7.43,9.6,16.36,11.18,25.85q2.7,16.28,4.78,32.67c1.65,13-.6,25.68-5.2,37.84-3.4,9-7.37,17.8-11.38,26.55-5,10.86-9.32,22-10.31,33.92-.68,8.14-.16,16.38-.06,24.58.06,4.44.7,8.9.5,13.32-.45,10.13,2.94,18.87,8.71,27,3,4.22,5.81,8.61,8.39,13.11,2.43,4.24,2.55,8.7.87,13.44-4.88,13.81-12.23,26.27-20.68,38.1-4,5.6-10,8.7-16.49,10.52a110.53,110.53,0,0,1-26.77,3.66,178.42,178.42,0,0,0-51.87,9.45,83.64,83.64,0,0,1-36.27,3.61c-14.95-1.71-29.91-3.35-44.83-5.22A198,198,0,0,1,167.9,457c-7.81-3.44-16-6.12-23.84-9.43-9.9-4.17-18.38-10.77-27.43-16.42A44.33,44.33,0,0,1,102,415.62c-9.39-15.82-18.06-32-25.85-48.7-2.87-6.13-5.61-12.33-8.73-18.34-4.92-9.45-7.34-19.59-8.41-30-1.11-10.74-1.75-21.53-2.59-32.29-.06-.82,0-1.64,0-2.46ZM404.61,377.9c-.15-.66-.3-1.31-.46-2-.81-3.17-2.11-6.31-2.36-9.52-.89-11.38-1.62-22.78-2-34.18-.48-13.48,2.74-26.29,8.09-38.58,3.95-9.08,8.25-18,12-27.18,5.34-13.12,8.59-26.77,7.18-41-1.17-11.89-2.91-23.74-4.89-35.53A55.25,55.25,0,0,0,412,165.69c-1.72-2.3-3.62-4.49-5.12-6.92-6-9.78-12-19.59-17.84-29.49a39,39,0,0,0-8.58-10.63,183.5,183.5,0,0,1-30.9-32.76c-6.23-8.42-13.79-15.43-23.47-19.73-9.25-4.1-18.53-8.14-28-11.75-14.41-5.52-29.21-6.86-44.3-2.95s-29.44,9.09-42.2,18.38c-9.31,6.78-15.81,14.89-16.83,26.77a184,184,0,0,1-2.36,18.3c-2.26,12-7.07,23.13-12.63,33.89a291.54,291.54,0,0,1-29,46.09c-2.82,3.6-4.65,8-6.94,12l-1.21,1.58c-.31.45-.64.88-.93,1.34-5.17,8.38-11.27,15.91-20.5,20a170.62,170.62,0,0,1-17.06,6.36c-7.73,2.5-15.6,4.57-23.37,7-11.7,3.61-18.48,11.73-20.19,23.67a119.52,119.52,0,0,0-1.11,20.83c.32,9.42,1.46,18.8,2.26,28.2a81.44,81.44,0,0,0,6.86,27.1c2.32,5.1,5.31,9.91,7.4,15.09a441.88,441.88,0,0,0,23.83,50.14c3.88,7,8,13.93,14.61,18.56a234.45,234.45,0,0,0,25.35,15.88c7.89,4.13,16.66,6.55,24.77,10.32a203.33,203.33,0,0,0,59.17,17.45c13.68,1.82,27.41,3.3,41.14,4.8a94.69,94.69,0,0,0,41.1-4,203,203,0,0,1,51.42-9.78,164.35,164.35,0,0,0,22.52-3.07c8.86-1.86,16.27-6.35,20.77-14.68.71-1.32,1.64-2.52,2.48-3.76,5.79-8.57,11.22-17.33,14.78-27.13a17.34,17.34,0,0,0,.11-11.65c-2.84-8.72-9.57-15.17-13.5-23.26Z" />
            <path class="cameroon-cls-8" d="M142.62,208.44l1.21-1.58c1.06-1.59,2.09-3.21,3.2-4.77,9.71-13.65,19.47-27.26,27.68-41.9,6.19-11,12.17-22.15,16.17-34.23,3-8.9,3.75-18.17,5.11-27.35.86-5.85,1.89-11.7,6-16.29a84.91,84.91,0,0,1,8.26-8.22c11.57-9.76,25.24-15.37,39.61-19.51,15.39-4.43,30.76-4.79,45.95.8,7.5,2.76,14.83,6,22.28,8.88a73.61,73.61,0,0,1,31.45,23.2c7.53,9.44,15,19.06,24.6,26.62,7.44,5.87,13,13.16,17.77,21.26q9.68,16.43,20,32.49c3.69,5.72,6.74,11.66,7.91,18.32,2,11.44,3.71,22.93,5.32,34.43a84.06,84.06,0,0,1-5.49,43.65c-3.87,9.63-8.33,19-12.43,28.55-4.87,11.32-8.61,23-8.39,35.43.24,13,1.32,26.06,2.47,39.06.32,3.61,2.16,7.08,3.3,10.62l-.06-.09c1.8,3.5,3.58,7,5.41,10.5,2.24,4.29,4.71,8.47,6.72,12.86a11.25,11.25,0,0,1,.27,8.84c-2.12,5.4-4.08,10.94-6.94,15.95-3.59,6.27-8.09,12-12.08,18.06a26.08,26.08,0,0,1-17.77,11.82c-7.73,1.37-15.54,2.43-23.35,3.26A250,250,0,0,0,308.26,469c-8.9,2.79-18,4.77-27.38,4.76a379.45,379.45,0,0,1-45.44-2.7c-13.27-1.61-26.4-4-39.09-8.16-11-3.61-21.64-8.07-32.54-11.9-17-6-33.06-13.77-47.53-24.65A44.08,44.08,0,0,1,106,415.55,200.28,200.28,0,0,1,88.07,382C82.89,369.69,78,357.29,72.73,345c-2.8-6.54-6.25-12.85-7.27-20-1-7.3-1.91-14.65-2.46-22-.77-10.42-1.53-20.87-1.61-31.31A27.17,27.17,0,0,1,71,250.15c4.2-3.6,9.32-5.31,14.52-6.89,9-2.73,18.09-5.34,27-8.46,9.63-3.38,18.1-8.74,24.36-17A106.22,106.22,0,0,0,142.62,208.44ZM265.82,471.67c18.17.58,25.38-.29,42.74-5.31,12.48-3.61,25-7.16,37.9-8.89q16.06-2.14,32.08-4.53a23.06,23.06,0,0,0,14.2-7.55,112.65,112.65,0,0,0,19.95-30.61c3.16-7.33,2.95-14-1.21-20.68-1.23-2-2.3-4-3.5-6-5.25-8.67-8.78-17.89-9.29-28.13-.33-6.62-.59-13.26-1.25-19.86a87.07,87.07,0,0,1,6.8-43.68c3.78-8.85,8-17.51,11.72-26.38,5.62-13.46,9.17-27.44,7.79-42.13-1.09-11.62-2.68-23.22-4.55-34.75a74.63,74.63,0,0,0-10.83-27.72c-6.79-10.84-13.55-21.7-20.13-32.66a70.43,70.43,0,0,0-13.15-15.62c-5.69-5.21-11.1-10.74-16.42-16.34-4.43-4.66-8.59-9.57-12.79-14.44-6.2-7.19-13.29-13.25-22.09-17-8.62-3.66-17.31-7.14-26-10.56-16.7-6.55-33.46-6.39-50.33-.46-11.57,4.07-23,8.39-32.78,16.06-7.09,5.53-13.34,11.57-15.48,20.73a66.12,66.12,0,0,0-1.9,8.6c-1.65,17.31-7.89,33-16.49,47.9-5.85,10.12-12.06,20-18.27,29.94-6.49,10.36-13.27,20.55-19.75,30.93-5.53,8.86-12.57,16-22.08,20.48-4.51,2.11-9.18,3.9-13.87,5.56-8.5,3-17.24,5.4-25.59,8.78-12.1,4.9-17.37,13.43-16.94,26.46.41,12.29,1,24.56,2.38,36.81A103.45,103.45,0,0,0,79,350.25a49.49,49.49,0,0,1,3.89,8.8c4.79,14.69,9.82,29.27,17.19,42.94,4.28,7.94,8.8,15.76,16.2,21.16,9.73,7.1,19.75,13.83,30.91,18.54,8.25,3.48,16.78,6.31,25,9.94a219.47,219.47,0,0,0,65.23,17.8C246.85,470.48,256.35,470.94,265.82,471.67Z" />
            <path class="cameroon-cls-9" d="M260.35,467.11c-10.56-.82-21.18-1.16-31.65-2.57-14.57-2-28.37-6.86-41.94-12.48-10.29-4.26-20.76-8.11-31.19-12a130.53,130.53,0,0,1-42.87-26.84c-5.77-5.33-9.23-12.33-12.67-19.27-4.2-8.47-6.19-17.64-8.38-26.75a96,96,0,0,0-10.11-26.1c-6-10.31-8.52-21.63-9.19-33.51-.57-10.16-1.68-20.3-2.69-30.44-.74-7.48.18-14.48,5.15-20.49,3.37-4.08,7.82-6.56,12.68-8.36,9.09-3.37,18.32-6.41,27.29-10.07,14.53-5.93,25.89-15.54,33.2-29.7,2.85-5.52,6.15-10.82,9.46-16.08,7.47-11.86,15.24-23.53,22.6-35.46,7.64-12.38,13.81-25.46,17.29-39.67,1.09-4.44,1.94-9,2.68-13.46,1.93-11.73,8.4-20.37,18-27A108.55,108.55,0,0,1,267.7,57.47c10.24-1.23,20.18.4,29.9,3.63a171,171,0,0,1,34.73,16.08c6.15,3.72,10.83,9,15.44,14.29,8.82,10.2,17.66,20.35,27.93,29.17A61,61,0,0,1,388,135.94c6.5,10.85,13.07,21.67,19.55,32.53a73.41,73.41,0,0,1,9.57,27.12c1.71,11.62,3.29,23.29,4.27,35,1.19,14.08-2.51,27.4-7.95,40.24-4,9.49-8.59,18.75-12.47,28.29a80.91,80.91,0,0,0-6.46,32.15c.2,10.73.62,21.46,1.09,32.18.28,6.27,2.64,12,5.42,17.5,2.46,4.88,5.15,9.65,7.58,14.54,2.52,5.06,3.08,10.3.73,15.64-4.82,10.93-11.09,20.84-19.85,29.13a27.58,27.58,0,0,1-14.78,7c-8.28,1.43-16.59,2.79-24.93,3.83a162.81,162.81,0,0,0-33.36,8.31,132.57,132.57,0,0,1-48,7.19c-2.67-.08-5.34,0-8,0Zm1.49-3.09c4.45,0,8.89,0,13.34,0a106.24,106.24,0,0,0,36.31-5.59,280.18,280.18,0,0,1,58.62-13.66c11.22-1.37,19.38-7.16,26.05-15.76a90.9,90.9,0,0,0,10.19-17.28,19.73,19.73,0,0,0-.21-18q-4.16-8.46-8-17.07a45.21,45.21,0,0,1-3.85-17.51c-.14-5.67-.15-11.37-.7-17a91.66,91.66,0,0,1,7.11-46.29c3.41-7.82,7.22-15.47,10.65-23.28,5.74-13,9.25-26.62,8.3-41-.53-7.91-1.37-15.81-2.41-23.66-1.76-13.35-4.65-26.42-11.16-38.4q-6.76-12.44-13.8-24.72a114.82,114.82,0,0,0-19.07-24.56c-8.11-8-16.25-16.06-23.94-24.49C341.31,87.05,333,79,322.2,73.83A217.76,217.76,0,0,0,291.85,62c-9.37-2.84-18.84-3.75-28.32-1.12-8.21,2.28-16.3,5-24.36,7.84a73.8,73.8,0,0,0-17.55,8.79c-10.34,7.07-17.64,16.18-20,28.8-.94,5-2.06,9.91-3.42,14.77-4.19,15-11.89,28.28-20,41.38q-15.51,25-30.94,50.06a68.24,68.24,0,0,1-13.31,16c-8,6.94-17.47,11.15-27.17,15-6.68,2.62-13.53,4.82-20.12,7.61-10.8,4.57-15.45,12.69-14.3,24.32,1,9.73,2.46,19.42,3,29.17a86.81,86.81,0,0,0,10.62,38,75.79,75.79,0,0,1,7.4,19.94c1.61,7.13,3,14.32,5.1,21.32,3.37,11.4,9.07,21.63,18,29.61A122.89,122.89,0,0,0,151,435.21c11.48,4.8,23.08,9.34,34.55,14.16a225,225,0,0,0,38.12,12.57C236.25,464.74,249,464.78,261.83,464Z" />
            <path class="cameroon-cls-10" d="M245.27,462.23a93.73,93.73,0,0,1-31.84-5.18c-7.95-2.71-15.72-6-23.53-9.08C178,443.2,166,438.49,154.15,433.5a132.37,132.37,0,0,1-35.7-22.35c-10.28-9-16.38-20.54-18.92-33.94-1.79-9.47-2.83-19.12-6.44-28.14-1.62-4.05-3.71-7.92-5.63-11.85a80.76,80.76,0,0,1-8.1-30.1c-.76-10.77-1.91-21.51-3-32.25-1-10,2.57-17,11.68-21.32,5.49-2.61,11.26-4.59,16.83-7,6-2.64,12-5.26,17.83-8.32,12.14-6.4,20.88-16.2,27.91-27.89,9.47-15.76,19.28-31.32,29.19-46.8,10.32-16.12,18.69-33,22.84-51.86,1.86-8.46,4.85-16.52,10.74-23.2a46.77,46.77,0,0,1,17.07-11.79c9.42-4,19-7.71,28.66-11.11,12.78-4.5,25.5-3.31,38.22.89,11.51,3.8,22.23,9.16,32.72,15.09,5.73,3.24,10.34,7.84,14.74,12.64,9.82,10.68,19.64,21.35,30.54,31,6.46,5.7,11,12.85,15,20.35q8,14.81,15.87,29.66A68,68,0,0,1,413,196.8c1.8,11.68,3.58,23.39,4.6,35.16,1.15,13.25-1.79,26-7,38.16-3.68,8.6-7.82,17-11.47,25.6-4.73,11.16-7.9,22.75-7.78,35,.09,8.88.74,17.76.95,26.65a51.44,51.44,0,0,0,3.47,18.43,150.7,150.7,0,0,0,6.93,15.53c3.86,7.07,3.73,14,.49,21.06a65.09,65.09,0,0,1-14.86,20.47c-5.54,5.18-12.47,7.5-19.81,8.72s-14.44,2.32-21.67,3.44c-10.27,1.59-20,5-29.69,8.63A110.91,110.91,0,0,1,278.27,461c-10.32.07-20.64.81-31,1.25C246.63,462.26,245.95,462.23,245.27,462.23Zm29.67-3.63c15.24.41,30.41-2.71,45.1-8.48,4.9-1.92,9.8-4,14.89-5.21,8.39-1.92,16.93-3.17,25.41-4.64,7.65-1.33,15.2-3,22-7,10.41-6.1,16.36-15.68,20.17-26.77a17.37,17.37,0,0,0-.77-13.21c-.82-1.8-1.49-3.67-2.33-5.47-4.21-9-7.53-18.36-8.17-28.41-.51-7.92-.62-15.86-1.15-23.77a73.82,73.82,0,0,1,4.32-31.44c3.38-8.92,7.45-17.59,11.52-26.23,6.18-13.08,10.62-26.57,9.85-41.22-.46-8.73-1.22-17.47-2.47-26.12a238.19,238.19,0,0,0-4.91-24.48c-2.59-10.2-7.5-19.5-12.38-28.76-6.18-11.73-13.35-22.74-22.93-32.08Q358,110.65,343.32,95.58c-5.84-6-12.1-11.22-19.57-15.06C313.21,75.1,302.63,69.88,291,67c-10.79-2.64-21.35-2.56-31.8,1.71-9,3.68-18.11,7-27.12,10.59-9.3,3.72-17.5,9-22.06,18.28a84.43,84.43,0,0,0-6.13,16.47c-4.75,18.76-13.26,35.73-24.08,51.57q-13.74,20.09-25.7,41.25c-4,7.16-8.34,14.11-14.09,20.08-8.17,8.49-18.2,14.11-28.78,18.92-7.65,3.48-15.34,6.87-22.91,10.52-5.74,2.77-9.11,7.4-9.12,14a95.47,95.47,0,0,0,.68,9.58c.86,8.63,2.09,17.24,2.59,25.9.59,10.12,2.67,19.76,7.28,28.81a91.11,91.11,0,0,1,8.81,24.43c1,5.44,1.93,10.91,2.86,16.37,2.1,12.32,7.26,23.19,16.53,31.59,9.71,8.79,20.27,16.71,32.33,21.93,21,9.09,42.3,17.57,63.56,26.08a76.1,76.1,0,0,0,32.59,5.16C255.78,459.74,265.06,459.17,274.94,458.6Z" />
            <path class="cameroon-cls-11" d="M414.13,236.64c.45,13.11-3.08,25.32-8.36,37.1-3.72,8.28-7.87,16.37-11.42,24.72a82.17,82.17,0,0,0-6.58,35.39c.33,9.22.45,18.46.87,27.68.39,8.64,3.89,16.42,7.08,24.27a90.62,90.62,0,0,1,3.62,10.64,11.54,11.54,0,0,1,.05,5.48c-2.54,10.51-7.41,19.82-16.85,25.5-5,3-11,4.86-16.82,6.23-8.76,2.07-17.7,3.37-26.6,4.82a60.33,60.33,0,0,0-18.21,6.09,77,77,0,0,1-30.73,8.79c-16.18,1.06-32.35,2.13-48.53,3-9.73.55-19-1.59-28-5.28-15-6.19-30-12.53-45.13-18.6a171.29,171.29,0,0,1-46.38-28.35c-9.51-8-15.65-18.31-16.67-30.81a120.33,120.33,0,0,0-12.13-43c-4.92-10.18-6-21-6.2-32.13-.1-7-1.28-14-2.29-21-1.1-7.62.28-14.2,6.93-18.84a49.35,49.35,0,0,1,6.53-3.83c5.83-2.86,11.77-5.5,17.58-8.37,13.14-6.5,24.52-15.31,33-27.32,4.56-6.45,8-13.68,12.18-20.4,5.93-9.51,11.89-19,18.2-28.27,12.15-17.84,21.43-37,27-57.85a79.75,79.75,0,0,1,3.08-8.9,32.92,32.92,0,0,1,19.09-18.95c8.36-3.37,16.82-6.49,25.23-9.74,2.61-1,5.27-2,7.8-3.15a40.09,40.09,0,0,1,29.83-1.89c8.85,2.74,17.42,6.41,26,9.91,11.4,4.64,20.26,12.81,28.85,21.32q13.92,13.79,27.91,27.52c7.27,7.18,12.88,15.6,17.8,24.48,6.73,12.11,12.68,24.62,15.62,38.22,2.2,10.21,3.67,20.58,5.24,30.91C413.49,226.93,413.69,231.8,414.13,236.64Zm-1.91-1c-.47-4.17-1.28-12.26-2.33-20.32a186.7,186.7,0,0,0-10.71-43.49c-5.63-14.58-12.85-28.19-23.91-39.34C363,120.1,350.37,108.06,337.71,96.05A73.75,73.75,0,0,0,314.88,81c-10.5-4.27-20.63-9.86-32.49-10-4.56-.06-9.07-.16-13.38,1.3-4.72,1.6-9.27,3.68-13.94,5.43-8.13,3-16.34,5.87-24.43,9-10.12,3.94-17.56,10.67-21,21.26-.81,2.47-1.76,4.89-2.49,7.38-5.72,19.71-13.82,38.33-26.12,54.87A255.28,255.28,0,0,0,159.34,205c-10.13,19.52-24.83,34.29-44.58,44.05-6.49,3.21-12.92,6.55-19.24,10.08-5.26,2.94-8,7.47-7.51,13.71.13,1.57.11,3.15.24,4.71.62,7.36,1.71,14.71,1.82,22.07a83.65,83.65,0,0,0,9,36.91,47.69,47.69,0,0,1,4.08,11.34c1.89,8.89,3.24,17.89,4.9,26.83a42.06,42.06,0,0,0,12.8,23.81,169.9,169.9,0,0,0,44.26,29.8c11.84,5.5,24.07,10.14,36.12,15.16,6.56,2.73,13,5.72,19.72,8.11,9.46,3.39,19.32,3.3,29.21,2.48,10.77-.9,21.54-1.8,32.33-2.32,12.09-.58,23.71-2.8,34.71-8,6.79-3.24,13.67-6.25,21.18-7.57,8.68-1.52,17.32-3.24,26-5s16.4-5,22.8-11.32c6.87-6.75,13.26-19.28,7.72-32.45a117.2,117.2,0,0,1-6.24-21c-2.56-12-1.92-24.37-2.43-36.59-.43-10.2,2.18-20,6-29.33,3.64-9,8-17.64,12-26.48A83.88,83.88,0,0,0,412.22,235.65Z" />
            <path class="cameroon-cls-12" d="M94.57,296.84c-.56-6.6-.91-13.23-1.73-19.8-1.13-9,2.91-14.88,10.45-19.06s14.92-8.07,22.07-12.6a98,98,0,0,0,33.86-36.69,376.82,376.82,0,0,1,23.1-37.27c11.62-16.51,19.72-34.77,25.59-54.06,1.13-3.71,2.56-7.35,4.06-10.94a29.48,29.48,0,0,1,18.21-17.2c7.94-2.74,16-5.1,24-7.75A55.26,55.26,0,0,0,262.5,78c10.73-5.65,21.7-6,33.21-2.53,17.34,5.26,32.71,13.78,45.74,26.4q18.05,17.49,36,35.08c5.49,5.38,9.43,11.86,12.87,18.67a172,172,0,0,1,17.51,58.42c.81,7.13,1.78,14.24,2.46,21.38,1.22,12.8-1.69,24.85-7.11,36.38Q398,283,392.69,294.07c-6.66,14-9.07,28.82-8.23,44.27.37,6.83.21,13.68.6,20.51.49,8.67,3.17,16.89,5.84,25.09a64.85,64.85,0,0,1,2.58,8.85c2,11.73-4.48,23.34-16,29.18-7,3.53-14.45,5.42-22,6.89-6.24,1.21-12.52,2.23-18.8,3.18A54,54,0,0,0,318,438.73a70.33,70.33,0,0,1-30.85,8.89q-19.86,1.22-39.68,3a65,65,0,0,1-33-5.23c-14.51-6.41-29.16-12.5-43.69-18.86S143.44,411,131.25,401c-4.76-3.92-9.54-7.8-13-13-4.57-6.74-6.74-14.31-7.63-22.29-1.5-13.36-4.77-26.18-10.87-38.26-4.61-9.13-5.69-19-5.44-29.15,0-.48,0-1,0-1.44Zm2.32-1.74h-.11c0,.48,0,1,0,1.43-.74,12,2.13,23.3,7.05,34.19a68.93,68.93,0,0,1,4.27,11.74c2.29,9.28,4.24,18.65,6.22,28,1.67,7.88,4.74,15,10.83,20.5,2.48,2.25,4.93,4.54,7.45,6.75,13,11.41,26.81,21.65,42.87,28.51,13.27,5.66,26.49,11.44,39.71,17.22a61.58,61.58,0,0,0,31.2,5.14c14.49-1.4,29-2.26,43.54-3.59a66.13,66.13,0,0,0,25.26-7.32,72.37,72.37,0,0,1,20.52-7.44c11.33-2.18,22.55-5,33.7-8A38.15,38.15,0,0,0,380.65,417c9.46-6.4,13.07-16.42,9.77-28.4-4.17-15.16-7.59-30.34-7.49-46.18,0-8.21-.45-16.41.9-24.56,1.81-11,5.86-21.14,10.72-31.06,3-6.13,6-12.26,8.74-18.53,5.37-12.44,6.15-25.44,4.72-38.81-2.33-21.79-6.68-43-14.69-63.52A86.67,86.67,0,0,0,372,133.75q-17.32-16.33-34.83-32.46A102.21,102.21,0,0,0,295.8,78.16c-10.3-3-20.29-2.77-30.19,1.83a171.8,171.8,0,0,1-16.09,6.08c-6.45,2.24-13,4.13-19.44,6.42-8.27,2.95-14.31,8.4-17.5,16.72-1.61,4.21-3.24,8.42-4.61,12.71a204.45,204.45,0,0,1-28.56,56.92,250.26,250.26,0,0,0-15.83,25.85c-9.86,18.15-22.8,33.34-40.47,44.27-5.81,3.59-11.72,7-17.59,10.53-7,4.17-10.48,10.12-9.75,18.42C96.27,283.62,96.53,289.36,96.89,295.1Z" />
            <path class="cameroon-cls-13" d="M406.83,240.07c.43,13.59-3.82,25.88-10,37.67-4.42,8.48-8.73,17-11.68,26.16-3.37,10.44-5.23,21-4.56,32.06.35,5.8.12,11.63.33,17.44.35,9.91,2.9,19.42,5.31,29a58.59,58.59,0,0,1,1.86,13.14c.17,9.44-4.33,16.43-13,20-11.08,4.55-22.57,8.13-34.51,9.48a70.59,70.59,0,0,0-27.09,8.83,62.73,62.73,0,0,1-27.19,7.69q-21.91,1.42-43.79,3.27c-9.23.79-17.72-1.41-26-5.15-9.54-4.29-19.18-8.35-28.81-12.44C173.89,421.34,160.48,414.8,149,405c-7.35-6.33-14.55-12.89-21.35-19.8s-9.81-16.15-11.28-25.71a127.8,127.8,0,0,0-10-33.7,61.54,61.54,0,0,1-5.62-28.3c.27-6.76.16-13.54,0-20.31-.21-7,2.78-12.12,8.38-15.92,5.88-4,11.92-7.75,17.76-11.79a114.5,114.5,0,0,0,35.31-38.51c6.9-12.3,14.45-24.15,22.41-35.79,10-14.69,16.93-31,22.93-47.71,1.41-3.92,2.83-7.84,4.09-11.81,3.58-11.28,10.48-19.18,22.26-22.24,6.15-1.6,12.34-3,18.41-4.91A135.91,135.91,0,0,0,268.6,82.5a37.54,37.54,0,0,1,25.78-2.06c16.32,4.15,30.28,12.4,42.61,23.63,11.33,10.32,22.52,20.79,33.91,31,10,9,16.71,20,21.36,32.39,6.39,17.06,10,34.78,12.34,52.79C405.44,226.88,406.09,233.48,406.83,240.07ZM102.87,292A73.42,73.42,0,0,0,109,326a156,156,0,0,1,8.66,27.56c.81,3.6,1.72,7.18,2.77,10.72,2.33,7.86,6,15,12,20.71,7.9,7.47,15.77,15,23.94,22.13,9.39,8.22,20.65,13.27,32,18,10.6,4.42,21.14,9,31.7,13.52a50.23,50.23,0,0,0,25.62,4c12.58-1.34,25.2-2.5,37.83-3a71.93,71.93,0,0,0,32.08-9,68.19,68.19,0,0,1,17.88-6.44c10.32-2.35,20.65-4.71,30.86-7.47a54.67,54.67,0,0,0,12.83-5.25c5.4-3.1,8.63-8,8.42-14.52a107.4,107.4,0,0,0-1.11-14.05c-1.1-6.6-3.25-13-4-19.66-1-8.47-1.2-17-1.48-25.57-.41-12.25.53-24.41,5.19-35.86,3.47-8.53,7.62-16.77,11.56-25.1,4.71-9.93,8.93-20,8.89-31.25a178.58,178.58,0,0,0-1.36-18.79c-2-18.58-5.46-36.86-11.39-54.68-4.53-13.62-11.31-25.52-22.16-35.09-12.62-11.13-24.94-22.6-37.6-33.69-11.11-9.73-23.6-16.93-38.31-20-7.41-1.53-14.54-1.94-21.72,1.05-10.31,4.29-21.06,7.21-31.89,9.89a79,79,0,0,0-12.76,4.43c-7.82,3.44-11.82,10.27-14.66,17.87-2,5.37-3.73,10.85-5.71,16.23-6.11,16.67-13.47,32.75-23.54,47.44-5.92,8.63-11.82,17.24-16.89,26.42C158.06,222.17,147.15,236,133.09,247c-6.12,4.81-12.67,9.07-19.1,13.48s-10.39,10-10.54,18C103.36,283,103.07,287.49,102.87,292Z" />
            <path class="cameroon-cls-14" d="M107.77,292.64c.27-4,.62-7.91.81-11.87.38-7.92,4.11-14.09,10.08-19,5.4-4.41,11.21-8.32,16.49-12.86A145.55,145.55,0,0,0,161.91,218c8.8-13.44,17.48-27,25.88-40.65,9.95-16.21,17.11-33.72,23-51.76.93-2.86,2.08-5.64,3-8.51,3.15-9.94,10.14-15.8,19.67-19.37,6.6-2.48,13.49-3.39,20.3-4.81,5.33-1.12,10.83-2.19,15.72-4.44,11.27-5.19,22.32-4.8,33.67-.64A81.54,81.54,0,0,1,329,103.05c12.73,11.11,25.34,22.36,38.18,33.35,11.44,9.79,18.81,22,23,36.36a360.61,360.61,0,0,1,12,62.94,61.88,61.88,0,0,1-5.92,33.69c-4,8.51-8.27,16.94-12.17,25.51-6.52,14.37-8,29.61-8,45.23a184.46,184.46,0,0,0,4.79,41.45A67.31,67.31,0,0,1,382,392c.57,8.52-3.86,14-11.35,16.89A177.9,177.9,0,0,1,350.22,415c-7,1.75-14.16,3-21.27,4.37a44.61,44.61,0,0,0-15,6c-10,6.15-20.85,8.8-32.54,9.24-13.39.5-26.76,1.65-40.14,2.57A33.1,33.1,0,0,1,226.39,435q-22.41-9.14-44.65-18.68a75.62,75.62,0,0,1-25.71-18c-7.51-8-15-16.08-22.33-24.31-4.79-5.4-7.56-12-9.8-18.79q-6-18.31-12.28-36.54A65.82,65.82,0,0,1,107.77,292.64Zm1.93,2.55a61.85,61.85,0,0,0,3.6,21.16c3,8.31,5.84,16.65,8.91,24.92,2.56,6.92,4.74,14.07,8.13,20.58,7.29,14,17.82,25.51,29.11,36.37a91.32,91.32,0,0,0,29.7,19c11.87,4.76,23.74,9.53,35.52,14.48a43.73,43.73,0,0,0,20.28,3.1c11.94-.81,23.88-1.83,35.83-2.36,11.11-.49,21.66-2.55,31.42-8.19,5.5-3.18,11.23-5.93,17.66-6.95a237.62,237.62,0,0,0,36.92-9.45c11-3.62,14.24-8.91,13-20.46,0-.2,0-.41-.09-.61-1.15-6.53-2.36-13-3.45-19.58-1.91-11.52-2-23.11-1.79-34.77a104,104,0,0,1,8.61-39.37c3.26-7.66,7.24-15,10.81-22.53,5.11-10.78,7.68-22,6.19-34-.83-6.71-1.52-13.45-2.53-20.14a327.19,327.19,0,0,0-9.85-44.82c-3.83-12.83-10.47-23.79-20.9-32.44S346.5,121.64,336.29,113c-6-5.13-11.89-10.57-18.39-15.05-9.92-6.84-21-10.93-33.31-10.23A28.11,28.11,0,0,0,276,89.35c-12.37,4.88-25.5,6.65-38.32,9.72-10.71,2.56-18.59,8.36-22.56,18.88-1.21,3.19-2.43,6.39-3.49,9.63-5.83,17.69-12.63,35-22.37,50.93-8.59,14-17.78,27.74-26.92,41.45a147.62,147.62,0,0,1-25.55,29.83c-5.15,4.49-10.64,8.59-15.8,13.06-5.57,4.81-9.2,10.8-10,18.29C110.53,285.8,110.13,290.5,109.7,295.19Z" />
            <path class="cameroon-cls-15" d="M398.11,243.47c.79,10-2.39,19-6.66,27.75s-8.45,17.46-12.19,26.39c-5,12.08-6.58,24.87-6.91,37.89a192.77,192.77,0,0,0,4,44.22,63.47,63.47,0,0,1,1,11.2c.15,5.73-2.65,9.82-7.83,12.13a76.22,76.22,0,0,1-8.83,3.27,263.78,263.78,0,0,1-34.43,8.45,39.68,39.68,0,0,0-14.36,5.84c-9,5.55-18.82,7.92-29.23,8.5s-20.77,1.07-31.13,1.88a61.23,61.23,0,0,1-29.84-4.69c-10.78-4.68-21.94-8.48-32.84-12.89a78.27,78.27,0,0,1-33.8-25.87c-5.14-6.83-10.74-13.33-15.74-20.25a112.86,112.86,0,0,1-14.88-29.6c-3.16-9.18-6.77-18.21-9.54-27.5-3.43-11.51-2.64-23.14.82-34.57a26.06,26.06,0,0,1,9.53-13.1c20.8-15.84,35.27-37,49.63-58.27,11.18-16.59,21.64-33.56,29-52.24,3.84-9.78,7.09-19.79,10.68-29.67,1.85-5.08,3.85-10.11,8.13-13.79,3.55-3.06,7.83-4.65,12.12-6.28,8.37-3.17,17.16-4.5,25.9-6.11A49.29,49.29,0,0,0,271,93.44c16.85-7.14,32.28-3.36,46.62,6.33,6.7,4.53,12.59,10.28,18.78,15.55,10.42,8.87,20.69,17.91,31.2,26.67,9.24,7.7,15,17.52,18,29,4,15.05,8.08,30.12,10.13,45.6,1.18,8.94,1.93,17.93,2.88,26.9ZM254.05,428.28,281.92,427c9.26-.43,18.26-2,26.35-6.82A70.16,70.16,0,0,1,329.18,412c13.16-2.88,26.26-6,38.82-11,4.47-1.8,7-4.81,6.94-9.58a116.28,116.28,0,0,0-1-15.31c-1.71-11.37-3.49-22.7-3.48-34.24s.7-22.81,3.73-33.93c2.9-10.67,7.45-20.66,12.3-30.55,3.58-7.3,7.08-14.64,8.68-22.7,1.81-9.13,1.13-18.29-.2-27.36-2.32-15.82-4.7-31.66-9-47.1a180.8,180.8,0,0,0-5.79-17.71c-3-7.59-8.14-13.66-14.35-18.94q-21-17.88-41.85-36c-6.22-5.38-12.93-9.86-20.78-12.49-8.8-3-17.55-3.63-26.5-.32-8,3-16.49,4.43-25,5.47A66.57,66.57,0,0,0,231,106c-6.33,3-11.07,7.43-13.64,14-1.53,3.95-3.28,7.82-4.62,11.83-5.94,17.86-12.88,35.33-22.55,51.51-6.51,10.9-13.83,21.33-21,31.82-11.88,17.36-24.54,34-41,47.51-3.31,2.71-6.59,6.16-8.31,10-4.82,10.69-6.65,22.11-3.69,33.64,3.58,13.94,9,27.3,15.13,40.28,7.6,16,18,30.28,29.52,43.77a76.71,76.71,0,0,0,32.74,22.55c10,3.64,20,7.09,29.76,11.22C232.69,428.11,242.2,429.64,254.05,428.28Z" />
            <path class="cameroon-cls-16" d="M252.58,426.67c-12.93.39-21.91-1.69-30.72-5.38-8.06-3.37-16.42-6.05-24.73-8.76-15.1-4.91-27.68-13.17-36.8-26.41-5.75-8.34-11.66-16.56-17.62-24.75-9.26-12.71-15.23-27-20.35-41.7-2.4-6.91-5.29-13.67-5.82-21.08-.69-9.71.54-19.09,6.22-27.25a51,51,0,0,1,8.77-9.41c11.33-9.68,20.69-21,29.21-33.16,8.29-11.81,17-23.36,25-35.34,11-16.39,18.56-34.46,25.1-53,2.59-7.33,5.51-14.55,8.56-21.7,2.14-5,6.14-8.3,11.18-10.3A153.77,153.77,0,0,1,263,99.82c5.18-.84,10.27-2.31,15.36-3.65,14.16-3.71,26.82,0,38.48,8a144.37,144.37,0,0,1,12.1,9.81c11.77,10.12,23.32,20.51,35.28,30.4,8.53,7.06,14.56,15.57,17.42,26.19,2.24,8.3,4.19,16.7,5.93,25.12,2,9.63,3.72,19.32,5.27,29,.81,5.05,1,10.2,1.47,15.31,1,11.45-1.82,22.06-6.94,32.22-4.8,9.51-9.32,19.15-12.59,29.33a110.44,110.44,0,0,0-5.48,41.23c.82,12.47,2.55,24.87,3.89,37.31.23,2.18.55,4.34.78,6.52.8,7.6-2.14,12.48-9.51,14.62-11,3.2-22.1,6.29-33.27,8.91A82.16,82.16,0,0,0,311.46,417c-9.73,5.11-19.75,8.34-30.92,8.34C270.08,425.36,259.63,426.31,252.58,426.67ZM392.32,243.43c-.47-5.17-.55-10.42-1.48-15.51-3.12-17.14-6.36-34.26-9.94-51.31A73.54,73.54,0,0,0,375.72,162c-3.3-7.39-9.31-12.57-15.56-17.43a333.77,333.77,0,0,1-31-27.13,82.78,82.78,0,0,0-16.52-13.1c-11.2-6.56-22.88-9-35.59-4.73a103.6,103.6,0,0,1-14,3.13c-8.94,1.65-17.93,2.94-26.63,5.77-8.3,2.71-14.43,7.58-17.74,15.77-1.82,4.5-3.9,8.9-5.41,13.5-6,18.44-13.35,36.34-23.88,52.69-7.1,11-15,21.55-22.61,32.24-5.24,7.35-10.22,14.93-16,21.78-6.32,7.43-13.43,14.19-20.3,21.14-7.32,7.41-11.69,16-11.81,26.64a61.42,61.42,0,0,0,3.46,19.9c3.89,11.92,8.22,23.65,15.13,34.24,5.9,9.06,11.64,18.22,17.7,27.17a218,218,0,0,0,13.7,18.68c7.91,9.36,18.5,14.72,30,18.47,8.58,2.8,17.12,5.69,25.6,8.77a77.87,77.87,0,0,0,30.59,4.81c7.86-.37,15.72-1,23.57-1A69,69,0,0,0,309,416a155.68,155.68,0,0,1,20.35-7.52c6.11-1.93,12.44-3.17,18.64-4.86,5.74-1.57,11.45-3.21,17.11-5,4.6-1.48,6.52-4.2,6.62-9a63.06,63.06,0,0,0-.25-8.19c-1.28-11.68-3-23.33-4-35a114,114,0,0,1,4.34-41.78,188.71,188.71,0,0,1,12.09-29.53C388.84,265.09,392.7,254.84,392.32,243.43Z" />
            <path class="cameroon-cls-17" d="M270.25,420.21c-4.44,0-8.89,0-13.33,0a77.28,77.28,0,0,1-24.23-3.71c-11.73-3.71-23.49-7.35-35.15-11.26a50.19,50.19,0,0,1-27.18-21.05c-9.63-15-19.86-29.68-29.22-44.87-7.23-11.72-13-24.26-15.6-37.94-1.58-8.18-1.22-16.21,2.61-23.82a45.72,45.72,0,0,1,10-13.2c10.53-9.65,18.83-21,26.55-33,7-10.84,14.89-21.11,22.18-31.78a223.36,223.36,0,0,0,28.06-57.86c1.53-4.73,3.53-9.31,5.34-14,3.84-9.84,11.28-15.45,21.21-18.26,7.74-2.19,15.66-3.12,23.64-3.91A73.43,73.43,0,0,0,279.17,103c14.69-4.47,28-1.62,39.79,7.67,7,5.48,13.29,11.79,20,17.67,8.1,7.14,16.35,14.12,24.37,21.35,5.17,4.66,10.54,9.33,13.05,16.11a88.31,88.31,0,0,1,3.9,13.36c3.26,16.41,6.54,32.83,9.3,49.33,1.65,9.91,2.84,20.08-.3,29.9a194,194,0,0,1-8.66,21.88c-6.32,13.72-11.36,27.79-13.49,42.82-1.56,11.07-1,22.1.37,33.12q1.71,13.42,3.41,26.85a21.24,21.24,0,0,1,.13,2.66c0,5.72-2.15,8.8-7.67,10.44-8.52,2.53-17,5-25.64,7.31-11.73,3.09-23.26,6.68-34.08,12.26a33.84,33.84,0,0,1-14.88,3.43c-6.15.15-12.31,0-18.46,0Zm-1.42-2.05,0-.76c2.94,0,5.88-.09,8.82,0,11.34.39,22.15-1.48,32.36-6.75,8.62-4.45,18.09-6.57,27.38-9.13,8.31-2.29,16.59-4.68,24.87-7,3.82-1.09,6.27-3.43,6.29-7.58a101.76,101.76,0,0,0-.4-11.44c-1.17-10.94-3-21.82-3.73-32.79-1-15.63,2.1-30.78,7.42-45.41,3.07-8.46,6.72-16.72,10.33-25,5.88-13.4,7.82-27.21,5.16-41.65q-4.62-25-9.14-50c-2.34-13-8.74-23.37-19.27-31.58-8.5-6.63-16.35-14.11-24.39-21.33-4.93-4.43-9.44-9.36-14.57-13.54-11.81-9.63-25-13.3-40.09-8.73a88.38,88.38,0,0,1-12,2.54c-7.56,1.18-15.21,1.84-22.71,3.28-11.66,2.22-20.23,8.6-24.6,20-1.37,3.57-2.89,7.09-4.06,10.72a217.29,217.29,0,0,1-27.74,57.12c-7.23,10.46-14.73,20.73-21.94,31.2-5.11,7.42-9.09,15.62-15.23,22.33-4.8,5.25-9.73,10.37-14.47,15.67-4.31,4.82-8.05,10-9.68,16.45-1.88,7.37-.65,14.54,1.49,21.62a130.39,130.39,0,0,0,14.69,31.53q14.06,22.42,28.5,44.6a50.51,50.51,0,0,0,31.27,22.32c6.89,1.7,13.68,3.83,20.49,5.84,6.36,1.88,12.57,4.59,19.05,5.6C251.45,417.57,260.19,417.58,268.83,418.15Z" />
            <path class="cameroon-cls-18" d="M270.44,415.24c-11.4-.33-22.85.1-33.94-3.5-7.8-2.53-15.71-4.69-23.58-7-4.13-1.21-8.25-2.46-12.41-3.54-11.56-3-20-9.93-26.11-20.08-7.43-12.28-15.15-24.39-22.79-36.55-4.44-7.06-9.27-13.89-13.39-21.14a80.25,80.25,0,0,1-8.56-22.11c-2.84-12.63.41-23.36,9.34-32.56,7.86-8.1,15.71-16.22,21.75-25.85,4.17-6.65,8.17-13.43,12.58-19.92,6.58-9.66,13.58-19,20.18-28.68,10.69-15.62,18.06-32.87,24.26-50.66a117.64,117.64,0,0,1,5.06-12.53c4.1-8.47,10.79-14.15,19.95-16.33,6.36-1.52,12.91-2.25,19.37-3.35,5.72-1,11.64-1.34,17.13-3.05,15.59-4.88,29-.7,41.19,9,2.62,2.08,5,4.47,7.46,6.74,10.36,9.55,20.44,19.42,31.15,28.55a48.54,48.54,0,0,1,16.68,28.63c2.14,11,3.9,22.07,5.78,33.12,1.3,7.61,2.7,15.21,3.73,22.85,1.62,12-.48,23.53-5.14,34.67-3.42,8.18-7,16.34-9.9,24.7-4.89,13.92-8.62,28.18-7.81,43.1.49,9.13,2,18.2,3,27.3.56,5.16,1.29,10.32,1.41,15.5.14,6.3-1.93,8.75-7.91,10.53-13.17,3.93-26.39,7.71-39.51,11.8a105.84,105.84,0,0,0-13.88,5.58,42.76,42.76,0,0,1-17.19,4.25c-5.94.19-11.9,0-17.84,0Zm.5-2.49c4.45,0,8.89,0,13.34,0,6.62-.09,13.15-1,19.2-3.74,10.62-4.84,21.68-8.34,32.87-11.52,7.17-2,14.39-3.87,21.5-6.1,5.45-1.7,7.09-4,7-9.67-.07-4.7-.65-9.4-1.16-14.09-.95-8.76-2.34-17.49-2.95-26.27-1-15.12,2.25-29.63,7.41-43.74,3.42-9.36,7.13-18.62,10.62-28C383,258.45,384.5,247,382.43,235c-3-17.3-5.75-34.65-8.79-52-1.61-9.19-5-17.59-12-24.19-11.08-10.48-22.1-21-33.18-31.51-5.27-5-10.71-9.78-17.15-13.29-8.26-4.5-16.85-6.39-26.28-4.32-8.14,1.79-16.4,3-24.61,4.44-5,.88-10.13,1.52-15.13,2.61a30.15,30.15,0,0,0-22,17.71,123.89,123.89,0,0,0-5.15,12.27,211.56,211.56,0,0,1-30.12,58c-8.88,12.14-17.89,24.16-25.13,37.41A90.55,90.55,0,0,1,148.8,260.7c-4,4.22-7.81,8.6-11.52,13.06A28.27,28.27,0,0,0,131,297.35a57.1,57.1,0,0,0,6.65,19.3c4.12,7.25,8.17,14.6,13,21.37,9.32,13.06,17.2,27,25.29,40.77,6.31,10.76,15.19,18.06,27.57,20.95,8.37,2,16.76,4,24.92,6.68C242.25,411,256.31,413.6,270.94,412.75Z" />
            <path class="cameroon-cls-19" d="M269.67,407.07c-14.8.58-28.87-3.12-42.9-7.14-9.32-2.67-18.71-5.08-28-7.71a29.7,29.7,0,0,1-18.54-14.9c-10.15-18.66-21.82-36.32-34-53.66a86.83,86.83,0,0,1-10.55-20.34c-4.51-12.34-2.27-23.23,6.48-32.89,4-4.46,8.18-8.82,12.17-13.33a84,84,0,0,0,12.87-18.93c5.8-11.93,13.89-22.39,21.6-33.09,10.65-14.79,20.36-30.1,26.89-47.24,2.84-7.46,5.58-15,9-22.18,4.06-8.56,10.75-14.4,20.24-16.51,5.73-1.27,11.49-2.41,17.25-3.53s11.88-2,17.72-3.35c13.84-3.31,26.46-.88,37.44,8.11,6.55,5.35,12.54,11.39,18.69,17.22,6.9,6.54,13.59,13.3,20.57,19.75,8,7.37,12,16.64,13.55,27.14,1.67,11,3.22,22,5,33,1,6.34,2.45,12.61,3.64,18.92,2.23,11.86.23,23.23-3.91,34.39-4,10.88-8.05,21.77-11.85,32.73-4.24,12.25-6.49,24.87-5.49,37.88.63,8.1,1.81,16.16,2.52,24.26a92.23,92.23,0,0,1,.31,12.67c-.23,4.55-3.06,7.26-7.36,8.55-10.48,3.14-21,6.17-31.4,9.53-5.65,1.83-11.09,4.27-16.65,6.38-10,3.8-20.49,4.58-31.09,4.25C272.41,407,271,407.07,269.67,407.07Zm4.14-2.12h8a56.67,56.67,0,0,0,20.49-3.5c9.83-3.76,19.77-7.24,29.72-10.66,6.59-2.27,13.3-4.2,19.93-6.35,4-1.29,6-4.2,6.26-8.27a42.94,42.94,0,0,0,.12-6.76c-.58-6.6-1.42-13.18-2-19.79-.76-8.73-1.14-17.47,0-26.2,1.39-10.51,4.93-20.42,8.39-30.35,3.09-8.9,6.59-17.66,9.5-26.61a59.08,59.08,0,0,0,1.41-31.56c-2-9.19-3.34-18.55-4.85-27.85-1.29-8-2.37-15.94-3.6-23.91A43.26,43.26,0,0,0,353.8,157.9c-8.5-8.14-16.71-16.57-25.2-24.72a137.68,137.68,0,0,0-12.66-11c-10.5-7.87-22.07-10.77-35.2-7.64-9.28,2.22-18.78,3.59-28.23,5-8.37,1.29-15.83,4.16-21.56,10.66a50.33,50.33,0,0,0-8.41,14.23c-3.68,8.82-7.12,17.75-11.05,26.45-5.89,13-14.38,24.49-22.62,36.08-6.61,9.3-13.79,18.24-18.72,28.61a100.7,100.7,0,0,1-15.32,22.94c-4.75,5.46-9.52,10.92-14.11,16.52-5.54,6.75-6.69,14.44-4.5,22.8,2.31,8.81,6.7,16.59,11.73,24,5.21,7.7,11,15.06,15.92,22.92,6.2,9.82,11.88,20,17.71,30,4.22,7.29,10.07,12.63,18.24,15,10.83,3.1,21.74,5.89,32.61,8.85C246,402.33,259.6,405.52,273.81,404.94Z" />
            <path class="cameroon-cls-20" d="M274.54,402.72c-14.19.71-29.84-3.66-45.6-7.39-8.24-1.95-16.44-4-24.66-6.06-10-2.46-16.91-8.77-22-17.49-7.51-13-14.94-25.94-23.66-38.16-6-8.39-11.55-17.12-16.86-26-4.17-6.94-6.33-14.55-4.57-22.79,1.06-5,3.9-9,7.11-12.76,6.19-7.29,12.62-14.4,18.49-21.94a72.7,72.7,0,0,0,7.51-12.88c5.44-11.13,12.66-21.1,20.1-30.88a237.67,237.67,0,0,0,33.1-60.32,54.7,54.7,0,0,1,5.95-10.94c5-7.5,12.39-11.53,21.19-13.12,9.75-1.76,19.57-3.22,29.23-5.38,14.22-3.18,26.7.18,37.88,9.06a147.76,147.76,0,0,1,11.63,10.36c7.9,7.77,15.54,15.81,23.47,23.55a45.37,45.37,0,0,1,13,25.3c1.44,8.2,2,16.55,3.25,24.79,1.45,9.59,3.11,19.14,4.86,28.68a57.7,57.7,0,0,1-1.7,29c-3.94,11.92-8.13,23.77-12.21,35.64-3.77,10.94-6.2,22.16-5.8,33.75.27,8,1.46,16.06,2,24.11a106,106,0,0,1,.2,14.11c-.3,4.68-3.11,7.51-7.71,9q-23,7.47-45.89,15.37C294.37,402.3,285.65,402.84,274.54,402.72Zm.14-2.25h3.08c9.78,0,19.39-.78,28.51-4.8,3.25-1.43,6.65-2.52,10-3.64q15.67-5.21,31.38-10.31c4.25-1.38,6.31-4.48,6.76-8.66a55.65,55.65,0,0,0,.19-9.42c-.46-7.09-1.15-14.17-1.75-21.26-1.12-13,1.22-25.62,5.19-37.94,3.37-10.46,7.09-20.81,10.63-31.21,3.47-10.19,5-20.56,3-31.28-1.1-5.84-2.44-11.66-3.2-17.55C367,213.3,366,202.15,364.73,191c-1.13-10.3-4.26-19.74-11.55-27.46-3.85-4.08-7.48-8.38-11.48-12.3-7.86-7.7-15.6-15.59-24-22.71-10.61-9-22.9-12.58-36.92-9.44-9.73,2.18-19.65,3.47-29.39,5.64a49.48,49.48,0,0,0-12.95,4.89c-5.89,3.25-9.35,9-12.14,14.86-3.79,8-7.08,16.28-10.8,24.34-6.52,14.11-15.62,26.6-24.73,39.09-6.81,9.33-13.78,18.57-18.65,29.14a91.65,91.65,0,0,1-14.4,22.07c-4.37,5-8.76,10-13,15-6.16,7.38-7.92,15.72-4.28,24.72a89.24,89.24,0,0,0,7.37,14.82c5.28,8.22,11.38,15.92,16.68,24.14,7,10.86,13.64,22,20.26,33.05,5,8.31,11.89,13.71,21.33,16q14.93,3.64,29.77,7.61C248.6,397.94,261.44,400.48,274.68,400.48Z" />
            <path class="cameroon-cls-21" d="M282.43,397.93a205.85,205.85,0,0,1-51-7.51c-7.43-2.06-14.92-4-22.47-5.52-9.47-1.93-16.41-7.26-21.5-15.15-4.67-7.24-8.81-14.81-13.58-22-6.63-10-13.63-19.67-20.44-29.51-4.2-6.08-8.31-12.2-10.91-19.21-3.31-8.89-2.35-17,3.79-24.42,4.38-5.25,8.76-10.5,13.22-15.68a83,83,0,0,0,13.16-20c5.24-11.62,12.72-21.8,20.24-32,9.75-13.21,19.08-26.68,25.84-41.76,3.43-7.66,7-15.29,10.91-22.69a27.59,27.59,0,0,1,15.74-13.68c4.12-1.37,8.51-2,12.81-2.79,8.19-1.57,16.4-3,24.59-4.58,11.78-2.28,22.55.09,31.9,7.53a230.24,230.24,0,0,1,40.52,41.09c4.82,6.37,6.49,13.94,7.39,21.68,1.57,13.58,3,27.17,4.56,40.75.41,3.45,1.27,6.85,2,10.26A50.26,50.26,0,0,1,368.09,268c-3.55,11.89-7.47,23.69-11.46,35.45a108.1,108.1,0,0,0-4.8,47.14,151.87,151.87,0,0,1,.9,16.17c0,7.82-2.76,11.73-10.14,14.29-12.85,4.46-25.81,8.61-38.66,13.07C296.27,396.76,288.47,398.14,282.43,397.93ZM152.08,270.46c-1.25,1.26-2.56,2.47-3.72,3.8-7.35,8.42-8.4,16.78-3.14,26.65a89.39,89.39,0,0,0,6,9.56c12.68,17.93,25.39,35.82,36.3,54.92a33,33,0,0,0,15.86,14.36,88.94,88.94,0,0,0,11.49,3.66c19.17,5.25,38.28,10.78,58.31,11.93,11.25.64,22.24,0,32.88-4.19,6.94-2.7,14-5.08,21-7.54,4.45-1.56,9-2.8,13.39-4.55,5.92-2.37,9.85-6.77,10-13.3.18-7.23-.22-14.48-.71-21.7-.77-11.29-.22-22.46,3.07-33.3,3.21-10.58,7-21,10.39-31.51,2.9-9,5.24-18.17,4.37-27.76-.41-4.48-1.54-8.9-2-13.38-1.47-14.21-2.68-28.44-4.17-42.65-1.08-10.26-4.26-19.89-11-27.84-6.39-7.56-13.18-14.81-20.16-21.84A138.38,138.38,0,0,0,313.6,131c-9.47-6.85-20.15-9.42-31.89-6.82q-15.71,3.48-31.55,6.38c-7.43,1.35-13.4,4.83-17.42,11.14a112.61,112.61,0,0,0-8.41,15.22,227.9,227.9,0,0,1-27.12,46.45c-6.93,9.16-13.79,18.39-19.16,28.58-1.61,3-2.84,6.29-4.24,9.45L171,245.81q-8,10.45-15.92,20.91a5.57,5.57,0,0,0-.54,1.27Z" />
            <path class="cameroon-cls-22" d="M171,245.81l2.85-4.45a12.18,12.18,0,0,0,.74-1.22c5.68-12.38,13.47-23.43,21.59-34.27,8.81-11.77,17.12-23.87,23.58-37.15,3.55-7.31,7.09-14.64,11-21.73,4.6-8.25,11.48-13.85,21-15.76,10.05-2,20.08-4.17,30.19-5.83a46.35,46.35,0,0,1,12.65-.18c9.78,1.13,18.19,5.76,25.26,12.28,8.83,8.15,17.2,16.83,25.48,25.56,5.48,5.78,10.32,12.24,12.2,20.15a156.51,156.51,0,0,1,3,19c1.29,11.61,2.2,23.27,3.48,34.88.54,4.88,1.8,9.68,2.38,14.56.82,6.89-.35,13.69-2.26,20.27-2.91,10-6.14,20-9.4,29.87A114.6,114.6,0,0,0,349,347.83a152.65,152.65,0,0,1,.13,17.82c-.18,5.85-3.38,9.82-8.69,12.09-1.63.7-3.32,1.27-5,1.83-8.88,3-17.76,5.92-26.67,8.81-4.6,1.5-9.17,3.39-13.9,4.17-13.58,2.24-27.2,1.32-40.59-1.44-14.5-3-28.86-6.64-43.25-10.12-5.72-1.38-11.06-3.73-15.11-8.18a71.67,71.67,0,0,1-7.57-9.4c-10.37-16.26-20.8-32.47-32.15-48.08a133.33,133.33,0,0,1-9.29-15.2c-2.42-4.48-3.94-9.35-3-14.6.83-4.81,3.5-8.68,6.46-12.4.66-.83,1.19-1.78,1.77-2.67L154.5,268c5.05-6.42,10.13-12.82,15.14-19.28A13.66,13.66,0,0,0,171,245.81Zm110,145.58a64.57,64.57,0,0,0,23.77-3.65c6.68-2.42,13.4-4.75,20.08-7.18,4.49-1.64,9-3.31,13.42-5.09,5.67-2.28,8.53-6.71,8.88-12.68a124.79,124.79,0,0,0,.17-13.72c-.66-12.42-.56-24.8,2.8-36.85,2.81-10.05,6.06-20,9.4-29.88,4-11.92,5.64-24,3.76-36.52-1.23-8.17-2.12-16.4-3-24.62-1-9.85-1.5-19.77-2.9-29.56A43.74,43.74,0,0,0,346,167.27q-13.84-14.57-28.25-28.59a42.24,42.24,0,0,0-20.33-10.59,24.52,24.52,0,0,0-7.48-.88c-12.76,1.13-25.27,3.73-37.72,6.71-8.88,2.13-15.74,6.71-20.3,14.65-1.43,2.49-3,4.91-4.24,7.49-8.67,18-18.52,35.18-30.77,51-7.25,9.36-14.08,19-19,29.83a114.68,114.68,0,0,1-16.8,25.88c-3.47,4.13-6.92,8.29-10.22,12.56-6.07,7.87-6.53,16.27-1.34,24.65,5.51,8.89,11.4,17.54,17.18,26.26q12.47,18.81,25,37.57a35,35,0,0,0,21.16,14.83q13.29,3.4,26.57,6.85C253.37,389.14,267.48,391.53,280.94,391.39Z" />
            <path class="cameroon-cls-23" d="M286.11,384.75a155,155,0,0,1-36.42-4.33c-12.32-2.75-24.74-5.07-36.77-9.08-7.13-2.38-13.08-6.31-17.35-12.44-7.73-11.11-15.27-22.37-22.85-33.58Q164.4,313,156.18,300.6c-1.2-1.82-2.06-3.86-3.08-5.79-3.56-6.77-3.06-13.4,1.19-19.59,3.09-4.49,6.59-8.71,10-13a133.19,133.19,0,0,0,17.48-27.65A157.12,157.12,0,0,1,200.06,205c10.9-14.21,19.71-29.71,28-45.55,1.51-2.9,3.28-5.68,5-8.49,4.87-8.13,11.73-13.74,21.13-15.62q15.37-3.07,30.87-5.48c9.25-1.45,17.62,1.52,25.34,6.29A59.26,59.26,0,0,1,320.53,144c7.63,7.45,15,15.13,22.42,22.84s11.16,17,12.31,27.39c1.26,11.27,1.84,22.61,2.93,33.9.62,6.46,1.56,12.89,2.53,19.31,1.76,11.63.15,22.86-3.66,33.89-2.61,7.55-5,15.16-7.58,22.74a110.38,110.38,0,0,0-5.37,36.33,143.79,143.79,0,0,1-.75,16.38c-.73,6.92-4.14,11.88-11.13,14.28-7.95,2.73-15.73,6-23.57,9A67.14,67.14,0,0,1,286.11,384.75ZM284.67,383c3.34-.51,9-.62,14.06-2.29,10.71-3.51,21.12-7.88,31.7-11.8a15.51,15.51,0,0,0,10.4-12,64.86,64.86,0,0,0,1.34-11.58c.33-12.74,1-25.44,4.63-37.73,2.52-8.58,5.62-17,8.37-25.49,3.48-10.77,5.36-21.75,3.85-33.12-.73-5.49-1.56-11-2-16.48-1.06-11.91-1.76-23.85-2.93-35.75-.94-9.58-4.07-18.5-10.55-25.78-5.72-6.43-11.8-12.55-17.89-18.64a141.48,141.48,0,0,0-13-11.92c-8.61-6.68-18.51-9.75-29.43-8.08-9,1.38-17.86,3.38-26.82,4.91-10.28,1.76-17.78,7.3-23,16.21-1.41,2.42-2.9,4.8-4.23,7.26A348.56,348.56,0,0,1,200.74,206a164.13,164.13,0,0,0-16.91,27.56,162,162,0,0,1-19.64,30.9c-2.73,3.41-5.36,6.92-7.77,10.56-4.18,6.33-4.35,12.79-.52,19.5,12.18,21.37,26.35,41.42,40.71,61.33a37,37,0,0,0,21.5,14.47c10.32,2.64,20.66,5.23,31,7.89C260.06,381.06,271.23,382.44,284.67,383Z" />
            <path class="cameroon-cls-24" d="M281.12,380c-13,.39-25.34-2.66-37.74-5.53-7.78-1.8-15.56-3.62-23.31-5.56a39.54,39.54,0,0,1-23.73-16.17c-12.26-17.88-24.19-36-36.18-54.05-2.54-3.83-4.65-7.91-4.86-12.69-.28-6.19,2.52-11.24,6-16s7.31-9.39,10.77-14.22A145.37,145.37,0,0,0,185.78,232,129.19,129.19,0,0,1,200,208.82c11.17-14.92,20.8-30.8,29.93-47,1.87-3.33,4.1-6.46,6.28-9.6,4-5.77,9.54-9.42,16.1-11.77,9.23-3.31,18.88-4.4,28.5-5.73,14.88-2.06,27.11,3,37.59,13.29,8.35,8.19,16.86,16.2,24.28,25.3,6.07,7.44,9.1,16,10.05,25.36,1.43,13.94,2.54,27.91,3.76,41.87.5,5.72,1.2,11.44,1.31,17.17.23,11.32-2.88,22-6.8,32.51a158,158,0,0,0-10.18,49.37,105.52,105.52,0,0,1-2,16.24c-1,5.27-4.33,9-9.51,11-7.2,2.81-14.29,5.89-21.44,8.83A57.81,57.81,0,0,1,281.12,380Zm4.66-2c7,.31,15.72-1.53,24.09-5.27,6-2.68,12-5.43,17.93-8.15a14.8,14.8,0,0,0,8.61-9.65,71.89,71.89,0,0,0,2.4-12.85c.9-10.36,1.49-20.77,4.21-30.83,2.34-8.63,5.12-17.15,7.94-25.64,3.34-10.09,5.38-20.35,4.77-31-.33-5.8-.8-11.6-1.24-17.39-.83-11.11-1.55-22.23-2.57-33.33-1.15-12.6-5.24-24-14.55-33.07-8-7.84-15.68-16.06-23.84-23.75a37.07,37.07,0,0,0-28.78-10.17,137.89,137.89,0,0,0-28.88,4.78,36.33,36.33,0,0,0-20.65,14.93c-1.43,2.08-2.88,4.17-4.14,6.36a448.53,448.53,0,0,1-27.51,42.75c-6.24,8.49-12.11,17.2-16.58,26.8a164.29,164.29,0,0,1-14.9,25.67c-3.63,5.13-7.44,10.14-11,15.33-4.24,6.21-4.49,12.74-1,19.4.86,1.63,1.67,3.31,2.67,4.85q16.35,25.11,32.76,50.17a44.12,44.12,0,0,0,26.17,18.9c8.24,2.22,16.6,4,24.89,6C258.78,375.8,271,378,285.79,377.94Z" />
            <path class="cameroon-cls-25" d="M284,372.31c-15.45-.42-30.29-4.08-45.16-7.44a211.89,211.89,0,0,1-21.31-5.8c-6.74-2.28-12.14-6.76-16.46-12.46A417.14,417.14,0,0,1,164.85,290c-3.49-6.6-2.86-12.82.81-18.87,2.72-4.49,6.14-8.57,8.83-13.07,5-8.32,9.91-16.67,14.33-25.29A282,282,0,0,1,205.7,204.2c9.11-13.56,17.87-27.35,26.8-41,1.57-2.4,3.14-4.82,4.85-7.12a34.78,34.78,0,0,1,19.19-13.24,130.39,130.39,0,0,1,27-4.68,38.12,38.12,0,0,1,30,11.26c8.59,8.43,17,17.08,25.24,25.84,6.37,6.75,9.55,15.19,10.63,24.22,1.46,12.21,2.31,24.49,3.41,36.74.41,4.56.85,9.13,1.16,13.7a80.81,80.81,0,0,1-5.19,34.18,233.54,233.54,0,0,0-13.34,55.88,37.24,37.24,0,0,1-3,11.21,16.06,16.06,0,0,1-5.88,6.86c-8.82,5.23-17.92,10.12-28,12.38C293.83,371.46,288.87,371.7,284,372.31ZM351.91,247.5c.08-15-1.39-29.29-3.26-43.54-1.08-8.23-3-16.21-8.21-22.89A119.44,119.44,0,0,0,331.16,171c-7.27-7.42-14.32-15.11-22.05-22a33,33,0,0,0-26-8.35c-6.12.62-12.22,1.5-18.28,2.56-14.23,2.5-24.87,10-32.36,22.51-6.73,11.26-14.26,22-21.41,33-5.55,8.53-11.35,16.91-16.52,25.67-3.7,6.27-6.21,13.24-9.83,19.56-4.86,8.47-10.24,16.63-15.46,24.89-4.46,7.06-5.14,14.27-1.15,21.76.55,1,1,2.09,1.59,3.1a544.65,544.65,0,0,0,32,49.9A37.54,37.54,0,0,0,224,358.9q21.73,5.18,43.67,9.48a80.35,80.35,0,0,0,26.77.61c10.48-1.46,19.47-6.58,28.39-11.83A20.16,20.16,0,0,0,332.22,345a55.22,55.22,0,0,0,1.72-8.22c1.64-12.63,4-25.1,8-37.2,2.54-7.57,5.27-15.09,7.48-22.76C352.26,267,352.49,257,351.91,247.5Z" />
            <path class="cameroon-cls-26" d="M350.67,246.44c1.06,15.88-2.22,31-7.88,45.71-5.32,13.83-8.53,28.22-10.88,42.83-.85,5.32-2.45,10.39-6,14.62a13.9,13.9,0,0,1-2.61,2.6c-9.2,6.31-18.84,11.7-30.14,13.23a76.61,76.61,0,0,1-23.9-.88Q247.57,360.64,226,356c-10.51-2.29-18.65-8.54-24.57-17.33q-10.59-15.73-20.34-32c-4-6.67-7.26-13.77-10.82-20.7-3-5.89-2-11.57,1.16-17,4.07-7,8.43-13.9,12.37-21,3.67-6.62,7.23-13.34,10.31-20.25,4.3-9.64,10.39-18.1,16.24-26.76,8.27-12.23,16.33-24.6,24.63-36.81a76.55,76.55,0,0,1,7.07-8.51A30.12,30.12,0,0,1,258,146.43c6.93-1.55,13.87-3.17,20.88-4.23,13.29-2,24.56,2.38,33.84,11.9q12.53,12.86,24.76,26a36.76,36.76,0,0,1,9.42,21.24c1.77,15,3,30,4.47,45.07Zm-1.39-1c-.3-6.15-.36-12.31-1-18.43-.86-8.77-1.84-17.54-3.27-26.23a34.88,34.88,0,0,0-9.26-18.65c-3.44-3.61-7.07-7-10.54-10.64-5.93-6.16-11.59-12.58-17.74-18.51a29.61,29.61,0,0,0-22.18-8.59A142.2,142.2,0,0,0,268,146.22c-14.51,2.33-26.09,9.35-34,22-1.23,2-2.58,3.87-3.89,5.78-8.21,11.94-16.74,23.69-24.54,35.89-4.87,7.62-8.62,16-12.91,23.94q-8.88,16.51-17.84,33c-3.65,6.75-4.39,13.58-.67,20.57,5.33,10,10.55,20.1,16,30,4.24,7.73,8.66,15.37,14.57,22,6.38,7.2,13.85,12.55,23.46,14.5,4,.8,7.91,1.59,11.84,2.48,11.66,2.64,23.21,5.85,35.19,6.91,13.23,1.18,25.88,0,37.53-7.29,6.88-4.28,13.29-8.75,15.71-17a69.46,69.46,0,0,0,1.82-6.94,220.8,220.8,0,0,1,10.44-39.17C346.53,277.58,349.71,261.85,349.27,245.4Z" />
            <path class="cameroon-cls-27" d="M346.59,242.07c.29,13-.91,25.83-4.86,38.26-1.94,6.11-4.56,12-6.47,18.13-3.18,10.17-6.38,20.35-8.93,30.68-2.36,9.54-8,16.05-16.22,20.88a49.86,49.86,0,0,1-30.48,6.73c-11.31-1-22.19-4-33.29-5.93-5.59-1-11.2-1.88-16.72-3.16-11.22-2.61-19.52-9.42-26.09-18.64-6.42-9-11.37-18.84-16.09-28.8-2.31-4.88-4.48-9.83-6.82-14.7-3.82-8-3.08-15.75.67-23.49,5.71-11.8,11.7-23.48,17-35.47,5.59-12.7,13.54-23.86,21.36-35.13,5.73-8.25,11.72-16.32,17.66-24.42,8.44-11.49,20.21-17.24,34-19.4,7-1.1,14-1.75,21-.16a25.77,25.77,0,0,1,13,6.71c5.66,5.73,11,11.82,16.48,17.71,3.88,4.14,7.78,8.26,11.81,12.26a36,36,0,0,1,10.52,22C345.42,218,346.18,230,347.2,242Zm-2-1.83.54,0c-.75-10.08-1.4-20.18-2.29-30.25-.84-9.45-4.26-17.75-11.49-24.22-.76-.68-1.38-1.51-2.08-2.27-7.84-8.49-15.64-17-23.54-25.47-4.48-4.79-9.93-8.13-16.53-8.68a82.45,82.45,0,0,0-13.51.33c-15.78,1.31-28.86,7.86-38.64,20.52-4.93,6.39-9.84,12.79-14.59,19.32-7.2,9.89-14.61,19.7-19.9,30.78-6.35,13.3-12.33,26.78-18.4,40.22-3.7,8.2-4.17,16.45-.28,24.8,2.37,5.08,4.45,10.29,6.74,15.41,4.82,10.75,10,21.31,17.56,30.48a41.46,41.46,0,0,0,24.25,14.65c8.84,1.81,17.68,3.61,26.54,5.3,6.5,1.24,13,2.62,19.57,3.36,10.35,1.15,20.27-.32,29.37-5.95,7.93-4.9,13.62-11.19,16.22-20.48,3.14-11.24,6.64-22.42,10.83-33.3C341.8,277.15,345.3,259.1,344.61,240.23Z" />
            <path class="cameroon-cls-28" d="M343.45,232c-.53,17.75-1.31,32.14-4.63,46.25a114.8,114.8,0,0,1-3.6,11.32c-4.06,11.67-8.24,23.31-12.28,35-2.25,6.52-4.82,12.69-10.43,17.28a41.11,41.11,0,0,1-32.37,9.33c-9.27-1.18-18.41-3.36-27.61-5.08-5.51-1-11-2.16-16.54-3a38.73,38.73,0,0,1-24.87-14.57,85.25,85.25,0,0,1-12.32-20.29c-3.79-8.93-7.24-18-10.69-27.08-2.89-7.6-2.2-15.26.74-22.64,4.73-11.86,9.51-23.71,14.76-35.34,6.37-14.12,15.8-26.34,25.18-38.54,6.35-8.26,13-16.4,21.78-22.13,12.61-8.18,26.47-11.71,41.46-8.79,7.06,1.37,12.42,5.79,17.08,11.09q12.58,14.34,25.18,28.68c4.45,5.08,6.58,11.21,7.36,17.74C342.59,219.23,343.05,227.29,343.45,232Zm-2,.34c-.26-4.6-.48-10.82-1-17-.79-9.48-4.39-17.69-11.5-24.23a68.55,68.55,0,0,1-4.9-5.25c-6.59-7.5-13-15.15-19.78-22.48a25.3,25.3,0,0,0-18.1-8.08A56.72,56.72,0,0,0,246,169.18c-16.05,13.61-28.17,30.53-38.34,48.76-7.16,12.84-11.69,26.91-16.78,40.67a29,29,0,0,0,0,20.12c1.92,5.41,3.64,10.9,5.64,16.28,3.33,9,6.68,17.95,12,26,6.88,10.5,16,17.64,28.65,19.72,5.73.94,11.4,2.27,17.08,3.52,9.81,2.15,19.51,4.62,29.66,5,16.64.63,32.13-8.57,37.32-26,2.93-9.87,6.93-19.43,10.35-29.17,2-5.73,4.32-11.41,5.62-17.31C340.26,262.71,340.95,248.36,341.43,232.37Z" />
            <path class="cameroon-cls-29" d="M339.81,230.48c-.45,16.6-1.5,33-5.27,49.14-1.5,6.41-4.22,12.54-6.49,18.75-3,8.28-6.23,16.48-9.18,24.79-6.15,17.31-20.52,23.8-35.9,23.32-9-.28-17.68-2.66-26.43-4.51-6.09-1.28-12.14-2.8-18.29-3.73-13.45-2-22.76-9.61-29.46-21-4.79-8.14-7.87-17-10.87-25.86-1.62-4.79-3.07-9.64-4.49-14.49a33.45,33.45,0,0,1,0-19.25c4.82-16,10.2-31.92,19.18-46.18,9.21-14.62,19.67-28.3,33.27-39.26a64.34,64.34,0,0,1,31.46-14c12.23-1.79,22.4,2.13,30.41,11.48,5.6,6.55,11,13.24,16.58,19.84a66.3,66.3,0,0,0,5,5.68c6.06,5.74,8.6,13,9.4,21.06C339.26,221,339.48,225.81,339.81,230.48Zm-1.63,1.27-.49,0c0-1,.11-2,.14-3.07.26-8.08-.63-15.94-4.13-23.38-2.2-4.68-5.81-8.24-9.09-12.08-6.48-7.59-12.78-15.33-19.43-22.77-8.39-9.38-19.07-11.85-31-9s-22.45,9-31.84,16.8c-13,10.83-23.09,24.19-31.56,38.76-6.43,11.07-9.91,23.34-13.93,35.37a37.69,37.69,0,0,0-.34,23.6c2.76,8.88,5.25,17.85,8.42,26.58a81.47,81.47,0,0,0,7.58,15.63c5.13,8.14,12.07,14.29,21.86,16.46,12.21,2.7,24.4,5.53,36.64,8.08,5.74,1.19,11.52,2.28,17.49,1.58,13.32-1.57,22.84-8.12,27.86-20.75,3.81-9.59,7.53-19.21,11.35-28.8,2.92-7.32,5.6-14.75,6.5-22.59C335.74,258.69,336.88,245.21,338.18,231.75Z" />
            <path class="cameroon-cls-30" d="M336,232.18a262.11,262.11,0,0,1-4.67,43.53c-1.19,6.23-3.82,12.22-6.17,18.17-3.46,8.77-7,17.52-11,26.06-5.55,11.91-15.26,17.5-28.34,17.75-6.78.13-13.08-1.95-19.51-3.45-8.65-2-17.24-4.28-25.89-6.34-12.78-3-20.92-11.46-25.55-23.15a194.54,194.54,0,0,1-11.64-40.52,49.14,49.14,0,0,1,1.79-21.88c3.79-12.88,8.33-25.41,16.15-36.55a104,104,0,0,1,52-39.51c9-3.14,18.23-3.56,26.4,2.09a68.43,68.43,0,0,1,12.28,11.68c6,7,11.73,14.26,17.37,21.56,4.26,5.51,6.11,12,6.67,18.89C336.26,224.37,336,228.29,336,232.18Zm-1.18-4c-.21-9.06-1.83-17.69-7.08-25.17a204.92,204.92,0,0,0-24-28.5c-7-6.88-15.16-8.79-24.51-6.92-7,1.42-13.52,4.39-19.83,7.68-24.4,12.71-41.86,31.42-50,58.15-2.53,8.27-5.19,16.55-4.09,25.29a130,130,0,0,0,4,20.28,225.54,225.54,0,0,0,9.7,27.83A30.77,30.77,0,0,0,240.87,325c8.5,2,16.86,4.66,25.31,6.9a96.12,96.12,0,0,0,13.58,3c16.84,1.9,27.48-3.84,33.93-18.54,3.18-7.26,6.24-14.57,9.25-21.9,2-4.86,4.34-9.67,5.56-14.73A163.24,163.24,0,0,0,331.65,260C332.87,249.4,333.78,238.78,334.82,228.18Z" />
            <path class="cameroon-cls-31" d="M207.86,252.07c1-18.95,8-35.53,20.22-49.88,10.15-11.88,23.09-20,37.2-26.28a84.37,84.37,0,0,1,14.48-5c8.68-2.09,16.42,0,23.13,6.18a141.31,141.31,0,0,1,23.43,28.4c5.28,8.28,6.62,17.46,5.79,27-1.14,13-2.38,26-4,38.93a62.91,62.91,0,0,1-4,15c-3.87,9.78-8.22,19.37-12.55,29a36,36,0,0,1-4.54,7.29c-6.77,8.61-16.09,10.91-26.3,9.3-7.86-1.24-15.57-3.52-23.29-5.54-5.29-1.39-10.45-3.25-15.72-4.68-9.29-2.52-16.24-8-20.16-16.71a162.28,162.28,0,0,1-13.68-50A28.14,28.14,0,0,1,207.86,252.07Zm122.81-23.35c-.28-7.11-1.2-14-4.88-20.19a116.08,116.08,0,0,0-16.12-21.69c-3.37-3.48-6.73-7.09-10.62-9.91-7.1-5.16-15.15-5.06-23.17-2.43a130.22,130.22,0,0,0-27.63,13.34c-16,9.85-28,23-34.2,41-3.8,11-5.24,22.14-3,33.67,2.59,13.13,6.79,25.78,11.48,38.25A28.18,28.18,0,0,0,240.24,318c5.54,2,11,4,16.68,5.7,7.52,2.21,15,4.81,22.76,5.89,15.26,2.15,24.56-3.31,30.47-15.89,3.72-7.91,7.43-15.84,10.73-23.93a88.54,88.54,0,0,0,5-15.79c1.21-6,1.53-12.19,2.16-18.3C328.93,246.67,329.79,237.69,330.67,228.72Z" />
            <path class="cameroon-cls-32" d="M328.4,234.37c-1,10-2.15,22.57-3.52,35.14A74.62,74.62,0,0,1,318,292.6c-3.2,7-6.29,14-9.86,20.73-6.68,12.64-17.35,16.55-31,13.65a204.7,204.7,0,0,1-38.09-12.64,25.29,25.29,0,0,1-14.11-15c-4.63-12.51-9.29-25-11.56-38.23C208.86,234.55,218,213.35,239,197a129.39,129.39,0,0,1,35.49-19.41c10.76-3.93,20.52-2.4,29,5.34a97.87,97.87,0,0,1,21.18,27.49C328.07,217.07,328.82,224.34,328.4,234.37Zm-1.81-.33c.09-11.19-1.33-19-5.57-26.06a105.68,105.68,0,0,0-17.72-22.23c-7.75-7.37-16.62-9.53-26.83-6a137.89,137.89,0,0,0-37.84,19.75c-10.56,7.9-18.12,18-21.89,30.89-2.18,7.43-3.55,14.82-2.24,22.61a223.13,223.13,0,0,0,12.11,42.94c3.11,8.13,8.51,13.92,16.65,17.07,7.52,2.91,15,5.81,22.6,8.62a56.67,56.67,0,0,0,16.74,3.76c10.11.54,18.1-3.11,23.24-12,2.73-4.72,5.22-9.61,7.51-14.56,3.69-8,7.38-16.05,8.85-24.83.91-5.45,1.51-11,2.09-16.45C325.22,248.7,326,239.86,326.59,234Z" />
            <path class="cameroon-cls-33" d="M325.45,233.17c-1.07,10.67-2.23,21.33-3.19,32-1.46,16.14-8.15,30.42-15.89,44.24-7,12.58-15.85,16.5-29.9,13.07-7.66-1.87-15-5-22.44-7.72-3.21-1.16-6.29-2.67-9.47-3.94-8.44-3.37-13.64-9.73-16.94-18a208.08,208.08,0,0,1-11.23-39.81,41.87,41.87,0,0,1-.48-11.84q2.82-26.63,25.27-41.53a162.76,162.76,0,0,1,34.21-17.56c9.81-3.6,18.64-2.05,26.68,4.58a74.57,74.57,0,0,1,19.18,24.82C324.62,218.32,325.18,225.68,325.45,233.17Zm-2-1.1c-.5-3.66-.72-8-1.73-12.16-3-12.36-10.36-22-19.72-30.28-8.18-7.2-17.51-8.5-27.56-4.58a174.16,174.16,0,0,0-29.93,14.78c-8.51,5.37-16,11.72-20.82,20.76-4.07,7.67-6.78,15.71-5.85,24.55,1.67,16,6.05,31.23,12.11,46.07,3,7.28,7.6,12.84,14.63,16.48,9.67,5,19.54,9.65,30.1,12.37,15.23,3.92,23.74-.56,30-11.68A177.71,177.71,0,0,0,314,289.43a80.66,80.66,0,0,0,5.06-16c1.34-7.09,1.78-14.35,2.53-21.55C322.26,245.53,322.82,239.13,323.49,232.07Z" />
            <path class="cameroon-cls-34" d="M320.86,232.54c-.92,10.82-1.75,21.66-2.79,32.47-1.08,11.27-5.19,21.64-10.34,31.57a82.43,82.43,0,0,1-8.37,13.3c-5.53,7-13.19,8.62-21.49,6.47-11.88-3.07-22.77-8.5-33.07-15.09A27.5,27.5,0,0,1,234.87,290a135.07,135.07,0,0,1-13.45-45.19c-1.86-17.41,5.82-30.78,20-40.43,9.86-6.7,20.64-11.77,31.65-16.34,10.72-4.45,20.37-3,29.25,4.45C314.16,202.45,321.33,218,320.86,232.54Zm-2,4.62c.49-15.13-3.51-28.55-14.27-39.59-8.11-8.32-17.38-11.89-29-7.83-14.19,5-27.63,11.43-39.16,21.05-10,8.38-14.81,19.62-13.19,32.84,1.79,14.64,6.54,28.48,12.56,41.89,2.12,4.73,4.92,9.11,9.18,12.16,10.06,7.18,20.65,13.39,32.74,16.59,7.75,2.06,14.46.28,20.07-5.51,3.88-4,6.21-9,8.69-13.83,4.67-9.19,8.56-18.66,9.68-29C317.27,256.35,318,246.75,318.9,237.16Z" />
            <path class="cameroon-cls-35" d="M316.09,237.56c-1,9.42-1.88,20-3.15,30.46-1.08,8.9-5.14,16.82-9.11,24.68a61.73,61.73,0,0,1-6.24,10.07c-5.29,6.8-12.48,8.9-20.69,6.21a76.2,76.2,0,0,1-28-16.6c-5.2-4.78-8.55-10.78-11.28-17.18-4.39-10.28-8-20.8-9.86-31.85-2.16-12.89,2-23.52,11.79-32.07,6.91-6,15.06-9.9,23.24-13.68,5.13-2.37,10.34-4.85,15.79-6.2,8.12-2,15.58.45,22,5.75,8.41,7,12.93,16.12,14.44,26.8C315.59,228.06,315.69,232.24,316.09,237.56Zm-2.81,6.3h.15q0-4.82,0-9.63c0-10-1.89-19.44-7.24-28-7.84-12.56-19.57-16.19-33-11.48a103.39,103.39,0,0,0-29.51,15.9c-11.92,9.3-18.54,21.14-13.25,38.36a265.49,265.49,0,0,0,11,28.49,39.64,39.64,0,0,0,11.44,15.18c5.95,4.87,12,9.54,18.87,13,10.17,5.08,19.6,3.15,26.36-5.95,7.83-10.55,11.93-22.7,13.67-35.6C312.65,257.39,312.8,250.6,313.28,243.85Z" />
            <path class="cameroon-cls-36" d="M313.21,238.25c-.9,9.92-1.36,19.91-2.81,29.75a66.76,66.76,0,0,1-12.65,30.14c-6.41,8.68-16.27,11.08-25.8,6a76.09,76.09,0,0,1-12.15-8.3c-5.24-4.25-10.79-8.38-14.06-14.48-6.51-12.12-12.69-24.43-15.25-38.1-2.09-11.13,1.69-20.43,9.71-28.19,6.5-6.29,14.37-10.4,22.44-14.16,5.25-2.44,10.38-5.3,16.25-6.12,13.11-1.83,22.49,3.56,28,14.19C311,217.09,313,226.46,313.21,238.25Zm-1.73,5-.57-.06c0-3.42.11-6.84,0-10.26-.34-8.51-1.89-16.72-6.69-24-6.09-9.22-16.4-15.29-29.25-11.1a100.2,100.2,0,0,0-29,14.53c-10.9,8.1-15.19,18.61-12.17,32a123.86,123.86,0,0,0,13.52,34.43A58.2,58.2,0,0,0,271.8,302c11.15,5.7,19.15,3.51,26-6.89a71.9,71.9,0,0,0,10.57-26.29C310,260.4,310.5,251.76,311.48,243.23Z" />
            <path class="cameroon-cls-37" d="M309.09,243.43c-.74,7.66-1.12,15.38-2.32,23a68.15,68.15,0,0,1-10,25.4,26.87,26.87,0,0,1-3,3.87c-5.49,6-11.88,7.09-19.3,3.44a53.38,53.38,0,0,1-20.78-18.45,117.27,117.27,0,0,1-16.08-36.19c-3.38-12.83-.32-23.57,10.74-31.68a81.61,81.61,0,0,1,28-13.74c9.73-2.51,18.8.75,24.9,8.76,4.87,6.4,6.82,13.8,7.25,21.64.26,4.63,0,9.28,0,13.93Zm-2.28-.79c0-3,.14-6,0-9-.4-7.21-1.46-14.28-5-20.74C296.26,203,287,198.66,276,201.28c-9.72,2.32-18.33,7-26.21,13.12-9.68,7.52-12.75,17.21-9.79,29A118.6,118.6,0,0,0,255.78,279c4.78,7.37,10.7,13.68,18.57,17.88,8.07,4.31,13.91,3.32,19.35-4.08A66.76,66.76,0,0,0,301,279.61C306,267.83,307,255.3,306.8,242.64Z" />
            <path class="cameroon-cls-38" d="M306.06,243.28c-.22,4.21,0,10.71-1,17-1.68,10.46-4.05,20.88-11.14,29.32-5.37,6.4-10.58,7.25-17.71,3a40.14,40.14,0,0,1-6.93-5.38c-4.81-4.6-8-10.39-11-16.21-4.91-9.33-9.68-18.71-11.9-29.14-1.75-8.2-1.37-16.07,4.68-22.53,7.78-8.3,17.29-13.88,28.55-15.85,10.44-1.82,19.6,4.14,23.25,14.56C305,224.23,306.11,232.16,306.06,243.28Zm-1.84,1c0-9-.36-17.9-3.9-26.36-3.86-9.24-11.36-13.6-21.27-12.15-11.13,1.64-19.81,7.64-26.76,16.11-1.93,2.36-3,5.68-3.72,8.73-1.25,5.26.12,10.46,1.55,15.54,3.17,11.28,8.53,21.59,14.46,31.6,3.45,5.82,7.78,10.92,13.86,14.22,4.87,2.64,9.13,1.9,13-2.14,4.4-4.63,6.93-10.27,8.82-16.25A92.77,92.77,0,0,0,304.22,244.29Z" />
            <path class="cameroon-cls-39" d="M302.27,244.34a81.61,81.61,0,0,1-4.14,28.83,31.08,31.08,0,0,1-6.33,11.15c-3.88,4.2-8.63,5-13.19,1.52a33.16,33.16,0,0,1-7.78-8A122.19,122.19,0,0,1,255.5,244c-4.2-15,.9-24.51,14.81-32.31a24,24,0,0,1,15.84-3c5.75.94,9.47,4.59,12,9.61,3.18,6.33,3.75,13.22,4.11,20.13C302.35,240.37,302.27,242.36,302.27,244.34Zm-1.66-1.63c0-1.3.06-2.6,0-3.9-.39-7.14-1.18-14.21-5-20.51-2.85-4.72-7-7.44-12.6-7.56-9.21-.2-15.94,4.45-21.62,11.15-5.32,6.27-5.5,13.4-3.67,20.92a117.43,117.43,0,0,0,13.45,32,34.48,34.48,0,0,0,7.54,8.78c4.69,3.89,9.8,2.92,13.2-2.17a48.85,48.85,0,0,0,4.5-8.71C300.32,263.11,300.73,252.94,300.6,242.71Z" />
            <path class="cameroon-cls-40" d="M298.23,242.67c-.2,6.94-.89,14.36-3.29,21.48a25.49,25.49,0,0,1-3.43,6.71c-3.64,5-8.72,5.17-12.36.13a75.6,75.6,0,0,1-7-12,79.06,79.06,0,0,1-6.63-21.49c-1.54-9.8,2.87-18.45,11.5-22.3,7.32-3.27,14.93-.22,17.87,7.25C297.35,228.76,298.14,235.4,298.23,242.67Zm-1.73-1.11c-.15-2.32-.19-3.89-.36-5.45-.5-4.57-1.29-9.08-3.45-13.2-3-5.68-8.41-7.7-14.38-5.43a17.37,17.37,0,0,0-10.73,16.05c.22,11.71,4.58,22.09,10.26,32a23.38,23.38,0,0,0,2.95,4.17c2.92,3.19,6.42,3.12,9.07-.3a24.48,24.48,0,0,0,3.2-5.68C296.08,256.4,296.25,248.6,296.5,241.56Z" />
            <path class="cameroon-cls-41" d="M295.15,240.36c-.9,5.3-1.68,10.63-2.76,15.89a14.39,14.39,0,0,1-2.3,4.78c-2.52,3.81-6.32,4.11-8.82.32a70.68,70.68,0,0,1-6.58-12.46,38.43,38.43,0,0,1-2.71-19.1,12.53,12.53,0,0,1,6.34-9.8c4.61-2.68,9.4-1.79,12.08,2.83a39.56,39.56,0,0,1,3.63,9.91c.63,2.41.5,5,.71,7.53Zm-2.29,1c0-.89.05-1.78,0-2.66-.31-4.66-.82-9.26-3.57-13.27-3.14-4.59-8.12-5-12-1a12.44,12.44,0,0,0-3.26,8.82,42.33,42.33,0,0,0,7.06,24c2.69,4.17,6.3,4,8.69-.37.3-.54.54-1.1.78-1.67A33,33,0,0,0,292.86,241.36Z" />
            <path class="cameroon-cls-42" d="M275.57,235.63a16.35,16.35,0,0,1,2.45-9.14c2-3.56,8.54-3.87,10.75.4a28.71,28.71,0,0,1,3.09,16.05,75.5,75.5,0,0,1-1.84,9.61,8.53,8.53,0,0,1-1.25,2.77c-1.62,2.44-4.09,2.7-6.24.67a9,9,0,0,1-1.5-1.93A38.26,38.26,0,0,1,275.57,235.63ZM290.63,241c-.45-4.14-1.08-8-3.29-11.49-2.05-3.22-5.89-3.21-7.83.06a10.69,10.69,0,0,0-1.42,3.81,23.9,23.9,0,0,0,4.4,18c.67.93,2.14,2,3,1.87a4.36,4.36,0,0,0,2.7-2.61C289.25,247.54,289.85,244.26,290.63,241Z" />
        </g>
    </g>
</svg>