<svg xmlns="http://www.w3.org/2000/svg" xmlns:xlink="http://www.w3.org/1999/xlink" viewBox="0 0 480.13 551.19">
    <defs>
        <style>.france-cls-1{fill:url(#Dégradé_sans_nom_22);}.france-cls-2{fill:url(#Dégradé_sans_nom_22-2);}.france-cls-3{fill:url(#Dégradé_sans_nom_22-3);}.france-cls-4{fill:url(#Dégradé_sans_nom_22-4);}.france-cls-5{fill:url(#Dégradé_sans_nom_22-5);}.france-cls-6{fill:url(#Dégradé_sans_nom_22-6);}.france-cls-7{fill:url(#Dégradé_sans_nom_22-7);}.france-cls-8{fill:url(#Dégradé_sans_nom_22-8);}.france-cls-9{fill:url(#Dégradé_sans_nom_22-9);}.france-cls-10{fill:url(#Dégradé_sans_nom_22-10);}.france-cls-11{fill:url(#Dégradé_sans_nom_22-11);}.france-cls-12{fill:url(#Dégradé_sans_nom_22-12);}.france-cls-13{fill:url(#Dégradé_sans_nom_22-13);}.france-cls-14{fill:url(#Dégradé_sans_nom_22-14);}.france-cls-15{fill:url(#Dégradé_sans_nom_22-15);}.france-cls-16{fill:url(#Dégradé_sans_nom_22-16);}.france-cls-17{fill:url(#Dégradé_sans_nom_22-17);}.france-cls-18{fill:url(#Dégradé_sans_nom_22-18);}.france-cls-19{fill:url(#Dégradé_sans_nom_22-19);}.france-cls-20{fill:url(#Dégradé_sans_nom_22-20);}.france-cls-21{fill:url(#Dégradé_sans_nom_22-21);}.france-cls-22{fill:url(#Dégradé_sans_nom_22-22);}.france-cls-23{fill:url(#Dégradé_sans_nom_22-23);}.france-cls-24{fill:url(#Dégradé_sans_nom_22-24);}.france-cls-25{fill:url(#Dégradé_sans_nom_22-25);}.france-cls-26{fill:url(#Dégradé_sans_nom_22-26);}.france-cls-27{fill:url(#Dégradé_sans_nom_22-27);}.france-cls-28{fill:url(#Dégradé_sans_nom_22-28);}.france-cls-29{fill:url(#Dégradé_sans_nom_22-29);}.france-cls-30{fill:url(#Dégradé_sans_nom_22-30);}.france-cls-31{fill:url(#Dégradé_sans_nom_22-31);}.france-cls-32{fill:url(#Dégradé_sans_nom_22-32);}.france-cls-33{fill:url(#Dégradé_sans_nom_22-33);}.france-cls-34{fill:url(#Dégradé_sans_nom_22-34);}.france-cls-35{fill:url(#Dégradé_sans_nom_22-35);}.france-cls-36{fill:url(#Dégradé_sans_nom_22-36);}.france-cls-37{fill:url(#Dégradé_sans_nom_22-37);}.france-cls-38{fill:url(#Dégradé_sans_nom_22-38);}.france-cls-39{fill:url(#Dégradé_sans_nom_22-39);}.france-cls-40{fill:url(#Dégradé_sans_nom_22-40);}.france-cls-41{fill:url(#Dégradé_sans_nom_22-41);}</style>
        <linearGradient id="Dégradé_sans_nom_22" x1="240.06" y1="-67.51" x2="240.06" y2="557.53" gradientUnits="userSpaceOnUse">
            <stop offset="0" stop-color="#0048cc" />
            <stop offset="1" stop-color="#0075f5" />
        </linearGradient>
        <linearGradient id="Dégradé_sans_nom_22-2" x1="246.66" y1="-67.51" x2="246.66" y2="557.53" xlink:href="#Dégradé_sans_nom_22" />
        <linearGradient id="Dégradé_sans_nom_22-3" x1="245.43" y1="-67.51" x2="245.43" y2="557.53" xlink:href="#Dégradé_sans_nom_22" />
        <linearGradient id="Dégradé_sans_nom_22-4" x1="244.81" y1="-67.51" x2="244.81" y2="557.53" xlink:href="#Dégradé_sans_nom_22" />
        <linearGradient id="Dégradé_sans_nom_22-5" x1="243.73" y1="-67.51" x2="243.73" y2="557.53" xlink:href="#Dégradé_sans_nom_22" />
        <linearGradient id="Dégradé_sans_nom_22-6" x1="243.64" y1="-67.51" x2="243.64" y2="557.53" xlink:href="#Dégradé_sans_nom_22" />
        <linearGradient id="Dégradé_sans_nom_22-7" x1="246.27" y1="-67.51" x2="246.27" y2="557.53" xlink:href="#Dégradé_sans_nom_22" />
        <linearGradient id="Dégradé_sans_nom_22-8" x1="247.37" y1="-67.51" x2="247.37" y2="557.53" xlink:href="#Dégradé_sans_nom_22" />
        <linearGradient id="Dégradé_sans_nom_22-9" x1="247.38" y1="-67.51" x2="247.38" y2="557.53" xlink:href="#Dégradé_sans_nom_22" />
        <linearGradient id="Dégradé_sans_nom_22-10" x1="249.1" y1="-67.51" x2="249.1" y2="557.53" xlink:href="#Dégradé_sans_nom_22" />
        <linearGradient id="Dégradé_sans_nom_22-11" x1="250.71" y1="-67.51" x2="250.71" y2="557.53" xlink:href="#Dégradé_sans_nom_22" />
        <linearGradient id="Dégradé_sans_nom_22-12" x1="252.81" y1="-67.51" x2="252.81" y2="557.53" xlink:href="#Dégradé_sans_nom_22" />
        <linearGradient id="Dégradé_sans_nom_22-13" x1="255.65" y1="-67.51" x2="255.65" y2="557.53" xlink:href="#Dégradé_sans_nom_22" />
        <linearGradient id="Dégradé_sans_nom_22-14" x1="257.2" y1="-67.51" x2="257.2" y2="557.53" xlink:href="#Dégradé_sans_nom_22" />
        <linearGradient id="Dégradé_sans_nom_22-15" x1="257.23" y1="-67.51" x2="257.23" y2="557.53" xlink:href="#Dégradé_sans_nom_22" />
        <linearGradient id="Dégradé_sans_nom_22-16" x1="257.33" y1="-67.51" x2="257.33" y2="557.53" xlink:href="#Dégradé_sans_nom_22" />
        <linearGradient id="Dégradé_sans_nom_22-17" x1="257.19" y1="-67.51" x2="257.19" y2="557.53" xlink:href="#Dégradé_sans_nom_22" />
        <linearGradient id="Dégradé_sans_nom_22-18" x1="257.93" y1="-67.51" x2="257.93" y2="557.53" xlink:href="#Dégradé_sans_nom_22" />
        <linearGradient id="Dégradé_sans_nom_22-19" x1="256.84" y1="-67.51" x2="256.84" y2="557.53" xlink:href="#Dégradé_sans_nom_22" />
        <linearGradient id="Dégradé_sans_nom_22-20" x1="256.02" y1="-67.51" x2="256.02" y2="557.53" xlink:href="#Dégradé_sans_nom_22" />
        <linearGradient id="Dégradé_sans_nom_22-21" x1="255.63" y1="-67.51" x2="255.63" y2="557.53" xlink:href="#Dégradé_sans_nom_22" />
        <linearGradient id="Dégradé_sans_nom_22-22" x1="257.13" y1="-67.51" x2="257.13" y2="557.53" xlink:href="#Dégradé_sans_nom_22" />
        <linearGradient id="Dégradé_sans_nom_22-23" x1="256.97" y1="-67.51" x2="256.97" y2="557.53" xlink:href="#Dégradé_sans_nom_22" />
        <linearGradient id="Dégradé_sans_nom_22-24" x1="258.61" y1="-67.51" x2="258.61" y2="557.53" xlink:href="#Dégradé_sans_nom_22" />
        <linearGradient id="Dégradé_sans_nom_22-25" x1="259.48" y1="-67.62" x2="259.48" y2="557.43" xlink:href="#Dégradé_sans_nom_22" />
        <linearGradient id="Dégradé_sans_nom_22-26" x1="260.97" y1="-67.51" x2="260.97" y2="557.53" xlink:href="#Dégradé_sans_nom_22" />
        <linearGradient id="Dégradé_sans_nom_22-27" x1="260.71" y1="-67.51" x2="260.71" y2="557.53" xlink:href="#Dégradé_sans_nom_22" />
        <linearGradient id="Dégradé_sans_nom_22-28" x1="260.55" y1="-67.51" x2="260.55" y2="557.53" xlink:href="#Dégradé_sans_nom_22" />
        <linearGradient id="Dégradé_sans_nom_22-29" x1="261.46" y1="-67.51" x2="261.46" y2="557.53" xlink:href="#Dégradé_sans_nom_22" />
        <linearGradient id="Dégradé_sans_nom_22-30" x1="261.17" y1="-67.51" x2="261.17" y2="557.53" xlink:href="#Dégradé_sans_nom_22" />
        <linearGradient id="Dégradé_sans_nom_22-31" x1="260.75" y1="-67.51" x2="260.75" y2="557.53" xlink:href="#Dégradé_sans_nom_22" />
        <linearGradient id="Dégradé_sans_nom_22-32" x1="260.59" y1="-67.51" x2="260.59" y2="557.53" xlink:href="#Dégradé_sans_nom_22" />
        <linearGradient id="Dégradé_sans_nom_22-33" x1="261.05" y1="-67.51" x2="261.05" y2="557.53" xlink:href="#Dégradé_sans_nom_22" />
        <linearGradient id="Dégradé_sans_nom_22-34" x1="261.7" y1="-67.51" x2="261.7" y2="557.53" xlink:href="#Dégradé_sans_nom_22" />
        <linearGradient id="Dégradé_sans_nom_22-35" x1="261.68" y1="-67.51" x2="261.68" y2="557.53" xlink:href="#Dégradé_sans_nom_22" />
        <linearGradient id="Dégradé_sans_nom_22-36" x1="262.25" y1="-67.51" x2="262.25" y2="557.53" xlink:href="#Dégradé_sans_nom_22" />
        <linearGradient id="Dégradé_sans_nom_22-37" x1="262.85" y1="-67.51" x2="262.85" y2="557.53" xlink:href="#Dégradé_sans_nom_22" />
        <linearGradient id="Dégradé_sans_nom_22-38" x1="264.14" y1="-67.51" x2="264.14" y2="557.53" xlink:href="#Dégradé_sans_nom_22" />
        <linearGradient id="Dégradé_sans_nom_22-39" x1="267.28" y1="-67.51" x2="267.28" y2="557.53" xlink:href="#Dégradé_sans_nom_22" />
        <linearGradient id="Dégradé_sans_nom_22-40" x1="269.63" y1="-67.51" x2="269.63" y2="557.53" xlink:href="#Dégradé_sans_nom_22" />
        <linearGradient id="Dégradé_sans_nom_22-41" x1="270.26" y1="-67.51" x2="270.26" y2="557.53" xlink:href="#Dégradé_sans_nom_22" />
    </defs>
    <title>Fichier 10</title>
    <g id="Calque_2" data-name="Calque 2">
        <g id="Calque_1-2" data-name="Calque 1">
            <path class="france-cls-1" d="M467.53,163.57l3.6-.75c-.46,1.52-.81,2.63-1.13,3.75-.61,2.14-.29,2.67,1.89,2.87s2.13,1.61,1.76,3c-.89,3.22-2,6.39-3,9.57-1.14,3.44-3.12,6-7,6.77a4.59,4.59,0,0,0-3.26,2.82c-1.54,3-3.28,5.95-5.17,9.34l3.69-.19a93.59,93.59,0,0,1-5.25,7.91c-1.91,2.35-1.36,5.12-2,7.67-.18.74,0,1.59-.23,2.3-1.44,4.05-3,8.08-4.46,12.11-.47,1.27-.76,2.63-2.46,3-.39.08-.8.88-.89,1.41-.33,1.95-.61,3.92-.76,5.89-.12,1.59-.41,3-2.06,3.69a1.68,1.68,0,0,0-.8.63c-2.14,3.94-4.75,7.8-3.58,12.61.72,2.95,1.86,5.79,2.77,8.69a4.82,4.82,0,0,1,.06,1.41c0,3.53,0,7.05,0,10.58a25,25,0,0,0,.27,3.47,3.59,3.59,0,0,1-1.54,3.71c-2,1.57-1.77,4-1.87,6.25,0,.39.74,1.12,1.18,1.16,1.76.14,2,1.27,1.78,2.59-.45,2.61-.93,5.22-1.62,7.77-.56,2.06-1,3.93,1.54,5.23-.93,1.81-1.74,3.53-2.68,5.18a2.82,2.82,0,0,0,.19,3.4c1.3,1.82,2.42,3.75,3.67,5.6.24.36.78.52,1.06.87a5.2,5.2,0,0,1,1.1,1.76c.5,1.93.82,3.91,1.27,5.85.2.86.53,1.69.8,2.54.36,1.13.28,2-1.16,2.25s-1.79,1.29-1.76,2.59a2.14,2.14,0,0,0,1.86,2.29c2.43.6,3.44,2.2,2.86,4.68-.39,1.67-.56,3,1.2,4,.32.19.09,1.35.1,2.06s-.31,1.82,0,2.46c.94,1.73,2.16,3.31,3.26,5,.06.09,0,.26,0,.77h-6.16l-.34.78c.59.46,1.13,1.2,1.78,1.32a2.21,2.21,0,0,1,2,2.59c0,.48.09,1,0,1.43-.23,1.91.71,2.91,2.52,2.92,2.32,0,3.32,1.41,4,3.45l-1.12.47,1.21,4.11-.47.22c.5.2,1,.43,1.51.59,1.06.34,1.59.93,1.31,2.14a6.81,6.81,0,0,0,0,1.84c.14,3.09.5,3.53,3.49,4.41.88.26,1.76.56,3.23,1l-4.11,2.91c2.05,2.19,4,4.42,6.14,6.45.73.69,1.34,1,.72,2.11a2.61,2.61,0,0,0,0,1.56c.39,2.2.82,4.4,1.25,6.66l-2.34.67,5.17,7-6.33.82c.6.77.91,1.55,1.27,1.58,2.16.17,2,1.67,2,3.13a4.89,4.89,0,0,1,0,.82c-.39,2,.33,3.14,2.5,3.14,1.71,0,1.48,1.58,1.84,2.55.14.37-.58,1.06-.66,1.19.16,1.61.28,3,.43,4.29,0,.37.09,1,.3,1,2,.82,1.72,2.56,1.75,4.18a16,16,0,0,1,0,2.05c-.27,2.41.38,4,3,4.73,2.34.66,3.15,3.88,1.79,6-1,1.5-1.08,2.94.28,4.21,2,1.84,1.8,3.42-.29,4.46-.23,2.8-.39,5.45-.72,8.07a2.56,2.56,0,0,1-1.18,1.63,7,7,0,0,0-3.35,3.62,23.07,23.07,0,0,1-3.65,5.63c-.9,1.09-1.32,1.84.45,3.1-1.88,1.31-3.53,2.37-5.09,3.56-2.39,1.82-4.72,3.74-7.09,5.6a6.4,6.4,0,0,1-1.72,1.07c-3.21,1.13-6.45,2.18-9.67,3.29-1.18.41-2.53.6-2.64,2.35,0,.36-1,.93-1.48.95-3.4.09-6.82-.18-10.19.12s-6.85,1.17-10.28,1.74a11.47,11.47,0,0,1-3.13.18c-4.19-.49-8.36-1-12.54-1.64-1.47-.21-2.91-.65-4.38-.86-1.31-.19-2.64-.24-4-.33-2.52-.16-5-.3-7.55-.44-.27,0-.54,0-1.07,0,.65,2.09-.59,2.21-2.16,2.32-3.34.23-6.67.57-10,1-2.5.33-3,1.57-1.46,3.63.5.69,1.06,1.35,1.6,2l-.23.59c-2.52-.34-5.07-.52-7.53-1.09-1.74-.4-2.72,0-3.47,1.54-.86,1.79-2.29,3.43-2.64,5.3a6.2,6.2,0,0,1-4.1,5.06c-1.56.71-2.53,2.78-3.66,4.32s-2.25,1.85-3.81.39c-1.25-1.18-3.82-.54-4.59,1a2,2,0,0,0,.1,1.32c.89,2.84-.09,4.75-3,5.41-2.52.57-5.15.69-7.09,2.83-.24.26-1.5-.4-2.48-.68-.27.81,1.43,2.81-.77,3.12-1.27.18-2.66-.53-3.69-.77-2.54,1.72-5,3.48-7.6,5.06a2.21,2.21,0,0,1-2-.42c-1-1-1.68-2.35-2.71-3.33a3.69,3.69,0,0,0-2.32-.66c-.19,0-.32,1.17-.65,1.7s-.79,1.27-1.31,1.37a53,53,0,0,1-5.49.66c-2.93.26-3,.35-2.3,3.22.07.26.11.52.16.76-2.45,1.88-3.23,1.9-5.83.54a3.78,3.78,0,0,0-2,0c-1.36.17-2.7.47-4.06.58-1.14.1-2,.26-2,1.72,0,.4-1,1.1-1.47,1.09-2.11-.05-4.22-.28-6.33-.53-3.79-.45-5,.52-5.26,4.25,0,.27-.09.53-.24,1.36a34.41,34.41,0,0,1-4.56-2.8c-1.93-1.64-3.73-1.93-5.93-.58a18.43,18.43,0,0,1-3.65,1.31c-.26.09-.63.07-.77.24-2,2.52-3.58.66-5.47-.19a19.9,19.9,0,0,0-5-1c-2.54-.4-4.19-1.62-4.67-4.34a6.26,6.26,0,0,0-4.44-5c-.18.11-.27.14-.29.19-1.46,3.73-1.45,3.72-4.74,1.13-1.17-.93-2.37-1.83-3.71-2.87-1.09,1.76-2.31,2.57-4.37,1.4-1.59-.9-2.86-1.77-3.09-3.72a3.37,3.37,0,0,0-3.09-2.85c-.7-.12-1.58.84-2.38,1.31s-1.63,1.4-2.27,1.26c-1.66-.36-3-1.35-2.57-3.68-.91.07-1.63.09-2.35.19a3.69,3.69,0,0,1-3.56-1.4,4.71,4.71,0,0,0-3.59-1.16,96.75,96.75,0,0,0-10.06,2c-1.76.42-3,.25-3.9-1.51-1.11-2.16-2.89-3-5.42-2.69-6.23.76-12.5,1.29-18.74,2-2.65.29-3,.9-3.59,3.58a4,4,0,0,1-2.11,2.44,73.2,73.2,0,0,1-8,2.67,2.19,2.19,0,0,1-1.86-.41c-1.05-1.14-1.89-.79-3-.11a21.4,21.4,0,0,1-12,2.81,4.63,4.63,0,0,0-3.72,1.47,7.9,7.9,0,0,1-5.19,1.89c-4.84-.1-9.66-.76-14.49-1.07a10.65,10.65,0,0,0-3.95.5,3,3,0,0,0-1.48,1.85c-.54,1.89-1.06,2.28-2.67,1.28a19,19,0,0,1-4.22-3.18,7.22,7.22,0,0,0-6.37-2.58c-2,.17-4.08.53-6.12.56-1.6,0-3.23-1.17-4.78.35-.19.18-1.1-.28-1.62-.56-2-1.07-4-2.17-6.06-3.27-.78-.42-1.54-.88-2.32-1.31-1.81-1-2.51-2.16-1.44-4.31s-.18-4.22-1.36-6.41L72.33,526c-1.58,1.53-2.65,1.37-3.17-.78a20.8,20.8,0,0,1-.41-5.46c.08-2.8.31-5.44-2.92-7-1.41-.66-.34-2,.08-3.07s1.45-2.34-.36-3.39l-4.32,3.1L60.5,509a25.64,25.64,0,0,1,1.23-2.82c.57-1,1.32-1.88,2-2.77a8.66,8.66,0,0,1-2.22-1.14c-2.2-2.21-2.19-3-.1-5.3s4.19-4.51,6.23-6.82A12.41,12.41,0,0,0,68.83,488l-.41-.35-2.36,1.6-.47-.26,3.78-8.49-.28-.25-4.69,3.59c-.25-3.33,2.07-4.93,3.89-6.81-.53-1.58-.53-1.58,3-7l-2.19.62L77,457.81l-.49-.55-4.34,2.9-.29-.22c.32-.45.61-.92,1-1.34,2.62-3.16,5.2-6.35,7.88-9.45,1.95-2.25.67-5,1.37-7.48a4.72,4.72,0,0,0-.81-.39c0-.13,0-.3,0-.39,2.75-3.77,4-8.18,5.49-12.5a23,23,0,0,1,3.31-6,19.51,19.51,0,0,0,3.8-9.17l-2.67,1.4,1.42-9.36-.68.26c-.44-.67-1.28-1.35-1.26-2a50.27,50.27,0,0,1,.73-6c.09-.6.42-1.16.54-1.76.6-3.06,0-3.61-3-2.76-.25-2-.54-4,.85-5.84A2.78,2.78,0,0,0,90,385c-.84-3-1.81-6-2.69-9a5.16,5.16,0,0,1-.26-2c.17-1.37.35-2.55-1.43-3.07-.41-.12-.65-1.11-.82-1.74-1-3.61-1.72-7.29-2.89-10.83a7.66,7.66,0,0,1,.69-6.94c.92-1.58.42-4,.41-6.09,0-.2-1-.6-1.52-.55-1.93.18-2.67-.9-2.68-2.54a44.27,44.27,0,0,1,.28-7.14c.39-2.54.82-5-.36-7.43a1.92,1.92,0,0,1,1-2.73,22,22,0,0,0,2.3-1.74c-3.19-1.77-3.19-1.77-2.26-4.73-2-.06-2.65-1.43-3.05-3.15a6.13,6.13,0,0,0-2.87-4c-1.38-.89-2.23-2.69-3.11-4.2-.66-1.14-1.24-1.8-2.69-1.33s-2.07-.38-2.35-1.89c-.34-1.82-1.26-3.53-1.67-5.34-.95-4.17-5.31-4.76-7.64-7.47-.34-.4-1.18-.32-1.7-.62a10,10,0,0,1-2.23-1.59c-1.4-1.44-2.59-3.08-4-4.46-1.62-1.54-3.42-2.89-5.16-4.33a10.29,10.29,0,0,0,1.67-2.7,2.94,2.94,0,0,0-3.68-3.24c-3.6.78-5.71-1.1-7.13-3.81-1.12-2.14-2.27-4-4.54-5-.32-.14-.5-.59-.8-1L33.4,261c-1.79-3.55-4.4-4.61-7.95-3.67a5.79,5.79,0,0,1-2.08-.26,9.78,9.78,0,0,1,.53-1.88c1.26-2.49,1.3-2.52-1.24-3.5s-4.85-1.78-7.26-2.68c-.24-.09-.65-.3-.64-.42.27-2.84-2.87-3.85-3.27-6l3.25-5a6.55,6.55,0,0,0-.95-.23c-3.49-.08-3.55-.08-3.47-3.55,0-1.37-.12-2.26-1.76-2.27-.29,0-.88-.74-.8-.91,1-2.18-.44-4-.83-5.94-.31-1.54-.39-2.76,1.48-3.42s2.15-2.46,2.3-4.38c-.57-.1-1.08-.21-1.59-.26-1.31-.12-2-.57-1.67-2.1a2.45,2.45,0,0,0-1.8-3,5.14,5.14,0,0,1-3.42-4.68c-.3-2.76-.63-5.52-1-8.71l4.43,1c1.2-3.84.33-6.67-2.7-9-.82-.62-1-3.68-.32-4.93.24-.44.61-1.07.46-1.42-.73-1.71-1.65-3.33-2.44-5A5,5,0,0,1,0,176.64,36.05,36.05,0,0,1,.72,172c.51-2.61.7-2.7,3-2,1.18-3.86,2.39-7.71,3.54-11.58A3.39,3.39,0,0,1,11,155.66c1.43.05,2.72-.12,2.63-2.17,0-.58.74-1.2,1.19-1.86l-1-1.1c.11-.26.14-.49.27-.61a19.92,19.92,0,0,1,10.63-4.81c.27,0,.61,0,.8-.13a8.54,8.54,0,0,1,8.14-1.41l-1-1.4c.44-.27.8-.64,1.2-.71,3.84-.6,7.68-1.18,11.53-1.7a9.12,9.12,0,0,0,4.61-1.58c1.58-1.16,4-1.24,6-1.73s3.89-.77,5.81-1.27a7.38,7.38,0,0,0,1.79-1.07c-.5-.5-1-1-1.5-1.49a3.49,3.49,0,0,1-1.2-1.12,55,55,0,0,1,6.92-.75c4.33.06,7.71-2,10.92-4.48.36-.28.3-1.11.48-1.91,4-.16,7.25-2.73,10.81-4.58a7.84,7.84,0,0,1,5-.88c2.74.69,4.55-.7,6.86-1.78-2.21-1.93-.92-3,.72-4,1.41-.81,2.88-1.51,4.46-2.33a3.42,3.42,0,0,1,1.44-4.57,5,5,0,0,1,2.72-.79c2.14.09,3.83-1.54,3.17-3.3-.35-.94-1.5-1.79-.23-2.9,1-.91,1.74-1,3.62-.11,1.1-1.9,2.15-3.86,3.33-5.73.68-1.07,1.58-2,2.36-3,.24-.3.69-.75.6-.95-.88-2,.73-2.86,1.61-4.19a50.63,50.63,0,0,0,2.88-5.85c.6-1.23,1.22-2.26,2.95-1.33a2.25,2.25,0,0,0,2.09-.55c.56-.69,1.18-2,.87-2.6-1.5-2.68,0-4.46,1.58-6.17,1.78-1.87,3.7-3.61,5.79-5.62l1.56.88c.35-3.41.35-3.41,1.1-3.74.56-1.76,1-3.09,1.4-4.43s.84-3,1.29-4.48.94-3.28,1.58-4.85c.41-1,.53-1.79-.36-2.54-1.18-1-.63-1.76.24-2.7,2.81-3,5-6.31,5.22-10.64.09-1.85.48-3.69.75-5.53a2,2,0,0,1,.25-.77c1.83-2.93,3.66-5.86,5.53-8.77.87-1.35,1.68-2.39,3.51-.87,1.37,1.14,2.77-.22,3.79-1.11a2.85,2.85,0,0,0,.59-2.44c-.48-1.71-.16-2.82,1.55-3.39,1.29-.43,2.58-.86,3.88-1.23,2-.56,4.12-.92,6.09-1.64,1.57-.57,2.7-.51,3.79.85,1.92,2.41,4.22,3.67,7.51,2.82,2.32-.6,2.86-1,2.56-3.41-.07-.6,0-1.21,0-2.45a19.66,19.66,0,0,1,4,1.71c2.6,1.92,4.89,1.91,7.32-.29.88-.8,2.19-1.1,3.23-1.74.61-.37,1-1,1.61-1.46s1.24-1,1.57-.82c3.34,1.6,6.62,0,9.91-.14,1.74-.07,2.85.28,3.61,1.91a5.39,5.39,0,0,0,5.65,3.13c.16-.16.31-.24.33-.35.58-3.3.59-3.34,3.91-2.53a33.69,33.69,0,0,1,3.43,1.31c2.41.88,4.82,1.73,7.23,2.59.45.16,1.09.15,1.32.46,1.63,2.14,3.86,1.59,6,1.48.75,0,1.51,0,2.25-.11,1.87-.24,3.11.1,4,2.14.52,1.17,2.29,2,3.66,2.5a1.7,1.7,0,0,0,2.5-1.53c.16-1.27,1.06-1.49,2.13-1,2.11.9,3.32.19,4.48-1.78a5.87,5.87,0,0,1,3.65-2.56,62.08,62.08,0,0,1,8.57-.28c1.39,0,1.79.76,1.48,2-.26,1.05-.54,2.1-.86,3.34,1.93.39,3.71.86,5.52,1.05a2.18,2.18,0,0,0,1.63-1.07c1.33-2.52,3-2.69,4.83-.35.16.21.28.46.63,1l4.57-1.81c.18-.07.46-.2.57-.12,1.35.92,2.68,1.87,4,2.8,1.53,1.07,1.95,2.32.87,4-.85,1.33.51,1.68,1.25,2,1.36.64,2.28,1.26,1.92,3.07-.12.61.65,1.58,1.24,2.13,1.85,1.74,3.15,3.56,2.27,6.3-.16.49.21,1.59.56,1.7a16.81,16.81,0,0,0,3.33.42c1.65,1.76,3.43,3.81,5.36,5.69a5.08,5.08,0,0,1,1.8,4.72c-.38,2.52.58,4.64,2.34,6.66l2.11-2.88c1.23,2.11,2.32,3.86,3.3,5.67a37,37,0,0,0,1.75,3.69c.48.69,1.55.95,2.27,1.51a7,7,0,0,1,1.74,1.79c.77,1.29.74,3.25,3,3.22.19,0,.44.32.58.55,1.79,3,4.35,3.19,7.49,2.52a4.53,4.53,0,0,1,3.76,1.45c1.72,2.31,4.22,3.11,6.54,4.34A3.85,3.85,0,0,1,361.27,72,4.83,4.83,0,0,0,366.52,74c.51-.13,1.42-.07,1.63.24C370,77,373.26,77.75,376,79.28c1.58.89,2.64,1.7,2.6,3.87,0,2.4,2.28,3.32,3.89,4.57,2.84-2,2.91-2.09,5.61,0a63.67,63.67,0,0,1,5.13,4.7,4.22,4.22,0,0,0,4,1.44,2.2,2.2,0,0,1,1.86.74c2.71,4.2,6.53,5.6,11.38,5.08a46.79,46.79,0,0,1,6.45.15,4.13,4.13,0,0,1,1,.09c3.84,1.13,7.67,2.3,11.52,3.41,1.2.35,1.76.83,1.67,2.3-.13,2,4.07,4.06,5.72,2.89a3,3,0,0,1,3.79-.22c1.72,1.2,3.41,2.44,5.12,3.67,1.33,1,2.61,2,4,2.85,1.24.77,2.35,1.33,1.38,3.15-.24.44.48,1.62,1,2.21,1.53,1.65,3.2,3.17,4.82,4.73,1.12,1.08,2.32,1.37,3.63.27.45-.37,1-.66,2-1.33a26,26,0,0,1,.48,4.52c-.22,2.77.43,4.93,3,6.35,1.74.94,2.27,3.53,4.74,3.59.18,0,.43.65.5,1,.62,3.28,1.14,6.58,1.84,9.83a5.41,5.41,0,0,1-1.7,5.7C469.08,157.06,468.42,160.16,467.53,163.57ZM421.94,486c3.69-.21,6.91-.29,10.11-.61,6.88-.67,13.72-1.55,20.15-4.38,10.87-4.78,16.28-13.42,15.29-24.82-.51-5.89-2.78-11.25-5.34-16.49-4.81-9.82-8.8-19.87-9.68-30.94-.51-6.39-2.92-12.14-6.1-17.69-4.14-7.23-8.53-14.42-11.65-22.1-3-7.48-4.78-15.52-6.83-23.38-5.29-20.23-9.24-40.69-8.78-61.72A295,295,0,0,1,421,253.2c1.67-13.16,6.33-25.58,11.93-37.56,4.13-8.85,8.86-17.42,13.33-26.11s8.23-17.53,8.63-27.37c.48-12-3.57-22.34-12.85-30.22-6.4-5.44-14.12-8.54-22-11.29-12.65-4.43-25.24-9-37-15.42q-13.77-7.52-27.65-14.83c-5-2.6-10.05-5-15.12-7.35-9.1-4.29-15.68-11.33-21.19-19.47-4.21-6.23-8.09-12.68-12.27-18.93-6.63-9.94-15.69-15.63-27.88-16.34a123,123,0,0,1-29.23-5.1,61.38,61.38,0,0,0-23.16-2.15c-4.57.36-9.13.83-13.7,1.11-8.06.5-16.13.8-24.18,1.38s-14.84,4-19.42,11a109.19,109.19,0,0,0-6.15,9.93c-4.93,9.61-9.32,19.5-14.49,29-9.74,17.85-21.53,34.42-33,51.2-3.94,5.79-9.4,10.06-15.55,13.43-9.45,5.17-19.7,8-30,10.65-8.92,2.29-17.9,4.47-26.6,7.44-9.51,3.25-16,10-18.38,19.93a63.34,63.34,0,0,0-1.6,13.78c-.13,11.82,2.25,23.34,4.49,34.91,2.1,10.88,7.52,19.48,15.75,26.64,7.74,6.73,15.45,13.51,23,20.46,8.83,8.14,16.46,17.28,20.33,28.87,2,5.94,3.22,12.14,4.74,18.23,2.34,9.42,5.15,18.76,6.83,28.3,2.79,15.89,5.28,31.82,9.09,47.52,2.12,8.73,3.22,17.69,1.92,26.68-2.12,14.63-6.6,28.63-12.12,42.3-2.15,5.32-4.72,10.48-6.92,15.78-2.87,7-5.61,14-6.43,21.55-.87,8.11,1.28,15,8.44,19.54a43.62,43.62,0,0,0,8.87,4.19c12,4.22,24,3.18,35.86-.6,10.75-3.42,21.41-7.15,32.26-10.24,19.41-5.53,38.61-4.85,57.53,2.63,8.31,3.29,16.77,6.26,25.36,8.74,7.62,2.2,15.58,3.64,23.52,2.84,13.46-1.36,26.87-3.21,40.26-5.11a28.25,28.25,0,0,0,18.87-11.31c1.67-2.17,3.44-4.25,5.15-6.39a51.48,51.48,0,0,1,28.69-18.3,111.28,111.28,0,0,1,32.39-2.69C408.37,484.84,415.38,485.5,421.94,486Z" />
            <path class="france-cls-2" d="M416.2,480.05c-13.44-1.24-26.79-.08-40.1,1.73-16.68,2.26-30.38,9.85-40.78,23.23-3.67,4.72-7.58,9.38-13.51,11.26a75.05,75.05,0,0,1-13.37,3c-9,1.12-18.09,1.93-27.15,2.63-9.88.76-19.57-.85-29-3.63-9.68-2.87-19.28-6.11-28.69-9.77-19.68-7.67-39.4-7.57-59.27-1.15-9.11,2.94-18.13,6.13-27.25,9-7.34,2.34-14.83,3.87-22.62,2.68a31.09,31.09,0,0,1-13.93-5.67c-5.29-3.9-7-9.36-6.47-15.73.55-6.53,2.95-12.49,5.61-18.35,4.21-9.28,8.89-18.36,12.7-27.79a91.47,91.47,0,0,0,6.67-28.46c.56-8.67-1.32-17-3.39-25.32C111.73,382,108.57,366,105.9,350c-1.53-9.22-4.1-18.26-6.11-27.41-1.25-5.67-2.26-11.39-3.53-17.06A55.8,55.8,0,0,0,84.33,282c-7.74-9.38-16.88-17.32-25.83-25.46-4-3.63-7.82-7.46-11.57-11.34a40,40,0,0,1-9.33-15.52c-3.44-10.45-7.12-20.84-7.84-32A56,56,0,0,1,31,181.79c2.41-10.83,8.9-18.1,19.25-21.62,7.75-2.64,15.76-4.48,23.59-6.88,7.5-2.3,15-4.65,22.37-7.37A51.06,51.06,0,0,0,122.76,124c8-13.13,16.49-26,24.31-39.22,5-8.4,9.06-17.3,13.65-25.92,3-5.55,5.92-11.1,9.22-16.45,5.53-9,13.67-13.3,24.26-13.56,13.67-.35,27.33-1.36,41-1.53A64.24,64.24,0,0,1,251.4,29.5a184.06,184.06,0,0,0,27.5,4.56c10.36,1,18.71,5.34,24.88,13.67,3.74,5,7.14,10.34,10.8,15.45,3.46,4.83,7,9.63,10.64,14.3a36.57,36.57,0,0,0,16.21,11.45A266.11,266.11,0,0,1,379,106.73c10.83,6.21,22.58,10.38,34.32,14.48a125.54,125.54,0,0,1,21,9.21c12.71,7.25,20.7,26.17,16.62,41.63-2.22,8.42-5.93,16.16-9.93,23.79-7.3,13.94-14.05,28.1-18.84,43.14a97.33,97.33,0,0,0-4.65,27.17c-.32,12.78-.56,25.59.05,38.34.4,8.41,2.13,16.79,3.66,25.11,1.7,9.28,3.85,18.47,5.78,27.7a81.43,81.43,0,0,0,12.19,28.94,54,54,0,0,1,9.19,25.56c.93,9.85,4.85,18.88,9.15,27.72,2.63,5.41,5.25,10.85,6,16.94,1,8.42-2.42,15-9.89,19a37.54,37.54,0,0,1-16.7,4.49C430,480.23,423.11,480.05,416.2,480.05Zm.61-3c2.8.13,5.6.29,8.4.37,8.11.23,16.16-.11,23.87-3,9.5-3.54,13.59-11.16,10.7-20.89-1.55-5.22-4-10.17-6-15.24-3.3-8.24-7.12-16.31-8.31-25.26-.52-3.93-1.06-7.87-2-11.73-1.52-6.5-5-12.1-8.59-17.62A80.15,80.15,0,0,1,423.32,353c-1-6.27-2-12.56-3.24-18.78-2.12-10.32-4.34-20.61-4.37-31.2,0-10.94-.13-21.88.18-32.81a116.78,116.78,0,0,1,3.47-27c3.55-13.26,8.94-25.8,15-38,4-8.07,8.27-16,11.91-24.29A38,38,0,0,0,449,156.67c-2.92-12.73-9.63-22.55-21.84-28-5.24-2.34-10.52-4.6-15.9-6.57-11.74-4.3-23.54-8.49-34.45-14.69a260.69,260.69,0,0,0-34.41-15.85,55,55,0,0,1-11.06-5.69c-7.25-5-12-12.21-16.84-19.4-3.41-5.12-6.67-10.34-10.29-15.31-3.91-5.37-8.58-10.1-15-12.26a90.17,90.17,0,0,0-13.35-3.05c-6.86-1.18-13.89-1.61-20.64-3.21-8.87-2.1-17.73-3.38-26.82-2.79-11.44.74-22.85,1.77-34.36,1.45a24.12,24.12,0,0,0-20.76,10.18,136.73,136.73,0,0,0-10,15.73c-4.78,8.76-8.7,18-13.75,26.58-8.28,14.08-17.25,27.75-25.78,41.68-6.08,9.92-14.6,16.88-25.09,21.62-9.19,4.15-18.9,6.73-28.56,9.48-7.41,2.11-14.83,4.34-22,7.18s-11.75,8.67-14.2,16.08A50.1,50.1,0,0,0,32,202.7c1.28,9.31,4.76,17.94,8.18,26.59,2.2,5.57,5,10.85,9.16,15.2,4.56,4.72,9.15,9.43,14,13.88,7.74,7.14,15.64,14.1,22.52,22.12,5.06,5.89,9.25,12.28,11.24,19.8,1.73,6.52,2.89,13.19,4.26,19.81,3.76,18.07,7.36,36.17,11.31,54.19,2.37,10.81,5.4,21.48,7.9,32.26a68.24,68.24,0,0,1-2.86,40.56c-3.84,10-8.8,19.56-13.3,29.3-2.53,5.47-5,10.93-6,17-1.64,10.33,2.7,17.44,12.62,20.73,7.32,2.43,14.67,1.74,21.83-.32,10.83-3.12,21.54-6.69,32.29-10.1a85,85,0,0,1,55.39.7c8.44,3,16.72,6.42,25.26,9.08,11.72,3.65,23.68,6.37,36.1,5.58,7.85-.5,15.67-1.42,23.51-1.92,12-.77,21.93-5.19,29.59-14.87,9.53-12.05,22.24-19.31,37.32-22C387,477.54,401.81,475.69,416.81,477.08Z" />
            <path class="france-cls-3" d="M417,474.88c-11.47-1.26-22.8-.17-34.12,1.67-7.36,1.2-14.68,2.33-21.7,5a68.84,68.84,0,0,0-28.71,20.54c-6.67,8.05-15.32,11.6-25.39,12.45-8,.68-15.95,1.36-23.93,1.91-9.4.64-18.47-1.35-27.6-3.29-13.18-2.81-25.49-8.21-38.22-12.36a83.07,83.07,0,0,0-50.28-.66c-9.45,2.77-18.79,5.89-28.21,8.74-7,2.13-14.16,3.9-21.59,2.76-6.49-1-11.91-3.9-14.68-10.17-2-4.47-1.19-9.16.13-13.69,2.47-8.52,6.58-16.34,10.61-24.19,3.71-7.25,7.5-14.46,9.72-22.35a67.44,67.44,0,0,0,.17-36.09c-1.47-5.55-3-11.09-4.72-16.56-3.42-10.93-5.29-22.2-7.47-33.41-1.63-8.38-3.87-16.63-5.65-25-1.84-8.62-3.36-17.3-5.2-25.92a50.22,50.22,0,0,0-13.25-25.06c-8.56-8.74-17.14-17.49-26.21-25.69C46.86,241,39.2,225.11,34.63,207.49a44.16,44.16,0,0,1,1-25.87c3-8.66,8.59-14.77,17.17-17.8,7.66-2.71,15.57-4.7,23.25-7.36,9.35-3.24,18.72-6.49,27.8-10.4,8.41-3.62,14.89-9.8,19.73-17.66,6.35-10.3,12.69-20.61,19.27-30.76,7.49-11.56,13.24-24.05,19.69-36.17,2.79-5.24,6-10.28,9.12-15.32,5.66-9.08,14.09-12.72,24.59-12.9,12-.21,23.91-1.17,35.88-1.31a117.84,117.84,0,0,1,17.52,1.61c8.93,1.25,17.77,3.38,26.74,4.1,11.52.93,20.28,6.13,27,15.13,4,5.42,7.56,11.22,11.38,16.8C319.79,77,325,84.36,333,88.91a94.63,94.63,0,0,0,12.86,5.77,194.88,194.88,0,0,1,25.73,11.71c13.39,7.52,27.71,12.92,42.08,18.2,4.29,1.58,8.46,3.5,12.6,5.45,12.07,5.67,18.49,15.62,21,28.34,1.89,9.45-.21,18.39-4.22,26.9-4.28,9.09-9,18-13.24,27.08-5.18,11-10.27,22.13-12.54,34.16a155.29,155.29,0,0,0-2.61,22.77c-.46,12.09-.32,24.2-.21,36.3.1,10.71,2.32,21.17,4.26,31.66,1.12,6,1.83,12.17,2.85,18.24a76.59,76.59,0,0,0,11.62,29.36c3.29,5.06,6.29,10.32,7.71,16.24,1,4.25,1.67,8.59,2.37,12.91,1.69,10.43,5.58,20.14,9.71,29.77,1.16,2.7,2.33,5.41,3.3,8.18,3.75,10.78-.3,18.24-11.36,21.15a67.76,67.76,0,0,1-18.73,1.79C423.18,474.83,420.11,474.88,417,474.88ZM216.89,35.14v.37c-6.36,0-12.73.17-19.08,0-10.73-.34-19.27,3.61-25.1,12.67-4.07,6.31-8.1,12.69-11.53,19.36-6.48,12.59-12.93,25.16-20.77,37-5.21,7.86-10.34,15.79-15,24-5.3,9.21-12.61,16-22.37,19.95-10.13,4.08-20.45,7.68-30.73,11.4-6.74,2.44-13.65,4.43-20.28,7.14-7,2.87-11.5,8.4-14,15.51-3.64,10.24-3.14,20.58.3,30.61a105.62,105.62,0,0,0,28.3,43.61c6.81,6.33,13.63,12.65,20.24,19.18A56,56,0,0,1,102,303.29c1.43,6,2.29,12.21,3.63,18.28,2.78,12.61,6,25.14,8.5,37.8A292.29,292.29,0,0,0,122.36,392c2,6.17,3.71,12.45,5.22,18.75a56.62,56.62,0,0,1-3.81,38.45c-4.19,8.83-8.68,17.52-12.79,26.39-2.8,6-5,12.31-4.78,19.14.22,5.65,3.14,9.81,8.48,11.61a26.4,26.4,0,0,0,7.22,1.3c7.5.31,14.62-1.75,21.7-3.9,8-2.44,16-5.44,24.14-7.3a96,96,0,0,1,52.61,2.46c11.66,3.89,23.36,7.71,35.13,11.25,7.13,2.15,14.47,3.94,22,3.72,10-.3,20.08-.86,30.07-1.83,9.48-.92,17.7-4.68,24.11-12.14A69,69,0,0,1,365.89,478a230.06,230.06,0,0,1,27.91-5.57c6-.88,12.11-.7,18.18-.76,7.1-.07,14.22.44,21.31.07a48.58,48.58,0,0,0,12.78-2.59A11.12,11.12,0,0,0,453.56,457a29,29,0,0,0-2.23-8.48c-5.28-11.8-9.55-23.86-11.21-36.76C439.29,405.3,438,398.9,435,393c-2.2-4.33-4.65-8.53-7.09-12.72A67.07,67.07,0,0,1,420,358.88c-1.17-6.17-1.62-12.48-2.82-18.65A203.82,203.82,0,0,1,413,305.46c-.21-10.46-.27-20.94,0-31.39.23-7.7.91-15.42,1.82-23.07,1.5-12.52,6.63-23.91,11.91-35.18,4.43-9.47,9.22-18.77,13.83-28.15,4.89-10,6.7-20.18,3.71-31.21-3.16-11.67-9.47-20.49-20.53-25.64-4-1.87-8-3.82-12.18-5.38a403,403,0,0,1-45-19.82,152.65,152.65,0,0,0-22.09-9.24c-9.72-3.26-18-8.37-24.09-16.57-5.1-6.85-10.05-13.82-14.7-21-7.57-11.65-17.75-18.54-31.91-19.49-7.49-.5-14.91-1.94-22.36-3-4.2-.58-8.38-1.64-12.58-1.72C231.52,34.49,224.2,34.94,216.89,35.14Z" />
            <path class="france-cls-4" d="M417.92,467.19c-12.08-.72-23.88,1-35.53,4-7.27,1.88-14.63,3.48-21.77,5.76-11.66,3.72-21.31,10.78-29.68,19.56-6.9,7.22-15.39,10.73-25.14,11.47-8,.61-16.1,1.24-24.15,1.42s-16-1.93-23.78-4c-14.1-3.71-27.79-8.63-41.52-13.45a85.84,85.84,0,0,0-58.12-.17c-8.07,2.79-16.24,5.51-24.83,6.14a32.41,32.41,0,0,1-10.3-.94c-4.44-1.15-6.63-4.58-6.83-9.17-.22-4.94,1.46-9.45,3.38-13.83q5.69-13,11.72-25.77c6.22-13.24,7-26.86,3-40.81-1.73-6-3.5-11.95-5.67-17.77a216.57,216.57,0,0,1-8.25-28.55c-2.39-10.73-5.32-21.35-7.83-32.05-1.62-6.91-2.81-13.92-4.36-20.84-3.21-14.37-9.38-27.16-20-37.66-6.81-6.72-13.89-13.3-19.8-20.78-7.65-9.69-14.46-20.07-21.2-30.43-3.46-5.31-4.91-11.58-5.45-17.92-1-11.68,3.8-20.71,13.05-27.55,6.6-4.88,14.39-7.15,21.93-10,10-3.8,20.08-7.58,29.88-11.92,10.43-4.62,18.57-11.94,23.5-22.5a88.92,88.92,0,0,1,4.36-7.9c3.37-5.63,6.93-11.15,10.19-16.84,5.88-10.25,11.44-20.69,17.43-30.88,4.32-7.35,8.86-14.62,13.78-21.58C181.21,44.75,188.68,41,198,40.84c13.27-.2,26.53-.7,39.8-.9,8.85-.13,17.59,1.21,26.3,2.69,5.52.94,11.09,1.66,16.62,2.55a30.08,30.08,0,0,1,18.73,10.93c4.53,5.47,8.62,11.3,12.82,17,4.41,6,8.65,12.16,14.36,17.08a45.51,45.51,0,0,0,17.54,9.48,147.56,147.56,0,0,1,28.24,11c12.77,6.63,26.33,11.38,39.52,17a108.8,108.8,0,0,1,15.36,8.15c8.36,5.27,11.92,13.75,14.34,22.9,2.75,10.4.91,20.2-3.5,29.72q-8.61,18.61-17.27,37.19c-5.72,12.34-8.31,25.41-8.76,38.92-.38,11.75-.93,23.52-.78,35.27.18,13.6.94,27.18,3.52,40.61,1.12,5.82,1.12,11.84,2.1,17.7a56.11,56.11,0,0,0,8.31,22.15,69.55,69.55,0,0,1,11.57,35c.68,11.1,4,21.45,8.41,31.55a38.21,38.21,0,0,1,2.3,6.78c1.42,6.32-.88,10.12-7,12.09-5.57,1.79-11.3,1.91-17.06,1.73C421.61,467.39,419.77,467.28,417.92,467.19ZM222.74,42.51c-7.52.23-15,.51-22.57.66-9.35.19-17.27,3.4-23,11a152.14,152.14,0,0,0-10,14.25c-6.29,10.65-12.08,21.59-18.27,32.3-6.8,11.77-13.77,23.46-20.79,35.1a40.2,40.2,0,0,1-5.45,7.15c-6.35,6.57-14.32,10.73-22.61,14.19-8.51,3.55-17.19,6.71-25.83,10-6.94,2.62-13.71,5.56-19.44,10.39-7.48,6.3-11.88,14.11-10.91,24.19a41.69,41.69,0,0,0,5.67,17.65c3.31,5.49,7,10.8,10.8,16,7.75,10.42,15.29,21,25.17,29.67,12.4,10.83,19.6,24.76,23.58,40.47s7.68,31.44,11.5,47.17c3.69,15.16,7.9,30.13,14,44.56,6.75,16,7.62,32.24.74,48.49-3.44,8.12-7.19,16.12-10.53,24.28a56.15,56.15,0,0,0-3.48,11.53c-1.1,6.29,2.23,10.89,8.58,11.62a39,39,0,0,0,12-.51c8.64-1.74,17.15-4.1,25.74-6.11,14-3.28,28-3.31,41.76,1,10.71,3.31,21.23,7.23,32,10.4,10.17,3,20.09,7,30.76,8.19a47.59,47.59,0,0,0,5.26.76q10.76-.08,21.51-.45c12.67-.45,23.86-4.32,33.25-13.34a78,78,0,0,1,24.44-16.28c14.31-5.87,29.46-8.3,44.52-10.84,6.8-1.15,13.91-.41,20.88-.59,5.34-.14,10.69-.39,15.75-2.35,4.36-1.69,6.28-4.88,5.68-9.52a29.93,29.93,0,0,0-1.32-5.79c-4.25-12.47-7.49-25.16-8.55-38.33a58.73,58.73,0,0,0-9.49-27,69.06,69.06,0,0,1-9.43-24.56c-2.88-15.29-3.68-30.83-4.35-46.32-.55-12.62-.11-25.29.26-37.93.25-8.53.91-17.06,1.83-25.55,1.09-10.06,5.32-19.17,9.56-28.21,4.7-10,9.57-20,14.15-30,2.55-5.61,4.68-11.42,4.79-17.71.15-9.22-2.84-17.66-7.1-25.62a29.7,29.7,0,0,0-6.24-7.52c-5.15-4.72-11.41-7.76-17.74-10.53-11.51-5-23.19-9.7-34.63-14.89-8.85-4-17.64-8-27-10.69a92.12,92.12,0,0,1-13.17-5.06c-7.28-3.35-12.59-9.16-17.43-15.3-5.08-6.44-9.73-13.21-14.64-19.78-6.65-8.9-15.23-14.87-26.34-16.67-5.33-.86-10.72-1.29-16.07-2A241.19,241.19,0,0,0,222.74,42.51Z" />
            <path class="france-cls-5" d="M288.86,502.61c-11.51.53-22.48-2-33.47-5.21-15.72-4.53-31.13-9.93-46.47-15.51-13.93-5.07-27.94-5.15-42.21-2-7.33,1.63-14.71,3.07-22.1,4.43a21.49,21.49,0,0,1-5.93,0c-5.88-.59-8.78-4.31-7.49-10.06a96.06,96.06,0,0,1,3.68-11.51c2.51-6.94,5.37-13.77,7.7-20.77,3.89-11.63,3.42-23.39.63-35.22-1.88-8-5.47-15.3-8.16-23-4.43-12.64-8.58-25.39-12.3-38.24-3.93-13.56-7.06-27.35-10.87-40.94-3.1-11.08-7-22-14.17-31.15-4.45-5.7-9.88-10.62-14.42-16.25-9.44-11.71-18.67-23.59-27.8-35.54a36,36,0,0,1-6.1-14.23c-2.47-11,1.07-19.88,9.48-27.09a60.47,60.47,0,0,1,16-9.53c9.37-4,18.8-7.84,28.17-11.85,2.82-1.21,5.5-2.75,8.26-4.12,10.86-5.43,18.46-14,23.44-24.89A217.93,217.93,0,0,1,148,105.75c6.33-10.23,12-20.88,18.26-31.13a208.07,208.07,0,0,1,12.29-17.4c5.1-6.65,12-10.09,20.41-10.73,20.15-1.53,40.29-2.14,60.47-.65a129,129,0,0,1,20.69,2.71,32.68,32.68,0,0,1,17.62,10.62c5.11,6,9.74,12.33,14.55,18.54,4.65,6,9.3,12,15.37,16.72a45.49,45.49,0,0,0,16.7,8.49,179.65,179.65,0,0,1,30.34,11.14c11.67,5.34,23.6,10.12,35.34,15.31,6.47,2.86,12.58,6.4,17.54,11.57,5.61,5.84,7.9,13.3,9.95,20.88a34.68,34.68,0,0,1-1.57,23.69c-5.15,11.61-10.57,23.11-15.86,34.66-4,8.71-7.95,17.45-9,27.11-.72,6.86-1.22,13.75-1.61,20.63-1.17,20.58-.76,41.15.05,61.74a183.16,183.16,0,0,0,2.89,28.75c1.48,7.43,3.77,14.64,7.76,21.08,6.23,10.06,9.06,21,9.63,32.68.37,7.58.69,15.19,3.15,22.49,1,3,2.14,6.06,3.12,9.12a32.39,32.39,0,0,1,1.36,5.36c.74,5.31-1.35,8.63-6.6,9.54a93.2,93.2,0,0,1-15.07,1.42,100.54,100.54,0,0,0-29,4.86C380,467,373,468.39,366.17,470.36a89.4,89.4,0,0,0-35,19.44c-10.4,9.29-22.84,12.42-36.31,12.79C292.83,502.65,290.84,502.61,288.86,502.61ZM239.51,48.17l0-.87c-12.91.55-25.83,1-38.73,1.68a27.62,27.62,0,0,0-20.07,9.43A100.25,100.25,0,0,0,170.81,71c-7,11.17-13.37,22.75-20.39,33.9a287.87,287.87,0,0,0-16.67,29.87A48.36,48.36,0,0,1,128,143.9c-5.25,6.62-12.18,11.19-19.76,14.67-9.31,4.28-18.79,8.2-28.22,12.25-7.92,3.4-15.25,7.64-21.41,13.81a23.62,23.62,0,0,0-7.11,18.94,33.73,33.73,0,0,0,6.93,19C68.54,235.67,79,248.51,89.35,261.4c3.85,4.79,8.4,9.11,11.66,14.26,7.56,12,11.5,25.44,15,39,6.81,26.13,14.18,52,24.88,76.94a79,79,0,0,1,6.29,39.3c-.92,9.43-4.22,18.21-7.36,27a106.87,106.87,0,0,0-3.75,11.92c-1.31,5.76,1.44,9.26,7.3,9.88a17.27,17.27,0,0,0,4.29.05c6.89-1,13.8-2,20.65-3.27a76.2,76.2,0,0,1,38.28,2.52c11.23,3.69,22.34,7.75,33.61,11.29q14.16,4.45,28.58,8c10.47,2.63,21.2,2.06,31.86,1.56a42.63,42.63,0,0,0,19.24-5.19,104.78,104.78,0,0,0,12-8.21,109.72,109.72,0,0,1,34.73-18.07c5-1.55,10.24-2.49,15.23-4.13a129.85,129.85,0,0,1,30.27-6.14,134.46,134.46,0,0,0,14.43-1.89c4.53-.87,6.94-4,6.88-8.65a21.44,21.44,0,0,0-1-6.44,105,105,0,0,1-5.19-29.61,65,65,0,0,0-9.08-31.8,64,64,0,0,1-8.44-25.12,248.85,248.85,0,0,1-1.85-25.54c-.64-25-.89-49.91.93-74.84.68-9.33,2.49-18.4,6.42-27,5.15-11.24,10.35-22.46,15.47-33.72,5-11,7.3-22.15,3.65-34.23-2.83-9.39-7.15-17.51-15.45-22.94A130.9,130.9,0,0,0,403.71,128c-6.77-3.24-13.85-5.84-20.67-9-12.24-5.64-24.64-10.88-37.69-14.31a49,49,0,0,1-25.11-15.44c-6.1-7-12-14.26-17.39-21.8C294,55.08,282,48.8,267,48.24,257.85,47.89,248.67,48.17,239.51,48.17Z" />
            <path class="france-cls-6" d="M248.82,49c7.57.6,16.43,1.2,25.27,2,10.58,1,18.75,6.35,25.29,14.43,5,6.16,9.86,12.43,14.79,18.64A65.06,65.06,0,0,0,348.68,107c11.78,3.31,23.16,8.19,34.5,12.89,9.33,3.87,18.47,8.24,27.45,12.87,7.43,3.83,14,8.95,17.76,16.76,2.89,6,4,12.44,5.05,18.95,1.52,9.64-1.26,18.46-5.11,27-3.7,8.22-7.57,16.38-11.68,24.4A89,89,0,0,0,407,259.81q-.41,27.38-.73,54.76-.13,12,0,24c.12,15,3.44,29.36,10.85,42.48,4.51,8,6.39,16.5,7.18,25.43.49,5.52.79,11.07,1.61,16.54.92,6.14,2.36,12.21,3.52,18.31a47,47,0,0,1,.7,5.08c.28,3.5-.68,5.38-4,6.51A58.61,58.61,0,0,1,415,455.68c-13.61,1.74-26.73,5.48-40,8.91a132.29,132.29,0,0,0-45.14,21.71c-12.87,9.38-27.26,13.07-43,12.42-6.52-.27-13-.68-19.29-2.38-7.38-2-14.71-4.22-22-6.54-13.4-4.28-26.69-8.91-40.15-13-12.14-3.69-24.51-5.43-37.25-3-5.76,1.09-11.65,1.59-17.49,2.17a19,19,0,0,1-5.49-.44c-3.33-.67-4.86-2.49-5.33-5.9-.57-4.14.71-8,1.9-11.85,2.25-7.31,4.95-14.53,6.59-22,3-13.44,1.2-26.73-3.43-39.55-2.95-8.16-6.91-16-9.79-24.13-4.08-11.59-7.7-23.35-11.31-35.11-3.67-11.93-7-24-10.62-35.92a106.54,106.54,0,0,0-23.53-41.95c-10.26-11.24-19.24-23.66-28.49-35.78a45,45,0,0,1-6-11.35c-3.54-9.38-1.55-17.86,5.21-25.23A60.88,60.88,0,0,1,79.85,173c9-4.2,18.09-8.1,27.07-12.31,8.24-3.86,15.86-8.7,21.72-15.8a41.14,41.14,0,0,0,5.59-8.55c6.08-13,13.45-25.18,21.1-37.25,5.78-9.12,11.08-18.56,17.15-27.47,3.31-4.86,7.66-9.06,11.79-13.32,4.4-4.55,10.14-6.49,16.29-6.85C216.2,50.57,231.84,49.88,248.82,49Zm39.35,447.91c5-.48,10.09-.72,15.07-1.51,10.36-1.62,19.29-6.48,27.84-12.39a132.07,132.07,0,0,1,42.33-19.77c9.59-2.47,19.13-5.15,28.75-7.54,5.3-1.32,10.77-2,16-3.43,7.16-2,9.06-5.55,8-12.88-1.7-11.84-3.36-23.7-4.68-35.59A63.15,63.15,0,0,0,415,381.13a94.7,94.7,0,0,1-10.75-43.59c0-4.65.37-9.3.36-13.95,0-23.8,0-47.6,1.35-71.37a71.33,71.33,0,0,1,6.33-26.75c4.55-9.64,9.23-19.22,13.47-29,4.08-9.43,6.43-19.1,4.88-29.71C428.25,150.18,420,138,405,130.85c-12.45-5.91-25.17-11.3-37.93-16.52a166.31,166.31,0,0,0-20.81-6.83c-13.2-3.45-23.48-11.05-32.07-21.3-6-7.18-11.83-14.54-18-21.57-5-5.73-11-10.37-18.92-11.39A143,143,0,0,0,261.54,52c-19-.33-38,.53-57,2-7.06.54-13.85,2.12-19.3,7a60.07,60.07,0,0,0-8.6,8.76c-4.92,6.72-9.44,13.73-14,20.73-9.49,14.7-19.21,29.27-26.45,45.28-4.1,9.07-10.18,16.47-18.92,21.22-9.78,5.32-19.82,10.15-29.84,15-7.64,3.71-15.27,7.37-21.7,13.09-9.85,8.77-12.09,18.94-6.43,30.84a53.63,53.63,0,0,0,5.93,9.81q13.52,17.42,27.41,34.55c5.45,6.69,11.25,13.11,14.3,21.35,3.79,10.23,7.83,20.39,11.06,30.8,7.89,25.44,15.2,51.06,26.18,75.45a84.22,84.22,0,0,1,7.67,33.17c.2,10.25-1.95,20.09-4.88,29.84a75.72,75.72,0,0,0-2.9,12.54c-.53,4.34,1.68,7.08,6,7.59a71.47,71.47,0,0,0,12.66.24c8.66-.53,17.31-1.77,26-.64,9.81,1.28,19.22,4.2,28.48,7.59,4.24,1.55,8.41,3.3,12.7,4.68,7.41,2.39,14.94,4.4,22.33,6.85C263.94,493.62,275.68,496.91,288.17,496.95Z" />
            <path class="france-cls-7" d="M290.54,491.83c-14.85.32-28.71-4.19-42.67-8.42a283.44,283.44,0,0,1-43-16.48c-8.7-4.28-18.09-4.93-27.66-4.43a102,102,0,0,1-14.52,0c-5.29-.48-8.11-4.21-7.62-9.54.33-3.6,1.08-7.16,1.71-10.73,3.83-21.4.57-41.88-8.65-61.36-6.86-14.5-12.17-29.57-17.67-44.58-6.17-16.85-12.22-33.74-18-50.73-4.14-12.19-11.08-22.67-18.82-32.71-6.18-8-12.74-15.73-18.91-23.74a70.11,70.11,0,0,1-7.18-11.2c-5.28-10.53-3.63-19.69,4.66-28.09,5.94-6,13.08-10.28,20.48-14.22C100.82,171.22,109,167,117,162.39a55,55,0,0,0,24.12-27.58,189.28,189.28,0,0,1,26.3-45c4.78-6.15,9.48-12.37,14.5-18.31,6.26-7.42,14.57-11.28,24.11-12.21,13.41-1.3,26.84-2.34,40.27-3.34,6.34-.47,12.71-.52,19.06-.87,14.35-.8,25.41,5.25,34.37,16.08q8.56,10.35,17.7,20.22c6.76,7.3,14.5,13.38,24.18,16.39,5.87,1.82,11.92,3,17.78,4.89,15.47,4.91,30.19,11.65,44.67,18.9,13.14,6.58,20.08,17.41,23,31.8,2.48,12.43.13,23.76-4.59,35-3,7.24-6.06,14.52-9.59,21.53a82.93,82.93,0,0,0-8.52,35.58c-.44,16.54-.72,33.08-1.07,49.62-.21,9.91-.36,19.82-.66,29.73A92.82,92.82,0,0,0,411.76,378c5,10.4,6.51,21.24,6.62,32.46A114.43,114.43,0,0,0,421,433c2,9.66-.37,13.76-9.94,16.27-6.81,1.78-13.88,2.75-20.51,5-15,5.21-30.58,9.14-44.69,16.74-7.76,4.18-15.27,8.83-23,13.14C312.83,489.82,301.91,491.89,290.54,491.83ZM163.86,432.18l-.52,0c0,3.35,0,6.7,0,10,.07,6.89,3,10.54,9.67,12,2.27.51,4.57.88,6.87,1.2a96.61,96.61,0,0,1,24.76,6.34c6.23,2.65,12.31,5.76,18.72,7.84,14.74,4.8,29.6,9.25,44.49,13.55a74,74,0,0,0,32.49,2.22c9.46-1.51,18.1-5.21,26.39-9.77,18.68-10.29,38-19,58.53-25,7.33-2.13,14.46-5,21.59-7.77,4.86-1.89,7.26-5.75,7-11-.32-5.46-1-10.89-1.41-16.35-1.34-16.48-3.69-32.7-9.7-48.29a68.56,68.56,0,0,1-4.84-28.95c.88-14.41,1-28.82.95-43.26-.08-14.82.84-29.65,1.35-44.47.3-8.78,1.18-17.47,4.59-25.69,1.93-4.67,4-9.27,5.95-13.95,5.82-14.14,10.62-28.43,8.39-44.16-.91-6.45-1.43-12.92-4.51-18.83-4.38-8.42-11.38-14.1-19.55-18.44-11.83-6.27-24.54-10.27-37.3-14.1-7.58-2.27-15.26-4.34-22.58-7.29-9.15-3.68-16.39-10.31-23.2-17.3s-13.16-13.91-19.83-20.77c-7-7.18-15.65-10.12-25.52-9.24-6.6.59-13.14,1.73-19.73,2.46C235.25,64.6,223.6,65.6,212,67c-10.25,1.26-19.92,4.49-27.24,12.11-16.31,17-31.17,35.05-40,57.32-5.46,13.83-14.93,24.16-27.62,31.74q-11.8,7-23.43,14.38c-6.65,4.17-12.71,9-17.11,15.66-3.75,5.67-4.77,11.64-2.58,18.17s5.9,12,10.29,17.12,8.83,9.76,12.67,15.06a142.82,142.82,0,0,1,18.59,35.85c7.53,20.91,16.27,41.39,24.53,62,3.07,7.67,5.76,15.54,9.43,22.91C159.45,389.23,163.62,410.24,163.86,432.18ZM356.8,113.11l-.28.59,10.27,3.38c12.29,4.06,24.21,9,35.32,15.68,7.93,4.79,14,11.21,17,20.12,4.37,13.32,5.4,26.91.87,40.33-2.94,8.72-6.77,17.15-10.51,25.57-3.64,8.18-6.62,16.53-7.11,25.52-.72,13.11-1.32,26.22-1.66,39.34-.38,14.77.12,29.57-.73,44.31-.91,15.8,1,31,6.8,45.66,3.52,8.89,6.29,17.92,7,27.52.46,6.34,1.11,12.67,1.71,19,.45,4.69,1.06,9.37,1.42,14.07.39,5.07-1.89,8.75-6.48,10.84a72.68,72.68,0,0,1-9.53,3.74c-7.41,2.18-15,3.87-22.34,6.17a246.89,246.89,0,0,0-49.28,21.69c-7.37,4.22-14.91,8.17-23.28,10-13.44,2.9-26.83,1.88-40-1.55C258,483,250.14,480.61,242.38,478c-11.12-3.78-22.26-7.56-33.14-12-10-4-20.08-7.12-30.84-7.89-2.93-.21-5.89-.29-8.78-.76-5.7-.92-8.8-4.46-9.06-10.22a41.61,41.61,0,0,1,.22-6.55,115.33,115.33,0,0,0-.81-31.89c-1.54-9.41-3.41-18.81-7.4-27.44-5.2-11.24-10-22.59-14.38-34.18-5.76-15.33-12-30.48-17.93-45.75-3.62-9.35-6.57-19-10.61-28.16-5.42-12.33-13.1-23.33-22.11-33.38-5.34-6-10.7-11.93-14.53-19-4.85-9-4.51-17.74,2.15-25.59A58.82,58.82,0,0,1,87.1,184c9.11-6,18.61-11.51,28.13-16.88,12.93-7.3,22.07-17.74,28.19-31.25a208.89,208.89,0,0,1,13.88-26.46c5.61-8.78,12.41-16.81,18.85-25.06,10.29-13.18,23.53-20.56,40.56-21.19,10-.37,19.88-1.8,29.82-2.73,7.48-.7,15-1.69,22.45-2,7-.25,13.86,1.46,19.4,6a97.23,97.23,0,0,1,11.44,11.39c8,9.16,16.07,18.11,25.92,25.31,1.37,1,2.83,1.88,4.24,2.82-8.51-6-15.46-13.51-22.27-21.21-4.48-5.07-9-10.14-13.63-15a32.06,32.06,0,0,0-19.9-10c-7.12-.88-14.2-.41-21.29.2-14.31,1.23-28.63,2.31-42.92,3.72-11.19,1.11-21.06,5.22-28.51,14.07-2.82,3.35-5.68,6.66-8.4,10.09-12.44,15.69-23.65,32.14-31.22,50.84a55.24,55.24,0,0,1-23.55,27.08c-8.15,4.88-16.5,9.44-24.82,14C87,181.3,80.72,185,75.69,190.45c-7.94,8.62-11.17,16.21-4.16,30.1,2.29,4.53,5.51,8.64,8.64,12.68,4.14,5.35,8.93,10.22,12.86,15.71,6.67,9.31,13.9,18.32,17.9,29.3q5.36,14.71,10.88,29.37c7.84,20.68,15.57,41.4,23.71,62,3.44,8.68,8.18,16.81,10.53,26,3.33,13,4.92,26,3.63,39.41a141.09,141.09,0,0,0-1,14.3c0,5.65,3.18,9.18,8.75,9.89a87.93,87.93,0,0,0,12.05.37c9.31-.1,18,2.62,26.39,6.15,12.42,5.2,24.67,10.76,37.75,14.26,10.82,2.9,21.33,6.88,32.45,8.71,14.37,2.37,28.43,1.52,41.77-4.55,7.51-3.42,14.68-7.61,21.92-11.62,15.66-8.67,32.42-14.43,49.55-19.33,7.68-2.2,15.24-4.79,22.85-7.23,4.14-1.33,6-4.32,6-8.54,0-3.21-.23-6.43-.51-9.62-.75-8.31-1.59-16.61-2.38-24.91-.33-3.47-.15-7.06-1-10.38a166,166,0,0,0-5.63-17.33c-4.78-12.51-8.07-25.27-7.66-38.78.19-6.22.64-12.43.78-18.65.49-21.88.81-43.76,1.39-65.63.27-10,1.91-19.84,6.25-29.05,2.48-5.25,4.74-10.6,7.11-15.91,6.17-13.81,9.88-27.8,7.51-43.35-2.12-13.92-8.69-24.17-20.42-31.25-11-6.62-22.93-11.23-34.88-15.75C364.82,115.29,360.77,114.31,356.8,113.11Z" />
            <path class="france-cls-8" d="M415.52,173c.38,14.26-3.48,27.59-8.88,40.58-3,7.25-6.62,14.33-7.46,22.26-.71,6.79-1.11,13.62-1.56,20.43-1.4,21.24-.76,42.51-.81,63.77,0,5.74-.49,11.48-.75,17.22-.52,11.54,2.55,22.49,5.44,33.47,1.88,7.12,4.94,13.93,5.52,21.41.66,8.59,1.44,17.18,2.21,25.77.28,3.13.74,6.25,1,9.39.44,6.39-2,11.38-8,13.86-7.27,3-14.62,5.81-22.09,8.21-17.79,5.71-34.56,13.69-51.11,22.22-7.53,3.88-15.07,7.78-23.41,9.72a68.47,68.47,0,0,1-32.12-.17c-8.42-2.06-16.67-4.75-25-7.12-5.26-1.49-10.67-2.56-15.77-4.45a130.94,130.94,0,0,1-18.73-8.22A80.33,80.33,0,0,0,188.86,452c-3.89-.71-7.66-2.06-11.55-2.83-5.73-1.13-8.26-5-9.11-10.27a74.48,74.48,0,0,1-.78-10.62,148.26,148.26,0,0,0-10.88-53.16c-6.25-15.51-13.5-30.61-20.2-45.95-8.25-18.88-16.59-37.72-22.61-57.5-4.19-13.78-12.49-25.26-22-35.91a88.79,88.79,0,0,1-8-10.11c-6.54-9.89-6-19.51,2.22-28.05,5.23-5.43,11.27-10.14,17.26-14.76,7.26-5.59,14.95-10.61,22.27-16.11,11.37-8.54,19-19.94,24.17-33,4.71-11.8,11-22.56,20.07-31.63,5.74-5.75,11.09-11.9,16.87-17.61,7.94-7.83,17.88-11.68,28.78-12.5a357.1,357.1,0,0,0,46.29-6.34c12.87-2.7,23.94.67,33.13,10.5,6.9,7.38,14.26,14.35,21.63,21.28,10.91,10.26,24.15,15.94,38.61,19.25,12.34,2.82,24.41,6.5,35.68,12.47,9.92,5.25,17.94,12.21,22.08,23C415.32,158.89,415.33,166,415.52,173Zm-3-1,.62-.06c-.83-6.15-1.09-12.44-2.6-18.41-2.78-11-10.69-18-20.3-23.27s-20-8.14-30.33-11.12c-6.76-1.94-13.58-3.69-20.22-6-11.2-3.87-20.45-10.93-29-18.91-6.65-6.2-13-12.73-19.58-19-7-6.69-15.42-9.48-25-7.88-5.45.9-10.86,2.13-16.26,3.33-10.45,2.32-21.08,3.08-31.72,4-10.17.86-19.9,3.74-28,10.21a176.57,176.57,0,0,0-27.68,28.47c-5.6,7.08-9.14,15.38-12.62,23.62a80.93,80.93,0,0,1-29.54,36.18c-7.5,5.13-14.72,10.69-21.91,16.25a49.39,49.39,0,0,0-12.44,13.24c-4.7,7.75-5,15.58.26,23.11a148.1,148.1,0,0,0,10.71,13.48,82.54,82.54,0,0,1,18.33,32.38,260.28,260.28,0,0,0,12.47,34.64c9,20,18.09,39.92,27.16,59.87,8.18,18,12.6,36.92,14.36,56.55.46,5.17.95,10.35,1.81,15.46a10.38,10.38,0,0,0,7.63,8.8c5.11,1.52,10.22,3,15.26,4.78,5.54,1.91,11.08,3.89,16.48,6.17,6.73,2.84,13.22,6.28,20,9,4.68,1.84,9.72,2.75,14.56,4.21,12.11,3.65,24.14,7.56,36.74,9.25,9.43,1.27,18.84,1.14,27.7-2.41,9.5-3.81,18.82-8.15,27.94-12.8,15.21-7.75,30.71-14.69,47.2-19.31a80.4,80.4,0,0,0,12.39-4.28c7.9-3.69,11.32-10.18,10.47-18.83-.27-2.72-.74-5.42-1-8.15-1.42-16.91-3.07-33.76-8.27-50.08a73,73,0,0,1-3.73-27.9c.46-6.06.86-12.15.84-18.23,0-9.36-.77-18.73-.63-28.09.2-12.23.91-24.46,1.52-36.68.32-6.41.73-12.83,1.39-19.21.84-8,4.64-15.11,7.43-22.51C409.81,199,413,185.87,412.5,172Z" />
            <path class="france-cls-9" d="M409.14,174.08c.5,14.13-2.9,27.56-8,40.56A100.24,100.24,0,0,0,394.51,247c-.64,13.65-1.82,27.29-2.21,40.94-.24,8.45.79,16.93.86,25.4.06,8.06-.13,16.13-.68,24.17-.56,8.26.9,16.23,2.59,24.18,1.53,7.22,3.93,14.28,5,21.56,1.44,9.94,2,20,2.87,30,.34,3.88.7,7.77.78,11.67.16,7.18-2.51,11.31-9.24,13.86-6.26,2.37-12.64,4.46-19,6.52-12,3.86-23,9.86-34.28,15.23-8.46,4-16.83,8.22-25.28,12.25-13.83,6.6-28.27,7.11-42.87,3.55-10.41-2.54-20.62-5.89-31-8.59-8.29-2.16-16.6-4.21-24.07-8.56a127.87,127.87,0,0,0-28-12,104.33,104.33,0,0,1-10.11-4,9.26,9.26,0,0,1-5.81-6.74c-1.16-5.55-2.18-11.14-2.86-16.76a206,206,0,0,0-18.14-64c-6.11-12.9-12.31-25.75-18.52-38.6C126.71,301,120,284.57,115.59,267.22c-2.92-11.47-9.43-21-17.21-29.69a101.33,101.33,0,0,1-8.47-10.27c-6.08-9-5.87-16.78,1.24-25a180.64,180.64,0,0,1,16.55-16.17c5.36-4.76,11-9.22,16.8-13.46,12.26-9,20.9-20.67,26.85-34.55,3.72-8.67,7.44-17.46,13.71-24.63,8.32-9.53,17.17-18.63,27.39-26.16,7-5.18,15.23-7.71,23.82-8.79,6.51-.82,13.12-.88,19.59-1.92,8.9-1.43,17.76-3.19,26.52-5.32,11.4-2.77,21.1-.43,29.6,7.8,7.17,6.94,14.68,13.53,22.16,20.14,11.2,9.9,24.35,15.93,38.78,19.57,10.92,2.75,21.81,5.7,32,10.66,9.13,4.44,16.46,10.72,20.81,20.1A35.42,35.42,0,0,1,409.11,163C409.27,166.69,409.14,170.39,409.14,174.08Zm-2.39-1.68c0-2.05,0-4.1,0-6.16,0-15.44-6.89-26.86-20.14-34.47-8.67-5-18.2-7.85-27.85-10.09-18.37-4.26-35.07-11.64-49.26-24.33C301.9,90.56,294.1,84,286.33,77.42A20,20,0,0,0,270.1,72.7a100,100,0,0,0-11.29,2c-11.82,3-23.73,5.42-36,6a58.56,58.56,0,0,0-35,13.29c-15.25,12.28-28,26.3-35.14,45-4.81,12.59-12.8,23.14-23.12,31.9-9.17,7.79-18.32,15.62-27.27,23.65-5.21,4.67-9.7,10-12.43,16.63a14.34,14.34,0,0,0,.6,12.84,28.89,28.89,0,0,0,2.68,4.37c2.67,3.38,5.4,6.71,8.23,10a73.84,73.84,0,0,1,17.18,33.55A114.87,114.87,0,0,0,127,297.5c8.2,17.19,16.45,34.36,25,51.4a207.41,207.41,0,0,1,18.73,56.63c1.54,8.61,3,17.24,4.53,25.86a12.85,12.85,0,0,0,6.47,9.51,85,85,0,0,0,8.09,3.93c5.1,2.17,10.37,4,15.36,6.33,12.84,6.12,25.62,12.22,39.65,15.39,12.12,2.74,23.9,6.84,36.22,8.91,11.35,1.91,22.15,1,32.55-4.11q13.45-6.57,27-12.89c8.55-4,17.08-8,25.8-11.61,6.06-2.48,12.46-4.12,18.65-6.31a39.7,39.7,0,0,0,7-3.34c6.59-3.93,9-10.07,8.54-17.43-.63-9.35-1.62-18.67-2.32-28-.54-7.17-1.11-14.3-3-21.29-3.52-13-5.32-26.18-3.9-39.77a108.12,108.12,0,0,0-.19-20c-.92-11.13-1.49-22.23-.67-33.38s1.91-22.48,2.59-33.73a91.59,91.59,0,0,1,5.38-27.23C403.82,202.18,406.91,187.59,406.75,172.4Z" />
            <path class="france-cls-10" d="M403.86,173.94a127,127,0,0,1-7.61,43.22c-2.81,7.87-3.95,16-4.64,24.27-.86,10.28-1.85,20.55-2.83,30.83a180.29,180.29,0,0,0,.78,42.54,71.89,71.89,0,0,1,.16,17,89.5,89.5,0,0,0,2.57,33.73C395,375,395.19,385,396,394.77c.58,7,1.14,13.91,1.56,20.87a49.84,49.84,0,0,1-.22,7.78c-.59,6-4.34,10-9.39,12.6a72.82,72.82,0,0,1-12.86,5.31,199.62,199.62,0,0,0-33.73,13.83c-10.13,5.11-20.31,10.15-30.7,14.69-10.08,4.4-20.75,4.74-31.39,2.2-13.42-3.2-26.74-6.86-40.16-10.05a92.48,92.48,0,0,1-25.42-10.59c-5.81-3.4-12.17-5.86-18.27-8.76-3.51-1.67-7.1-3.22-10.48-5.13-3.6-2-5.49-5.55-6.42-9.42-1.41-5.84-2.54-11.76-3.75-17.65-3.43-16.75-7.07-33.48-13.65-49.32-3.26-7.86-7.65-15.25-11.4-22.91-8-16.43-16.3-32.78-23.83-49.44-2.68-5.94-4-12.63-5.11-19.12-2.08-12.05-7.8-22.18-15.2-31.59-2.07-2.63-4.24-5.2-6.21-7.91-7-9.65-6.72-15.33,1.07-24.32,10.27-11.84,20.74-23.46,32.6-33.78,10.41-9.07,17.46-20.52,22.94-33.11,3.84-8.83,7.73-17.76,14.89-24.56,5.6-5.32,11.37-10.47,17.34-15.37a59.83,59.83,0,0,1,24.27-12.44,66.78,66.78,0,0,1,13-1.7c12.13-.41,23.85-2.94,35.51-6A57.85,57.85,0,0,1,272.47,77c6.85-.39,12.56,2.66,17.75,6.84,8.25,6.65,16.38,13.45,24.79,19.9,12.84,9.86,27.5,15.8,43.17,19.58,9,2.16,17.93,4.54,25.9,9.43,12.56,7.72,19.6,18.77,19.77,33.78C403.88,169,403.86,171.47,403.86,173.94ZM401,176.42c0-3.63.22-7.27,0-10.87-1-14.57-7.11-26.35-20.52-33A98,98,0,0,0,360,125.44a139.19,139.19,0,0,1-54.57-26.78c-6.53-5.19-13.14-10.28-19.87-15.19A19.66,19.66,0,0,0,270,79.88c-4.1.74-8.17,1.66-12.27,2.44-11.48,2.19-22.91,4.66-34.62,5.42A52.85,52.85,0,0,0,197.3,95.8c-3.56,2.3-6.86,5-10.41,7.3a73.83,73.83,0,0,0-28.62,35c-5.49,13.48-13.19,25.58-24,35.61-6.61,6.13-13,12.57-19,19.27-5.44,6-10.37,12.53-15.35,19-3.08,4-3.26,8.45-1.17,13a27.62,27.62,0,0,0,2.51,4.46c2.74,3.84,5.6,7.59,8.4,11.4,5.81,7.9,10.29,16.3,11.87,26.22,1.52,9.56,3.68,19.05,8,27.84,6,12.25,11.89,24.6,18.31,36.64,7,13.14,14.44,26,19.27,40.22,3.8,11.2,5.48,22.85,8.41,34.22,1.77,6.88,3.36,13.82,5.32,20.65a18.11,18.11,0,0,0,9.55,11.27c8.45,4.36,16.83,8.85,25.38,13a177.14,177.14,0,0,0,17.73,7.47c4.35,1.55,9,2.21,13.51,3.35,10.92,2.78,21.79,5.8,32.76,8.37A51,51,0,0,0,316,465.24c7.34-3.82,14.75-7.51,22.14-11.23,8.91-4.49,17.7-9.23,27.36-12.09a145.27,145.27,0,0,0,16.66-5.68c8.14-3.53,12.29-10,12-19-.3-7.86-1.1-15.7-1.31-23.56-.3-11.16-.82-22.28-3.38-33.2a66.87,66.87,0,0,1-1.68-22.17c.83-8.29,1.23-16.69-.11-25a136.28,136.28,0,0,1-1.36-34.94c1.22-12.86,2.56-25.7,3.74-38.56a117.63,117.63,0,0,1,5.33-26.25A116.24,116.24,0,0,0,401,176.42Z" />
            <path class="france-cls-11" d="M398.55,178.3a114.3,114.3,0,0,1-5.44,37.37c-2.8,8.45-3.57,17.21-4.41,26-.9,9.52-2.11,19-3.13,28.52-1.05,9.85-2.47,19.71-1.74,29.64.37,5.1,1.41,10.14,2.16,15.21a77.9,77.9,0,0,1,.41,20.65c-1.11,9.42.31,18.66,1.82,27.94a203.53,203.53,0,0,1,2,20.38c.54,8.87,1,17.76,1,26.65,0,4.87-1,9.76-1.8,14.59a10.27,10.27,0,0,1-5.8,7.57,74,74,0,0,1-11.92,4.86c-15.29,4.41-29.3,11.74-43.45,18.75-4.17,2.06-8.28,4.24-12.36,6.46a47,47,0,0,1-32.62,4.66c-10.1-2.05-20.09-4.67-30.12-7.05-5.12-1.22-10.23-2.48-15.34-3.73a67.25,67.25,0,0,1-17-6.55c-9.07-5.08-18.2-10-27.26-15.12a23.5,23.5,0,0,1-11.53-15.3c-3.06-12-6.22-24.08-9-36.2a158.52,158.52,0,0,0-16.39-41.81c-8.27-14.94-16.11-30.11-24.07-45.21a75.47,75.47,0,0,1-8.33-27.9c-1.12-11.3-5.93-20.89-12.28-30-2.73-3.91-5.35-7.94-7.68-12.1a11.56,11.56,0,0,1,.84-13c3.24-4.57,6.76-8.93,10.12-13.43,8.16-10.94,17.66-20.7,26.91-30.69,8.21-8.87,13.74-19.48,18.69-30.45,2.63-5.82,5.56-11.72,9.53-16.65s9.28-9.23,14.45-13.21c5.51-4.25,11.45-8,17.36-11.65,7.4-4.61,15.77-6.19,24.3-6.56,12.79-.56,25.23-3.21,37.61-6.07,9.65-2.23,18.15-.7,26.15,5.24,8.89,6.6,17.92,13,27.18,19.09,12.92,8.46,27.16,14,42.1,17.79,7.62,1.95,15.26,4.06,21.84,8.57,10,6.83,15.87,16.33,17.07,28.4C398.94,168.69,398.55,173.51,398.55,178.3Zm-2.2,1.09c-.24-4.92-.29-9.85-.75-14.75-1-11.23-6-20.38-15.18-27-6.4-4.67-13.92-6.92-21.45-9-13.31-3.63-26.18-8.39-38-15.63-9.49-5.82-18.63-12.2-27.95-18.31-4.28-2.81-8.49-5.76-13.54-7.11-5.71-1.53-11.37-.83-17.09.14-10.51,1.78-21,3.39-31.57,5.06C225,93.71,219,94.2,213.3,95.63c-8.48,2.11-15.65,7.08-22.82,11.88-13.11,8.79-23.58,19.65-29.34,34.82A89.18,89.18,0,0,1,142,172.21c-11.8,12.36-21.93,26-32.1,39.71-4.38,5.89-5.22,11.89-1.1,18.25,2.16,3.33,4.16,6.76,6.4,10a58.56,58.56,0,0,1,10.46,27.87,73.7,73.7,0,0,0,7,26c7.41,14.85,14.51,29.87,23.47,43.89a141.73,141.73,0,0,1,18.51,45.3c2.4,10.52,5,21,7.9,31.39a34.9,34.9,0,0,0,16.72,21.72c6.36,3.61,12.73,7.23,19.28,10.48a89.46,89.46,0,0,0,15.68,6.51c14.56,4,29.3,7.32,43.91,11.16,12.64,3.32,24.76,2.46,36.44-3.58q10.48-5.42,21-10.75c11.71-5.95,23.36-11.95,36.32-15a26.82,26.82,0,0,0,9.71-5c4.82-3.69,6.15-9.27,6.14-15.05,0-9.3-.3-18.6-.5-27.9-.14-6.55.26-13.19-.63-19.64-1.65-12-2.84-23.84-1.82-36a62.31,62.31,0,0,0-1-17.13,119.89,119.89,0,0,1-.65-40.58c1.49-10.48,2.65-21,3.86-31.53,1-8.82,1.51-17.71,4.14-26.29A120.67,120.67,0,0,0,396.35,179.39Z" />
            <path class="france-cls-12" d="M394.08,182.26c-.12,12.06-2.07,23.8-4.83,35.51-1.81,7.67-2.33,15.65-3.41,23.49q-2,14.41-3.93,28.84c-1.23,9.07-3.19,18.09-2.52,27.3A135.15,135.15,0,0,0,381.5,313c1.42,7.43,2.26,14.86,1.48,22.42a88.9,88.9,0,0,0,.71,23.51c1.72,10.53,1.37,21.11.84,31.72-.34,6.89.09,13.81,0,20.72a73.59,73.59,0,0,1-.62,7.76,12.73,12.73,0,0,1-6.35,10,58.44,58.44,0,0,1-12.26,5.57c-14.89,4.36-28.51,11.48-42.15,18.62-3.76,2-7.53,3.91-11.34,5.76-9.44,4.57-19.23,5.28-29.37,2.75-13.33-3.32-26.59-7-40.07-9.6-11.81-2.27-21.86-8-32.09-13.63-3.41-1.87-6.67-4-10-6.1-6.85-4.32-11.3-10.57-14.48-17.9-4.17-9.6-6.59-19.7-8.46-29.93a135.46,135.46,0,0,0-18-46.29c-8.69-14.35-16.31-29.36-24.18-44.21-4.47-8.43-6.54-17.64-7.29-27.12a61.5,61.5,0,0,0-8.14-25.56c-2.31-4.11-4.53-8.27-6.69-12.46s-2.1-8.73.69-12.65c9-12.64,16.75-26.14,26.88-38a252.72,252.72,0,0,0,15.56-20.6,65.73,65.73,0,0,0,7-13.17,64.51,64.51,0,0,1,27.09-32.19c4.43-2.72,8.68-5.71,13.11-8.42,8-4.89,16.86-7.12,26.1-7.76a258.89,258.89,0,0,0,34.33-4.62c9.57-2,18.27-.11,26.47,5,9.44,5.91,18.9,11.79,28.47,17.48,12.47,7.41,26,12.33,39.81,16.63a75.77,75.77,0,0,1,16.33,7c11,6.55,16.39,16.94,18.1,29.32C393.77,172.12,393.77,177.21,394.08,182.26Zm-2.89,2c-.22-3.33-.52-8.72-.94-14.11A41.31,41.31,0,0,0,376.38,142c-4.74-4.31-10.5-6.91-16.53-8.81a224.64,224.64,0,0,1-42-17.8c-9.91-5.52-19.62-11.39-29.47-17a33.21,33.21,0,0,0-20.11-4.49c-9.66,1-19.28,2.23-28.92,3.42-6,.74-12.11,1.31-18.08,2.44-11.58,2.19-21.09,8.74-30.73,15a63.68,63.68,0,0,0-24.28,28.16,131.11,131.11,0,0,1-22.35,34.45,67.45,67.45,0,0,0-6,7.53C131,195.41,124.2,206,117.35,216.58c-3.39,5.23-3.45,10.49-.46,15.9,1.68,3.05,3.25,6.17,4.9,9.24,3.86,7.17,6.62,14.64,7.13,22.9.72,11.51,3.33,22.59,8.89,32.77,6.78,12.41,13.28,25,20.82,37,10,15.87,17.51,32.59,20.55,51.16A99.43,99.43,0,0,0,190,417.38a33.8,33.8,0,0,0,10.35,12c4.56,3.13,9.28,6,14,8.94a95.28,95.28,0,0,0,29.71,12c11.61,2.59,23.14,5.53,34.69,8.35,6.27,1.53,12.57,2.6,19.08,1.92,7.38-.77,13.95-3.71,20.28-7.35a280.42,280.42,0,0,1,36.22-17.4c5.14-2,10.48-3.6,15.64-5.59a15.42,15.42,0,0,0,10.24-12.57,62.94,62.94,0,0,0,.82-7.75c.33-9.23.24-18.48.91-27.68a150.46,150.46,0,0,0-.08-21.3c-.57-8.31-1-16.67-.77-25a99,99,0,0,0-1.24-21.61,152.08,152.08,0,0,1-2.17-16c-.73-9.13.81-18.12,2.16-27.12,1.51-10.07,3-20.14,4.43-30.22,1.07-7.57,1.45-15.29,3.14-22.71A159.4,159.4,0,0,0,391.19,184.29Z" />
            <path class="france-cls-13" d="M389.22,195.93c-.58,4.48-1.37,11-2.26,17.47-1,7.37-2.12,14.73-3.14,22.1-1.34,9.67-2.62,19.35-4,29-1.38,9.88-3.26,19.72-4,29.64a62.27,62.27,0,0,0,1.53,17.47,117.75,117.75,0,0,1,2.33,27.29c-.14,6.48,0,13,.39,19.45a156.84,156.84,0,0,1-.21,21.1c-.69,10.09-.84,20.22-1.26,30.33-.07,1.64-.22,3.27-.43,4.9-.9,6.9-4.71,11.54-11.19,13.91-6.16,2.25-12.41,4.27-18.58,6.51-9.62,3.5-18.47,8.54-27.43,13.41a95.94,95.94,0,0,1-16.05,7.16c-7.19,2.33-14.62,1.38-21.89-.34q-22-5.21-44.07-10.53A70.43,70.43,0,0,1,217.22,435a178.2,178.2,0,0,1-15.14-10.51c-9.36-7.57-14.35-18-17.36-29.34-2-7.45-3.17-15.11-4.92-22.62-3.28-14.1-10.12-26.54-17.71-38.75-7.79-12.52-14.81-25.52-22-38.4a60,60,0,0,1-7.54-27.62A71.44,71.44,0,0,0,126,240c-1.1-2.42-1.83-5-2.84-7.47-2-4.82-1.26-9.3,1.29-13.73,3.52-6.1,7.09-12.19,10.22-18.49a130.4,130.4,0,0,1,17.69-26.8,108.79,108.79,0,0,0,16.8-26.65c6.07-13.74,16.36-23.33,28.62-31.29,9-5.86,18.45-10.81,29.19-12.5,7-1.1,14.12-1.59,21.19-2.36,4.89-.53,9.78-1.17,14.68-1.61a53.55,53.55,0,0,1,31.57,6.7,474,474,0,0,0,63.08,29.49c9.77,3.69,18,9.38,23.77,18.35,4.25,6.61,5.76,14,6.47,21.6C388.35,181.41,388.66,187.63,389.22,195.93Zm-2.32,2.62c-1-9.1-1.76-18-2.93-26.89-1.56-11.78-7.16-21.42-16.9-28.21a88.06,88.06,0,0,0-15.61-8.52c-19.41-8.34-38.61-17.1-57.39-26.77a61,61,0,0,0-33.13-6.62c-7.5.56-15,1.46-22.47,2a75.14,75.14,0,0,0-32.2,9.41c-14.56,8.15-26.71,18.7-34.52,33.77a188.58,188.58,0,0,1-19.38,29.67c-4.61,5.87-9.1,11.8-12.45,18.52-4.51,9.06-9.2,18-13.56,27.15a13.47,13.47,0,0,0-1.29,6.9,36,36,0,0,0,2.52,9.43c3.71,9.22,6.13,18.62,6.29,28.65a63.86,63.86,0,0,0,8.93,31.42c7.27,12.52,14.49,25.08,22.12,37.39,6.33,10.22,12.17,20.62,15.25,32.3,1.79,6.79,2.94,13.75,4.46,20.62,2.6,11.71,7.31,22.37,16.07,30.83a87,87,0,0,0,21.52,15.25A105.63,105.63,0,0,0,241,442.47c12.5,3.47,25.35,5.74,37.83,9.28,14.2,4,27.29,2.81,40-5a187,187,0,0,1,21.63-11.27c6.79-3,14-5.19,21-7.74,8.78-3.2,13.69-8.91,13.84-18.82.17-10.86,1.35-21.7,2-32.56.36-6.14.62-12.28.7-18.43.08-5.74-.42-11.5-.16-17.22a110.5,110.5,0,0,0-1-21.88c-.9-5.8-2-11.58-2.7-17.41-1.15-9.86,1.08-19.48,2.57-29.13,1.58-10.27,3.47-20.49,4.94-30.76,1.23-8.59,2-17.24,3.08-25.85C385.34,210,386.15,204.22,386.9,198.55Z" />
            <path class="france-cls-14" d="M385.12,200.37c-.77,6.22-1.5,11.9-2.16,17.6-.84,7.26-1.39,14.57-2.46,21.79-1.69,11.35-3.76,22.63-5.57,34-1.63,10.26-3.42,20.54-2.23,31,.52,4.54,1.54,9,2.35,13.52a103.93,103.93,0,0,1,1.36,21c-.16,6.63.3,13.28-.09,19.89-.62,10.64-1.76,21.25-2.59,31.88-.47,6.07-1,12.14-1.1,18.22-.19,8.18-4.24,13.32-11.75,16-5.41,1.91-11.07,3.28-16.26,5.66-10.19,4.66-20.09,10-30.22,14.78a80,80,0,0,1-13.5,5.25c-5.34,1.43-10.75,0-16-1.23-15.69-3.75-31.42-7.35-47-11.47-12-3.17-21.87-10.4-31.49-18a52,52,0,0,1-18.21-26.67c-1.7-5.74-2.6-11.73-3.79-17.62-3-14.7-9.4-27.83-17.35-40.44-7.83-12.42-15.11-25.2-22.59-37.84-6.07-10.27-8.52-21.54-8.67-33.34a65,65,0,0,0-4-22.67c-1.69-4.41-3-9-2.27-13.81a17.15,17.15,0,0,1,1.19-4.33c3.79-8.64,7.71-17.22,11.49-25.85A81.16,81.16,0,0,1,154.25,178a212,212,0,0,0,21.42-31.27c10.56-18.47,26.47-30.45,46.4-37.34a73,73,0,0,1,19.52-3.57c8.19-.5,16.38-1.16,24.58-1.32,9.54-.19,18.48,2.57,27.12,6.44,18.46,8.26,37,16.43,55.39,24.74,6.31,2.84,12.41,6.09,17.7,10.64,7.28,6.27,12.45,13.93,14.16,23.43C382.4,180,383.66,190.42,385.12,200.37Zm-130-92.93v.07c-2.73,0-5.47-.07-8.2,0-6.84.21-13.72.5-20.3,2.52-19.82,6.09-35.62,17.63-47,35.11C172,157,164.29,168.74,155.3,179.64a70.48,70.48,0,0,0-10.94,18.23c-3.59,8.79-7.26,17.55-10.93,26.31a19.07,19.07,0,0,0-1,12.05c1,4.18,2.62,8.25,3.27,12.48a160.78,160.78,0,0,1,1.6,17.73c.42,10.26,2.32,20.1,7.49,29.08,5.76,10,11.66,19.93,17.53,29.88,5.07,8.58,10.53,17,15.18,25.76s8.05,18.13,9.12,28.11a56.09,56.09,0,0,0,11.23,28.46C208,421,221.63,429.65,237.3,434.82c10.82,3.57,22,6,33.08,8.83q8.74,2.22,17.6,3.95c10,2,19.23-.65,27.94-5.62,8.37-4.77,16.59-9.83,25.8-13,6.07-2.08,12.11-4.31,18-6.83,6.07-2.59,9.25-7.46,9.66-14.08.08-1.3.08-2.6.17-3.89.41-6.07.66-12.16,1.31-18.21.9-8.29,2.37-16.53,3.1-24.83.59-6.73.38-13.53.64-20.3a86.27,86.27,0,0,0-1.79-23.24c-2.19-9.31-3.22-18.76-1.93-28.29,1-7.37,2.43-14.69,3.6-22,1.65-10.39,3.39-20.77,4.77-31.19.85-6.5,1.09-13.07,1.61-19.61.37-4.63,1.37-9.31,1-13.87-.8-9.45-2.05-18.9-3.66-28.25a45.94,45.94,0,0,0-15.62-27.45,68.6,68.6,0,0,0-17.37-10.79c-17.22-7.66-34.47-15.26-51.89-22.47a94.65,94.65,0,0,0-20.16-6C267.32,106.66,261.18,107.45,255.17,107.45Z" />
            <path class="france-cls-15" d="M256.12,108.57c8.36-.18,16.71,0,24.7,2.93q15.51,5.63,31,11.41A282.26,282.26,0,0,1,347.9,139c10,5.42,18.25,12.74,23.05,23.14a97.59,97.59,0,0,1,5.64,17.52c2.33,9.43,4.47,19,3.73,28.79-1.37,17.83-2.38,35.71-6.52,53.25-3.09,13.12-4.92,26.51-4.35,40a114.22,114.22,0,0,0,2,15.21,102,102,0,0,1,1.65,24.5c-.67,10.57-.12,21.2-2.12,31.7-1.24,6.51-2.13,13.1-2.94,19.68-.45,3.66-.45,7.37-.61,11.06-.46,11-4.08,15.78-14.62,19.07-6.91,2.16-14,3.85-20.39,7.4-6.23,3.44-12.69,6.46-18.79,10.11a36.21,36.21,0,0,1-29,4.25c-14.15-3.67-28.44-6.84-42.55-10.69C223,428.76,207.22,418.33,195.55,402c-4.51-6.29-6.58-13.5-7.74-21-2.74-17.56-9.88-33.2-19.54-48C160.4,321,153.24,308.49,146,296a56.3,56.3,0,0,1-7.58-30,95.84,95.84,0,0,0-3.67-27.13,22.35,22.35,0,0,1,2-16.55,103.5,103.5,0,0,0,7.6-19.88A56.91,56.91,0,0,1,156.72,180c9.64-10.75,17.75-22.55,25.36-34.75,11-17.72,27.35-28.43,47-34.19,5.82-1.71,12.13-1.81,18.24-2.41C250.21,108.33,253.18,108.57,256.12,108.57Zm-3.43,1.53c-5,.44-10.11.63-15.1,1.37-14.27,2.1-26.89,8.09-38,17.1-6.58,5.31-11.09,12.42-15.81,19.3-7.43,10.83-14.91,21.61-23.9,31.27A61.22,61.22,0,0,0,146.51,202c-2.46,7.46-5.08,14.86-7.72,22.26-2.1,5.88-2.86,11.86-1.29,17.94a75,75,0,0,1,2.28,18.47c0,6.64,0,13.26,1.51,19.79,2,8.65,6,16.41,10.54,23.91,7.19,12,14.77,23.8,22.18,35.69,6.89,11.06,12,22.81,14.23,35.75.93,5.28,1.81,10.8,4,15.59,8.71,18.7,24.15,30.19,43.06,36.84,13.06,4.59,26.62,7.76,40,11.42,4.67,1.28,9.45,2.24,14.22,3.07,8.63,1.5,16.34-1.3,23.67-5.53,5.1-2.94,10.17-5.91,15.29-8.81,7.1-4,15-5.82,22.72-8.19s12.38-7,12.93-15.29c.82-12.35,1.83-24.64,4.64-36.79,1.51-6.53,1.49-13.43,2.05-20.17.85-10.19,1-20.34-1.42-30.4A83.37,83.37,0,0,1,367.08,296c.25-10.36,2.3-20.49,4.15-30.64,1.75-9.6,3.73-19.19,4.91-28.86,1-8.47,1.21-17,1.57-25.59a46.42,46.42,0,0,0-.44-10.41q-2.53-13.51-5.73-26.89c-3.14-13.13-10.17-23.78-21.72-30.92a138.33,138.33,0,0,0-21-11.06C314.74,126,300.35,121.14,286.09,116A98.89,98.89,0,0,0,252.69,110.09Z" />
            <path class="france-cls-16" d="M373.67,223.14c.64,12.9-1.28,25.54-3.68,38.11-2.34,12.23-4.56,24.46-5.33,36.9a60.76,60.76,0,0,0,1.83,18.5c3.14,12.64,3.43,25.46,2.27,38.32A165.17,165.17,0,0,1,366,374.43a191.86,191.86,0,0,0-4,28.39,44.68,44.68,0,0,1-1.41,7.24,9.62,9.62,0,0,1-6.77,7.34c-5.2,1.69-10.44,3.25-15.68,4.83-7.49,2.27-14,6.49-20.61,10.47-2.93,1.76-6,3.34-8.93,5.06-6.82,4-14.19,4.32-21.7,3.14-13.35-2.1-26.23-6.08-39-10.22-9.17-3-18.38-5.9-26.88-10.55a71.15,71.15,0,0,1-24-21.71c-4-5.64-5.74-12.28-6.46-19.05-1.65-15.35-7.87-28.88-16-41.72-7.54-12-15.24-23.84-22.56-35.94-4.2-7-8.16-14.19-9-22.47-.57-5.35-.4-10.78-.68-16.17-.33-6.48-.62-13-1.25-19.42a37.92,37.92,0,0,1,1.72-15.35c2.57-8.14,5.18-16.27,7.6-24.45,2.15-7.3,5.52-14,11-19.21,11.2-10.73,20.47-23,29-35.83,7.63-11.59,17.46-20.57,30.16-26.36a72.33,72.33,0,0,1,29.64-6.37c13.7-.15,26.6,3.28,39.39,7.78,8.49,3,17.27,5.17,25.94,7.64,10.71,3.05,20.91,7.2,30.21,13.45,10.34,7,16.17,16.89,19.13,28.67,2.57,10.21,5.09,20.45,7.07,30.78C373,210.54,373.1,216.89,373.67,223.14ZM144.2,261.49l-.62,0c0,2,0,4,0,5.95a55.67,55.67,0,0,0,7,29.16c4,7,8.14,13.92,12.34,20.8,6.27,10.26,12.9,20.3,18.92,30.7A72.24,72.24,0,0,1,191,374.26c.74,5.22,1.42,10.43,3.56,15.31,5.65,12.87,15.7,21.58,27.81,27.66a239.08,239.08,0,0,0,55.66,19.29c6.43,1.43,12.88,2.55,19.51,1.44,7.64-1.28,14.08-5.11,20.27-9.46a63,63,0,0,1,19-9.45c4.4-1.25,8.83-2.43,13.2-3.78,4.92-1.52,7.7-5,8.67-10,.4-2.07.56-4.2.84-6.3,1.07-8,1.6-16.1,3.36-23.93,1.94-8.63,3.73-17.19,4.27-26.05.6-9.76.35-19.4-1.92-28.94-2.68-11.29-3.74-22.65-1.7-34.17,1.59-9,3-18.07,4.81-27,3.53-17.09,4.24-34.24.86-51.35-2.53-12.8-5.88-25.44-9.07-38.1a38.09,38.09,0,0,0-8.19-15.7c-8.56-9.9-19.86-15.27-32.07-18.88-7.72-2.28-15.69-3.74-23.44-5.94-9.2-2.61-18.21-5.87-27.43-8.41-10.54-2.91-21.35-3.83-32.09-1.46a68.84,68.84,0,0,0-42.82,28.55c-5,7.16-10,14.41-15.51,21.18-4.87,6-10.54,11.29-15.75,17A46.93,46.93,0,0,0,151.21,208c-1.56,7.25-4,14.31-6.25,21.42-1.16,3.75-2.16,7.48-1.93,11.45Q143.64,251.16,144.2,261.49Z" />
            <path class="france-cls-17" d="M145.32,258.55c0-5.47-.16-10.95.06-16.41a48.1,48.1,0,0,1,1.39-9.9c2.4-9.4,5.2-18.69,7.59-28.09a33.06,33.06,0,0,1,10.48-17.49c12.68-10.85,22.27-24.25,31.47-37.93,9.84-14.63,23.3-23.94,40.44-27.61,13.33-2.85,26.42-1.07,39.06,3.88,11.75,4.61,23.92,7.66,36.25,10.23,8.09,1.69,16.06,3.75,23.39,7.9,11.71,6.62,19.55,16,22.44,29.33,1.94,8.95,4.13,17.84,6,26.8,1.69,8,3.41,16.06,4.61,24.16,1.32,8.93.44,17.9-1,26.76-1.8,11.07-3.91,22.08-5.76,33.14-1.94,11.59-1.93,23.14,1.12,34.58s3,23,1.85,34.63c-.66,6.65-2.33,13-3.78,19.49a230,230,0,0,0-4.18,25.46c-1.07,9.93-5,14.87-14.8,16.86-9.26,1.88-18.16,4.59-25.66,10.73-1.73,1.42-3.86,2.34-5.73,3.6-9.54,6.42-19.79,7.77-31,5.3A215.15,215.15,0,0,1,242,422c-6.92-2.93-14-5.45-20.74-8.8-11.3-5.65-20.51-13.69-25.27-25.77a61,61,0,0,1-3.22-12.66c-2-12.32-7.08-23.38-13.47-33.88-6.68-11-13.88-21.62-20.61-32.56-3.36-5.46-6.34-11.18-9.18-16.93-4.33-8.75-4.44-18.21-4.17-27.7,0-1.71,0-3.42,0-5.13Zm2.32-.16-.94,0c.23,7,.07,14.1.79,21.08.89,8.68,5.07,16.28,9.52,23.58,7,11.44,14.28,22.67,21.39,34s13.1,23.52,15.46,37c.84,4.79,1.77,9.54,4.1,13.89,5.58,10.43,14.22,17.61,24.67,22.62,6.64,3.18,13.55,5.84,20.44,8.48,9.69,3.71,19.4,7.41,29.25,10.67a48.6,48.6,0,0,0,21.1,2.08c7.88-.94,14.47-4.7,20.41-9.79a34.29,34.29,0,0,1,13.76-7.48c4.5-1.16,9-2.38,13.53-3.36,7.74-1.67,11.55-5.41,12.33-13.21,1-10.34,3.78-20.28,6.2-30.32,4-16.51,5.69-33.08,1.34-49.9A73.66,73.66,0,0,1,358.55,294c.9-12.56,3.26-24.91,5.67-37.24,2.45-12.58,3.51-25.22,1-37.89-1.46-7.37-3.54-14.62-5.21-22-1.87-8.2-3.43-16.47-5.44-24.63-1.59-6.47-3.95-12.75-8.36-17.88-7.68-8.94-17.81-13.6-29.13-16-7.76-1.62-15.68-2.63-23.29-4.75-8.87-2.47-17.44-6-26.21-8.81C246.84,118.19,228,122,211.2,135.71c-7.23,5.91-12.62,13.47-17.73,21.16a149.19,149.19,0,0,1-25.61,29.5,37.56,37.56,0,0,0-12.65,21.5c-1.38,7.16-3.43,14.2-5.16,21.29-.84,3.44-2.1,6.88-2.31,10.37C147.38,245.8,147.65,252.1,147.65,258.39Z" />
            <path class="france-cls-18" d="M365.23,235.57c-1.24,8.72-2.24,17.55-3.81,26.28-2,10.84-4,21.7-4.12,32.71a84.83,84.83,0,0,0,2,19.71c4.19,18.52,3.07,36.63-2.44,54.66a141.49,141.49,0,0,0-5.64,25.19c-.79,6.9-4.37,10.59-11.2,12.15-4,.91-8,1.71-12,2.48-6.1,1.15-11.23,4.16-15.89,8.12-1.25,1.06-2.59,2-3.84,3.09-8,6.92-17.46,7.82-27.43,6.61s-19.15-5.38-28.31-9.37-18.47-7.54-27.58-11.61c-11.15-5-20.22-12.4-24.79-24.09-1.92-4.93-2.84-10.24-4.25-15.37-2.82-10.27-8-19.45-13.47-28.43-7.33-11.94-15-23.69-22.31-35.62-8.12-13.2-10.69-27.61-9-42.93.5-4.48.69-9,.77-13.52.1-5.75,1.6-11.18,3-16.69,2-7.94,3.74-16,5.47-24,1.26-5.81,3.85-11,8.39-14.71C182,179.3,192,165.69,201.62,151.65a64.92,64.92,0,0,1,30.61-24.48c8.62-3.36,17.47-3.44,26.46-2.06,8.34,1.28,15.94,4.78,23.7,7.79a132.63,132.63,0,0,0,32.41,7.73c12.76,1.53,24.05,6.32,31.93,17.16,4.14,5.69,6.05,12.29,6.91,19.11,1.76,14,5.38,27.63,8.81,41.29C363.86,223.79,364.31,229.62,365.23,235.57ZM152.08,265.5c0,6,.05,11.92,1.54,17.76,2.24,8.79,6.58,16.64,11.22,24.29,6.59,10.87,13.68,21.43,20.28,32.29s12.05,21.89,14.58,34.35c1.49,7.33,5.5,13.35,10.83,18.49s11.64,8.38,18.18,11.34c8.4,3.8,17.05,7,25.41,10.94,7.16,3.34,14.4,6.35,22.11,8.05a47.78,47.78,0,0,0,10.33,1.34,29.24,29.24,0,0,0,21.88-9.18,31.74,31.74,0,0,1,18.84-9.59c3.84-.56,7.6-1.7,11.4-2.53,6-1.31,8.95-5.24,10.23-11.13q3-13.92,6.84-27.67c4.58-16.43,6-32.88,1.73-49.6a75.74,75.74,0,0,1-1.59-29.92c1.59-11,3.44-22,5-33,1.43-10,2.11-20.1-.65-30a351.17,351.17,0,0,1-9.7-46.12c-2.76-19.73-16.21-30.23-34.41-32.35-10.21-1.19-20.3-3-30-6.5-7-2.53-13.92-5.3-20.94-7.78-13.91-4.92-27.21-3.72-40,3.8a70,70,0,0,0-22.79,21.49c-9.24,13.66-19.4,26.46-32.1,37.14a24,24,0,0,0-7.91,13.38c-1.53,6.8-3,13.61-4.48,20.42-1.23,5.53-2.89,11-3.64,16.59C153.17,249.67,152.77,257.6,152.08,265.5Z" />
            <path class="france-cls-19" d="M153.91,265.93c.23-13.59,2.39-26.79,5.42-39.88,1.31-5.65,2.43-11.36,3.39-17.08A28.06,28.06,0,0,1,172,192.07c11.94-10.45,21.81-22.61,30.72-35.66a79,79,0,0,1,22.16-21.68c12.95-8.46,26.69-9.32,41-3.9,8.75,3.31,17.31,7.22,26.25,9.9,6.94,2.08,14.3,3,21.54,3.84,12.39,1.5,23.08,5.73,29.91,16.87,3.47,5.66,4.76,12,5.57,18.53,1.67,13.25,3.78,26.41,7.89,39.15,3.43,10.63,3.35,21.42,1.87,32.29-1.42,10.43-3.13,20.82-4.61,31.24a78.31,78.31,0,0,0,1.19,29.55c4.59,19,3.06,37.54-2.81,56-2.27,7.15-3.86,14.53-5.54,21.86-1.47,6.41-5.88,10.69-13,12-4,.74-8.1,1.27-12.12,2.05a28.38,28.38,0,0,0-13.47,7c-1.13,1-2.27,2-3.36,3-7.07,6.76-15.56,8.65-25,7.46a67.81,67.81,0,0,1-19.39-5.74c-12.15-5.46-24.41-10.69-36.48-16.31-11.92-5.55-20.58-14.28-23.87-27.32-4.14-16.42-13-30.42-21.78-44.54-6.32-10.14-12.44-20.41-18.3-30.83C155,287.3,153.23,276.76,153.91,265.93Zm1.64-.1a57.07,57.07,0,0,0,7,32.2c6.32,11.17,13,22.14,19.74,33.09,7.73,12.6,15.35,25.23,19.48,39.6,3.29,11.46,10.78,19.52,21.1,25,4.69,2.48,9.83,4.11,14.66,6.36,6.94,3.23,13.78,6.68,20.68,10,7.81,3.75,15.82,6.85,24.64,7.1,6,.17,11.74-.73,16.52-4.84,2.8-2.41,5.6-4.81,8.39-7.23a18.6,18.6,0,0,1,8.8-4.6c5.37-1,10.71-2.26,16.11-3.12,6.3-1,10.19-4.25,11.8-10.56q3.29-12.92,7.18-25.68c4.91-16.15,6.26-32.37,2.27-49a87.22,87.22,0,0,1-1.66-32c1.3-9.82,3-19.59,4.2-29.42,1.45-11.71,1-23.29-2.55-34.71a190.55,190.55,0,0,1-5.08-20.88c-1.36-7.18-1.94-14.51-3.17-21.71-1.13-6.63-3.56-12.76-8.26-17.81-6.34-6.81-14.48-9.55-23.44-10.44-9.41-.94-18.8-2-27.69-5.46-6.88-2.67-13.64-5.64-20.45-8.48-13.48-5.63-26.48-5-39,2.82a72.33,72.33,0,0,0-19.57,17.9c-4.25,5.62-8.33,11.36-12.61,17a152.61,152.61,0,0,1-20.37,21.64,29.59,29.59,0,0,0-9.9,17.7c-.88,5.12-1.75,10.25-3,15.27A182.74,182.74,0,0,0,155.55,265.83Z" />
            <path class="france-cls-20" d="M354.65,237.52a259,259,0,0,1-3.9,40.11,100,100,0,0,0,.37,32.47c1.07,6.54,2.27,13.08,3,19.66,1,9.26-.84,18.25-3.36,27.11-2.82,9.93-5.77,19.83-8.52,29.78-1.68,6.06-5.55,9.33-11.69,10.22-4.33.63-8.62,1.49-12.95,2.14a24.09,24.09,0,0,0-15,8.14c-8,9.21-17.94,10.7-29.11,8.06-6.71-1.59-12.8-4.7-19-7.7-9.33-4.55-18.83-8.77-28.19-13.25-7.77-3.72-14.77-8.52-19-16.27a116,116,0,0,1-5.5-12.79c-5.58-14-13.32-26.77-21.48-39.34-6.62-10.21-12.92-20.6-17.91-31.74-4.58-10.22-5.63-20.87-4.73-31.89a280.64,280.64,0,0,1,6.09-39.07c.86-3.8,1.65-7.62,2.18-11.47.94-6.92,4.36-12.45,9.24-17.18,8-7.72,15.77-15.57,22.43-24.49,4.62-6.19,9.23-12.4,14.13-18.37a63.44,63.44,0,0,1,18.73-15.44c10.73-5.87,21.74-6.26,33-1.6q11.84,4.9,23.7,9.75c7.31,3,15,3.93,22.79,4.82a88.13,88.13,0,0,1,13.08,2.39c9.52,2.6,15.17,9.31,18.37,18.35a80.79,80.79,0,0,1,3.83,19.48,180.88,180.88,0,0,0,7.1,34.5C353.89,229.1,354.19,234.65,354.65,237.52Zm-2.65,7.8A74.32,74.32,0,0,0,349.43,224a119.09,119.09,0,0,1-3.27-12.28c-1.75-10.17-3.13-20.41-4.75-30.6-.88-5.56-2.09-11-5.22-15.86-5.16-7.95-12.9-11.7-22-12.67a119.48,119.48,0,0,1-28.34-6.35c-7.18-2.61-14.43-5-21.2-8.72-12.88-7.07-25.42-6.32-37.28,2.6a108.28,108.28,0,0,0-21.37,22c-8.75,11.68-18,22.93-28.79,32.81A30.42,30.42,0,0,0,168,211.31c-1.9,8.74-4,17.46-5.44,26.28-1.4,8.28-2.26,16.66-3.14,25a62.53,62.53,0,0,0,3.22,27.88c3.07,8.63,7.62,16.48,12.34,24.25,6.5,10.69,13.28,21.21,19.45,32.07a235.7,235.7,0,0,1,12,24.22c4.2,9.89,11.53,16.25,20.85,20.77,12,5.8,24,11.6,36.05,17.24a56.84,56.84,0,0,0,10.4,3.7c9.72,2.39,18.47.86,25.4-7.07a22.94,22.94,0,0,1,11.14-7,120.18,120.18,0,0,1,14.61-3c5.27-.79,10.11-2.27,13-7.06a32.29,32.29,0,0,0,3.08-7.12c2.31-7.3,4.26-14.72,6.69-22a83.79,83.79,0,0,0,2.2-45.7,103.68,103.68,0,0,1-1-40C350.46,264.37,352,254.93,352,245.31Z" />
            <path class="france-cls-21" d="M350.76,245.92c-1.1,10.67-2.18,21.34-3.32,32a113.26,113.26,0,0,0,1.19,33.51A98.06,98.06,0,0,1,346,360.66c-2.38,7.42-4.65,14.88-6.91,22.34-2,6.57-6.5,9.77-13.18,10.49A128.21,128.21,0,0,0,313,395.55a25.73,25.73,0,0,0-14.77,8.69c-5.69,6.83-13.18,8.28-21.47,7.59-6.35-.53-11.94-3.31-17.53-6.07-11.27-5.57-22.57-11.09-33.79-16.77A38.89,38.89,0,0,1,207,369.87c-8-17.73-17.89-34.41-28.22-50.87a231.32,231.32,0,0,1-13.26-24.47c-4.51-9.59-5.42-20-4.84-30.49.73-13.14,3-26.05,5.67-38.92.78-3.81,1.54-7.64,2.12-11.49A28.91,28.91,0,0,1,177.07,197c12.18-11.89,22.88-25,33.25-38.47a77.68,77.68,0,0,1,21.44-19.19c10.48-6.35,21.13-6.12,32-1.16,5.59,2.56,11.13,5.24,16.73,7.78,9,4.1,18.74,5.41,28.41,6.92,5.67.89,11.41,1.58,16.57,4.38A25.8,25.8,0,0,1,338.58,175c1.57,7,2.33,14.15,3.62,21.2,1.59,8.74,3,17.52,5.15,26.13a94.57,94.57,0,0,1,2.89,23.54Zm-2.4,2.46c-.79-6.42-1.35-13-2.46-19.41-1.78-10.37-4-20.67-5.91-31-1.28-6.92-2.11-13.94-3.64-20.8s-4.83-12.49-10.83-16.35a33,33,0,0,0-13.89-4.67c-11-1.41-21.78-3.32-31.94-7.85-6.55-2.92-12.94-6.23-19.58-8.92-10.8-4.37-21.18-3.18-30.35,4.09a135.85,135.85,0,0,0-16,14.66c-12.21,13.38-24,27.15-36,40.73a29.72,29.72,0,0,0-7.27,14c-3.2,16.42-7,32.76-8,49.53-.43,7.25-.37,14.48,1.27,21.63,2.34,10.26,6.87,19.58,12.34,28.45,11.48,18.61,23.31,37,33,56.69A38,38,0,0,0,227,386.66q15,7.41,29.8,15.11c5.78,3,11.56,5.86,18,7.1,6.69,1.27,12.79.37,18.13-4.11,2-1.67,4-3.27,6-5A25.42,25.42,0,0,1,312,393.31c3.24-.51,6.47-1.13,9.73-1.53,9.38-1.15,13.74-4.84,16.35-13.86s5.29-17.83,7.86-26.76a70.47,70.47,0,0,0,1.77-32.05c-2.84-16.18-4.16-32.39-1.78-48.77C347,263.11,347.55,255.82,348.36,248.37Z" />
            <path class="france-cls-22" d="M345.48,252.79c-.56,7.39-1.09,15.79-1.85,24.16-1.24,13.73,0,27.28,2.15,40.85a74.81,74.81,0,0,1-2.1,32.71c-2.53,8.81-5.27,17.55-7.78,26.36-1.75,6.17-5.74,9.82-11.9,11.09-4.75,1-9.54,1.78-14.32,2.59a23,23,0,0,0-10.81,5.12c-2.55,2.07-5.18,4-7.73,6.1-4.23,3.45-9.07,4.21-14.3,3.43A46.63,46.63,0,0,1,262,400.05c-10.22-5.38-20.39-10.84-30.63-16.17a45.42,45.42,0,0,1-18.57-17.17c-11.26-18.83-22.64-37.59-33.82-56.46-8.71-14.72-12.65-30.69-11-47.76,1.51-16.05,3.33-32.09,6.79-47.87a31.15,31.15,0,0,1,7.39-14.42q16.88-18.76,33.77-37.51a108.89,108.89,0,0,1,17.93-15.59c9.41-6.67,19.31-6.92,29.55-2.44,6.13,2.68,12.06,5.81,18.2,8.48,8.64,3.77,17.82,5.66,27,7.51A80.82,80.82,0,0,1,320,163.73c8.2,3,12.76,9.27,14.44,17.54,1.71,8.44,2.9,17,4.35,25.47,1.74,10.11,3.65,20.18,5.23,30.32C344.8,241.91,345,246.85,345.48,252.79Zm-2.15,4c-.32-4.82-.31-9.1-.94-13.27-2-13.59-4.27-27.16-6.48-40.72-1.09-6.67-1.93-13.42-3.56-20-1.85-7.44-6.29-13.28-13.61-16.18-4.56-1.8-9.37-3-14.1-4.32-6.5-1.87-13.17-3.26-19.49-5.6-7.55-2.79-14.8-6.37-22.18-9.59-9.39-4.09-18.5-4.45-27.22,1.84a137.47,137.47,0,0,0-21.11,18.19c-10.14,11-20.16,22.17-30.25,33.23a33.59,33.59,0,0,0-8.71,17.13c-1.56,9.16-3.11,18.33-4.24,27.55a233.2,233.2,0,0,0-2.21,26.35c-.1,13.4,3.79,26,10.67,37.43,11.08,18.46,22.39,36.79,33.68,55.13a42.5,42.5,0,0,0,13.78,14.41c4.54,2.78,9.23,5.34,13.94,7.81,9.38,4.93,18.74,9.89,28.28,14.5a26.21,26.21,0,0,0,8.91,2c6.06.56,10.86-2.37,15.44-6,3.07-2.45,6.29-5.1,9.9-6.4A82.26,82.26,0,0,1,320,386.62c7.06-1,11.78-4.37,13.75-11.33,2.1-7.43,3.84-15,6.46-22.25,5-13.75,5.19-27.67,2.87-41.86a127.78,127.78,0,0,1-1.66-30.87C342,272.27,342.7,264.23,343.32,256.76Z" />
            <path class="france-cls-23" d="M340.72,258.53c-.29,10.87-1,21.74-.75,32.6.18,9.07,1.33,18.13,2.19,27.18a77.19,77.19,0,0,1-3.42,32c-2.6,7.85-4.94,15.8-7.15,23.77-1.73,6.22-5.86,9.42-11.93,10.71-4.88,1-9.86,1.83-14.55,3.46-3.8,1.32-7.27,3.66-10.81,5.68-1.59.91-3,2.19-4.5,3.22-6.93,4.62-14.3,4.8-21.44,1.07q-20.15-10.55-39.9-21.86c-6.9-4-11.75-10.19-15.89-16.88-10.51-17-21.07-33.91-31.33-51-6.87-11.46-9.71-24.09-9.84-37.43-.1-10.37,1.11-20.6,2.41-30.84.93-7.31,1.77-14.65,3-21.92a33.64,33.64,0,0,1,8.72-17.38c11.14-12.05,22.29-24.1,33.7-35.91A151.06,151.06,0,0,1,233,153c10-8.07,20.85-8.27,31.95-2.92,8.57,4.13,17.06,8.38,26.24,11,6.9,2,13.81,3.92,20.8,5.54,10.15,2.35,16.38,8.73,18.72,18.55,2.15,9,3.59,18.24,5.1,27.41,1.68,10.26,3.21,20.54,4.53,30.85.64,5,.64,10.09.93,15.14Zm-1.89-2.3c-.19-2.89-.32-8.44-1-13.92-1.29-10.65-2.68-21.31-4.42-31.89-1.41-8.55-3-17.11-5.25-25.48a19.91,19.91,0,0,0-12.67-14.11,100.13,100.13,0,0,0-9.75-3.14c-14.54-3.74-28.69-8.48-42.09-15.35-9.7-5-19.24-4.52-28,2.2a199.34,199.34,0,0,0-18,15.24c-9.53,9.33-18.49,19.23-27.89,28.69-6.81,6.86-11.2,14.89-12.29,24.44-1.65,14.46-3.24,28.94-4.22,43.46-1.06,15.72,2.21,30.7,10.54,44.19,10,16.23,20.39,32.24,30.71,48.27a56.54,56.54,0,0,0,20.18,18.58c8.15,4.61,16.19,9.42,24.41,13.9a91.4,91.4,0,0,0,12.33,5.47,17.39,17.39,0,0,0,16.46-1.86c1.59-1.07,3.28-2,4.86-3.07a42.13,42.13,0,0,1,17.89-7.29c2.43-.36,4.84-.91,7.24-1.47,6.52-1.51,10.36-5.65,12-12.09,1.35-5.3,2.49-10.7,4.47-15.77,6.07-15.6,7.09-31.57,4.8-48A146.08,146.08,0,0,1,338,287.37C338,277.87,338.47,268.37,338.83,256.23Z" />
            <path class="france-cls-24" d="M337.15,272.77c-.88,13.78.34,27.45,1.6,41.15,1,10.47.29,20.84-3.26,31-2.77,7.91-5,16-7.14,24.15-1.78,6.64-5.79,10.49-12.47,12.12-6,1.45-11.83,3.26-17.63,5.26a26.62,26.62,0,0,0-6.53,3.83c-7.35,5.27-15.09,5.82-23,1.74s-15.8-8.41-23.52-12.92c-5.19-3-10.11-6.52-15.09-9.89-8.25-5.58-13.76-13.63-19.06-21.78q-11.13-17.1-21.83-34.47c-8.59-14-11.92-29.39-11-45.73.73-13,1.43-26.07,2.31-39.1.66-9.81,3.61-18.73,10.72-26,11.84-12,23.35-24.43,36.58-35,3.52-2.82,7.29-5.32,10.9-8,7.62-5.72,15.92-6.14,24.51-2.92,5.49,2.06,10.69,4.91,16.21,6.89,8,2.86,16.1,5.23,24.14,7.87a85.35,85.35,0,0,1,11.16,4C323,179,327.17,186.19,329.17,195c2.49,11,3.59,22.12,4.89,33.26.71,6,1.94,12,2.4,18.09.66,8.78.82,17.6,1.2,26.4Zm-2-1.89c0-5.26.45-10.56-.08-15.77q-2.36-23.15-5.4-46.23c-1.11-8.4-2.63-16.75-7.43-24.1-1.86-2.85-4-5.31-7.1-6.56-4.74-1.92-9.61-3.48-14.42-5.23-11.93-4.36-23.89-8.66-35.77-13.16-9.12-3.46-17.8-3.25-26,2.34a86.24,86.24,0,0,0-9.58,7c-11.76,10.64-23.3,21.53-35.05,32.19-8,7.25-11.61,16.36-12.14,26.9-.35,7-.57,13.93-.86,20.9-.39,9.56-1.16,19.11-1.09,28.67a62.37,62.37,0,0,0,8.36,30.76c5.61,9.77,11.75,19.24,17.81,28.75,3,4.67,6.28,9.12,9.46,13.66,5.12,7.3,11.15,13.65,18.87,18.27C245.94,376,257,383,268.44,389.52c6.35,3.61,13.07,3.46,19.57-.29a44.31,44.31,0,0,1,7.39-3.53q10.16-3.55,20.45-6.71c5.55-1.69,8.94-5.3,9.91-10.9,1.53-8.82,4.63-17.15,7.58-25.52a66.48,66.48,0,0,0,3.48-29.5A288.86,288.86,0,0,1,335.11,270.88Z" />
            <path class="france-cls-25" d="M184.23,255.64c0-8.14,0-16.27,0-24.41-.06-12.1,4.21-22.27,13.31-30.35,3.17-2.82,6.2-5.8,9.43-8.54,8.25-7,16.46-14,24.92-20.73,3.62-2.87,7.78-5.07,11.74-7.5,6.37-3.9,13.15-3.95,20-1.59,15,5.18,29.9,10.52,44.84,15.82,1.61.57,3.13,1.36,4.72,2,6,2.39,9.51,6.91,11.4,12.9a127.64,127.64,0,0,1,5.52,27.49c.74,8.51,1.86,17,2.74,25.49a209.55,209.55,0,0,1,.91,30.73c-.46,10.41.61,20.76,1.7,31.1,1.37,13,0,25.55-5.18,37.77-2.63,6.24-4.16,13-5.6,19.66-1.52,7.06-4.56,10.86-11.55,12.44a108.49,108.49,0,0,0-23.63,8.71c-7.78,3.81-15.25,3.87-22.74-.31a293.64,293.64,0,0,1-37.29-24.22c-4.67-3.63-8.59-8.44-12.2-13.2a314.39,314.39,0,0,1-24.89-37.84,75.52,75.52,0,0,1-9.14-41.69c.26-4.58.43-9.16.64-13.74Zm147,16.09.73,0c-.4-8.53-.6-17.08-1.24-25.59-.59-7.83-1.69-15.63-2.51-23.44-.87-8.3-1.63-16.6-4-24.65a24.77,24.77,0,0,0-16.42-17.21c-14.07-4.89-28.11-9.85-42.24-14.53-7.45-2.46-15-2.54-22,1.5a76.58,76.58,0,0,0-8.52,5.31q-15,11.41-29.83,23.11a95.7,95.7,0,0,0-9.15,8.52c-7.31,7.55-9.93,16.81-10,27.14-.14,12.3-.59,24.6-1.12,36.89-.64,14.93,1.88,29.11,9.14,42.33,6.64,12.08,14.56,23.29,22.81,34.29,5.11,6.82,10.76,13.14,18,17.85,10.06,6.59,20.14,13.17,30.3,19.6a24.39,24.39,0,0,0,20.86,2.65c9-3.11,17.88-6.41,26.87-9.48,5.45-1.86,8.63-5.73,9.34-11.16a86.72,86.72,0,0,1,6.57-23.21,63,63,0,0,0,5.16-30.19C332.75,298.2,332,285,331.2,271.73Z" />
            <path class="france-cls-26" d="M189.86,275.59c.47-6.27,1.23-12.54,1.34-18.82a189,189,0,0,0-.68-20.45c-1.23-13.34,2.52-24.47,13-33.22a267.32,267.32,0,0,1,40.75-27.53c7.7-4.31,16.21-4.76,24.53-2.34,12.2,3.55,24.15,7.94,36.33,11.54,11.55,3.42,16.93,11.85,19,22.74,1.5,8,2.07,16.12,2.8,24.21,1,11,1.86,22.07,2.55,33.13.93,14.87,1.5,29.77,2.47,44.64a60.49,60.49,0,0,1-6.46,31.95,63.79,63.79,0,0,0-5.81,20.23c-.91,6.57-4.09,11-10.91,12.76-7.6,2-15.05,4.54-22.53,7-7,2.27-13.73,1.54-19.68-2.42q-18.77-12.5-37-25.79c-3.42-2.49-6.2-6-8.87-9.34-8.45-10.6-16.3-21.6-22.58-33.68A73.14,73.14,0,0,1,189.86,275.59Zm1.76-3.37c-.13,16.67,2.7,29.66,10,41.36,5,8.05,10.43,15.87,16,23.59,3.78,5.27,7.87,10.37,13.21,14.24,10.68,7.75,21.29,15.62,32.14,23.12,6.63,4.59,14,6.77,22.18,4.36,7.48-2.21,14.89-4.65,22.43-6.61,5.9-1.54,8.74-5.23,9.76-11,1.82-10.2,4.46-20.15,9.24-29.44,3-5.86,3.85-12.24,3.5-18.75-.5-9.22-1.2-18.43-1.74-27.64s-.92-18.3-1.49-27.44c-.72-11.53-1.38-23.08-2.4-34.58a109.09,109.09,0,0,0-2.79-17.56c-1.87-7.27-5.4-13.64-13.05-16.56-1.91-.73-3.73-1.74-5.67-2.37-10.13-3.29-20.22-6.76-30.47-9.66-9.24-2.61-18.62-2.65-27.43,1.82a234.85,234.85,0,0,0-37.93,23.59C200.46,207.8,195,213.79,193,222.28c-1.4,6-.78,11.94-.44,18,.32,5.65.48,11.33.27,17C192.62,263.22,191.88,269.2,191.62,272.22Z" />
            <path class="france-cls-27" d="M327.33,311.06c0,8.85-1.37,17.29-5.62,25.17-3.79,7-5.21,14.79-6.91,22.47-.31,1.4-.48,2.84-.87,4.21-1.07,3.82-3.42,6.73-7.27,7.71-9,2.3-18,4.54-27.12,6.32-5.91,1.16-11.39-.91-16.23-4.33-9.48-6.73-19-13.45-28.28-20.41-13.14-9.82-22.21-23.1-30.52-36.93a73.8,73.8,0,0,1-9.41-25c-1.55-8.52-1.14-17-.07-25.54a98.61,98.61,0,0,0,0-27c-1.86-12.52,1.6-22.83,11.85-30.58,2-1.53,4-3.14,6.09-4.53a196.74,196.74,0,0,1,35.21-18.41,39,39,0,0,1,24.39-1.51c9.66,2.44,19.23,5.3,28.75,8.25,10.15,3.13,16.11,10.43,18.27,20.56a133.18,133.18,0,0,1,2.13,18.29c1.55,21.75,2.93,43.52,4.41,65.28C326.46,300.44,326.92,305.75,327.33,311.06Zm-2-.59c-.16-2.66-.25-5.33-.51-8-1-10.07-2.31-20.11-3-30.2-1-15.15-1.35-30.33-2.26-45.49a82.15,82.15,0,0,0-2.33-15.36c-2.23-8.7-7.62-15-16.34-17.75q-12.29-3.95-24.76-7.34a41.87,41.87,0,0,0-29.05,2.27c-3.86,1.74-7.84,3.24-11.69,5-9.25,4.26-18.55,8.44-26.75,14.66-9.17,7-13.33,16-11.9,27.51,1.27,10.3.72,20.6-.46,30.88s-.88,20.48,1.92,30.52A83,83,0,0,0,210,321.47c6.94,10.22,14.31,20.09,24.33,27.56q13.9,10.36,28,20.43c4.54,3.26,9.71,5.68,15.31,4.78,9.36-1.51,18.63-3.62,27.85-5.86,1.88-.46,3.8-2.31,4.9-4a19.08,19.08,0,0,0,2.67-7.23,83.69,83.69,0,0,1,7.71-24.78A47.2,47.2,0,0,0,325.32,310.47Z" />
            <path class="france-cls-28" d="M323.48,306.91a57.66,57.66,0,0,1-5.89,27.64c-3.4,6.77-5.22,14.1-6.48,21.53-1,5.82-3.7,9.66-9.68,11.34a135.1,135.1,0,0,1-24.21,4.17,19.77,19.77,0,0,1-13.28-3.47C251.27,359.19,238,350.88,227,340c-11.33-11.18-20.41-24.1-25.66-39.35-3.84-11.14-4.39-22.63-3-34.22a126.19,126.19,0,0,0,.52-30.68c-1.47-12.16,3.56-20.88,13.35-27.45,7.2-4.84,15.1-8.29,23.09-11.52,5.57-2.25,11.18-4.45,16.88-6.37,7.4-2.5,15-2.47,22.72-1.47,8.67,1.13,16.75,4.21,24.93,7,10.12,3.46,15.26,11.19,16.84,21.15,1.16,7.32,1,14.84,1.46,22.27.82,14.4,1.44,28.81,2.49,43.19C321.22,290.65,322.51,298.77,323.48,306.91ZM316,247.42c0-6.43.13-12.86-.05-19.28a53.29,53.29,0,0,0-1.16-10.37c-2.31-10.08-7.82-17.52-18.18-20.53-5.64-1.64-11.26-3.41-17-4.73-8.53-2-17.15-2.1-25.49.88-10.55,3.77-21,7.78-31.48,11.82a43.15,43.15,0,0,0-13.21,8.15c-5.57,5-9,11-8.53,18.71.9,13.43-.25,26.77-1.38,40.13a67.4,67.4,0,0,0,1.3,21.81c4.17,17.11,13.69,31.14,25.83,43.32,10.79,10.82,23.49,19.42,36.31,27.7,4.39,2.83,9.27,4.45,14.61,3.79,7-.88,14-1.85,20.93-2.85a11.31,11.31,0,0,0,9-6.4,43.35,43.35,0,0,0,2.15-6.16c2.4-7.61,4.24-15.46,7.28-22.8a56.47,56.47,0,0,0,4.1-27.87c-.65-6.32-1.6-12.61-2.53-18.89A271.64,271.64,0,0,1,316,247.42Z" />
            <path class="france-cls-29" d="M312.32,246.22c-.3,17.25,1.87,34.21,5,51.13,1.92,10.27,2.57,20.63-1.3,30.75-1.95,5.1-3.74,10.27-5.44,15.47-1.08,3.31-1.92,6.7-2.77,10.08-1.51,6-5.21,9.82-11.38,10.55-7,.84-14.15,1.31-21.23,1.77a18,18,0,0,1-11.4-3.45c-11.51-7.87-23.32-15.46-33.27-25.3-12.19-12-21.41-26-25.22-43.11-1.84-8.26-1.44-16.53-.6-24.87,1.09-10.81,2.11-21.63,2.59-32.48.53-11.81,7-18.94,17.2-23.23,6-2.54,12.35-4.41,18.57-6.49,5.44-1.81,10.87-3.72,16.42-5.18,12.16-3.2,24-1.69,35.47,3.17,5.26,2.22,10,4.94,13.18,9.94a28.26,28.26,0,0,1,4.09,14.43C312.47,235,312.32,240.61,312.32,246.22Zm-1.53.95c-.12-4-.12-11-.6-18.06-.59-8.69-4-16.11-12.17-20a74.23,74.23,0,0,0-16.09-5.36,43.9,43.9,0,0,0-23.1,1.32c-11.26,3.6-22.59,7.05-33.62,11.28-9,3.43-14.59,10-15.47,20.13-.92,10.55-2.11,21.07-3.35,31.59-1,8.13-1.33,16.22.19,24.31,3.06,16.21,11.27,29.68,22.62,41.29,9.81,10,21.58,17.65,33,25.61,4.23,2.94,8.93,4.69,14.27,4.19s10.91-.8,16.37-1.25c8.05-.67,11.89-3.89,14.08-11.68,1.56-5.53,3.06-11.08,4.74-16.56,1.3-4.24,3.17-8.33,4.23-12.63,2-8.07.95-16.21-.58-24.22C312.38,281.58,310.2,266,310.79,247.16Z" />
            <path class="france-cls-30" d="M308.19,249.84a220.7,220.7,0,0,0,4.23,43.39c1.49,7.79,3.2,15.64,1.91,23.59a115,115,0,0,1-3.67,13.83c-1.85,6.29-3.8,12.56-5.77,18.82-2.11,6.71-6.65,10-13.76,10-4.51,0-9,.43-13.51.83a22.22,22.22,0,0,1-14.16-3.08c-14.56-9.07-28.59-18.83-39.48-32.34-7.61-9.44-13.11-20-15.34-32-1.62-8.78-1.25-17.56,0-26.34,1.29-9.41,2.76-18.8,3.81-28.23,1-8.9,5.19-15.44,13.5-18.77,7.72-3.1,15.6-5.88,23.56-8.31a146.6,146.6,0,0,1,19.92-4.68,43.89,43.89,0,0,1,13.48.1A35,35,0,0,1,301.19,215c4.73,4.27,6.63,9.87,6.93,15.95C308.43,237.26,308.19,243.56,308.19,249.84Zm-1.32.92c-.23-6.62-.17-13.27-.78-19.86-.81-8.72-5.26-15-13.56-18.46a47.27,47.27,0,0,0-27.36-2.69c-12.81,2.45-24.95,7.12-37.07,11.79-6.95,2.67-11.26,7.68-12.71,14.92-1.67,8.37-3.24,16.77-4.49,25.2A129.65,129.65,0,0,0,209,281c.06,17.12,6.43,32,17.59,44.81,10.26,11.76,22.77,20.82,36.09,28.81a21.5,21.5,0,0,0,12.92,3.19c5.52-.4,11.06-.54,16.59-.86,5.31-.31,9.11-2.86,10.78-8,2.92-9,5.86-17.93,8.49-27,2.43-8.36,1.44-16.84-.19-25.2C308.32,281.57,306.18,266.31,306.87,250.76Z" />
            <path class="france-cls-31" d="M304.53,248.51A249.77,249.77,0,0,0,309.68,297c2,10.2,2,20.38-1.33,30.41-1.87,5.71-3.45,11.53-5.33,17.24-2.35,7.13-5.95,9.82-13.37,10.24-4.78.27-9.56.42-14.34.7a24.35,24.35,0,0,1-14.22-3.91c-13.61-8.21-26.3-17.58-36.14-30.26-11.91-15.35-16.79-32.69-13.49-52q2.8-16.35,6.4-32.56c1.39-6.26,5.53-10.4,11.61-12.83,11.07-4.41,22.17-8.65,33.87-11.11,9.4-2,18.68-2.25,27.81,1.52,7.9,3.26,12.49,9.09,13.28,17.47C304.95,237.4,304.53,243,304.53,248.51Zm-.92,4.94c-.39-7-.52-13.93-1.25-20.85-.55-5.21-2.55-10.13-7.24-13-7.33-4.53-15.32-6.9-24-5.33a181.32,181.32,0,0,0-39.54,12c-6.17,2.65-10.25,7-12,13.37-3.09,11.27-5.91,22.6-7.11,34.26-1.9,18.56,3.55,34.83,15.55,49,7.59,8.94,16.78,16,26.45,22.56,4.9,3.3,9.94,6.81,15.89,7.2a143.22,143.22,0,0,0,21.65-.54c2.25-.19,4.81-1.91,6.36-3.69a23.61,23.61,0,0,0,4-7.7c1.69-4.83,2.82-9.86,4.43-14.72,3.13-9.43,3.08-18.93,1.17-28.54C305.08,282.92,303.18,268.3,303.61,253.45Z" />
            <path class="france-cls-32" d="M301.63,250.13a239,239,0,0,0,4.87,45.79c2.79,13,1,25.56-3,38-.94,2.92-2.06,5.79-3.15,8.67a12.06,12.06,0,0,1-9.91,7.93c-13.08,2.19-25.42,1.31-36.72-7-10.64-7.81-21-15.73-28.8-26.58a59.57,59.57,0,0,1-11.27-42c1.2-11.9,4.25-23.37,7.88-34.7a19.93,19.93,0,0,1,11.18-12.22,152,152,0,0,1,38.35-11.63,31.21,31.21,0,0,1,17.58,1.92c8.48,3.56,12.52,9.8,12.94,18.66C301.8,241.37,301.63,245.75,301.63,250.13Zm-23.24,98.49c3.07,0,5.53.09,8,0,5.76-.26,10.51-2.49,12.77-8,5.62-13.82,8.9-28.05,5.92-43a263,263,0,0,1-4.88-50.1,91.61,91.61,0,0,0-.69-11.25c-1.77-13.66-13-18.05-22-17.45-14.95,1-29.13,5.16-42.7,11.57a21.39,21.39,0,0,0-11.84,13.17c-2.4,7.46-4.7,15-6.48,22.61-2.81,12-2.55,24,1.83,35.69,3.52,9.41,9.3,17.29,16.35,24.31a121.47,121.47,0,0,0,24.61,18.66A29.35,29.35,0,0,0,278.39,348.62Z" />
            <path class="france-cls-33" d="M278.79,345.74A32.59,32.59,0,0,1,258.37,341c-11.18-6.68-21.3-14.62-29.27-25.07-10.41-13.66-13.65-28.9-10.26-45.68a106.81,106.81,0,0,1,7.85-24.32,23.3,23.3,0,0,1,10.23-11.13A103.94,103.94,0,0,1,275.5,223a23.11,23.11,0,0,1,10.29,1.15,17,17,0,0,1,11.64,13.39,50.1,50.1,0,0,1,1.2,9.75,263.56,263.56,0,0,0,4.77,49.32c2.5,12.9.74,25.46-3.6,37.73a30.77,30.77,0,0,1-2.41,5,11,11,0,0,1-9,5.68C285.2,345.26,282,345.48,278.79,345.74ZM219,282.19c-.29,10.89,2.77,19.48,7.59,27.55,5.74,9.6,14.05,16.67,22.85,23.28,5.33,4,10.84,7.67,17.41,9.34,6,1.52,12.07,1.14,18.16.68,6.31-.48,10.62-3.56,13.06-9.35,2.9-6.89,4-14.17,4.86-21.53.74-6.69-1-13.18-1.75-19.76-1.24-11.47-2.51-22.95-3.65-34.43-.54-5.44-.58-10.93-1.24-16.36s-2.8-10.44-7.84-13.54a19.07,19.07,0,0,0-11.62-2.63c-13.61,1-26.16,5.5-38.16,11.72a21.84,21.84,0,0,0-9.49,9.39C223.07,258.14,218.89,270.26,219,282.19Z" />
            <path class="france-cls-34" d="M301.25,307.06a72.24,72.24,0,0,1-3.3,20.82c-2.23,7.07-7,10.82-14.36,11.45-9.44.79-18.61.37-26.84-5.1-7.36-4.9-14.45-10.14-20.51-16.64a53.44,53.44,0,0,1-11.38-18.12,46.19,46.19,0,0,1-1.56-25.86c1.95-9.28,5.49-17.88,11.6-25.29A31.83,31.83,0,0,1,246.2,240c9.06-4.31,18.37-7.88,28.39-9.16,11.46-1.46,18.54,3.9,20,15.32.94,7.39,1.25,14.85,2.09,22.25,1,9,2.35,18,3.47,27C300.62,299.31,300.88,303.19,301.25,307.06ZM275.87,336.8l7-.51c6.22-.43,10.76-3.41,13.3-9.11a46.73,46.73,0,0,0,2.59-7.76c2-8.19,1.06-16.46.19-24.67q-1.93-18.23-4.36-36.4a102.15,102.15,0,0,0-3.3-16.42c-1.83-5.93-6.33-9.36-12.69-9.61a26.56,26.56,0,0,0-7.49.84c-11,2.8-21.2,7.62-31.05,13.16a15.29,15.29,0,0,0-4.16,4.13,73.43,73.43,0,0,0-4.32,6.48c-9.19,14.9-11.55,30.37-3.6,46.56,5.46,11.12,14.05,19.41,24.34,26C259.44,334.16,266.93,337.86,275.87,336.8Z" />
            <path class="france-cls-35" d="M299.17,309c-.43,3.29-.6,7.78-1.66,12-2.52,10.17-8.42,14-18.87,14.89-13.23,1.09-23.61-4.41-33.17-12.46-7.83-6.6-14.37-14.19-18.17-23.91-6.08-15.59-2.91-29.67,6.37-43a35.41,35.41,0,0,1,13.57-12.12c7.36-3.64,14.64-7.47,22.6-9.62a24.65,24.65,0,0,1,7.89-.88c7.6.5,12.16,4.55,14,13,1.36,6.32,2,12.81,2.79,19.24q1.7,13.41,3.19,26.85C298.25,298,298.61,302.92,299.17,309Zm-24.36,24.77c1.7-.12,3.41-.19,5.11-.37,9.06-.95,13.16-4.38,15.65-13.14,2.23-7.83,2.27-15.78,1.35-23.79-1.07-9.36-2-18.73-3.18-28.08-.79-6.37-1.49-12.78-2.87-19-2.08-9.36-8.11-13.23-17.55-11.61-9.26,1.59-17.79,5.24-26,9.69a38.94,38.94,0,0,0-16.82,17.14c-6.4,12.85-7.16,25.84-.28,38.74,5.62,10.55,14.2,18.27,24.34,24.36C260.77,331.48,267.23,334.52,274.81,333.82Z" />
            <path class="france-cls-36" d="M296.41,304.34c-.06,6-.68,11.89-3.08,17.46-1.79,4.16-4.83,7-9.37,7.78-8.56,1.53-17.07,2.36-25.18-2.09a71.74,71.74,0,0,1-19.5-15.14c-4.87-5.48-8.67-11.62-10.33-18.87-3.34-14.62,3-30.53,15.89-39.22A85.1,85.1,0,0,1,273,242.21a17.73,17.73,0,0,1,5.48-.38c5.85.47,9.73,3.59,11.19,9.75a189.18,189.18,0,0,1,3.27,18.73c1.22,9.27,2.14,18.58,3.14,27.88C296.27,300.24,296.3,302.3,296.41,304.34ZM295,305.67c-.2-3.5-.28-7-.62-10.44-.66-6.66-1.33-13.32-2.28-19.94-1-6.88-1.84-13.84-3.58-20.54-2.16-8.34-7.72-11.29-16.09-9.33a82.27,82.27,0,0,0-26.73,11.67,34.56,34.56,0,0,0-10.83,11c-6.83,11.4-7.77,23-.9,34.73,5.43,9.26,13.36,16,22.59,21.24a33.3,33.3,0,0,0,21.74,4.08c9-1.26,13.29-5,15.35-13.78C294.35,311.53,294.58,308.58,295,305.67Z" />
            <path class="france-cls-37" d="M271.92,326.9c-8.5.6-15.22-3.78-21.71-8.32a41.84,41.84,0,0,1-16.31-21.31,27.6,27.6,0,0,1,9-30.12,77.35,77.35,0,0,1,27.94-13.84,23.24,23.24,0,0,1,3.64-.62c5.82-.57,9.93,1.5,11.7,7.11a137.43,137.43,0,0,1,4.22,18.74,201,201,0,0,1,2.63,21.75A65,65,0,0,1,292,315.76c-1.18,6.31-6.94,10.48-14.12,11.12C275.92,327.05,273.93,326.9,271.92,326.9Zm20.23-22.18c-.48-5.37-.78-9.6-1.24-13.81-1-8.9-2.21-17.78-5-26.33-2.39-7.43-6.43-9.9-14-8.36A64.35,64.35,0,0,0,243,270.16c-9.89,8.3-11.91,21.2-5.54,32.44A42.22,42.22,0,0,0,248,314.82c8.42,6.72,17.62,11.18,28.84,9.66,6.3-.85,11.34-3.57,13.44-9.82C291.44,311.16,291.68,307.34,292.15,304.72Z" />
            <path class="france-cls-38" d="M290.43,303.14c-.36,2.59-.53,5.4-1.16,8.11-1.24,5.33-4.63,8.64-10,10-8.29,2.13-16,.65-23.25-3.62-8.12-4.8-14.62-11.14-17.25-20.5-2.34-8.32-.16-15.62,6.36-21.33,7.62-6.68,16.67-10.65,26.48-12.87,5.79-1.31,9.89.86,12.27,6.31,2.75,6.31,4,13,5,19.81C289.46,293.66,289.88,298.28,290.43,303.14Zm-1.6-.83c-.31-3.78-.46-6.51-.77-9.22-.86-7.43-2.26-14.73-5.57-21.52-2.47-5.07-5.7-6.78-11.14-5.71a55.15,55.15,0,0,0-25.31,12c-5.86,4.93-7.75,11.38-6,18.84,1.45,6.33,5.51,10.86,10.3,14.89,8,6.7,16.93,9.82,27.37,7.65A12.22,12.22,0,0,0,287.6,310,61.74,61.74,0,0,0,288.82,302.31Z" />
            <path class="france-cls-39" d="M286.88,301c-.16,1.74-.25,3.38-.47,5-.7,5-4.2,8.63-9.59,9.95-11,2.69-25.78-6.1-28.6-17.09-1.16-4.5-.49-8.65,2.78-12.2a34.07,34.07,0,0,1,21.74-10.76c4.54-.54,7.8,2,9.36,5.88a130.61,130.61,0,0,1,4.3,14.44A28.52,28.52,0,0,1,286.88,301Zm-1.72-.35a40.82,40.82,0,0,0-3.64-15.85c-2.65-5.14-6-6.88-11.7-6-6.25.94-11.43,4-16,8.25-5.27,4.95-5.84,10.63-1.61,16.49a24.19,24.19,0,0,0,17,10.27C279.45,315.08,285.25,310.23,285.15,300.61Z" />
            <path class="france-cls-40" d="M284,299.3c-.08,3.78-.47,6.77-2.74,8.92a12,12,0,0,1-4.8,2.92c-7.42,2-16.95-2.71-20.1-9.7-1.73-3.84-1.48-7.38,1.38-10.67,4.14-4.76,9.19-7.42,15.6-7.27a8.16,8.16,0,0,1,7.23,4.29A24.85,24.85,0,0,1,284,299.3Zm-2-.06.56-.2a89.14,89.14,0,0,0-3.28-9.12,7,7,0,0,0-6.75-3.9,16.36,16.36,0,0,0-12.6,5.9,7.82,7.82,0,0,0-.78,9.86c3.05,4.84,7.45,7.52,13.28,7.47C278.67,309.2,282.16,305.5,282,299.25Z" />
            <path class="france-cls-41" d="M280.68,298.77c1,6.57-5.4,10.36-10.33,9-4.7-1.27-9-3.09-10.35-8.46a6.86,6.86,0,0,1,1.62-6.67,14.57,14.57,0,0,1,8.64-4.71c6.38-1.07,10,4.44,10.41,9.51A12.89,12.89,0,0,1,280.68,298.77Zm-2,.15c.09-6.27-4.92-10-10.65-7.95-5.21,1.87-7.35,7.4-4.1,11a10.62,10.62,0,0,0,7.71,3.72A6.45,6.45,0,0,0,278.68,298.92Z" />
        </g>
    </g>
</svg>