<svg xmlns="http://www.w3.org/2000/svg" xmlns:xlink="http://www.w3.org/1999/xlink" viewBox="0 0 523.54 549.71">
    <defs>
        <style>.indonesia-cls-1{fill:url(#Dégradé_sans_nom_50);}.indonesia-cls-2{fill:url(#Dégradé_sans_nom_50-2);}.indonesia-cls-3{fill:url(#Dégradé_sans_nom_50-3);}.indonesia-cls-4{fill:url(#Dégradé_sans_nom_50-4);}.indonesia-cls-5{fill:url(#Dégradé_sans_nom_50-5);}.indonesia-cls-6{fill:url(#Dégradé_sans_nom_50-6);}.indonesia-cls-7{fill:url(#Dégradé_sans_nom_50-7);}.indonesia-cls-8{fill:url(#Dégradé_sans_nom_50-8);}.indonesia-cls-9{fill:url(#Dégradé_sans_nom_50-9);}.indonesia-cls-10{fill:url(#Dégradé_sans_nom_50-10);}.indonesia-cls-11{fill:url(#Dégradé_sans_nom_50-11);}.indonesia-cls-12{fill:url(#Dégradé_sans_nom_50-12);}.indonesia-cls-13{fill:url(#Dégradé_sans_nom_50-13);}.indonesia-cls-14{fill:url(#Dégradé_sans_nom_50-14);}.indonesia-cls-15{fill:url(#Dégradé_sans_nom_50-15);}.indonesia-cls-16{fill:url(#Dégradé_sans_nom_50-16);}.indonesia-cls-17{fill:url(#Dégradé_sans_nom_50-17);}.indonesia-cls-18{fill:url(#Dégradé_sans_nom_50-18);}.indonesia-cls-19{fill:url(#Dégradé_sans_nom_50-19);}.indonesia-cls-20{fill:url(#Dégradé_sans_nom_50-20);}.indonesia-cls-21{fill:url(#Dégradé_sans_nom_50-21);}.indonesia-cls-22{fill:url(#Dégradé_sans_nom_50-22);}.indonesia-cls-23{fill:url(#Dégradé_sans_nom_50-23);}.indonesia-cls-24{fill:url(#Dégradé_sans_nom_50-24);}.indonesia-cls-25{fill:url(#Dégradé_sans_nom_50-25);}.indonesia-cls-26{fill:url(#Dégradé_sans_nom_50-26);}.indonesia-cls-27{fill:url(#Dégradé_sans_nom_50-27);}.indonesia-cls-28{fill:url(#Dégradé_sans_nom_50-28);}.indonesia-cls-29{fill:url(#Dégradé_sans_nom_50-29);}.indonesia-cls-30{fill:url(#Dégradé_sans_nom_50-30);}.indonesia-cls-31{fill:url(#Dégradé_sans_nom_50-31);}.indonesia-cls-32{fill:url(#Dégradé_sans_nom_50-32);}.indonesia-cls-33{fill:url(#Dégradé_sans_nom_50-33);}.indonesia-cls-34{fill:url(#Dégradé_sans_nom_50-34);}.indonesia-cls-35{fill:url(#Dégradé_sans_nom_50-35);}.indonesia-cls-36{fill:url(#Dégradé_sans_nom_50-36);}.indonesia-cls-37{fill:url(#Dégradé_sans_nom_50-37);}.indonesia-cls-38{fill:url(#Dégradé_sans_nom_50-38);}.indonesia-cls-39{fill:url(#Dégradé_sans_nom_50-39);}.indonesia-cls-40{fill:url(#Dégradé_sans_nom_50-40);}.indonesia-cls-41{fill:url(#Dégradé_sans_nom_50-41);}.indonesia-cls-42{fill:url(#Dégradé_sans_nom_50-42);}</style>
        <linearGradient id="Dégradé_sans_nom_50" x1="261.77" y1="-19.71" x2="261.77" y2="314.96" gradientUnits="userSpaceOnUse">
            <stop offset="0" stop-color="#4728a6" />
            <stop offset="1" stop-color="#683aa8" />
        </linearGradient>
        <linearGradient id="Dégradé_sans_nom_50-2" x1="261.38" y1="-19.71" x2="261.38" y2="314.96" xlink:href="#Dégradé_sans_nom_50" />
        <linearGradient id="Dégradé_sans_nom_50-3" x1="259.67" y1="-19.71" x2="259.67" y2="314.96" xlink:href="#Dégradé_sans_nom_50" />
        <linearGradient id="Dégradé_sans_nom_50-4" x1="257.08" y1="-19.71" x2="257.08" y2="314.96" xlink:href="#Dégradé_sans_nom_50" />
        <linearGradient id="Dégradé_sans_nom_50-5" x1="253.47" y1="-19.71" x2="253.47" y2="314.96" xlink:href="#Dégradé_sans_nom_50" />
        <linearGradient id="Dégradé_sans_nom_50-6" x1="252.07" y1="-19.71" x2="252.07" y2="314.96" xlink:href="#Dégradé_sans_nom_50" />
        <linearGradient id="Dégradé_sans_nom_50-7" x1="249.3" y1="-19.71" x2="249.3" y2="314.96" xlink:href="#Dégradé_sans_nom_50" />
        <linearGradient id="Dégradé_sans_nom_50-8" x1="248.61" y1="-19.71" x2="248.61" y2="314.96" xlink:href="#Dégradé_sans_nom_50" />
        <linearGradient id="Dégradé_sans_nom_50-9" x1="248.58" y1="-19.71" x2="248.58" y2="314.96" xlink:href="#Dégradé_sans_nom_50" />
        <linearGradient id="Dégradé_sans_nom_50-10" x1="249.1" y1="-19.71" x2="249.1" y2="314.96" xlink:href="#Dégradé_sans_nom_50" />
        <linearGradient id="Dégradé_sans_nom_50-11" x1="250.31" y1="-19.71" x2="250.31" y2="314.96" xlink:href="#Dégradé_sans_nom_50" />
        <linearGradient id="Dégradé_sans_nom_50-12" x1="252.07" y1="-19.71" x2="252.07" y2="314.96" xlink:href="#Dégradé_sans_nom_50" />
        <linearGradient id="Dégradé_sans_nom_50-13" x1="254.23" y1="-19.71" x2="254.23" y2="314.96" xlink:href="#Dégradé_sans_nom_50" />
        <linearGradient id="Dégradé_sans_nom_50-14" x1="256.65" y1="-19.71" x2="256.65" y2="314.96" xlink:href="#Dégradé_sans_nom_50" />
        <linearGradient id="Dégradé_sans_nom_50-15" x1="257.6" y1="-19.71" x2="257.6" y2="314.96" xlink:href="#Dégradé_sans_nom_50" />
        <linearGradient id="Dégradé_sans_nom_50-16" x1="258.41" y1="-19.71" x2="258.41" y2="314.96" xlink:href="#Dégradé_sans_nom_50" />
        <linearGradient id="Dégradé_sans_nom_50-17" x1="261.84" y1="-19.71" x2="261.84" y2="314.96" xlink:href="#Dégradé_sans_nom_50" />
        <linearGradient id="Dégradé_sans_nom_50-18" x1="261.94" y1="-19.71" x2="261.94" y2="314.96" xlink:href="#Dégradé_sans_nom_50" />
        <linearGradient id="Dégradé_sans_nom_50-19" x1="261.67" y1="-19.71" x2="261.67" y2="314.96" xlink:href="#Dégradé_sans_nom_50" />
        <linearGradient id="Dégradé_sans_nom_50-20" x1="261.72" y1="-19.71" x2="261.72" y2="314.96" xlink:href="#Dégradé_sans_nom_50" />
        <linearGradient id="Dégradé_sans_nom_50-21" x1="262.18" y1="-19.71" x2="262.18" y2="314.96" xlink:href="#Dégradé_sans_nom_50" />
        <linearGradient id="Dégradé_sans_nom_50-22" x1="262.32" y1="-19.71" x2="262.32" y2="314.96" xlink:href="#Dégradé_sans_nom_50" />
        <linearGradient id="Dégradé_sans_nom_50-23" x1="263.87" y1="-19.71" x2="263.87" y2="314.96" xlink:href="#Dégradé_sans_nom_50" />
        <linearGradient id="Dégradé_sans_nom_50-24" x1="264.75" y1="-19.71" x2="264.75" y2="314.96" xlink:href="#Dégradé_sans_nom_50" />
        <linearGradient id="Dégradé_sans_nom_50-25" x1="266.63" y1="-19.71" x2="266.63" y2="314.96" xlink:href="#Dégradé_sans_nom_50" />
        <linearGradient id="Dégradé_sans_nom_50-26" x1="268.24" y1="-19.71" x2="268.24" y2="314.96" xlink:href="#Dégradé_sans_nom_50" />
        <linearGradient id="Dégradé_sans_nom_50-27" x1="271.32" y1="-19.71" x2="271.32" y2="314.96" xlink:href="#Dégradé_sans_nom_50" />
        <linearGradient id="Dégradé_sans_nom_50-28" x1="274.03" y1="-19.71" x2="274.03" y2="314.96" xlink:href="#Dégradé_sans_nom_50" />
        <linearGradient id="Dégradé_sans_nom_50-29" x1="274.74" y1="-19.71" x2="274.74" y2="314.96" xlink:href="#Dégradé_sans_nom_50" />
        <linearGradient id="Dégradé_sans_nom_50-30" x1="277.23" y1="-19.71" x2="277.23" y2="314.96" xlink:href="#Dégradé_sans_nom_50" />
        <linearGradient id="Dégradé_sans_nom_50-31" x1="277.68" y1="-19.71" x2="277.68" y2="314.96" xlink:href="#Dégradé_sans_nom_50" />
        <linearGradient id="Dégradé_sans_nom_50-32" x1="278.17" y1="-19.71" x2="278.17" y2="314.96" xlink:href="#Dégradé_sans_nom_50" />
        <linearGradient id="Dégradé_sans_nom_50-33" x1="278.68" y1="-19.71" x2="278.68" y2="314.96" xlink:href="#Dégradé_sans_nom_50" />
        <linearGradient id="Dégradé_sans_nom_50-34" x1="279.39" y1="-19.71" x2="279.39" y2="314.96" xlink:href="#Dégradé_sans_nom_50" />
        <linearGradient id="Dégradé_sans_nom_50-35" x1="280.6" y1="-19.71" x2="280.6" y2="314.96" xlink:href="#Dégradé_sans_nom_50" />
        <linearGradient id="Dégradé_sans_nom_50-36" x1="280.63" y1="-19.71" x2="280.63" y2="314.96" xlink:href="#Dégradé_sans_nom_50" />
        <linearGradient id="Dégradé_sans_nom_50-37" x1="281.8" y1="-19.71" x2="281.8" y2="314.96" xlink:href="#Dégradé_sans_nom_50" />
        <linearGradient id="Dégradé_sans_nom_50-38" x1="284.61" y1="-19.71" x2="284.61" y2="314.96" xlink:href="#Dégradé_sans_nom_50" />
        <linearGradient id="Dégradé_sans_nom_50-39" x1="286.83" y1="-19.71" x2="286.83" y2="314.96" xlink:href="#Dégradé_sans_nom_50" />
        <linearGradient id="Dégradé_sans_nom_50-40" x1="289.9" y1="-19.71" x2="289.9" y2="314.96" xlink:href="#Dégradé_sans_nom_50" />
        <linearGradient id="Dégradé_sans_nom_50-41" x1="290.95" y1="-19.71" x2="290.95" y2="314.96" xlink:href="#Dégradé_sans_nom_50" />
        <linearGradient id="Dégradé_sans_nom_50-42" x1="291.29" y1="-19.71" x2="291.29" y2="314.96" xlink:href="#Dégradé_sans_nom_50" />
    </defs>
    <title>Fichier 11</title>
    <g id="Calque_2" data-name="Calque 2">
        <g id="Calque_1-2" data-name="Calque 1">
            <path class="indonesia-cls-1" d="M391.64,455.81l-2.33-1.68c-.86,1.45,2.26,3.58-.44,4.25-.3,2-.62,3.77-.81,5.53-.15,1.4-.1,2.83-.19,4.23-.14,2-.41,3.94-.46,5.91a6.21,6.21,0,0,0,.57,3,2.9,2.9,0,0,1-.16,3.52,16.71,16.71,0,0,0-3.23,9c-.05,2.43,0,4.85,0,7.28a2.22,2.22,0,0,1-.14.8c-1.3,3.2-2.63,6.39-3.91,9.6-.51,1.28-1,2-2.69,1.5-.89-.25-2.34.52-3.15,1.25-.47.42-.45,1.8-.17,2.57,1,2.85.77,4.35-1.84,6.27-2.08,1.53-4.45,2.66-5.65,5.18-.14.29-1.29.34-1.83.14a9.06,9.06,0,0,1-1.79-1.35c-2-1.45-5.45-.54-6.25,1.86-.32,1,.12,2.2.2,3.31,0,.66.33,1.54,0,1.92a2,2,0,0,1-1.86.19c-3.52-1.62-5.89-.67-7.6,2.8a31,31,0,0,1-3.5,4.95,2.76,2.76,0,0,1-1.38.73c-1.8.53-3.62,1-5.41,1.51-1.37.41-2.7,1-4.08,1.37a2.86,2.86,0,0,1-1.7-.2c-2.3-1-4.56-2-7-3.05a10.34,10.34,0,0,0-.23,1.38c0,2.13-1.1,2.91-3.12,2.79-1.64-.1-3.28-.06-4.92-.16-1-.06-1.8,0-2.22,1.24-.17.5-1.25,1.19-1.65,1-3.11-1.09-6.11.05-9.14.27-2.31.16-4.28.29-5.72-2.3-1.2-2.16-3.85-2.28-6.23-2.7a8.77,8.77,0,0,0-.27,1.15c-.18,2.45-.36,2.64-2.69,2.23-2-.35-3.44,0-4.21,2.18-.7,1.94-2.42,2.73-4.36,2.95-2.92.33-5.86.54-8.79.82-1.74.17-2.15-.67-1.9-2.24.5-3.11.31-3.29-2.78-3.21h-.21c-4.45.12-4.45.12-6.55,4.47-1.7-.5-3.5-1-5.31-1.56a1.49,1.49,0,0,0-1,0c-1.62.87-3.18,1.86-4.82,2.7a3.81,3.81,0,0,1-2.09.43c-1.83-.24-3.63-.69-5.44-1s-3.33-.85-2.14-3.31c-4.62-.75-9.05-1.54-13.51-2.17-1.77-.25-2.91-.92-3.39-2.71-.4-1.49-1-2.72-3-1.77-.55.26-1.42-.16-2.21-.28-1.25,1.59-2.23,1.77-4.89.23-2-1.14-3.78-2.62-5.66-3.94a2,2,0,0,0-.88-.48c-2.23-.08-4-.68-3.75-3.8-1.66,3-3.48,1.93-5.15.82s-3.36-2.57-5.08-3.81c-.53-.38-1.4-1-1.77-.78-2.11,1-3.69-.21-5.39-1-1.36-.64-2.7-1.34-4.07-2-2-.9-3.23-.42-3.66,1.69s-1.19,1.64-2.31.7c-.84-.7-1.74-1.34-2.52-2.1a6.93,6.93,0,0,0-6.17-2.12c-1.79.29-3.88-1-4.9.54-3.43-1.07-6.57-2.08-9.74-3-2.43-.71-3.13-1.44-3-3.86.1-2.22-1.93-2.43-3.12-3.37-.27-.21-1.3.69-2,.9s-1.94.67-2.53.33a50.62,50.62,0,0,1-4.95-3.62c-1.15.6-2.53,1.68-4.36.45-1.34-.9-2.19-1.71-2.23-3.54,0-1-1.13-2.19-2-3-.28-.27-1.39.32-2.11.54a13.11,13.11,0,0,1-2.29.72,14.47,14.47,0,0,1-1.25-3.41c-.09-.38.26-.87.41-1.28-3.64-2.34-7.77-3.89-9.81-8.17-1.91,1.06-2.9.22-3.8-1.53a12.19,12.19,0,0,0-2.78-2.92c-1.1-1-2.27-1.95-3.42-2.91a3.24,3.24,0,0,1-1-4c.92-2.47.07-4.52-1.78-6.2-.22,0-.37,0-.47.06-2.61,1.76-2.75,1.83-4.42-.8-.93-1.47-1.31-3.27-2.07-4.86-.92-1.93-2-3.77-2.94-5.72a4.06,4.06,0,0,1-.23-2.39,17.06,17.06,0,0,1,1.31-3l-3.14.56-.46-3.67c-1.36,1.49-2.24.92-3.09-.42a6.49,6.49,0,0,0-3.9-2.66c-1.87-.57-3.46-2-5.27-3.15l-2.06,2.77a4.84,4.84,0,0,1-.62-1.09c-.61-3.34-3.52-5.18-5.14-7.85-.29-.47-1.13-.64-1.75-.88-1.24-.49-2.5-.94-3.75-1.41-.19-.07-.42-.32-.52-.26-2.52,1.31-2.84-1-3.85-2.25a20,20,0,0,0-2.7-2.47c-1-.9-2.08-1.76-3.1-2.67-1.29-1.14-1.85-2.31-.91-4.11,1.07-2.05-.22-3.86-1.43-5.42-.25-.33-1.52-.21-2.09.11-1.3.73-2.18.57-2.86-.73s-1.3-2.4-1.88-3.64c-1.25-2.63-2.53-5.25-3.62-7.94a4.8,4.8,0,0,1,0-2.62,5,5,0,0,1,1-1.77c2.11-2.83.83-5.47-.52-8a2,2,0,0,0-3-.87,29.2,29.2,0,0,1-2.85,1.07,31.48,31.48,0,0,1,.72-5.1c.82-2.56.39-4.46-1.94-6a18.86,18.86,0,0,1-2.75-2.73c-.43-.44-.84-1.23-1.29-1.26-2.76-.18-2-2.21-2.38-3.85a40.84,40.84,0,0,0-2.79-7.2,3.26,3.26,0,0,1,.8-4.36c1.89-1.73,1.95-3.91,1.09-6.15a1.79,1.79,0,0,0-.48-.14c-3.24.26-3.35.22-3.59-3-.1-1.35.19-2.71.21-4.07,0-2.42,0-4.84,0-7.26,0-.47-.24-1.09,0-1.39,1.51-2.06.36-3.89-.4-5.76a23.92,23.92,0,0,0-1.11-2.64c-.91-1.64-1-2.92.76-4.21a4.15,4.15,0,0,0,.71-5.58,1.94,1.94,0,0,0-1.47-.64c-1.55.07-2.35-.46-2.23-2.1.16-2.09-.82-3.17-2.93-3.38a5.09,5.09,0,0,1-4.29-3.12c-1.25-2.81-2.29-5.7-3.39-8.57-.55-1.43.11-2,1.53-2.08,1,0,2-.14,3.28-.24-.67-2.43-1.2-4.6-1.92-6.72a2.59,2.59,0,0,0-1.47-1.17c-.91-.36-2.41-.23-2.73-.81A5.61,5.61,0,0,1,4,295.15c.8-3.14-1.4-4.63-3.05-6.49-.35-.39-.9-.83-.9-1.25a44.35,44.35,0,0,1,.39-7.34c.11-.64,1.77-1,2.71-1.5l.62.48c.05-1.18,0-2.37.18-3.55.07-.62.33-1.68.64-1.73,2.11-.34,2.32-2.07,2.79-3.58.75-2.35,1.92-4,4.75-3.92,1.41,0,1.92-2.71,1-4.58a1.66,1.66,0,0,1-.11-1.32c1.74-2.85,3.58-5.64,5.32-8.48a3.85,3.85,0,0,1,3.65-2.14c2.22.06,3.81-1.27,5.26-2.81.75-.81.7-1.46-.25-2-1.52-.78-1.36-1.73-.29-2.7,1.36-1.23,2.74-2.44,4.18-3.55,1.79-1.38,4.46-1.89,4.22-5.1,0-.55,1.4-1.31,2.25-1.8s1.89-.72,1.71-2.13c0-.39.46-1,.88-1.26,2.57-1.46,2.29-4.16,2-6.18-.25-1.49.23-2.55.4-3.8a1.11,1.11,0,0,1,.59-.78c2.07-.63,2.69-2.53,3.75-4.07.29-.42.74-1,1.16-1,2.38-.19,2.28-1.95,2-3.42-.25-1.22-.12-1.58,1.07-2.05a8.89,8.89,0,0,0,2.92-2.29c2.75-2.91,3-2.59,5.22-.89,1.5,1.18,3.21.84,4.83-.06a3.08,3.08,0,0,0-.18-.61c-1.77-3.14-1.37-3.9,2.3-4.05a30.53,30.53,0,0,1,4.09.24c1.69.16,2.74-.29,2.26-2.52,2.18.35,4.2.61,6.19,1a2.48,2.48,0,0,0,3.23-1.64c.79-1.87,1.85-3.62,2.82-5.41.12-.22.39-.51.58-.51,2.86.08,4.46-2.15,6.48-3.56,1.49-1,2.72-1.42,4.46-.36,2,1.2,3.78,0,5.59-1.07-.28-.48-.5-.88-.75-1.27-.78-1.23-.62-2.18.78-2.79s3-1.25,4.47-2a28.37,28.37,0,0,0,4.2-2.47c1-.75,1.68-1,2.89-.29a3.3,3.3,0,0,0,2.89,0,30.08,30.08,0,0,0,4.73-3.92c1.15-1.12.86-2.45,0-3.73-.46-.71-.8-1.5-1.19-2.25a28,28,0,0,1,2.78-.88,14.44,14.44,0,0,1,2.25-.12,2.55,2.55,0,0,0,2.57-2.19c.52-2,1.21-4,1.82-6.07a2,2,0,0,0,.2-1c-.79-2.61.68-3.71,2.68-5s3.41-3.33,5-5.1c1.24-1.35,2.37-1.55,3.84-.25a4.42,4.42,0,0,0,5.68.26,2.28,2.28,0,0,0,.63-2.05c-.79-2.07-.27-3.17,1.88-3.82A3,3,0,0,0,151.1,137c-.4-3.12,1-5.22,3.51-6.85,2.29-1.49,4.49-3.14,6.75-4.68,1.8-1.23,2.4-.95,2.89,1.23.22,1,.48,1.94.81,3.24,2.27-1.58,4.39-2.85,6.23-4.43a4.18,4.18,0,0,0,1-2.89,5.08,5.08,0,0,1,4.08-5.17c.61-.13,1.47-.36,1.69-.8a19.17,19.17,0,0,0,2.17-5.43,7.7,7.7,0,0,1,2.09-4.27c1.5-1.66,2.88-3.42,4.6-5.49l1.49,3.91,3-6.51a13.44,13.44,0,0,0,1,1.84c.66.82,1.38,2.2,2.12,2.23,1.71.07,3.33-.6,3.49-2.86.31-4.34.69-8.68,1.08-13a6.1,6.1,0,0,1,.52-1.91c.76-1.7,1.7-3.33,2.37-5.06.85-2.21,1.51-4.49,2.33-7,.61.43.91.65,1.22.86l2.21,1.46c.67-1,1.66-2,1.91-3.15s-.3-2.26-.6-3.38a5.9,5.9,0,0,1,2.78-6.41c4-2.12,4-2.12,4.22-7,1.54.15,3.09.21,4.6.47a1.85,1.85,0,0,0,2.44-1.5c.5-1.78,1-3.56,1.6-5.3.33-.94,1-1.77,1.37-2.69a4.63,4.63,0,0,0,.71-2.24c-.28-1.82.64-2.4,2.13-2.89a7.06,7.06,0,0,0,2.49-1.59c1.39-1.3,2.66-2.74,4-4.12s2.39-1.33,3.29.45a2.44,2.44,0,0,0,3,1.48c1.76-.47,2.64-1.42,2.35-3.42-.54-3.69.88-5.38,4.58-5.51,1.74-.06,3-.26,3.23-2.44.15-1.4,1.15-2.23,2.65-1.13,1.14.83,1.88.28,2.55-.67,1.46-2,2.93-4.08,4.86-6.76L265.45,26l.81.05c.27-.83.89-1.74.73-2.49-.42-2,.48-2.81,2.21-3.17l.2,0c4.53-1.12,4.58-1.13,3.7-5.86-.4-2.13,1.8-2.06,2.49-3.24l2.26,1.4c1.11-1.18,2.68-2.59,4.82-1.19.23-.24.39-.33.4-.43.3-3.06.3-3,3.32-2.88,1.16.07,2.33.07,3.49.07,2.16,0,2.78-.58,2.88-2.76.05-1.2,0-2.41,0-3.62l.61-.43c1.06,1,2.21,2,3.17,3.06,1.88,2.17,1.89,2.17,3.92.24a36.7,36.7,0,0,1,3.08-2.35c.54-.41,1.29-.74,1.53-1.28.63-1.43,1.26-1.3,2.52-.67a6.3,6.3,0,0,0,3.69.57c3-.53,5.42,1.16,8,2.15.73.28,1,1.83,1.25,2.39,2.79-.66,5.43-1.32,8.09-1.91a1.94,1.94,0,0,1,2.59,1.85,23.64,23.64,0,0,0,.66,3.83,3.68,3.68,0,0,0,1.61,2.09c1.11.51,1.31-.53,1.67-1.41.15-.36,1.46-.59,2.06-.37,2,.73,3.89,1.67,5.82,2.57,1.17.55,1.92.45,2.23-1,.2-.94-.21-2.7,1.44-2.39s4.18-.4,4.41,2.55c0,.12.13.23.3.54,2.83-1.21,4.63.79,6.79,2.52,1.3-2.56,3-1.68,4.67-.53s3.33,2.15,5,3.28c2.3,1.58,3.2,1.35,4.38-1.22,1.36-3,3-3.74,5.43-2.26.88.54,1.38,1.73,2,2.64a14.31,14.31,0,0,0,1.69,2.38c1,.9,1.9.68,2.68-.53.53-.83,1-2.16,2.5-1.39a2.47,2.47,0,0,1,1.32,3.41,6.35,6.35,0,0,0-.29,1.32c2.84,1.39,5.38,2.55,7.82,3.91a2.17,2.17,0,0,1,.53,2c-.55,1.78-1.12,3.42-.28,5.34.32.74-.2,1.84-.26,2.22.87.67,1.7,1,2,1.59,1.23,2.34,2.31,4.77,3.57,7.44l2.64-3.44c1.2,2.14,3.28,3.73,1.77,6.4a1.15,1.15,0,0,0,.18,1.09c2.2,1.79,2.11,4.31,2.16,6.93,2.07-.63,2.51.51,2.68,2.13.35,3.26.77,6.51,1.23,9.76.07.53.44,1.35.79,1.42a2.32,2.32,0,0,0,1.78-.54,9.36,9.36,0,0,0,1.31-2l1,.6c-.27,1.61-.59,3.21-.79,4.83-.39,3.07-1.24,6.22-.88,9.21.29,2.41,2.09,4.64,3.22,6.95.31.63,1,1.34.91,1.83A14.4,14.4,0,0,0,420.18,100a1.49,1.49,0,0,1,.21,1c-1.25,4.11,2.26,7.64,1,11.9l2.57-.54c.42,2.21.82,4.33,1.23,6.45.38,1.95.69,3.91,1.16,5.83.38,1.54,1.37,1.81,2.52.71.72-.68,1.33-1.49,2-2.24l.62.17c-.23,2.87-.3,5.77-.73,8.61a3.92,3.92,0,0,0,1.76,4.38c1.47,1,2.62,2.75,4.2,3.21,2.69.79,2.91,2.87,3.94,4.83,1.37,2.61,3.67,4.73,5.34,7.21a4.29,4.29,0,0,1,.7,3.33c-1.32,3.38.51,5.57,2.22,7.92,3.41-1.62,3.55-1.72,5.65,1.28,1.31,1.88,2,4.19,3.15,6.17a23.25,23.25,0,0,0,3.68,5.05c1.51,1.45.61,2.53-.16,4.07.63-.18,1-.3,1.3-.37.78-.16,2-.68,2.27-.38a7.28,7.28,0,0,1,1.51,3.12A5.71,5.71,0,0,1,466,184c3.17,2,6.15,3.86,9.15,5.7,1.27.78,1.44,1.66.55,2.87a19.3,19.3,0,0,0-2.31,3.62,3.16,3.16,0,0,0,.16,2.53c.46.77,1.35.82,2.29.12a2.25,2.25,0,0,1,2.11.53,60.37,60.37,0,0,1,3.77,5.61c.88,1.44,1.82,1.92,3.32.8.91-.68,1.9-1.87,3.12-.39,1,1.22,3.45,1.82,1.79,4.23-.19.27.09,1,.36,1.42.8,1.19,1.77,2.27,2.54,3.47s1.52,2.22,3.27,1.52c.37-.15,1.38.5,1.62,1,.86,1.78,1.55,3.64,2.24,5.5,1.21,3.23,2.93,4.1,6.17,3.09.57-.18,1.17-.27,2.34-.54-.34,1.78-.54,3.21-.88,4.6-.8,3.21-.81,3.17,1.88,4.94,1.43.93,2.66,2.29,4.2,2.9,2.53,1,3.68,2.37,3.53,5.25-.07,1.39,1.29,2.81,1.8,4.28,1,3,1,3-1.59,4.82-2.13,1.52-2.47,2.3-2.16,4.83.12.07.23.19.35.2,4.09.3,4.09.3,3,4.33-.21.79-.4,1.58-.64,2.49,1.69.52,3.65.9,3,3.26a3.85,3.85,0,0,1-1.68,2.23c-1.21.59-2.41,1.19-2.08,2.58.16.67,1.43,1.11,2.24,1.59a24.94,24.94,0,0,0,2.29,1l-2.94,2.89c.53.92,1.23,2.32-.93,3.22-.2.08-.12,1.42.18,2,.93,1.73,2,3.37,3.22,5.31a31.32,31.32,0,0,0-3.69,1.4c-.63.33-1.41,1-1.5,1.64-.32,2.39.39,5-2.21,6.85l.51.49a18.31,18.31,0,0,1,3.52.35,3.89,3.89,0,0,1,2.3,1.54c1,2-.83,2.09-2,2.4.24.95.74,1.86.58,2.64s-1,1.42-1.59,2.23a10.06,10.06,0,0,0,1.09.42c1.76.46,2,1.42,1,2.87s-1.86,3-2.78,4.49c1.54,2.5,4.43,1.34,7.05,2.72-2.15.79-3.74,1.49-5.4,1.95-3.24.91-3.52,1.61-1.89,4.53.46.82.41,1.92.68,3.37l1,.58c0,.22.05.43,0,.47a17.5,17.5,0,0,0-5.11,5.68,7.71,7.71,0,0,1-7,3.8c-3.61,0-6.61,1.82-9.87,3.62l4.21,1.2a13.93,13.93,0,0,1-2.38,1.66q-4.79,1.8-9.63,3.44c-3.24,1.1-6.51,2-8.16,5.59-.37.81-2.2,1.09-3.42,1.33-1.48.3-3,.26-3.78,2.28a22.81,22.81,0,0,1,2.75,1.06,8.47,8.47,0,0,1,1.54,1.36,5.82,5.82,0,0,1-1.86,1,35,35,0,0,1-3.89,0c-.4,0-.79.09-.64.44-.69,1.84-1.28,3.73-2.13,5.49a2.29,2.29,0,0,1-1.9.71c-2.37-.26-4.72-.78-7.09-1.06-1.18-.14-2.59-.73-3.51,1l2.53,1.44-7.76,4,4.56,2.1c-1.07,2.55-3,2.83-5.38,2.12-.09,3.13-2.84,2.63-4.73,3.53l1.48,1.85c-2.45,1.15-4.81,2.21-7.12,3.35-1.64.8-1.71,1.71-.28,2.88.68.56,1.4,1.07,2.09,1.63.09.07.09.25.25.76-1.12,0-2.14.06-3.15,0-5.78-.42-6.54.15-7.32,5.82a6.73,6.73,0,0,0,.5,2.12,6.9,6.9,0,0,0-1.66.5,9.37,9.37,0,0,0-2.85,2c-2,2.76-3,3.1-6.08,1.53-1.68-.86-2.33-.75-4.46.77a1.09,1.09,0,0,0,.05.4c1.79,3.13,1.81,3.16-1.4,5.12-.88.54-1.44,1-.76,2.07a2.55,2.55,0,0,1-.74,3.48c-.48.4-1.64-.05-2.5,0-.58,0-1.41,0-1.65.34a2.25,2.25,0,0,0-.2,1.85,27.74,27.74,0,0,0,1.76,3.24c-1.28,2.66-2.57.54-3.84-.05-.7,2.16-1.36,4.23-2.07,6.28-.19.55-.45,1.33-.88,1.51-1.13.47-1,1.14-.6,2,.64,1.26.2,2.1-.56,3.28a19.51,19.51,0,0,0-2,5.56c-.58,2.21-.8,2.36-2.85,1.37-.39-.19-1.26-.21-1.37,0-.46.84-1.27,2.15-1,2.64,2.57,4,.54,6.3-2.56,8.51-.68.49-1,1.59-1.34,2.45A15.75,15.75,0,0,0,391.64,455.81Zm-102.92,65,0,.31c7.52.21,15,.69,22.56.54,6.12-.12,12.4-.27,18.3-1.7,15.36-3.71,26.79-12.88,33.47-27.28,5-10.71,9.32-21.71,13.83-32.64,4-9.8,7.71-19.7,9.93-30.14a89.84,89.84,0,0,1,19.49-39.34c6.8-8.1,14.62-15.34,21.83-23.11a56.89,56.89,0,0,1,18.2-13.08c5.09-2.34,10.31-4.41,15.5-6.53,7.74-3.15,15.46-6.32,22.28-11.25,4.36-3.15,8.3-6.72,10.65-11.71,2.75-5.84,2.71-11.93,1.47-18.08a39,39,0,0,1,.54-18.07c1.11-4.16,2.08-8.37,2.83-12.61,1.47-8.28,1.15-16.44-3.36-23.83-4.2-6.88-8.52-13.7-13.18-20.27-5.3-7.46-11.25-14.47-16.54-21.94a162,162,0,0,0-24.85-28,82.58,82.58,0,0,1-26.45-44.13c-2-8.47-4.65-16.77-9.1-24.32a71.92,71.92,0,0,1-9.24-28.47c-1.13-9.45-2.44-18.87-5.72-27.87-4.66-12.77-13.39-21.16-26.75-24.2-13.94-3.17-27.87-6.31-41.44-10.92a24.67,24.67,0,0,0-19.73,1.45C282.76,34,262.67,45.1,244.4,59.21a61.93,61.93,0,0,0-20,26.51,145.92,145.92,0,0,1-6.17,14.3c-9.88,18.66-24.64,32.6-42.75,43.12-5.67,3.3-11.6,6.16-16.5,10.65a82.59,82.59,0,0,0-15.34,19.16c-9.28,15.76-22.74,26.63-39.1,34.11-8.32,3.81-16.86,7.17-25.4,10.47-10.42,4-18.48,10.42-23,20.94A48.44,48.44,0,0,1,45.91,253.2c-4.91,5-9.8,10.12-14.51,15.35a25.56,25.56,0,0,0-6.54,14.75c-.71,6.74,1,13.06,3.19,19.26,4,11.35,7,22.85,7.3,35a69.12,69.12,0,0,0,5,23.34c4.87,12.69,9.46,25.49,14.21,38.23,2.84,7.6,6.93,14.39,13.1,19.8,3.55,3.11,7,6.4,10.63,9.35a122.36,122.36,0,0,1,25.49,27.08c4.11,6.12,8.25,12.26,12.84,18,8.28,10.37,18.73,17.49,32.07,19.84q7.17,1.26,14.27,2.91c13.62,3.16,26.33,8.73,38.75,15a102.72,102.72,0,0,0,51.78,11C265.23,521.65,277,521.23,288.72,520.76Z" />
            <path class="indonesia-cls-2" d="M298.32,511.9c-14,.85-28,1.68-42,2.56-14.29.9-28.35,0-41.72-5.65-6.11-2.57-12-5.64-18-8.53-13.9-6.7-28.4-11.61-43.7-13.64-14.74-2-25.87-9.46-34.47-21.14-4-5.5-7.81-11.21-11.69-16.83A119.35,119.35,0,0,0,80,421.11c-7.73-5.83-14.67-12.43-18.74-21.38-2.31-5.08-4-10.45-5.91-15.72C52.12,375,49,366,45.61,357a75,75,0,0,1-5-24.2c-.4-10.3-3-20.1-6.14-29.84a76.65,76.65,0,0,1-3.17-13.34c-1.24-9.57,2.79-17.37,9.3-24,4.22-4.28,8.66-8.36,13.17-12.34A26.64,26.64,0,0,0,62,240.84a27.71,27.71,0,0,1,17.81-18.76c2.44-.89,4.83-1.93,7.24-2.89a283.2,283.2,0,0,0,30.84-14.38,66,66,0,0,0,28.49-29.38c4.49-9,10.37-17.14,18.65-23.11,4.7-3.39,9.85-6.15,14.71-9.34,20.5-13.46,36.89-30.54,46.94-53.24,2.9-6.56,6-13,10.67-18.62a78.48,78.48,0,0,1,22.88-18.42c14.48-8,29.11-15.76,43.7-23.56,6.4-3.42,13.09-3.4,19.92-1.4C335,31,346.2,34.15,357.35,37.43c4.78,1.41,9.67,2.64,14.18,4.67a28.56,28.56,0,0,1,16.25,19.57,199.66,199.66,0,0,1,4.56,25.39c1.08,8.74,2.35,17.35,6.27,25.35a25.22,25.22,0,0,0,2.29,4.12c5.54,7.37,8.55,15.86,10.9,24.61,2.89,10.77,6.7,21.11,13.07,30.37a85,85,0,0,0,13.71,15.2,132,132,0,0,1,22.25,25.64c5.53,8.31,11.44,16.35,17,24.63,4.59,6.8,8.89,13.8,11.87,21.5,3.42,8.86,2.09,17.44-2.28,25.51s-5,16.61-2.4,25.38-.54,17.8-8.35,24c-6.24,5-13.53,7.93-20.73,11.1-6.69,2.95-13.44,5.8-19.92,9.16-9.66,5-16.77,13.09-23.94,21-8.8,9.7-17.14,19.81-22.53,31.88-3.37,7.53-6.07,15.36-9.06,23.06-2.17,5.6-4.46,11.17-6.44,16.83-2.5,7.15-4.68,14.42-7.13,21.59-2.73,8-5.83,15.79-10.32,23-8,12.8-19.86,19.53-34.68,20.87-7.82.71-15.71.52-23.57.73Zm-50.24.81c13.1-.85,26.2-1.8,39.31-2.5,11.27-.6,22.57-.61,33.82-1.4,16.56-1.16,28.94-9,36.5-24a136.71,136.71,0,0,0,8.88-22.47c2-6.67,3.88-13.39,6.29-19.91,3-8.07,6.71-15.86,9.66-23.93,4.14-11.33,9.46-22,16.84-31.54,6-7.71,12.67-14.89,19.18-22.18a62.16,62.16,0,0,1,21-15.1c5.42-2.46,10.88-4.81,16.32-7.22,6.64-2.95,13.21-6,18.6-11,4.28-4,6.58-8.9,6.15-14.81a64.74,64.74,0,0,0-1.38-8.9c-1.56-7.25-1.34-14.22,2.28-20.92a88.29,88.29,0,0,0,3.6-8.27,25.65,25.65,0,0,0,1.09-17.06c-1.72-6.28-4.79-11.93-8.21-17.37-4.83-7.7-10.06-15.14-14.85-22.87a145,145,0,0,0-23.87-29.59,151.51,151.51,0,0,1-12.49-13c-7.81-9.33-12.69-20.19-15.85-31.9-2.58-9.55-6.15-18.63-11.91-26.86a38.41,38.41,0,0,1-5.28-11.49A162.16,162.16,0,0,1,390.39,91c-1.32-8-2.07-16-3.79-23.89-2.19-10-7.82-17.69-17.64-21.7-3.22-1.32-6.47-2.64-9.8-3.63-10.48-3.14-21.13-5.74-31.46-9.28-9.87-3.39-18.8-2.72-27.92,2.49-13.47,7.7-27.3,14.76-41,22.11-11.12,6-20,14.16-25.67,25.66a193.35,193.35,0,0,1-10.53,19.46c-12.67,19.64-29.77,34.89-49.28,47.42-7.34,4.71-14.42,9.49-19.09,17-2.78,4.47-5.46,9-7.79,13.72-4.64,9.36-10.83,17.3-20.08,22.4-8.08,4.45-16.24,8.79-24.57,12.74-7,3.31-14.27,5.91-21.36,9-7.75,3.37-13.21,8.81-15.26,17.31a25.39,25.39,0,0,1-8.6,13.65C52,259.4,47.35,263.26,43,267.36c-6.64,6.19-10.1,13.87-8.85,23a114.48,114.48,0,0,0,3.7,15.53c2.47,8.69,5,17.34,5.2,26.48a70.13,70.13,0,0,0,4.47,22.44c2.65,7.32,5.63,14.53,8.46,21.79a23.55,23.55,0,0,1,1.69,4.6,57.37,57.37,0,0,0,9.13,23c4.55,6.83,10.78,12,17.08,17,9,7.18,17.28,14.89,23.81,24.44,4.82,7,9.7,14.07,14.94,20.8a46.16,46.16,0,0,0,30.34,17.89A169.12,169.12,0,0,1,210,503.57,73.6,73.6,0,0,0,248.08,512.71Z" />
            <path class="indonesia-cls-3" d="M255.13,510.23c-13.77.39-24.16-.13-34-4.14-5.75-2.35-11.2-5.42-16.92-7.88-10.74-4.62-21.32-9.71-32.78-12.37-6.12-1.42-12.32-2.66-18.55-3.47a40.87,40.87,0,0,1-26.93-15,174.15,174.15,0,0,1-12.56-16.68,131.67,131.67,0,0,0-29.72-32.28,125.13,125.13,0,0,1-11.24-10.19c-6.24-6.24-9-14.34-11.8-22.47-3.36-9.9-6.71-19.8-10.46-29.56-3.23-8.41-4.62-17.1-5.38-26A111.18,111.18,0,0,0,39.14,304a44.81,44.81,0,0,1-2.79-16.08c.25-7,2.5-13.16,7.76-17.94,4.24-3.86,8.52-7.7,13-11.25,5.72-4.5,9.62-10.07,11.17-17.17a19.08,19.08,0,0,1,11.33-13.93c8.47-3.82,17.2-7.08,25.61-11,7.66-3.59,15.13-7.64,22.55-11.73,9.56-5.27,15.65-13.6,20.16-23.34,3.72-8,7.89-15.91,14.61-21.86C166.68,156,171.4,153,176,150c10.93-7.38,20.6-16.23,30.14-25.28a129.89,129.89,0,0,0,28.05-38.86c5.72-12,14.78-20.54,26.59-26.57,14.55-7.42,28.88-15.29,43.29-23a23.75,23.75,0,0,1,18.69-2.08c14.18,4.37,28.28,9,42.34,13.73a42.64,42.64,0,0,1,8.58,4.36c6.47,4,9.87,10.25,11.38,17.38,1.48,6.94,2.28,14,3.26,21.07,1.15,8.27,2.07,16.61,5.45,24.34a63.64,63.64,0,0,0,5.43,9.84c4.19,6.28,6.87,13.2,9.24,20.28,2.74,8.17,5.26,16.41,9.46,24,4,7.28,8.45,14.27,14.89,19.7,13.42,11.32,23.38,25.39,32.22,40.34,4.35,7.35,8.69,14.71,12.71,22.24,3.3,6.18,5.91,12.63,5.19,19.95a33.9,33.9,0,0,1-4.79,14c-4.74,8-4.95,16.58-3,25.41a41.64,41.64,0,0,1,1.11,7.07c.22,5.55-2.16,10-6.14,13.78-4.2,4-9.2,6.61-14.35,9-5.94,2.78-11.93,5.47-17.9,8.19-10.13,4.63-18.4,11.58-25.85,19.82-11.66,12.89-21.59,26.85-28.43,42.89-3.54,8.3-6.5,16.86-10.48,24.93-4.18,8.46-6.15,17.48-8.49,26.47a85.14,85.14,0,0,1-9.69,23c-7.83,12.84-19.54,19.28-34.42,20.18-14.33.87-28.67,1.64-43,2.51C268.88,509.23,260.36,509.87,255.13,510.23Zm-7.76-2.32c.75,0,1.51,0,2.25,0,16.93-1,33.86-1.95,50.78-3.06,10.57-.7,21.15-1.44,31.52-3.89a30.61,30.61,0,0,0,18.53-12.36,85.89,85.89,0,0,0,13.2-30.48c1.66-7.12,3.14-14.26,6.33-20.93,3.71-7.77,7.4-15.56,10.67-23.51,8.19-19.92,20.45-37.05,35.35-52.41,6.59-6.8,15-10.85,23.34-15,7.51-3.78,15.21-7.25,22.38-11.58,8.43-5.09,10.61-11.63,8.46-21.27-.66-3-1.56-6.11-1.27-9.06a63.13,63.13,0,0,1,5.4-20.11,50.53,50.53,0,0,0,3.56-11.07c1.48-7.43-1.19-14.23-4.3-20.73-3.45-7.2-7.39-14.18-11.12-21.25A139.82,139.82,0,0,0,434,193.88a120.71,120.71,0,0,1-12.91-14.26c-6.42-8.28-9.68-18.15-12.91-28-3-9.12-6.51-18-12.17-25.89a24.38,24.38,0,0,1-4-8.28c-2.29-9.63-4.38-19.32-6.09-29.07-1.15-6.6-1.58-13.31-4.1-19.62-2.42-6-6-11.14-12-13.94a309.31,309.31,0,0,0-41.15-15.77c-10.09-3-19.29-2.24-28.59,3-12,6.82-24.32,13.11-36.75,19.12a58.23,58.23,0,0,0-26.64,25.71,146.08,146.08,0,0,1-9.62,16C215.53,119,201,132.34,185.85,145a120.62,120.62,0,0,1-14.63,10.53c-10,6.11-16,15.24-20.47,25.7-2.86,6.68-6.06,13.19-11.33,18.4a58,58,0,0,1-16.23,11c-11.87,5.59-23.81,11-35.86,16.23-8.4,3.61-14.85,8.46-16.2,18.33-.71,5.2-3.74,9.22-7.94,12.51Q54.89,264.23,47,271.26a22.92,22.92,0,0,0-7.91,19.64,88.67,88.67,0,0,0,2,11.28c2.05,9.83,4.51,19.59,6.21,29.47,1.32,7.68,2.28,15.36,5.09,22.74,3.38,8.87,6.24,17.93,9.38,26.89,1.78,5.08,3.35,10.28,5.6,15.16,3.65,7.89,10,13.61,16.64,18.94,9.86,7.89,19.11,16.38,26.45,26.76,4.86,6.86,9.7,13.74,14.67,20.52C133,473.44,143.54,479.51,157,480.9a101,101,0,0,1,20.28,4A234.69,234.69,0,0,1,216,500.8,60.63,60.63,0,0,0,247.38,507.92Z" />
            <path class="indonesia-cls-4" d="M251.27,501.07a69.45,69.45,0,0,1-34-7.63c-19-9.52-38.79-16.75-60-19.41a42.07,42.07,0,0,1-22-9.23c-4.39-3.62-7.6-8.21-10.88-12.76-4.88-6.76-9.67-13.59-14.71-20.23-6.41-8.45-14.4-15.33-22.57-22-6.06-5-11.86-10.31-15.28-17.48-2.46-5.15-4.14-10.68-6.06-16.07-3-8.37-5.9-16.76-8.81-25.16-3.38-9.74-5.23-19.79-6.59-30-.87-6.48-2.62-12.85-4.14-19.23-1.19-5-2.13-10-1.37-15.21A23.25,23.25,0,0,1,53,271.71a156,156,0,0,1,13.86-10.19C73.63,257,78.06,251.33,78.79,243c.46-5.23,3.65-9,8.07-11.47s9.35-4.18,13.93-6.46c11.55-5.77,23.2-11.37,34.47-17.65,7.79-4.34,12.5-11.67,15.86-19.84,3-7.28,6-14.53,11.12-20.7,3.74-4.54,8.59-7.75,13.1-11.41,8.65-7,17.1-14.29,25.37-21.74,9.49-8.56,19.07-17.12,26.83-27.34,4.28-5.64,7.86-11.82,11.6-17.86,4.73-7.62,10.22-14.58,17.63-19.72,2.71-1.88,6-3,9-4.33,12.65-5.62,24.59-12.58,36.5-19.57,7.16-4.21,14.63-4.91,22.54-2.71a161.89,161.89,0,0,1,36.06,15.1c2.62,1.47,5.31,2.85,8,4.08a19.85,19.85,0,0,1,11.57,14.54c1.59,7.2,2.56,14.53,3.66,21.83,1.44,9.57,3.49,19,7.58,27.81a38.78,38.78,0,0,0,3.33,6.11c5.33,7.54,8.65,16,11.2,24.75,4.29,14.7,11.47,27.6,22.73,38.11,15.34,14.32,26.19,31.63,33.57,51.15,2.46,6.5,4.41,13.21,6.34,19.9,1.82,6.32,0,12.2-3,17.73a80,80,0,0,0-7.21,18.92,16.56,16.56,0,0,0,.49,10.06,20.47,20.47,0,0,1,1.24,10.88c-.94,5-4,8.61-8,11.24-4.45,2.91-9.24,5.3-13.86,8-7.64,4.4-15.73,8.18-22.76,13.39-10.25,7.61-17.57,18.05-24.62,28.64-8.14,12.23-13.94,25.71-21.06,38.47-6,10.68-8.79,22.13-11,33.93A53.49,53.49,0,0,1,344.65,485c-5,5.13-11.42,7.56-18.29,9-14,3-28.28,4-42.55,4.93-9.49.61-19,1.45-28.44,2.15C254,501.16,252.64,501.07,251.27,501.07Zm3.9-2.25c.77,0,1.87.07,3,0,9.95-.78,19.89-1.76,29.85-2.35,15-.89,29.82-2.48,44.22-7.11C339.39,487,345,483,348.82,476.51A71.8,71.8,0,0,0,358,453.59c2.18-11.16,5.1-22,10.52-32.21,7.27-13.63,14-27.55,22.64-40.41,4.86-7.21,9.59-14.47,15.95-20.53,7.73-7.36,17-12.39,26.25-17.38a142.56,142.56,0,0,0,15.65-9.3c5.94-4.25,8.29-10.14,6.45-17.64-1.46-6-1.66-12.11.54-18,1.84-4.92,3.86-9.79,6.06-14.57a28.57,28.57,0,0,0,2.35-18.71,158.11,158.11,0,0,0-7.26-23.94A118.1,118.1,0,0,0,429.8,199c-11.81-11.63-20.58-25.13-25.13-41.22a90.32,90.32,0,0,0-9.47-22.21c-5.73-9.47-8.9-19.78-11-30.53-1.52-7.92-2.88-15.88-4.54-23.77C378.51,75.6,376,70.59,371.14,67a135.79,135.79,0,0,0-47.25-22.17,27.64,27.64,0,0,0-20.79,3c-13.75,7.63-27.41,15.42-41.35,22.7A46.65,46.65,0,0,0,242.53,88.7c-4.81,8.22-10,16.22-16.84,22.89q-15.3,14.86-30.86,29.46c-6,5.65-12.28,11.08-18.53,16.48-3.71,3.21-7.94,5.87-11.38,9.33-5.77,5.8-8.91,13.23-11.32,20.92-3.3,10.51-9.65,18.54-19.4,23.61-9.09,4.72-18.41,9-27.63,13.5-5.54,2.68-11.13,5.26-16.63,8a11.76,11.76,0,0,0-6.31,7.69c-.76,2.77-1.72,5.48-2.48,8.25a20.06,20.06,0,0,1-8.21,11.6c-6.11,4.25-12.12,8.66-17.92,13.33-4.61,3.71-7,8.82-7.57,14.75s.4,11.86,1.64,17.68c2.65,12.43,4.82,25,8.13,37.24,3.13,11.6,7.34,22.91,11.3,34.26a99.28,99.28,0,0,0,6,14.1c3.87,7.24,10,12.6,16.29,17.71a136.75,136.75,0,0,1,27.85,30.72c4,6,8.28,11.72,12.74,17.34,5.37,6.76,12.22,11.57,20.74,13.54,3.65.84,7.42,1.12,11.14,1.69A186.24,186.24,0,0,1,218.8,491,70.7,70.7,0,0,0,255.18,498.82Z" />
            <path class="indonesia-cls-5" d="M256,494.46c-12.55.84-24.19-2.13-35.53-7.49a221.73,221.73,0,0,0-44.61-15.81c-8.12-1.88-16.31-3.49-24.49-5.15-8.8-1.78-15.45-6.68-20.58-13.86-4.77-6.67-9.6-13.31-14.2-20.1a124.73,124.73,0,0,0-23.71-25.69C86.7,401.19,80.4,396,76.65,388.65a152.51,152.51,0,0,1-7.25-17.16c-5.56-15.15-11-30.35-14.24-46.23-1.75-8.57-3.7-17.11-5.19-25.72-1.79-10.39.87-19.46,9.32-26.25,3.77-3,7.77-5.81,11.8-8.51,4.69-3.15,9.32-6.36,11.8-11.66a18.5,18.5,0,0,0,1.86-6.23c.54-7.09,4.25-11.81,10.41-14.83,7.74-3.78,15.53-7.47,23.29-11.2,5.61-2.7,11.22-5.38,16.81-8.11,10.48-5.12,16.86-13.58,20.18-24.61,2-6.8,4.82-13.33,9.87-18.47,3.09-3.15,6.84-5.65,10.11-8.64,6.4-5.86,12.65-11.89,19-17.81,7.85-7.33,15.69-14.66,23.6-21.92,9.05-8.3,17.46-17.18,24.27-27.44,7-10.61,16.58-18.11,27.75-24,10.88-5.73,21.55-11.89,32.19-18.07,7.84-4.55,15.84-4.73,24.33-2.25,13.64,4,25.85,10.75,37.46,18.74a8,8,0,0,0,1,.66c8.23,4,11.66,11,13,19.61,1.8,11.21,3.64,22.44,7.39,33.2a94.79,94.79,0,0,0,6.65,14.72,125,125,0,0,1,10.37,25c4.2,14,11.68,25.92,21.34,36.76C430,205,435.74,212.29,441.2,219.7c4.67,6.34,6.7,14,9.41,21.33,3.47,9.35,5.34,19.08,6.71,28.92.75,5.39-1.21,10.24-3.38,15-1.59,3.48-3.11,7-5,10.36-4,7.15-4.22,14.51-2,22.22,2.07,7.17.55,12.3-5.61,16.51a188,188,0,0,1-17,9.88c-13.3,7.18-24.7,16.55-32.84,29.36-8.32,13.09-16.36,26.35-23.65,40.09-6.68,12.58-10.1,26-13.24,39.71-2.08,9.06-5.66,17.42-12.3,24.18-4.34,4.42-9.75,6.9-15.61,8.65A155.8,155.8,0,0,1,292.25,492C280.18,492.74,268.1,493.62,256,494.46Zm-.36-2.48c9.14-.52,20.54-1.23,31.94-1.78a162.16,162.16,0,0,0,36-5.68c11.42-3.19,20.45-9.35,25.28-20.37a105.74,105.74,0,0,0,5.73-17.7C358,432.37,362,418.55,369.4,406c6.16-10.42,12.5-20.72,18.69-31.12a72,72,0,0,1,11.72-14.72A120.47,120.47,0,0,1,426.7,340.8a96.29,96.29,0,0,0,11.82-7.34c4.31-3.23,6.15-7.66,4.77-13.21A32.92,32.92,0,0,1,445,298.18c1.9-4.24,3.61-8.57,5.38-12.86,2.86-6.93,4-14,2.17-21.43-1.63-6.7-2.54-13.61-4.59-20.18a162.12,162.12,0,0,0-8.63-22.31c-3.83-7.93-10.08-14.27-16.11-20.61a89.88,89.88,0,0,1-20-32.16c-3.81-10.77-7.48-21.56-13-31.64s-7.67-21.31-10.43-32.31c-1.48-5.9-2.51-11.91-4.08-17.78-1.4-5.24-4-9.9-8.44-13.27-11.93-9-24.61-16.55-39-20.92-9.48-2.87-18.32-2.24-27,3-10.8,6.58-21.9,12.65-32.86,19a79,79,0,0,0-22,18.75,241.11,241.11,0,0,1-17.92,20.23c-11.1,10.85-22.78,21.09-34.08,31.73-6,5.67-11.7,11.69-17.62,17.46-3.42,3.33-7.25,6.26-10.47,9.77-5.16,5.61-7.55,12.74-10,19.81-2.87,8.29-7.3,15.53-15.17,20-4.16,2.34-8.62,4.13-12.94,6.18-9.13,4.35-18.29,8.64-27.36,13.13a37,37,0,0,0-7,4.66c-3.31,2.72-5.76,6.22-6.08,10.58-.55,7.62-4.77,12.71-10.68,16.84-4.65,3.25-9.38,6.39-13.88,9.84-8,6.14-12.21,14.26-11,24.44a177.61,177.61,0,0,0,3.9,21.34c4.33,17.68,10,34.94,16,52.13,4.2,12.08,10.35,22.53,20.34,30.63a132,132,0,0,1,25.75,27.7c4.5,6.53,9.17,12.94,13.67,19.46a36,36,0,0,0,25.73,15.87c4.46.63,8.91,1.42,13.33,2.31,18.35,3.71,35.7,10.33,52.67,18.08A69.47,69.47,0,0,0,255.66,492Z" />
            <path class="indonesia-cls-6" d="M262.85,489.84a86.27,86.27,0,0,1-39.5-6.67c-9-3.88-18.25-7.42-27.57-10.59A243.35,243.35,0,0,0,157,463.11a35,35,0,0,1-23.19-14.21q-7.52-10.23-14.37-21C112.77,417.56,104.2,409,95,401c-2.41-2.11-4.61-4.48-7-6.66A45.13,45.13,0,0,1,76.4,375.95C72,363.66,67.28,351.46,63.35,339c-2.92-9.23-4.89-18.77-7.1-28.22a80.55,80.55,0,0,1-2-12.12c-.75-9.69,3.17-17.48,10.72-23.39,4.57-3.58,9.34-6.9,14.12-10.2,6.1-4.21,10.1-9.7,11.15-17.16.65-4.61,2.54-8.55,6.67-11,6.16-3.66,12.24-7.51,18.64-10.71,6.71-3.36,13.78-6,20.64-9,8.28-3.68,15.32-8.88,19.26-17.3a144.48,144.48,0,0,0,5.68-14.49c2.39-7,6.9-12.2,12.42-17a182.93,182.93,0,0,0,15.27-15.1,350.43,350.43,0,0,1,29-27.57A379.19,379.19,0,0,0,250.81,93a77.62,77.62,0,0,1,17.42-14.51c10.16-6.18,20.27-12.44,30.43-18.61,2.22-1.35,4.59-2.43,6.86-3.7,5.54-3.09,11.33-3.52,17.47-2.17,16.63,3.67,31,11.66,43.81,22.66a26,26,0,0,1,8.38,14c3.12,12.46,6.37,24.9,10,37.23,1.45,4.94,4.06,9.54,6,14.35,3.42,8.42,6.95,16.81,10,25.35,5.12,14.12,13.12,26.37,23,37.53,3.76,4.23,7.16,8.79,10.69,13.24,5.54,7,8.38,15.23,10.22,23.73,2,9.26,3.57,18.65,4.72,28a28.33,28.33,0,0,1-1.29,11.28c-2,6.66-4.68,13.13-7.13,19.66-2.29,6.12-3.81,12.28-1.51,18.77a9.83,9.83,0,0,1,.26,1.82c.69,4.64-.56,8.71-4.32,11.5a133.06,133.06,0,0,1-13.32,8.77,129.28,129.28,0,0,0-23,16.11,71.44,71.44,0,0,0-13,16.08c-5.06,8.28-10.4,16.4-15.53,24.64-7.34,11.78-12,24.64-15.27,38.09-1.58,6.57-3.29,13.14-5.4,19.55-3,9.23-8.14,17-17.13,21.58a91.21,91.21,0,0,1-20.55,6.94C296.34,488.77,279.54,488.8,262.85,489.84Zm1.72-2.18c6.89-.42,13.79-.81,20.68-1.27,12.78-.85,25.43-2.31,37.69-6.44,13.68-4.61,23.09-13.23,27.09-27.3,2.14-7.56,4.47-15.08,6.21-22.73a110.64,110.64,0,0,1,16.8-38c4.15-6.1,8.17-12.32,11.93-18.67A64.37,64.37,0,0,1,403.05,353c7.58-5.36,15.44-10.36,23.45-15.07,7.81-4.59,11.48-10.7,9.65-19.89A28,28,0,0,1,438,302c2.51-6.28,4.82-12.65,7.07-19a17.35,17.35,0,0,0,1.31-6.37c-.49-9.41-.51-18.86-2.59-28.14-1.91-8.55-3.46-17.3-8.3-24.75a182.74,182.74,0,0,0-13.64-18.18c-6.51-7.71-13-15.44-17.07-24.73-3-6.68-5.3-13.63-8-20.4-3.67-9.06-8-17.9-11.07-27.15-4-11.85-7.06-24-10.47-36-2-7.1-4.25-14.05-10.32-18.94-2.88-2.31-5.67-4.74-8.61-7-8.94-6.74-19.19-10.65-29.83-13.73-7.68-2.22-15-1.68-21.93,2.49s-14.34,8.25-21.31,12.7C271.78,80.07,260.46,87.55,251,97.31A405.71,405.71,0,0,1,218,127.82c-9.72,8-19.21,16.27-27.32,26-5.66,6.77-11.42,13.44-18.17,19.19a33.68,33.68,0,0,0-9.42,13.74c-1.44,3.69-2.82,7.42-4.14,11.15-3.38,9.51-9.54,16.36-19.18,19.72-12.91,4.49-25,10.77-36.79,17.54-5.86,3.36-9.6,8.31-10.53,15.28a21.2,21.2,0,0,1-2.54,6.85c-2.39,4.51-6.25,7.7-10.28,10.7-4.81,3.59-10,6.81-14.3,10.92-7.43,7-10.51,16-8.39,26.15a240.31,240.31,0,0,0,6,23.65c4.2,13.22,8.89,26.29,13.48,39.39,2.84,8.09,6.08,16,12.13,22.36,3.83,4,7.79,7.89,12,11.54a102.88,102.88,0,0,1,21.17,24.88c3.52,5.93,7.36,11.68,11.35,17.31,5.6,7.91,12.69,14,22.42,16.22,3.86.89,7.79,1.46,11.69,2.15A241.31,241.31,0,0,1,222,479.76,91.45,91.45,0,0,0,264.57,487.66Z" />
            <path class="indonesia-cls-7" d="M269.35,481.4a109.12,109.12,0,0,1-47.54-8.29c-5.92-2.49-12-4.5-18.13-6.58A344.5,344.5,0,0,0,157.83,454c-10.25-2-17.91-8-23.77-16.29a176.3,176.3,0,0,1-10.82-17.37,80.87,80.87,0,0,0-20.7-25.18c-11-8.7-18.25-19.79-23-32.77S69.69,336.52,65,323.52c-1.7-4.74-2.4-9.82-3.92-14.64-1.45-4.58-1.16-9.18-.69-13.76.63-6.2,3.86-11.32,8.38-15.35,5.4-4.81,11.13-9.27,16.95-13.57s9.83-9.79,10.78-17.18,5.3-11.92,11.72-15.18c10.06-5.1,20-10.42,30.73-14.09a70.53,70.53,0,0,0,9.34-4.2,24.7,24.7,0,0,0,12-14.19c2.7-7.46,5.07-15.1,10.19-21.37,3.46-4.23,7.23-8.2,10.77-12.36,5.4-6.35,10.3-13.2,16.19-19.05,7.78-7.75,16.28-14.78,24.53-22.05,11-9.67,22.15-19.11,33-28.93,13.56-12.28,28.9-22,44.15-31.91,10.76-7,21.62-7.5,33.41-3,12,4.59,22.09,11.93,31.84,19.92a20.63,20.63,0,0,1,6.24,10c2.57,8.07,5,16.21,7.27,24.36a269.4,269.4,0,0,0,10.37,29.8c3.68,8.9,6.74,18,10.2,27,4.45,11.6,11,21.94,18.75,31.64,6,7.5,12.14,15,15.28,24.15a91.61,91.61,0,0,1,4,17.55c1.07,8.12,1.62,16.32,2,24.5.43,9.63-2.94,18.24-8,26.28-2.8,4.47-5.08,9.14-4.57,14.6a36.76,36.76,0,0,0,1.47,7.21c1.78,5.85.12,10.69-4.57,14.2s-9.62,6.26-14.4,9.44c-9.19,6.12-18.23,12.5-24.57,21.78-7.59,11.11-15.06,22.31-22.25,33.69-4.86,7.7-6.43,16.62-8.23,25.41a145.83,145.83,0,0,1-7.62,26.34c-3.7,9-10.11,15.46-18.7,19.86-11,5.63-22.82,8.35-35,9.44C284.5,480.58,276.92,480.92,269.35,481.4Zm2.22-2.54c5.19-.22,10.39-.43,15.58-.67,12.47-.59,24.58-2.69,35.94-8.17,10.56-5.09,18.58-12.46,22.71-23.81a149.78,149.78,0,0,0,7.21-27.3A73.57,73.57,0,0,1,367.57,385c4.18-5.4,7.79-11.23,11.84-16.73a102.78,102.78,0,0,1,9.26-11.42c6.42-6.5,14.15-11.38,21.74-16.41a78.2,78.2,0,0,0,10.21-7.84c3.94-3.67,5-8.35,3.09-13.53a12.48,12.48,0,0,1-.22-8.86c2.12-5.62,4.3-11.23,6.88-16.64,2.84-5.95,5.13-12,5-18.65-.2-8.54-.64-17.08-1.39-25.58a100.81,100.81,0,0,0-2.69-16.56c-2-7.52-6.54-13.79-11.09-20-6.65-9-14-17.7-18.36-28.11-6.32-15.05-12.36-30.25-17.86-45.62-4.64-13-8.41-26.29-12.42-39.51A36.17,36.17,0,0,0,363.21,85c-9.15-9.71-20.54-15.74-32.86-20.27C320,60.89,310,61.93,300.86,67.85c-9.87,6.37-19.61,13-29,20-7.56,5.61-14.58,12-21.83,18-8.62,7.16-17.09,14.53-25.89,21.47-13.89,11-27.42,22.19-37.54,37-3.62,5.29-7.75,10.25-11.82,15.21-5.54,6.75-8.69,14.64-11.52,22.74a26.75,26.75,0,0,1-10.14,13.34,41.59,41.59,0,0,1-13.6,6.09c-11,2.84-21,7.87-30.62,13.64-3.91,2.34-6.75,5.43-8,10-.83,3-2.13,5.92-3,8.93a25,25,0,0,1-8.46,12.32c-1.59,1.3-3.19,2.58-4.83,3.8-5.33,3.95-10.61,7.92-15,13-5.66,6.64-8,14.07-6.59,22.8a105.46,105.46,0,0,0,5.92,21.08c4.63,11.85,9.39,23.64,13.94,35.51A67.64,67.64,0,0,0,103.89,392a75.89,75.89,0,0,1,18.48,21.23c3.49,6,7,12.07,10.48,18.09,6.29,10.74,15.32,18,27.58,20.63a442.93,442.93,0,0,1,51.78,15c8.33,2.9,16.48,6.38,24.94,8.81C248.36,479,260,479.13,271.56,478.87Z" />
            <path class="indonesia-cls-8" d="M273.26,477.78c-18.12-.17-35.73-2.61-52.68-9.33-7.94-3.15-16-6-24.23-8.41-11.52-3.45-23.11-6.74-34.81-9.53-11.53-2.75-20.15-9.2-26.53-18.89a108,108,0,0,1-7.58-12.88,80.68,80.68,0,0,0-19.28-26c-3.06-2.73-5.81-5.8-8.79-8.62-6.44-6.09-10.85-13.44-14.14-21.61-5.24-13-10.79-25.86-16.09-38.83C66,316,63.61,308.06,64.26,299.57a19.49,19.49,0,0,1,5.58-12.7C75.41,281.33,81,275.79,87,270.66c6.74-5.82,11.74-12.54,13.55-21.39.84-4.09,3.27-7.13,6.25-9.87,8.43-7.74,18.67-12,29.41-15.27,3.47-1.06,6.9-2.22,10.38-3.25,9.11-2.68,14.9-8.73,18.26-17.45,1.94-5,3.77-10.18,6.38-14.86,2.3-4.14,5.68-7.66,8.48-11.54,4.68-6.48,9.14-13.13,13.95-19.52,7.55-10,17.2-17.91,27-25.6,11-8.58,21.94-17.22,32.73-26.06,12.32-10.09,24.37-20.53,37.71-29.28,4.57-3,9.21-5.91,14-8.58a26.93,26.93,0,0,1,17.85-3.16,67.54,67.54,0,0,1,41.89,23.75c2.69,3.19,4.45,7.4,5.81,11.42,4.33,12.82,8.12,25.82,12.4,38.66,3.44,10.3,7.38,20.44,10.95,30.7a120.27,120.27,0,0,0,12.48,26.47c3.77,5.78,7.79,11.42,12.08,16.83A62.61,62.61,0,0,1,432.3,249.3c.45,9,.86,18,.74,27.06-.11,8.27-3,15.88-6.85,23.19-3.69,7.07-5.46,14.52-3.81,22.6a11,11,0,0,1-4,10.86c-4,3.33-8.31,6.21-12.55,9.19-9.08,6.38-18.08,12.85-25.1,21.61a5.42,5.42,0,0,0-.53.63c-4.82,8.4-11.19,15.67-17,23.36s-8.53,17-10.19,26.57-3.56,19-6.87,28.23c-3.7,10.3-10.52,17.69-19.67,23.33-9.64,5.94-20.19,9.05-31.31,10.28C287.87,477,280.55,477.28,273.26,477.78ZM430,261.61h-.51c0-3.69.08-7.38,0-11.06-.16-6.36-.35-12.71-2.61-18.8A76,76,0,0,0,415,211.45c-11.1-14.18-19-30-24.63-47q-10.2-30.75-20.52-61.46c-1.77-5.28-3.91-10.43-7.79-14.54a67.26,67.26,0,0,0-27.33-17.92c-13.66-4.7-26.16-3.28-37.78,5.6C281.7,87.8,266.29,99.24,251,110.88c-9.9,7.54-19.6,15.34-29.5,22.87-7.58,5.76-15,11.62-21.45,18.71-6,6.68-10.68,14.34-15.69,21.77-7.12,10.57-14,21.17-18.34,33.31a21,21,0,0,1-12,12.35A75.09,75.09,0,0,1,141.87,224c-9.53,2.24-18.66,5.12-26.66,11.12-6.23,4.67-11,10.1-12.86,17.88a30.18,30.18,0,0,1-9.75,16.05c-1.91,1.66-3.89,3.24-5.74,5-4.4,4.09-9,8-13,12.43C68.76,292,65.74,298.7,67,306.38a68.33,68.33,0,0,0,4.13,14.74C76.56,334.39,82.54,347.44,88,360.7a72.9,72.9,0,0,0,19.31,26.91,133.57,133.57,0,0,1,10.06,9.91c6.18,6.8,9.93,15.17,14.33,23.11,2.12,3.82,4.3,7.62,6.75,11.23a37.14,37.14,0,0,0,22.69,15.53c20.65,5,40.66,11.95,60.74,18.76,7.44,2.52,14.92,5.12,22.59,6.66,14.91,3,30,2.8,45.17,1.87a76.06,76.06,0,0,0,37.1-11.75c7.79-5,13.64-11.37,17.25-20,3.88-9.23,6-18.88,7.3-28.71,1.88-13.78,6.76-26.12,16.71-36.18a33.9,33.9,0,0,0,4.85-6.34,77.5,77.5,0,0,1,19.87-21.91c6.26-4.75,12.75-9.2,19.15-13.77,5.25-3.76,8-8.66,7.22-15.29A43.76,43.76,0,0,1,419,314c.26-6.24,2.78-11.8,5.53-17.25,3.34-6.62,5.62-13.49,5.52-21C430,271,430,266.32,430,261.61Z" />
            <path class="indonesia-cls-9" d="M425.18,261.08q0,8.2,0,16.4a33.15,33.15,0,0,1-6.54,19.31,28.25,28.25,0,0,0-5.34,19.33,56.9,56.9,0,0,1,0,9.83,11.26,11.26,0,0,1-1.94,5c-3.5,5.21-9,8-14,11.53-10.36,7.29-19.66,15.65-27.16,26-2.84,3.91-6.4,7.3-9.46,11.07-7,8.58-10.57,18.52-11.88,29.43a188.58,188.58,0,0,1-3.06,19.83c-3.23,14-12,23.83-24.15,31.18-14.74,8.93-30.73,11.54-47.65,10.94a178.4,178.4,0,0,1-48.7-8.81c-21-6.76-41.77-14-62.82-20.45-13.88-4.27-22.63-13.49-28.34-26.24-3.78-8.45-7.87-16.73-14.14-23.65a108,108,0,0,0-9.63-9.5,59.84,59.84,0,0,1-18.07-26.2,185.62,185.62,0,0,0-14.36-31.48c-3.64-6.36-6.28-13.08-6.35-20.55a20,20,0,0,1,5.78-14.48C84,282.67,90.65,275.77,97.45,269a37.5,37.5,0,0,0,9.6-16.67c2.11-7.27,6.1-13.44,12.79-17.18a86.15,86.15,0,0,1,14.8-6.43c5.5-1.83,11.3-2.71,16.87-4.36,9.16-2.71,15.76-8.53,19-17.55C174.83,195,181.8,184.69,188,173.9c5.29-9.25,11.16-18.12,19.18-25.19,7-6.13,14.39-11.76,21.79-17.38,14.76-11.21,29.68-22.2,44.44-33.41,6-4.54,11.46-9.78,17.61-14.06a169.32,169.32,0,0,1,17.54-10.13C315,70.3,321.84,70.18,328.88,72a61.73,61.73,0,0,1,32.66,20.07c3.76,4.42,6,9.81,7.81,15.27,6.11,18.14,12.21,36.28,18.13,54.48,5,15.21,10.83,30,20,43.22q4.49,6.5,8.92,13a51.44,51.44,0,0,1,9.13,31.55c-.14,3.82,0,7.65,0,11.47Zm-2.9-.3h.41c0-1.85,0-3.69,0-5.54-.2-6.48,0-13-.8-19.43-1-7.75-5.08-14.44-9.65-20.63-12.84-17.39-21.62-36.67-27.65-57.34-3.79-13-7.58-26-12-38.77a125.62,125.62,0,0,0-10.06-21.95c-7-11.89-18.45-17.9-31.24-21.67A33.19,33.19,0,0,0,304,78.93a129.91,129.91,0,0,0-12.82,8.48c-6.18,4.73-12,10-18.15,14.71-5.22,4-10.88,7.34-16.18,11.2-12.05,8.76-24,17.72-36,26.48-9.53,6.92-18.47,14.46-24.7,24.59-8.85,14.39-17.2,29.07-23.52,44.8-3.21,8-8.86,13.44-17.13,15.87-5.63,1.66-11.37,3-17.09,4.32-14.82,3.52-25.62,11.38-30.07,26.7-1.82,6.26-5.67,11.46-10.23,16.14-6.06,6.21-12,12.52-18,18.85-5.64,6-7.36,13.12-5,20.9a59.45,59.45,0,0,0,5.64,12.46c5.09,8.61,10,17.28,13.11,26.84,4,12.4,11.22,22.54,20.91,31.1a65,65,0,0,1,14.7,18.55c2.89,5.5,5.65,11.07,8.49,16.6,5.09,9.92,12.75,17.06,23.34,20.71,18.62,6.42,37.35,12.5,55.93,19s37.3,10.9,56.9,11.39a130.43,130.43,0,0,0,20.65-.83c13.63-1.84,25-8.69,35.49-17.3a41.85,41.85,0,0,0,15-25.85c1.3-7.33,2.07-14.75,3.19-22.11,1.77-11.56,6.42-21.69,15.08-29.8a46.82,46.82,0,0,0,4.1-4.58,139.75,139.75,0,0,1,28.13-26.53q4.54-3.17,8.9-6.59c4.31-3.38,7-7.58,6.61-13.37-.16-2.44.27-4.92.21-7.38-.15-6,1.62-11.41,4.43-16.64,3.27-6.09,6.49-12.22,6.37-19.46C422.21,272.4,422.28,266.59,422.28,260.78Z" />
            <path class="indonesia-cls-10" d="M420,249.37c-.43,10.52-.8,21-1.31,31.55A30.12,30.12,0,0,1,414,295.19a39.32,39.32,0,0,0-6.12,21.8c0,2.12-.29,4.24-.23,6.35a12.31,12.31,0,0,1-4.9,10.35c-4.88,4-9.77,7.94-14.79,11.72-9.79,7.39-17.6,16.78-26.13,25.45-10.52,10.69-15.25,23.64-16.24,38.38a126.71,126.71,0,0,1-2.79,18.4,31.46,31.46,0,0,1-9.52,16.21,105.31,105.31,0,0,1-24.53,17c-9.56,4.92-19.92,6.08-30.52,5.67a200.25,200.25,0,0,1-50.78-9c-16.53-5.06-32.76-11.09-49.11-16.74-4.46-1.54-8.83-3.35-13.3-4.83-12.82-4.25-21.54-12.94-27-25-3.81-8.44-7.82-16.73-13.85-23.85a63.56,63.56,0,0,0-6.14-6.61c-9.3-8.25-16.34-18-20.2-29.88-3.29-10.17-8.59-19.32-14.15-28.37a49.45,49.45,0,0,1-5-10.71A16.84,16.84,0,0,1,82,294.72c5.9-6.92,11.87-13.78,18.05-20.43a56.45,56.45,0,0,0,12.25-20.19c3.56-10.34,10.78-17,20.86-20.5,4.94-1.71,10.24-2.38,15.3-3.78a95.91,95.91,0,0,0,13.38-4.43c6-2.69,10.06-7.53,12.84-13.54,5.43-11.79,10.92-23.56,16.59-35.25,6.72-13.85,16.83-24.77,29.37-33.61s24.59-17.79,37-26.57c6-4.23,12.16-8.13,18.16-12.3a61.44,61.44,0,0,0,7-5.64c8.11-7.61,17.42-13.41,27.3-18.36,7.45-3.73,15.11-3.16,22.79-.84,18,5.44,30.14,17.07,36.08,34.88,4.6,13.81,8.67,27.79,13.15,41.64,3.7,11.44,7.14,23,12.37,33.87,4.34,9,9.83,17.36,15.31,25.71,4.15,6.31,8.09,12.77,9.36,20.35.75,4.49.89,9.08,1.3,13.62Zm-2.73-1.3.63,0c-.48-5.09-.62-10.24-1.53-15.25-1.09-6-4.47-11.13-7.86-16.12-5.67-8.32-11.18-16.69-15.35-25.91-6.81-15-11.19-30.82-15.53-46.65-3.31-12.08-6.95-24-12.73-35.22C357.71,94.93,347,85.43,331.43,82c-7.6-1.69-15.16-2.07-22.17,1.89A198.37,198.37,0,0,0,292.08,94.6c-6,4.26-11.53,9.22-17.51,13.55-4.81,3.48-10.22,6.14-14.93,9.74-11.74,9-23.51,17.87-36,25.82a84,84,0,0,0-32.4,37.2c-4.9,11-9.89,21.94-14.82,32.91a25.85,25.85,0,0,1-11.87,12.58c-6.33,3.35-13.18,4.86-20.17,6-14,2.19-24.62,8.71-29.6,22.66a61.8,61.8,0,0,1-13.47,21.83c-6.89,7.32-13.4,15-18.67,23.62A12.59,12.59,0,0,0,81,309.91c1.15,5.63,4.18,10.37,7.27,15a107.88,107.88,0,0,1,12.88,25.56,60.1,60.1,0,0,0,14.34,23.39c4.1,4.2,8,8.63,11.68,13.2,5.57,6.92,9.12,15,13.08,22.92,4.72,9.38,11.3,17.11,21.25,21,18.06,7.12,36.15,14.21,54.46,20.65a245.26,245.26,0,0,0,62,12.75,54.61,54.61,0,0,0,26.85-4.42c9.34-4.14,17.58-10,25.4-16.45A34,34,0,0,0,342.35,423c1.13-6.31,1.9-12.71,2.41-19.1A52.4,52.4,0,0,1,356,374.5c7.68-9.61,16.65-18,25.85-26,5.9-5.19,12.12-10,18.22-15,3.24-2.64,4.66-6.15,5-10.19.13-1.36.29-2.73.29-4.09,0-8.4,2.61-16.14,6.06-23.66,2.44-5.32,4.34-10.83,4.64-16.71C416.63,268.58,416.91,258.32,417.29,248.07Z" />
            <path class="indonesia-cls-11" d="M280.29,460.42c-7.92.11-15.63-1.81-23.38-3.5-12.29-2.69-24.65-5.09-36.84-8.2-13.15-3.36-25.44-9.2-37.89-14.52-5.78-2.47-11.62-4.82-17.36-7.41a44,44,0,0,1-23.07-23.14c-5.11-11.9-12.56-22-21.27-31.41-4.66-5-9.2-10.19-12-16.55-1.7-3.88-3.14-7.88-4.5-11.88a75,75,0,0,0-9.5-18.1,102.7,102.7,0,0,1-6.15-9.93c-3.64-6.89-2.73-13.4,2-19.54,7.08-9.13,14.25-18.2,21-27.57a58,58,0,0,0,6.86-12.76c4.32-11,11.9-18,23.6-20.24,2.22-.43,4.45-.79,6.63-1.38,4.68-1.26,9.43-2.37,14-4.06A28.15,28.15,0,0,0,179,214.08c4.22-10,8.43-20,12.8-30,7.8-17.74,20.33-31.23,37-41a197.45,197.45,0,0,0,27-19A139.13,139.13,0,0,1,273,112.38c8.05-4.88,15.27-10.81,22.52-16.74,6-4.93,12.43-9.27,20.26-10.78,15.94-3.07,29.07,2.33,40,13.82,7,7.35,11.21,16.4,14.32,25.82,4,12.13,7.36,24.47,10.72,36.8,5,18.34,12.25,35.64,22.75,51.56A120.52,120.52,0,0,1,411.75,228c2.49,5.28,3.05,11,2.61,16.84-.89,11.79-1.58,23.59-2.39,35.39a39.69,39.69,0,0,1-5.3,16.47c-3.62,6.59-6.07,13.46-5.63,21.12,0,.68-.08,1.37,0,2.05.35,6.51-2.59,11.3-7.44,15.41-10.69,9.07-21.37,18.16-31.74,27.59-8.84,8-15.61,17.66-18.36,29.5-1.06,4.55-1,9.35-1.53,14-.44,4.28-.69,8.59-1.41,12.83a32.36,32.36,0,0,1-10.94,19.23,111.89,111.89,0,0,1-28,18A47.57,47.57,0,0,1,280.29,460.42ZM412.64,243.33c.16-8.12-2.23-15.46-6.2-22.34-4.16-7.23-8.73-14.23-12.74-21.53-8-14.5-12.76-30.18-16.46-46.22C374.63,141.9,371.92,130.6,367,120c-4.17-8.94-9.14-17.35-17.18-23.42-10.42-7.86-22-11.14-34.94-8a44.89,44.89,0,0,0-19.16,10.32,114.64,114.64,0,0,1-20.31,14.81,97.28,97.28,0,0,0-13.82,9.16,309.06,309.06,0,0,1-34.46,24,79.32,79.32,0,0,0-22.87,20,113.48,113.48,0,0,0-13.7,24.45c-3.53,8.31-6.81,16.72-10.28,25A28.59,28.59,0,0,1,165,231.76a61.88,61.88,0,0,1-18,4.68c-11.6,1.48-19.94,7.19-24.77,18a89,89,0,0,1-7,13.21c-5.09,7.62-10.65,14.91-16,22.37-2.62,3.67-5.27,7.33-7.7,11.12a12.47,12.47,0,0,0-.23,14c1.15,1.94,2.35,3.86,3.41,5.85,4.4,8.26,9.46,16.25,12.94,24.88,3.93,9.75,8.77,18.65,16.15,26.12A69.92,69.92,0,0,1,135.3,387.4c2.81,5.09,5.76,10.1,8.51,15.22,4.57,8.48,10.73,15.36,19.53,19.53,10.38,4.91,20.83,9.68,31.27,14.47,12.59,5.77,25.49,10.69,39.12,13.41,12,2.4,24,4.8,36,7.1,12.28,2.35,24.1,1.14,35.27-4.8a162.35,162.35,0,0,0,22-14.64,30.06,30.06,0,0,0,12-19.6A151.71,151.71,0,0,0,341,400.37c.65-14.58,7.27-26.31,17.1-36.45,4.46-4.61,9.44-8.72,14.28-13,6-5.28,12.16-10.41,18.18-15.68,4.39-3.84,7.57-8.32,8-14.48.6-8.32,3.05-16.22,5.92-24a100.07,100.07,0,0,0,4.22-13.9c.78-3.71.48-7.62.87-11.42C410.53,262.07,411.61,252.7,412.64,243.33Z" />
            <path class="indonesia-cls-12" d="M409.66,242.51c-1.13,10.12-2.29,19.61-3.23,29.13-.64,6.47-.84,13-3.16,19.16-1.42,3.77-3.5,7.34-4.54,11.2-1.71,6.32-3,12.76-4.11,19.21-.77,4.57-2.31,8.63-5.75,11.72-7.83,7-15.6,14.15-23.7,20.86-9.22,7.64-17.39,16-22.46,27.05-2.92,6.38-3.55,13.12-4.06,20-.36,4.9-.78,9.81-1.54,14.66A27.59,27.59,0,0,1,327,432.8a137.33,137.33,0,0,1-26.14,16.86,43.8,43.8,0,0,1-28,3.87c-18-3.22-36.06-6.06-53.54-11.45a213.4,213.4,0,0,1-25.1-10c-9.71-4.41-19.19-9.32-28.72-14.1-9.95-5-16.68-13.07-21.53-22.89a116.37,116.37,0,0,0-20.07-29.11,50.26,50.26,0,0,1-11.74-20c-2.82-9.07-7.55-17.1-12.6-25-1.14-1.78-2.19-3.63-3.21-5.49a13.38,13.38,0,0,1,.57-14.58c4.84-7.45,10-14.67,14.78-22.19,4.91-7.8,9.89-15.62,14-23.84,4.28-8.52,10.63-13.62,19.84-15.54,4.68-1,9.36-2,13.94-3.39,11.79-3.49,19.8-10.83,24-22.66,3.81-10.6,8.22-21,13-31.24a72.36,72.36,0,0,1,31.75-33.6,224.35,224.35,0,0,0,35.14-24,96,96,0,0,1,13.77-8.84c6.72-3.81,12.51-8.79,18.43-13.64,6.81-5.58,14.3-10,23.17-11.2,14.78-2,26.9,3.11,36.77,14.25,8.29,9.36,13.27,20.28,16.36,32.24s6.11,24,9.41,35.88a145.58,145.58,0,0,0,18.22,39.75c3.66,5.7,7.15,11.57,8.54,18.31C408.89,235,409.2,239.07,409.66,242.51Zm-129,209.64a41.69,41.69,0,0,0,20-5.24c7.92-4.56,15.63-9.52,23.26-14.56a25.81,25.81,0,0,0,11.29-16.09c1.06-4.65,1.59-9.42,2.24-14.15.7-5.07.63-10.33,2-15.2a58.4,58.4,0,0,1,19.79-30.22c7.44-6,14.82-12.13,22.06-18.4a33.86,33.86,0,0,0,11.89-21.4,86.49,86.49,0,0,1,3.26-13.33c2.76-8.87,6.09-17.52,6.94-26.93.91-10.14,2.45-20.22,3.7-30.34.78-6.33.6-12.62-2-18.55a111.51,111.51,0,0,0-6.18-12.48c-5.9-10-11.39-20.09-15.48-31-5.16-13.74-8.23-28-11.48-42.29-2.82-12.38-7.49-23.88-16.08-33.46C345.45,97,332.55,92.08,317.13,94.61c-7.84,1.28-14.46,5.3-20.52,10.24A140.89,140.89,0,0,1,277,118.64a87.42,87.42,0,0,0-11.86,7.68c-10.64,8.54-21.6,16.56-33.75,22.83C216.13,157,205,169,197.47,184.24c-4.09,8.25-7.22,17-10.74,25.5-1,2.53-2,5.09-2.94,7.65-4,10.88-12.11,17.1-22.87,20.27-5.31,1.57-10.71,2.81-16,4.35-7.17,2.08-12.14,6.68-15.62,13.28-3.21,6.1-6.77,12-10.44,17.88C113,282.44,107,291.56,101,300.76c-2.15,3.34-3.34,7-2.41,10.93a28.56,28.56,0,0,0,3.15,7.72c4.58,7.78,9.43,15.41,12.19,24.1a57.2,57.2,0,0,0,11.16,19.92A200.86,200.86,0,0,1,148,396.68c3.94,7.13,9.15,13.11,16.47,17,7.73,4.11,15.47,8.19,23.16,12.37,14.5,7.87,29.51,14.34,45.81,17.49,10.07,1.95,20.12,4.06,30.2,5.95C269.27,450.54,275,451.28,280.63,452.16Z" />
            <path class="indonesia-cls-13" d="M404.71,241.22c-1.51,9.93-3.05,19.85-4.52,29.78-.47,3.18-.89,6.37-1.09,9.57a40.66,40.66,0,0,1-3.1,13.11,102.68,102.68,0,0,0-6.67,23.64,34,34,0,0,1-11.05,20.34A203.65,203.65,0,0,1,361,351.82a68.53,68.53,0,0,0-22,27.35c-2.79,6-3,12.69-3.72,19.22a109,109,0,0,1-2.21,15c-2,8.22-7.55,14.15-14.62,18.27-8.37,4.88-17,9.34-25.8,13.44-6.1,2.84-12.84,2.75-19.37,1.56-15.47-2.82-31-5.61-46.32-8.91-14.79-3.18-28.2-9.91-41.15-17.56-6.54-3.86-13.2-7.5-19.69-11.44a48.1,48.1,0,0,1-17.44-18.42,149.37,149.37,0,0,0-19.09-27.86,61.14,61.14,0,0,1-12.43-21.76c-2.61-8-6.59-15.31-10.9-22.46-3.31-5.5-3.36-11-.08-16.5,5.47-9.15,11-18.26,16.49-27.42,2.94-4.93,6.05-9.79,8.58-14.94,4.15-8.46,10.81-13.5,19.72-16a127.29,127.29,0,0,0,13.47-4.26c11-4.43,18.12-12.45,22-23.69,3-8.77,6.48-17.43,10.12-26,7.08-16.64,18.6-29.35,34.76-37.64a184.8,184.8,0,0,0,35.52-23.43,68.63,68.63,0,0,1,12.14-8,111,111,0,0,0,18.18-12.57c8.4-6.91,17.9-11.16,29-10.48,16.6,1,28.4,9.76,36.52,23.78,5.62,9.71,8.12,20.56,10.4,31.41,2.82,13.39,5.65,26.79,11.42,39.28,3.75,8.12,8.09,16,12.28,23.87,3.18,6,6.45,11.94,7.18,18.84.23,2.17.24,4.36.35,6.54ZM323.24,101.33c-7.09-.33-13.73,2-19.87,5.87-2.77,1.74-5.31,3.85-8,5.69-5,3.37-9.77,7.08-15,9.9-7.42,4-13.65,9.56-20.57,14.15-9.1,6-18.59,11.52-28.11,16.88-13,7.33-23.46,17.19-30.51,30.41a164.35,164.35,0,0,0-12.61,30.68C184.39,228.77,175.63,238,162,242.63c-4.4,1.5-8.83,2.9-13.2,4.49-4.67,1.7-8.71,4.34-11.32,8.72q-13.87,23.25-27.66,46.55c-2.94,5-2.93,10.1-.58,15.33,3.89,8.66,7.62,17.4,11.63,26,1.87,4,3.75,8.15,6.42,11.63q13.08,17,24.56,35.13a50,50,0,0,0,16.52,16c8.9,5.38,17.81,10.73,26.78,16,8.82,5.15,17.87,10,28,12.08,16.94,3.46,34,6.54,51,9.54,6.24,1.1,12.66,1.21,18.59-1.41A157.88,157.88,0,0,0,319,428.53c8.2-5.66,13.35-13.18,14.37-23.27.5-4.9,1-9.8,1.67-14.67,2.28-16.19,10.68-28.72,23.4-38.59,4.43-3.44,9-6.7,13.3-10.3a44.31,44.31,0,0,0,15.28-24.86c1.62-7.19,3.86-14.23,5.85-21.33.81-2.89,2-5.71,2.48-8.66,2.16-13.22,4.1-26.48,6.19-39.71a41.23,41.23,0,0,0-3.88-25.53c-2.61-5.19-5.48-10.25-8.3-15.33-8.09-14.56-12.58-30.37-16.29-46.48-2.12-9.18-4.06-18.46-7-27.37C360.79,116.78,346.42,100.93,323.24,101.33Z" />
            <path class="indonesia-cls-14" d="M399,240c-1.56,9-3.17,18-4.67,27-.54,3.23-.62,6.55-1.29,9.75-1.29,6.14-2.71,12.26-4.33,18.32-2.06,7.72-4.54,15.32-6.52,23.06-2.25,8.82-6.26,16.47-13.59,22.1-4.34,3.33-8.81,6.49-13.13,9.85-10.59,8.24-18.47,18.51-21.89,31.61-1.53,5.84-2,12-2.64,18-1,9.69-5.56,17.07-13.29,22.82s-16.29,9.16-24.93,12.79a37,37,0,0,1-20.93,2c-13.08-2.18-26.18-4.26-39.27-6.36a82.92,82.92,0,0,1-33.64-12.83c-10.28-6.89-20.72-13.53-31-20.36-6.14-4.06-10.88-9.51-15.12-15.46q-9.28-13-18.72-25.94A82.31,82.31,0,0,1,122.9,336c-1.92-5.26-4.29-10.35-6.54-15.49a22.35,22.35,0,0,1,.86-20.49c4.7-8.88,9-18,13.81-26.8a129.5,129.5,0,0,1,8.25-12.72,33.88,33.88,0,0,1,15.74-12c4.32-1.71,8.56-3.62,12.76-5.61,10.38-4.93,17.16-12.84,20.7-23.9a246.81,246.81,0,0,1,10-26.65C204,180,211.21,168.74,222.67,161a114,114,0,0,1,14.82-8.31,152.19,152.19,0,0,0,28.34-17.18c7.05-5.46,14.83-10,22.25-15,3.63-2.44,7.32-4.81,10.71-7.56,8.14-6.59,17.32-9.05,27.71-8.49,20,1.08,34.33,12.87,40,33.35,2.71,9.87,4.6,20,6.75,30a158.33,158.33,0,0,0,17,44c4.36,7.82,7.86,16,8.17,25.12,0,1,0,1.91,0,2.87ZM322.14,108.53c-8.18-.66-15.86,2.28-22.76,7.64-1.4,1.09-2.84,2.14-4.34,3.09-6.12,3.87-12.55,7.32-18.35,11.62a260.68,260.68,0,0,1-43.4,26.35,64,64,0,0,0-27.13,24.33c-7.13,11.38-12,23.8-15.68,36.64-3.38,11.84-9.91,20.88-21,26.42-3.55,1.77-7,3.72-10.69,5.21-12,4.9-20,13.89-25.63,25.14-4.44,8.79-8.64,17.69-12.93,26.55a23.52,23.52,0,0,0-.53,20.06c1.59,3.85,3.16,7.72,4.54,11.65a81.63,81.63,0,0,0,12.34,22.81c5.79,7.54,11.37,15.24,17.07,22.84A74.74,74.74,0,0,0,166.7,393a320.53,320.53,0,0,0,35.73,24.74,84.73,84.73,0,0,0,33.73,11.41c11.06,1.3,22.07,3.08,33.07,4.87,5,.8,9.91,1.88,14.86.81a87.8,87.8,0,0,0,34.31-15.93A28.21,28.21,0,0,0,329.5,400.6c.68-3.9,1.17-7.84,1.76-11.76.89-5.88,1.91-11.71,4.67-17.11a71.2,71.2,0,0,1,26.23-28.18c9.69-6.09,15.41-14.83,17.66-26,1-5,2.48-9.81,3.85-14.68,2-7.17,4.57-14.21,6.13-21.47,1.92-8.94,3.16-18,4.46-27.1.84-5.87,1.79-11.8,1.77-17.7,0-8.38-3.25-16-7.26-23.27a169,169,0,0,1-18.58-51.89c-1.62-8.87-3.17-17.77-6.45-26.25-2.24-5.79-4.95-11.29-9.64-15.54C345.23,111.55,334.63,108.28,322.14,108.53Z" />
            <path class="indonesia-cls-15" d="M393.37,238.06c.17,8.72-1.94,16.76-3.39,24.9-1.86,10.42-3,21-6.21,31.15-2.75,8.8-5,17.75-7.6,26.61a68.45,68.45,0,0,1-2.85,7.9c-2.3,5.34-6.52,9-11,12.41-5.5,4.16-11.27,8.11-16.07,13-7.48,7.62-13.52,16.36-15.56,27.2-.86,4.56-1.53,9.16-2.21,13.75-1.48,9.91-6.23,17.6-14.89,22.92-7.31,4.49-14.74,8.68-23.07,11A45.54,45.54,0,0,1,272,430c-11.24-1.54-22.5-3.09-33.79-4.18-15.37-1.49-29.25-6.53-41.58-15.89-7.73-5.87-15.66-11.49-23.39-17.38a114.72,114.72,0,0,1-23.58-24.42c-4.68-6.49-9.63-12.78-14.27-19.29-6.13-8.6-9-18.64-12.36-28.48a21.5,21.5,0,0,1-.12-14.27c.81-2.39,1.89-4.68,2.87-7,2.84-6.74,5.61-13.51,8.54-20.21a53,53,0,0,1,26.52-27.38,147.09,147.09,0,0,0,13.43-7.47,36.09,36.09,0,0,0,16.21-21.86c3.24-11.54,7.22-22.79,13.09-33.31,8.37-15,20-26.46,35.87-33.24,13.06-5.57,24.75-13.3,36.18-21.6,6.46-4.69,13.46-8.62,20.22-12.9a38.07,38.07,0,0,0,3.56-2.43c7.23-5.84,15.5-7.93,24.71-7.58,11,.41,21,3.53,29.5,10.69,5.34,4.49,8.27,10.6,10,17.12,2.22,8.44,3.86,17,5.63,25.6a190.26,190.26,0,0,0,18,50.19C391.19,222.18,394,229.83,393.37,238.06Zm-1.57,1.31-.47-.11c-.14-2-.21-4.1-.42-6.13-.87-8.11-4.08-15.45-7.75-22.57-7.83-15.21-12.68-31.35-16-48.07a241.69,241.69,0,0,0-6.13-24.63c-2.82-9.16-9-15.4-18.26-18.54a70.09,70.09,0,0,0-25.6-3.94A26.8,26.8,0,0,0,304.28,119c-7.5,4.51-15.09,8.89-22.42,13.66-6,3.91-11.42,8.81-17.6,12.38-9.22,5.32-18.79,10.07-28.39,14.68A64.17,64.17,0,0,0,209,183.36c-7.57,11.81-12.7,24.68-16.42,38.09-3.21,11.58-9.76,20.33-20,26.39-4.71,2.78-9.49,5.43-14.23,8.17-8.87,5.13-16.11,11.95-20.27,21.39-4.29,9.75-8.12,19.72-11.85,29.7-1,2.66-1.77,5.94-1.15,8.58a209,209,0,0,0,6.62,22.17c2.46,6.92,7.4,12.42,11.82,18.16,6.76,8.77,13.34,17.72,21.49,25.31A331.38,331.38,0,0,0,200.85,410a71.44,71.44,0,0,0,34.71,13.09c12.66,1.21,25.27,2.85,37.93,4.08a54.65,54.65,0,0,0,11.44-.13c9-1,16.92-4.95,24.43-9.63A58.58,58.58,0,0,0,321,408.24c4.71-5,6-11.74,6.92-18.34,1.19-8.3,2.93-16.36,7.18-23.76,6.3-11,15.23-19.24,25.72-26,3.93-2.54,7.4-5.48,9.27-9.86a100.91,100.91,0,0,0,4.18-11.11c2.35-8,4.66-16,6.56-24.14,2.56-11,4.83-22,7-33.07C389.38,254.46,390.51,246.9,391.8,239.37Z" />
            <path class="indonesia-cls-16" d="M389.5,238.85a374.74,374.74,0,0,1-8.86,50.42c-3,12-6.47,23.89-9.59,35.86a22.91,22.91,0,0,1-8.75,13c-3.78,2.82-7.78,5.36-11.45,8.32a62,62,0,0,0-23.29,40.38c-.35,2.36-.89,4.7-1.31,7.05a26.61,26.61,0,0,1-10.84,17.27c-8,5.91-16.63,10.56-26.43,12.69a60.72,60.72,0,0,1-19.59.57c-9.78-1.06-19.57-2.21-29.39-2.61a66.6,66.6,0,0,1-41-15.53c-8.32-6.9-16.69-13.74-25.21-20.38-11.67-9.1-21.05-20.25-29.77-32.07-4.54-6.16-9.58-12-12.25-19.32-2.25-6.17-4.46-12.4-4.45-19.07a20.47,20.47,0,0,1,1.18-6.6c3-8.7,6.34-17.32,9.42-26a45.42,45.42,0,0,1,20.93-24.86c4.5-2.6,9-5.27,13.47-7.84,10.91-6.21,17.6-15.45,21.16-27.51a181.78,181.78,0,0,1,10-26.63c8.82-18.53,23.12-31.57,42.07-39.54,11.14-4.68,21.23-11.19,31.26-17.89,9.48-6.33,19.39-12,29.22-17.83a25.27,25.27,0,0,1,13.63-3.18,74.2,74.2,0,0,1,27.26,6.17c6,2.49,9.68,7.19,12.27,12.92a76.11,76.11,0,0,1,5.7,20.48,192.18,192.18,0,0,0,19,58.64C387.5,223,389.76,230.6,389.5,238.85ZM277.2,421.92c3.14-.27,6.77-.41,10.34-.94,9.93-1.47,18.36-6.37,26.54-11.83,5.66-3.78,9-9.07,10.62-15.53.59-2.31,1.13-4.65,1.62-7,1.71-8.11,3.64-16.17,8.05-23.32,5.83-9.45,13.23-17.46,22.89-23.09A24.17,24.17,0,0,0,369,324.66c1.8-7,3.51-14.06,5.48-21,5-17.8,8.18-36,11.45-54.15,1.32-7.34,2-14.71-.15-22a91.05,91.05,0,0,0-5-13.41c-7.26-15.32-13.25-31-16.15-47.81a233.37,233.37,0,0,0-5.15-23c-2.9-10.4-10.14-16.43-20.63-18.58q-8.24-1.68-16.54-3.08c-5.11-.85-10.22-.54-14.83,1.9-8.51,4.51-17,9.12-25.25,14.06-5.63,3.36-10.65,7.75-16.36,10.93-9.12,5.09-18.56,9.63-27.92,14.3a68.86,68.86,0,0,0-25.77,22c-8,11.25-12.53,24.06-16.89,37a129.9,129.9,0,0,1-4.72,13.09c-3.27,7.08-9.2,11.8-15.62,15.88-5.77,3.67-11.76,7-17.42,10.82-7.38,5-13.33,11.31-16.28,20-3.07,9.06-6.1,18.13-9.34,27.13a27.4,27.4,0,0,0-1.16,14.33,49.55,49.55,0,0,0,7.52,18.93c8.55,12.87,18,24.91,30,34.83,11.5,9.49,22.75,19.28,34.14,28.91a54.62,54.62,0,0,0,29.46,12.88c6.71.78,13.51.76,20.26,1.24C260.36,420.48,268.53,421.21,277.2,421.92Z" />
            <path class="indonesia-cls-17" d="M279.2,415.9c-1.25,0-2.48,0-3.71,0-12.63-.52-25.27-1-37.9-1.62a47.82,47.82,0,0,1-29.84-12.07c-13.22-11.58-26.6-23-39.73-34.67-9.38-8.34-17.85-17.56-24.39-28.37-3.44-5.68-5.77-11.77-6-18.53a27,27,0,0,1,2.59-12.74,83.1,83.1,0,0,0,7.27-22.55c1.66-10.24,8.24-17.19,16.41-22.83,5.57-3.84,11.32-7.43,16.92-11.22,8.79-5.94,14.16-14.16,16.67-24.48a154.89,154.89,0,0,1,12.16-33.24c7.47-14.8,19.3-24.77,34.42-31,9.23-3.83,18.51-7.54,26.82-13.18,6.79-4.61,13.34-9.55,20.22-14,5.09-3.31,10.47-6.19,15.81-9.1a22.41,22.41,0,0,1,15.71-2.53c7.53,1.65,15.16,3.28,22.33,6,8.82,3.37,13.6,10.67,15.44,19.84,1.75,8.71,3.35,17.44,5.13,26.14,2.62,12.82,7.59,24.82,13.29,36.51,4.28,8.78,7.6,17.83,7.23,27.68-.21,5.63-1.38,11.24-2.37,16.82-4.12,23.1-9.93,45.81-15.67,68.54-1.46,5.79-5.48,9.38-10.19,12.57a114,114,0,0,0-12.91,9.72c-10.59,9.64-16.51,21.94-19.34,35.84-.44,2.14-1,4.26-1.53,6.38-2.2,8.45-8.39,13.54-15.3,17.95C299.73,413.46,289.95,416.52,279.2,415.9Zm2.65-2.74c7.64.54,16.16-2.72,24.34-7.09,5-2.65,10.15-5.31,12.92-10.41a61.49,61.49,0,0,0,5.51-13.81c2.69-10.39,6.41-20.17,13.3-28.56a67.17,67.17,0,0,1,18.36-15.91A20.06,20.06,0,0,0,366.07,325c.91-3.22,1.64-6.49,2.35-9.76,4.56-21,10.67-41.72,14-63,.93-5.89,2-11.72,1.18-17.72-1.22-9-4.54-17.3-8.5-25.36a142.7,142.7,0,0,1-12.81-39.44c-1.2-7.13-2.7-14.24-4.54-21.23-2.06-7.82-6.82-13.75-14.82-15.92-8.16-2.22-16.51-3.77-24.81-5.43a15.56,15.56,0,0,0-9.4,1.47,115.56,115.56,0,0,0-22.49,12.65,197.06,197.06,0,0,1-43.18,24.61c-13.45,5.54-24,14.5-30.92,27.52A157.48,157.48,0,0,0,199.79,225a83.8,83.8,0,0,1-5.7,15.29c-3.2,6.32-9,10.32-14.73,14.28-6.62,4.59-13.38,9-19.62,14.11-5.07,4.12-8.73,9.61-9.41,16.34a68.39,68.39,0,0,1-6.78,22.88c-5.37,11.17-4.28,21.65,2.78,31.76a127.09,127.09,0,0,0,19.52,22.09c7.34,6.56,15,12.74,22.39,19.28,6.8,6,13.25,12.47,20.09,18.47,10.56,9.26,22.83,13.73,37,12.48a74,74,0,0,1,9.43-.18C263.18,412.16,271.58,412.65,281.85,413.16Z" />
            <path class="indonesia-cls-18" d="M259.79,409.36c-6.15,0-12.32-.22-18.46,0-12.26.54-22.62-3.48-31.44-12-8-7.67-16-15.32-24.31-22.67-6.86-6.07-14.22-11.56-21.18-17.53A79.13,79.13,0,0,1,146.52,336c-4.76-8.5-5.73-17.13-.7-26a32.6,32.6,0,0,0,3.36-7.47c1.66-6.19,3.14-12.44,4.32-18.73A23.54,23.54,0,0,1,159,272.59c5.33-6.22,12.2-10.5,18.89-15,2.95-2,5.89-4,8.78-6.05,7.29-5.24,11.43-12.58,13.69-21.07A179.29,179.29,0,0,1,211.26,200c5.05-10.7,12-19.8,22.08-26.1a105.29,105.29,0,0,1,14.56-7.5,167.76,167.76,0,0,0,33.63-19.09,130.92,130.92,0,0,1,26.7-15.15,18.42,18.42,0,0,1,10-1.7c9.07,1.38,18.06,3.09,26.58,6.7a17.28,17.28,0,0,1,8.7,8,54.78,54.78,0,0,1,5.78,18.93,164.58,164.58,0,0,0,15.64,50.49c3.43,7,6.31,14.4,6.5,22.29.13,5.48-.91,11-1.51,16.47-1.44,13.39-5.92,26.11-8.64,39.22-2.05,9.91-4.1,19.81-6.28,29.69a21.9,21.9,0,0,1-10.3,14.41c-16.49,10.32-26.72,25.25-31,44.1-2.93,12.88-11.42,20-23,24.87-10.82,4.54-22,4.45-33.29,3.87-2.52-.13-5.06,0-7.59,0Zm-.36-3v.39c3.83,0,7.67-.18,11.49,0,12.73.71,25-.65,36.24-7.31,5.08-3,9.79-6.38,12.32-11.92a71.42,71.42,0,0,0,3.52-9.39c3.34-11.3,8.07-21.91,16.48-30.33a123.18,123.18,0,0,1,14.84-12.23c4.45-3.23,7.43-7.16,8.56-12.52.24-1.14.59-2.25.84-3.38,4-18,8-36,11.88-54.08,1.38-6.41,2.67-12.86,3.59-19.35,1.4-9.87-1.3-19.16-5-28.13-2.86-6.87-6.39-13.47-9.12-20.39-4.09-10.36-5.58-21.39-7.51-32.29-1-5.81-2.22-11.56-5-16.83a14.86,14.86,0,0,0-6.24-6.61A77.65,77.65,0,0,0,322,134a26.12,26.12,0,0,0-12.17.92,86.27,86.27,0,0,0-23.54,11.89,239.29,239.29,0,0,1-42.17,24c-12.12,5.46-22,13.7-28.51,25.57a139.82,139.82,0,0,0-13.24,33.47,40.26,40.26,0,0,1-15.36,23.54c-2.3,1.71-4.67,3.35-7,5-5.34,3.92-10.9,7.58-15.94,11.85a23.3,23.3,0,0,0-8.52,17,44.29,44.29,0,0,1-6.12,21.06,48.3,48.3,0,0,0-3.4,8.12,19,19,0,0,0,.32,14.8,52.28,52.28,0,0,0,4.8,8.57c5.39,7.8,12.69,13.73,19.93,19.69,7.55,6.21,15.24,12.27,22.54,18.76,5.82,5.17,11.11,10.94,16.73,16.36,8.46,8.15,18.24,13.17,30.35,12.56C247,406.78,253.21,406.61,259.43,406.37Z" />
            <path class="indonesia-cls-19" d="M257.54,401.11c-6.63,0-13.27-.2-19.9,0-9.58.36-17.46-3.13-24.18-9.74-7.12-7-14-14.29-21.51-20.83-7.21-6.27-15.13-11.72-22.68-17.61-6.38-5-12.41-10.34-17.06-17.05-5.42-7.81-6.09-15.89-1.37-24.3,3-5.37,6.05-10.75,7.23-16.89a26,26,0,0,0,.64-6.1c-.4-8.1,2.84-14.62,8.84-19.64,5-4.2,10.53-7.8,15.83-11.66,2.76-2,5.64-3.87,8.28-6,6.32-5.18,10-12,11.92-19.87a152.59,152.59,0,0,1,13.09-33.32,52.46,52.46,0,0,1,18.51-20c6.41-4.12,13.47-7.23,20.12-11,8.5-4.81,16.92-9.77,25.31-14.78,7.16-4.27,14.07-8.91,21.75-12.32a35.33,35.33,0,0,1,25.79-1.6c5.08,1.6,10.06,3.53,15,5.51,3.63,1.46,5.71,4.55,7.36,7.95,2.64,5.43,3.39,11.35,4.56,17.18,1.71,8.5,2.95,17.15,5.51,25.39,2.38,7.65,6.12,14.9,9.45,22.23,5.38,11.83,7.16,24,4.16,36.77-1.89,8-3.89,16.06-5.61,24.13-2.53,11.89-4.82,23.84-7.28,35.75-.64,3.08-1.46,6.12-2.31,9.14a20.41,20.41,0,0,1-8.76,11.5c-8.91,6-16.46,13.46-21.61,22.94-3.28,6-5.76,12.52-8.51,18.84-3.26,7.52-7.59,14.09-15.3,17.75-9.84,4.67-20.1,7.39-31.1,7.08-5.4-.15-10.8,0-16.2,0Zm-.33-2.66v-.56c2.53,0,5.06.06,7.59,0,9.42-.28,18.92.12,28.14-2.33,12.61-3.34,22.41-9.88,27-23a116.26,116.26,0,0,1,8.78-18.25c5.08-9,12.64-15.75,20.84-21.8a20.16,20.16,0,0,0,7.87-11.4c.62-2.38,1.3-4.75,1.78-7.16,2.35-11.73,4.15-23.59,7.08-35.16a319.59,319.59,0,0,0,7-32.44,36.9,36.9,0,0,0,.35-9.38,67.45,67.45,0,0,0-8.1-24.8,90.41,90.41,0,0,1-9.75-27.5c-1.57-8.67-3.33-17.31-5.23-25.91a17.93,17.93,0,0,0-10.19-12.88,60.84,60.84,0,0,0-22.87-6,27.93,27.93,0,0,0-7.92.77c-8.69,2-16.56,6.11-24,10.92a408.79,408.79,0,0,1-43.32,25A51.81,51.81,0,0,0,218,200.35c-5,10-9.57,20.3-12.39,31.19-2.92,11.26-9.42,19.62-19.19,25.8a160.93,160.93,0,0,0-15.59,11.3c-6.1,5-9.44,11.31-9.39,19.59,0,4.32-1.31,8.8-2.8,12.93-1.64,4.53-4.1,8.78-6.31,13.1-3.8,7.41-3,14.31,1.91,20.95,4.76,6.38,10.68,11.51,17,16.27,7.3,5.54,15,10.66,21.86,16.65,7.54,6.52,14.48,13.74,21.53,20.8,6.44,6.44,14,9.76,23.18,9.55C244.22,398.33,250.72,398.45,257.2,398.45Z" />
            <path class="indonesia-cls-20" d="M256.23,395.72c-5,.24-10,.3-15,.74-10.54.93-19.08-3-26.4-10.27C206,377.3,197.14,368.33,187,360.76c-8.27-6.18-16.57-12.34-24.56-18.86a43.15,43.15,0,0,1-8-9.19c-4-5.93-3.74-12.1-.26-18.38a136.28,136.28,0,0,0,7.66-15.83,25.4,25.4,0,0,0,1.57-9.84,22.87,22.87,0,0,1,8.47-19,140,140,0,0,1,15.27-11.37c10-6.39,16.86-15,20-26.51,2.51-9.2,6.41-17.85,10.41-26.49,5.46-11.81,13.75-20.79,25.37-26.66,15.7-7.93,30.43-17.54,45.62-26.36a143.17,143.17,0,0,1,16.26-7.76c8.3-3.51,16.74-2.84,25.08,0,3.3,1.13,6.5,2.51,9.74,3.79,5.58,2.22,8.29,7,9.71,12.25a197.06,197.06,0,0,1,4.34,20.83A102.1,102.1,0,0,0,364.3,214c4.08,7.65,7.42,15.69,7.67,24.45a73.6,73.6,0,0,1-1.53,16.06c-1.64,8.37-4.07,16.57-5.83,24.92-2.14,10.16-3.83,20.41-5.92,30.58a127.63,127.63,0,0,1-3.6,13.45,16.8,16.8,0,0,1-6.43,8.58c-13.39,9.45-22.52,22.14-28.67,37.17-2.08,5.07-4.44,10-8.53,13.87a39.79,39.79,0,0,1-23.93,10.66c-10.4,1-20.85,1.66-31.27,2.46Zm1.75-2.66V393c.89,0,1.78,0,2.66,0,9.89-.42,19.85-.16,29.61-2.26,12.75-2.74,22.82-9.06,28.06-21.55,6.52-15.54,16.18-28.6,29.75-38.73a16.7,16.7,0,0,0,5.84-9c1.2-4.13,2.34-8.29,3.18-12.51,1.59-8,2.67-16,4.45-24,2.54-11.32,6.12-22.4,7.73-34,1.07-7.69,1.54-15.29-1.18-22.69-1.62-4.41-3.65-8.69-5.67-12.94-3.14-6.6-6.55-13.07-7.84-20.4-1.65-9.35-3.37-18.69-5.27-28-1.06-5.2-2.67-10.32-7.39-13.52-10.11-6.86-21.19-9.77-33.31-7.2-7.36,1.56-14,4.92-20.49,8.71-15.61,9.19-31.16,18.47-46.8,27.61A51.67,51.67,0,0,0,222.4,201a131.85,131.85,0,0,0-13.5,31.15,45.07,45.07,0,0,1-19.5,26.4c-4.28,2.81-8.45,5.82-12.48,9-7,5.47-11.18,12.29-10.9,21.61a32.91,32.91,0,0,1-5.09,17.93q-2.21,3.7-4.28,7.48c-4.32,7.9-4,14.06,2.17,20.65a120.42,120.42,0,0,0,14,12.53c8.34,6.54,17.2,12.41,25.36,19.15,6.68,5.52,12.71,11.83,18.93,17.9a29.63,29.63,0,0,0,23,8.91C246.09,393.44,252,393.28,258,393.06Z" />
            <path class="indonesia-cls-21" d="M255.49,390.87c-4.44,0-8.91-.31-13.32.07-8.94.76-16.39-2.38-22.9-8.12-4.92-4.34-9.65-8.9-14.45-13.38-8.08-7.54-17.23-13.68-26.16-20.12-5.8-4.19-11.27-8.85-16.79-13.42a17,17,0,0,1-3-3.84c-3.33-5.06-3.8-10.26-.72-15.66,2.27-4,4.45-8,6.65-12,2.34-4.27,4-8.87,3.77-13.7-.47-10.72,4.31-18.47,12.75-24.45,4.24-3,8.38-6.15,12.61-9.17,8.17-5.83,13.27-13.71,16.35-23.2a145.75,145.75,0,0,1,15.65-33.77,43.31,43.31,0,0,1,14.5-13.68q23.08-13.94,46.24-27.75c6.94-4.16,14-8,22.14-9.42a42,42,0,0,1,28.92,4.91c4.63,2.63,8,6.32,9.2,11.52,1.55,6.71,3,13.47,4,20.28,1.79,11.59,5,22.58,10.88,32.87,4.55,8,7.54,16.73,6.27,26.11a215.39,215.39,0,0,1-4.86,26c-3.05,11.59-5.2,23.33-7.32,35.1-.76,4.23-1.78,8.42-2.86,12.58a21.81,21.81,0,0,1-7.37,11.85c-12.67,10.07-21.72,22.83-28.47,37.34-5.08,10.94-14.13,16.33-25.4,19.09C279.81,389.76,267.62,389.62,255.49,390.87Zm1.14-2.86v-.39c1,0,1.91,0,2.87,0,11.7-.32,23.36-.78,34.7-4.23,6.33-1.92,12.34-4.36,16.58-9.62A60.08,60.08,0,0,0,318,362.86a98,98,0,0,1,23.71-31.11A34.24,34.24,0,0,0,353,311.55c1.9-10.34,3.74-20.7,5.9-31,1.86-8.89,4.24-17.67,6.2-26.54,2.55-11.52,1.4-22.59-4.68-32.89-5.26-8.92-8-18.69-9.88-28.75-1.27-6.71-2.21-13.49-3.72-20.14-1.34-5.91-3.83-11.43-9.34-14.66-9.56-5.59-19.84-7.67-30.79-5.11-7.68,1.79-14.66,5.38-21.31,9.42-15.13,9.18-30.07,18.68-45,28.15-6.85,4.34-12.76,9.81-16.33,17.19-4.25,8.78-8.46,17.64-11.84,26.78-3.73,10.08-9.23,18.54-18,24.8-3.67,2.62-7.41,5.17-11,8-6.38,5-11.21,11-11.6,19.64-.49,11-4.7,20.58-10.88,29.37-3.9,5.54-4.36,11.35,0,16.58a46.22,46.22,0,0,0,8.31,7.53c9.76,7.16,19.88,13.83,29.44,21.24,6.68,5.18,12.77,11.15,18.93,17,7,6.57,15,10,24.64,9.92C246.93,388,251.78,388,256.63,388Z" />
            <path class="indonesia-cls-22" d="M254.23,386.56c-3.21,0-6.44-.21-9.63,0-9.53.73-17.56-2.61-24.66-8.68-8.17-7-16.14-14.18-24.56-20.83-6.48-5.12-13.59-9.43-20.28-14.3A97.9,97.9,0,0,1,164.54,334c-6.25-6.07-6.73-11.57-2.14-18.94,3.14-5,6.87-9.81,8.22-15.74a102.31,102.31,0,0,0,2.14-13.14,24.18,24.18,0,0,1,8.58-16.49,125.88,125.88,0,0,1,11.17-8.67,53.74,53.74,0,0,0,20.61-26.58c3-8.12,7-15.86,10.76-23.68a51.39,51.39,0,0,1,19.34-21.55c16.44-10.3,32.47-21.3,50-29.72,6.08-2.92,12.33-5.42,19.06-6.1a38.15,38.15,0,0,1,26.42,6.84c3.89,2.72,5.85,6.88,6.84,11.36,1.18,5.33,2.05,10.73,2.9,16.13,1.94,12.3,5.13,24.13,11.53,35a38.88,38.88,0,0,1,4.73,26.55c-1.23,7.47-2.79,14.9-4.32,22.32q-3.6,17.45-7.37,34.87c-.84,3.87-1.92,7.68-3,11.49-1.67,5.89-5.48,10.33-10,14.25a77.92,77.92,0,0,0-14.12,15.37,150.46,150.46,0,0,0-8.24,13.69c-4.89,9.42-11.87,16.48-22.12,19.54a112.34,112.34,0,0,1-18.24,3.68c-7.65,1-15.39,1.22-23.1,1.79Zm2.14-2.75v-.18c7.84-.62,15.69-1.15,23.52-1.9a63.66,63.66,0,0,0,19.38-5c7.88-3.43,13.35-9.38,17.42-16.74,5.83-10.55,12.6-20.4,21.68-28.42a37.91,37.91,0,0,0,12.12-21.58c1.7-8.3,3.12-16.66,4.88-24.94,2.17-10.22,4.79-20.36,6.78-30.61,1.15-5.95,2.23-12.15.6-18.12A74.8,74.8,0,0,0,357,221.42c-5.4-10.36-8-21.45-9.76-32.86-1-6.35-1.83-12.74-4.51-18.68-1.42-3.16-3.14-6.27-6.31-7.87-9.62-4.87-19.89-6.9-30.45-4.54-9,2-17.24,6.08-25,11.07-12.25,7.87-24.62,15.55-36.77,23.57a56.61,56.61,0,0,0-20.76,23.82c-3.34,7.26-6.72,14.51-9.88,21.85a53.61,53.61,0,0,1-17.21,22.31c-2.57,1.93-5.11,3.91-7.73,5.76-8.3,5.87-13.32,13.4-13.49,24-.13,8.23-3.66,15.47-8.12,22.27a51.93,51.93,0,0,0-3.84,6.75,10.67,10.67,0,0,0,1.46,11.77,37.68,37.68,0,0,0,6.65,6.31C179,342.75,187,348.13,194.62,354c9.46,7.34,18.63,15,27.92,22.58a32.12,32.12,0,0,0,21.32,7.2C248,383.77,252.2,383.81,256.37,383.81Z" />
            <path class="indonesia-cls-23" d="M243.79,377.32c-6.2.7-15.46-2.79-23.49-9.92-1.68-1.5-3.5-2.85-5.32-4.19-11.61-8.56-23.26-17.07-34.84-25.67a109.64,109.64,0,0,1-9.68-7.9c-3.74-3.51-4.48-8.11-2.34-12.79a39.94,39.94,0,0,1,3.11-5.3c4.91-7.44,8.25-15.52,8.76-24.45.55-9.6,5-16.63,12.62-22.11,7.2-5.17,14-10.8,18.46-18.69,2.66-4.76,4.84-9.8,7.27-14.69,3-6,6-12,9-17.94,5-9.76,12.74-17,21.82-22.91,11.2-7.22,22.34-14.56,33.89-21.18,9-5.17,18.54-9.52,29.23-10.07A47,47,0,0,1,334,163.91a13.28,13.28,0,0,1,7.37,8.9,127.57,127.57,0,0,1,3.87,16.53,114.18,114.18,0,0,0,11.22,36.24c2.94,5.73,4.81,11.75,4.18,18.34a189.22,189.22,0,0,1-5,27.79c-2.44,9.8-4.2,19.77-6.3,29.66-1.58,7.45-3.55,14.77-8.12,21.06a25.72,25.72,0,0,1-3.65,4.15c-7.48,6.63-13.59,14.37-19.17,22.64a97.57,97.57,0,0,1-10.61,13.25c-5.34,5.52-12.34,8.34-19.76,9.8A275.37,275.37,0,0,1,243.79,377.32Zm4.74-2.81c5.11-.36,8.87-.56,12.61-.91,9.93-.93,19.86-1.5,29.57-4.3s17.59-8.14,23.34-16.61c6.11-9,12.39-17.91,20.37-25.41a36.94,36.94,0,0,0,10.68-17c2.05-7.28,3.59-14.72,5.2-22.12,2.68-12.28,5.4-24.56,7.82-36.89,1.65-8.43,1.11-16.74-2.82-24.62-1.56-3.12-2.89-6.34-4.32-9.53-3.93-8.78-5.1-18.26-7-27.55-1.14-5.62-1.72-11.37-4.47-16.55a12.82,12.82,0,0,0-6.65-6.41,53,53,0,0,0-27.2-3.32c-9.86,1.5-18.76,6-27.12,11.24-10.27,6.39-20.15,13.39-30.24,20.08-8.53,5.66-15.56,12.69-20.27,21.86-3.31,6.44-6.71,12.85-9.71,19.44-4.33,9.54-9.73,18.2-18.08,24.76-2.15,1.69-4.23,3.47-6.34,5.21-6,4.94-10.26,10.8-11.14,18.88a68.66,68.66,0,0,1-11.19,30.32,13.37,13.37,0,0,0-1.92,5.75c-.47,4.54,2.24,7.54,5.62,10,16,11.89,32.16,23.69,48.12,35.68C231.33,372.53,240,375.43,248.53,374.51Z" />
            <path class="indonesia-cls-24" d="M254.35,372.44c-14.24.73-22.86-2-30.59-7.66q-22.07-16.23-44.15-32.43l-.5-.35c-8.16-6-9.2-11.94-3.62-20.41a53.13,53.13,0,0,0,9-25.26c.64-8.32,4.5-14.42,10.56-19.59,3.59-3.06,7.23-6.09,10.6-9.38,6.47-6.31,10.45-14.27,14.47-22.23,3.51-6.94,7.27-13.79,11.36-20.41,5.22-8.44,12.46-15.08,20.6-20.6q14.51-9.83,29.48-19c7.63-4.64,15.88-8.19,24.8-9.37a50.35,50.35,0,0,1,25.55,3.47,12.68,12.68,0,0,1,7.88,8.64c1.57,5.72,3,11.51,4.13,17.32,2,10,4.38,19.91,9,29.11a43.66,43.66,0,0,1,3.46,29.73c-3.73,17-7.26,33.95-11.15,50.86A45.48,45.48,0,0,1,333,326.62a186.24,186.24,0,0,0-17.75,21.73c-7.79,11-18.36,17.33-31.24,19.74C272.71,370.21,261.21,371.46,254.35,372.44Zm-5.45-2.12c.88-.05,2.26-.05,3.61-.22,8.35-1,16.76-1.71,25-3.29A106,106,0,0,0,297,361.19c7.64-3.06,13.34-8.84,18.31-15.4,5.12-6.75,10.18-13.61,15.95-19.8s10.34-13,12.26-21.23c4-17,7.57-34,11.2-51a41.87,41.87,0,0,0-2.53-26.68c-4.84-10.71-7.74-22-9.88-33.55a88.86,88.86,0,0,0-4.4-14.87,10.79,10.79,0,0,0-8.57-6.91c-3.16-.6-6.28-1.38-9.43-2-8.79-1.72-17.46-1.42-25.79,2.12a102.86,102.86,0,0,0-14,6.72c-8.89,5.49-17.55,11.38-26.18,17.28a78.08,78.08,0,0,0-16.74,15c-7,8.65-12.36,18.36-17.19,28.35a71.53,71.53,0,0,1-17.4,22.87c-2.42,2.12-4.79,4.29-7.18,6.44A25.41,25.41,0,0,0,187,284.68a88.25,88.25,0,0,1-4.13,16.87c-1.53,4.41-4,8.52-6.28,12.64-3,5.44-2.59,9.54,1.88,13.87a50.55,50.55,0,0,0,5.1,4.12c13.17,9.79,26.42,19.49,39.53,29.37A42.58,42.58,0,0,0,248.9,370.32Z" />
            <path class="indonesia-cls-25" d="M248.17,364.79c-7.61-.12-14.58-1.86-20.63-6.3q-21.91-16.08-43.68-32.35c-4.66-3.5-5.43-8.11-2.77-13.75,1.37-2.9,2.9-5.73,4.29-8.62a54.83,54.83,0,0,0,4.81-18.58c.8-8,4.58-14.18,10.2-19.51,6.42-6.08,12.76-12.22,17.2-20,2.51-4.39,5-8.82,7.38-13.26,4.51-8.23,9-16.53,15.61-23.26A119.64,119.64,0,0,1,255.5,196.4c8.11-5.91,16.45-11.55,25-16.83a64.34,64.34,0,0,1,19.58-7.68c7.84-1.8,15.5-.11,23.16,1.34a34.54,34.54,0,0,0,4.23.78,10.12,10.12,0,0,1,9,6.17,46.94,46.94,0,0,1,3.61,10.41c2.54,12.7,5.74,25.17,10.85,37.11,3.32,7.78,3.38,15.85,1.6,24-3.63,16.54-7.26,33.09-11.15,49.58-1.8,7.65-5.85,14.16-11.22,20s-10.13,11.67-15,17.71a53.11,53.11,0,0,1-27.36,18.59,238.58,238.58,0,0,1-37,7.14C249.91,364.76,248.95,364.75,248.17,364.79ZM352.48,242.47c-.83-4.14-1.39-8.14-2.46-12-3.54-12.84-7.23-25.64-11-38.42a63.82,63.82,0,0,0-3.34-9.22,9,9,0,0,0-6.89-5.3c-5.12-.86-10.27-1.61-15.37-2.56-11.59-2.16-22.36.71-32.08,6.54a325.49,325.49,0,0,0-27.58,19.19c-12.22,9.18-21.44,21-28.55,34.47-4.5,8.54-9.29,16.91-16.12,23.9-3.68,3.76-7.21,7.68-10.88,11.44a19,19,0,0,0-5.4,12.33c-.6,9-3.48,17.38-7.17,25.53-.7,1.56-1.37,3.13-2,4.72a10,10,0,0,0,2.22,11.36,32.6,32.6,0,0,0,4,3.56c13,9.65,26,19.35,39.16,28.84a29,29,0,0,0,21.59,5.41c10.27-1.51,20.5-3.41,30.68-5.45a56.78,56.78,0,0,0,34.78-21.57c4.31-5.57,8.88-10.95,13.5-16.26,4.79-5.52,8.52-11.64,10.27-18.71,3.32-13.39,6.43-26.85,9.44-40.31C350.6,254.18,351.44,248.29,352.48,242.47Z" />
            <path class="indonesia-cls-26" d="M247.95,359.32a30.57,30.57,0,0,1-18.31-5.47q-11.84-8.29-23.27-17.15c-5.94-4.59-11.63-9.53-17.37-14.38-2.74-2.32-3.32-5.38-2.49-8.77a17.51,17.51,0,0,1,.93-2.92,104.07,104.07,0,0,0,7.91-29.4,22.56,22.56,0,0,1,7.24-14.1c9.39-8.78,16.67-19.09,23-30.24s13.3-22.1,23.44-30.36c7.73-6.3,15.86-12.11,23.76-18.19a62.2,62.2,0,0,1,24-11.19,34.44,34.44,0,0,1,14.65-.1c5,1,10.09,1.89,15.19,2.39,4.39.42,7.46,2.49,9,6.38s2.43,7.8,3.58,11.73c2.74,9.45,5.07,19,8.3,28.31a51.62,51.62,0,0,1,1.31,29.47c-3.17,13.57-6.36,27.14-9.69,40.68a48.63,48.63,0,0,1-10.45,20.22c-4.4,5.14-8.83,10.27-13.13,15.5a58.74,58.74,0,0,1-27.12,18.73c-12.18,4.14-24.77,6.23-37.31,8.66A22.18,22.18,0,0,1,247.95,359.32ZM349,241.73c-.63-3.9-.92-7.89-1.94-11.68-3.13-11.68-6.49-23.29-9.87-34.9a34.51,34.51,0,0,0-3-7.39,9.12,9.12,0,0,0-7.08-5c-5-.56-10.12-.83-15-2a39.74,39.74,0,0,0-31.5,5.13c-6.64,4.19-13,8.83-19.27,13.57-12.4,9.39-23.49,20.15-31.47,33.63-7.38,12.47-15.42,24.34-25.83,34.54A21.37,21.37,0,0,0,197.64,280a152.44,152.44,0,0,1-7.26,30c-1.82,5.19-.68,9.69,3.63,13.27q10.09,8.39,20.16,16.82c5.62,4.69,11.23,9.4,17.81,12.75,6,3.06,12.29,5.19,19.14,3.83,10.32-2.05,20.68-4,30.88-6.55,11.6-2.91,22.07-8.23,30.18-17.29,5.38-6,10.37-12.36,15.54-18.56a43.7,43.7,0,0,0,8.8-16.32c3.13-11.32,5.86-22.75,8.68-34.15A118.5,118.5,0,0,0,349,241.73Z" />
            <path class="indonesia-cls-27" d="M346.52,240.83a96.12,96.12,0,0,1-3.29,18.45c-2.73,10.37-5.48,20.74-8.16,31.12a54.63,54.63,0,0,1-11.93,22.43q-6.32,7.27-12.87,14.36c-6.66,7.23-15.31,11.3-24.38,14.22-10.66,3.43-21.53,6.25-32.39,9-8.29,2.11-16,0-23.13-4.44-8.5-5.25-15.67-12.11-22.87-18.94-2-1.93-4.11-3.82-6.19-5.7a14.56,14.56,0,0,1-4.91-14.23c1.76-9.67,3.59-19.34,5.28-29a19.73,19.73,0,0,1,4.22-9.2c2.71-3.35,5.62-6.55,8.17-10,4.62-6.27,9.26-12.54,13.49-19.07a168.59,168.59,0,0,1,49.09-49.11,74.57,74.57,0,0,1,12.16-6.28c7-3,14.19-2.5,21.31-.36a49.4,49.4,0,0,0,15,2.2A8.28,8.28,0,0,1,333,190.6a40.88,40.88,0,0,1,3.35,8.31c2.87,10.12,5.66,20.27,8.26,30.47C345.52,233.11,345.89,237,346.52,240.83ZM345,241l-.52-.11a35.27,35.27,0,0,0-.41-5.31c-1.31-5.79-2.71-11.57-4.23-17.3-1.95-7.33-3.91-14.66-6.13-21.91-1.19-3.89-3.71-6.77-8.15-7a130.94,130.94,0,0,1-22.68-3.43c-7.37-1.74-14.2-.1-20.42,3.8a176.29,176.29,0,0,0-45.12,40.17C227.48,242.38,219,256,208.52,268a22.18,22.18,0,0,0-5,11.92c-1.15,8.26-2.45,16.49-3.8,24.72-1,6.2.46,11.5,5.1,15.86,2,1.87,3.89,3.85,5.81,5.79,6.55,6.61,13.12,13.19,21.19,18,7.13,4.27,14.66,5.89,22.81,3.67,10.22-2.79,20.51-5.35,30.62-8.47,8.82-2.72,17.07-6.91,23.67-13.49,5.26-5.25,10-11,14.76-16.77a48.82,48.82,0,0,0,9.23-18.15c2.82-10.13,6-20.18,8.53-30.38C343,254.25,343.85,247.59,345,241Z" />
            <path class="indonesia-cls-28" d="M343.4,242.74c-1.08,5.9-1.83,11.88-3.31,17.68-2.32,9.07-5.2,18-7.72,27-3.25,11.65-9.92,21.16-18,29.92-9.45,10.24-21,16.56-34.41,20-7.93,2.06-15.76,4.55-23.56,7.08a24.77,24.77,0,0,1-21.12-2.25,62.16,62.16,0,0,1-14.81-11.92c-3.9-4.31-7.71-8.71-11.49-13.12-3.64-4.26-4.7-9.3-4.2-14.76.52-5.72,1.3-11.42,1.55-17.15a31.21,31.21,0,0,1,6.06-17.77c17.5-23.58,35.34-46.86,58.3-65.6,6.12-5,12.37-9.71,20.05-12.08,4.89-1.51,9.79-1.91,14.73-.3a76.29,76.29,0,0,0,20,3.46,7.89,7.89,0,0,1,7.21,5.29,89.8,89.8,0,0,1,4.05,12.45c2.11,8.76,4,17.58,5.81,26.4a40.44,40.44,0,0,1,.41,5.52Zm-2.2-2.36c-.55-3.2-1.3-9-2.59-14.74-1.68-7.46-3.6-14.88-5.79-22.2-1.77-5.92-5.19-8.1-11.28-8.12a20.26,20.26,0,0,1-3.89-.24c-4.29-.86-8.6-1.66-12.81-2.81a25.89,25.89,0,0,0-20.92,2.91,80,80,0,0,0-11.49,8.18,378.71,378.71,0,0,0-57.17,62.81c-3.49,4.82-6.24,9.93-6.57,16.09-.35,6.62-1,13.22-1.36,19.84a17.28,17.28,0,0,0,3.81,12.25c3.83,4.73,7.57,9.53,11.4,14.27A47.79,47.79,0,0,0,236,340.16c5.65,3.24,11.61,4.39,18,2.67,4.42-1.2,8.82-2.45,13.19-3.82,8.2-2.57,16.6-4.7,24.52-8,16.76-7,28.53-19.53,35.75-35.88,4.12-9.31,6.48-19.41,9.54-29.18A85.52,85.52,0,0,0,341.2,240.39Z" />
            <path class="indonesia-cls-29" d="M339.49,243.95a74.42,74.42,0,0,1-3.1,19.39c-2.73,9.09-5.42,18.23-8.79,27.09-6.6,17.37-18.64,30-35.51,37.63-6.25,2.84-13,4.63-19.53,6.78-5.32,1.75-10.76,3.16-16,5-9.82,3.46-18.16.7-25.59-5.84a52.53,52.53,0,0,1-6.62-7c-3.5-4.46-6.76-9.12-10.09-13.72a21.08,21.08,0,0,1-4-10.84c-.63-7.93,0-15.82.92-23.68.55-4.89,3.23-9,6.17-12.8,10.94-14.11,21.84-28.23,35.12-40.33,7.28-6.63,14.1-13.75,21.26-20.5a45,45,0,0,1,15.7-9.86,24.41,24.41,0,0,1,15.71-.53,75.25,75.25,0,0,0,18.52,3.35c4.44.2,6.62,3.3,7.93,7,1.38,3.86,2.48,7.82,3.53,11.78C337.39,225.5,339.34,234.16,339.49,243.95ZM212.54,290.63h-.17c0,1.37,0,2.74,0,4.1-.18,6.62,1.21,12.68,5.49,18a128.41,128.41,0,0,1,7.46,11,36.17,36.17,0,0,0,11,11.41c5.58,3.53,11.45,5,18,3,8.36-2.6,16.84-4.82,25.11-7.63,6.32-2.15,12.76-4.36,18.53-7.63,12-6.78,21.28-16.58,26.48-29.34,4.42-10.85,7.71-22.19,11-33.45,2-6.61,3.13-13.53,2-20.48-1.45-8.83-3.11-17.62-4.93-26.38a30.77,30.77,0,0,0-3-7.79,9.6,9.6,0,0,0-7.32-5.07c-5.59-.92-11.24-1.64-16.74-3-7.71-1.86-15-1.35-21.71,2.94a69.93,69.93,0,0,0-10.51,8.1c-7.42,7.07-14.22,14.83-21.89,21.6-12,10.59-21.87,23-31.7,35.42-5,6.32-7.92,13.39-7.15,21.65C212.63,288.29,212.54,289.46,212.54,290.63Z" />
            <path class="indonesia-cls-30" d="M335.92,240a53.43,53.43,0,0,1-2.32,20.06c-2.67,8.61-5.38,17.23-8.6,25.65-5.72,14.95-16.21,25.79-30.62,32.44-7.46,3.44-15.52,5.63-23.34,8.27-4.46,1.51-9,2.68-13.49,4.23-10.78,3.77-18.91-1.62-23.43-8.58a192.72,192.72,0,0,1-10.81-17.9C216.13,290,216.6,276,226.2,262.85a181.82,181.82,0,0,1,23.09-25.79c8.85-8.24,17.15-17.07,25.71-25.62,1.69-1.69,3.41-3.37,5.22-4.92,7.78-6.64,16.36-9.89,26.74-6.93,4.91,1.4,10,2,15.08,3a8.77,8.77,0,0,1,6.59,5.06A62.57,62.57,0,0,1,332.33,218C334.28,225.65,335.94,233.34,335.92,240ZM220.85,283.68a29.35,29.35,0,0,0,2.75,15.43,66,66,0,0,0,4,7.15c3.58,5.81,6.82,11.91,11,17.28,4.34,5.58,10.48,7.36,17.5,5.21,9.54-2.91,19.17-5.57,28.66-8.65A65.42,65.42,0,0,0,312.4,303a50.16,50.16,0,0,0,11-17.42c3.2-8.72,6.16-17.54,9-26.39,3.34-10.49,2.32-21.11.29-31.66a125.83,125.83,0,0,0-3.51-14.32c-1.65-5.19-5.16-8.51-10.89-9.26-5.56-.72-11.08-1.73-16.6-2.71a19.3,19.3,0,0,0-15,3.21,79.5,79.5,0,0,0-9.63,7.93c-9.3,9.06-18.23,18.52-27.7,27.4a189.62,189.62,0,0,0-20.72,22.7C223.69,268.81,220,275.58,220.85,283.68Z" />
            <path class="indonesia-cls-31" d="M332.7,247.12c.13,4.81-1.78,11.52-3.89,18.17-2.73,8.6-5.44,17.22-9.8,25.18-6.32,11.51-16,19.26-27.89,24.37-11.59,5-23.8,8.11-35.94,11.37-6,1.6-11.4-.08-14.87-5.26-4.56-6.8-8.65-13.93-12.71-21.06a47,47,0,0,1-3.7-8.85c-2.37-7.36-1.22-14.52,2.26-21.21,4.31-8.29,10.75-15,17.33-21.48,8.67-8.54,17.65-16.77,26.4-25.23,4.07-3.94,7.79-8.26,11.9-12.16,6.19-5.88,13.44-8.77,22.14-7,4.35.87,8.75,1.53,13.11,2.35,6.21,1.17,9.78,5.12,11.36,11A120.47,120.47,0,0,1,332.7,247.12Zm-1.62-3.52c-.22-2.66-.23-5.35-.71-8-1.07-5.84-2.19-11.68-3.63-17.43-1.3-5.18-4.59-8.68-10-9.67s-10.64-1.78-16-2.67a17.92,17.92,0,0,0-11.3,2.1c-4.9,2.5-8.7,6.32-12.53,10.15-8.65,8.65-17.42,17.18-26.07,25.84-5.65,5.66-11.29,11.34-16.7,17.22-3.47,3.78-6.51,8-8,13-2.72,9.12-.73,17.59,4,25.56,3.47,5.9,7.06,11.72,10.63,17.55s8,8,14.57,6.49c12.78-3,25.58-6,37.51-11.7,12.83-6.12,22.69-15.26,27.87-28.73,3.18-8.28,6-16.71,8.68-25.16A37.82,37.82,0,0,0,331.08,243.61Z" />
            <path class="indonesia-cls-32" d="M329.68,244.48c.11,7.55-1.45,13.63-3.3,19.66-2.49,8.11-5.27,16.11-9.35,23.58a51.43,51.43,0,0,1-28.44,24.19c-10.83,3.9-22.07,6.72-33.24,9.59-5.55,1.43-9.41-.7-12.41-5.66-4.28-7.08-8.74-14.06-12.71-21.31-5.47-10-4.58-19.81,2.25-28.83a119.63,119.63,0,0,1,11-12.17q18.64-18.63,37.51-37c5-4.87,10.67-8.7,18-8.89a53.08,53.08,0,0,1,18.92,3.17,11.71,11.71,0,0,1,6.87,7c2.68,6.36,3.71,13.12,4.5,19.92C329.48,240.32,329.57,243,329.68,244.48Zm-1.53-.78a83.88,83.88,0,0,0-3.37-20.58c-2-6.39-5.84-10.74-12.79-11.73a31.52,31.52,0,0,1-3.21-.66c-11.38-2.85-20.61.46-28.72,8.89-10.13,10.54-20.94,20.42-31.25,30.8-5.48,5.52-11,11.09-15.61,17.33-5.56,7.59-6.35,16.26-1.59,24.7,4.09,7.26,8.72,14.22,13,21.36,2.7,4.47,6.68,6.38,11.64,5.32,11.35-2.44,22.73-4.87,33.44-9.55,12.4-5.42,22.31-13.64,27.8-26.26,3.15-7.25,5.8-14.74,8.26-22.25A46.72,46.72,0,0,0,328.15,243.7Z" />
            <path class="indonesia-cls-33" d="M327.23,245.65c0,6.39-1.49,12.47-3.37,18.49-2.56,8.17-5.54,16.16-10,23.53-6.56,10.89-16.33,17.83-28.11,21.79-8.79,3-17.88,5-26.88,7.32-5.84,1.5-10.47-.3-13.68-5.57-4-6.54-8.33-12.88-12-19.57-5.32-9.61-3.32-18.77,3.44-26.76,4.84-5.72,10.47-10.78,15.8-16.08,9-8.91,18-17.75,27-26.69,4.55-4.54,9.29-8.88,15.74-10.3a30.84,30.84,0,0,1,21.53,2.81,14,14,0,0,1,5.09,5.39c3.09,5.42,4.24,11.5,4.93,17.65C327,240.32,327.05,243,327.23,245.65Zm-1.58.6c-.51-6.65-.84-14-3.44-20.94-1.47-3.92-3.51-7.65-7.54-9.34-10-4.2-19.83-4.4-28.88,2.62a58.39,58.39,0,0,0-4.93,4.32c-11,10.73-22.1,21.41-33,32.3a106.57,106.57,0,0,0-12.25,14c-4.24,6.09-5.08,13-1,19.71,4.26,7.09,8.65,14.1,13,21.11a9.58,9.58,0,0,0,10.79,4.56c8.15-1.71,16.37-3.3,24.31-5.74,11-3.39,20.76-9.17,27.71-18.77,5.27-7.28,8.62-15.5,11.38-24C323.84,259.86,325.65,253.56,325.65,246.26Z" />
            <path class="indonesia-cls-34" d="M301.75,214.73c2.22.35,4.48.54,6.66,1.06a15.66,15.66,0,0,1,11.81,10.86c4.15,12.36,4.86,24.72.21,37.15-2.61,7-5.1,14-9.07,20.36a46.39,46.39,0,0,1-26.81,20.42c-7.63,2.29-15.5,3.81-23.31,5.47-4.9,1-8.92-.69-11.76-4.83-3.91-5.69-8-11.28-11.54-17.19-4.4-7.32-3.45-14.75,1.69-21.25a172.53,172.53,0,0,1,13.63-14.71q14.35-14.36,29-28.44C287.64,218.41,293.84,214.72,301.75,214.73Zm21,31.91-.51-.1a51.36,51.36,0,0,0-2.84-16.91c-1.88-5.57-5.15-10.09-11.07-11.75-8.39-2.36-16.26-1.09-22.76,5-9,8.44-17.88,17.12-26.73,25.77-5.33,5.21-10.85,10.27-15.69,15.91-7.7,9-7.86,16.12-1.79,25,3.29,4.78,6.86,9.38,10.31,14,2.51,3.4,5.91,4.64,10.06,4.24a110,110,0,0,0,20.68-4c13.18-3.89,23.51-11.38,29.66-23.78a156.49,156.49,0,0,0,8-19.92C321.55,255.76,321.91,251.13,322.75,246.65Z" />
            <path class="indonesia-cls-35" d="M320.33,247.37c-.68,3.68-.91,7.51-2.14,11a164.61,164.61,0,0,1-8,19.49c-6.19,12.24-16.61,19.28-29.75,22.54-5.39,1.34-10.79,2.49-16.4,2.24-3.73-.16-7-1.34-9.42-4.27-3.37-4-7-7.93-10-12.22-5.09-7.23-5.06-13.33.26-20.39a122.33,122.33,0,0,1,11-12.39q12.79-12.88,25.91-25.44c4.7-4.51,10.06-8.07,16.76-8.83,8.47-1,14.46,2.57,17.81,10.41C318.85,235.17,319.76,241.15,320.33,247.37ZM266,300.61c14.2.18,25.75-3.53,35.24-12.69,6.35-6.12,10.12-13.8,13.33-21.88,4.61-11.6,4.92-23.14.21-34.72-4.11-10.11-14-13.75-23.57-8.62a36.91,36.91,0,0,0-8.22,5.71c-9.31,9-18.52,18-27.51,27.31A99.54,99.54,0,0,0,244.7,269c-3.59,5.3-3.24,10.94.94,16,2.93,3.51,6.26,6.69,9.22,10.18C258.14,299.07,261.84,301.72,266,300.61Z" />
            <path class="indonesia-cls-36" d="M270.69,298.82c-6.58,1.13-11.71-1.3-16-6-1.92-2.12-4.18-3.94-6.14-6-6-6.48-6.58-13-1.31-20.16a105.48,105.48,0,0,1,10-11.7c8.5-8.61,17.1-17.15,26-25.39a42.89,42.89,0,0,1,10.58-6.87c6.36-3.06,12.77-1.33,17.35,4.09,4,4.68,5.46,10.33,6.18,16.24,1.94,15.76-4.35,29-13.6,40.87a38.38,38.38,0,0,1-21.53,13.9c-3.76.91-7.67,1.17-11.52,1.73Zm1.24-1.07c15-.87,27.07-6.89,35-20.16a74.92,74.92,0,0,0,8.77-22.2c1.93-8.67.25-16.89-3.89-24.56-3.34-6.19-9.58-8.61-16.42-6.93a25.74,25.74,0,0,0-11.54,6.4c-7.57,7.12-15.13,14.25-22.45,21.62a140.08,140.08,0,0,0-11.61,13.25c-5,6.49-4.91,12.34.19,18.7a96.89,96.89,0,0,0,9,9.24A17.3,17.3,0,0,0,271.93,297.75Z" />
            <path class="indonesia-cls-37" d="M275.69,294.3c-5.57,0-9.71-1-13.1-3.73a82.14,82.14,0,0,1-9.72-9c-4.74-5.36-5-11-.84-16.86a102.81,102.81,0,0,1,10.5-12.57q11-11.14,22.68-21.66a24.45,24.45,0,0,1,8.15-4.57c7.85-2.79,14.51.31,17.71,8,3.73,9,4.87,18.1,1.34,27.52-3.29,8.78-7.12,17.15-14.16,23.68C291.51,291.3,283.38,293.75,275.69,294.3Zm1.18-1.95c8.23-.46,15.69-2.85,21.56-9,7.57-7.87,11.83-17.47,14.06-28a30.11,30.11,0,0,0-3.85-21.91c-3.6-6.19-9.79-8.33-16.39-5.54a28,28,0,0,0-8.17,5q-11.62,10.82-22.7,22.21a60.94,60.94,0,0,0-7.5,9.71c-3.57,5.56-3.25,10.46,1.18,15.38a72.42,72.42,0,0,0,9.31,8.28A18.52,18.52,0,0,0,276.87,292.35Z" />
            <path class="indonesia-cls-38" d="M279.45,288.18c-1.28-.35-3.8-.47-5.67-1.64a88.1,88.1,0,0,1-12.71-9.23c-4.61-4.22-5.25-9.34-1.95-14.7a81,81,0,0,1,9.53-12.52,227.07,227.07,0,0,1,16.73-16.3,30.75,30.75,0,0,1,9.42-5.18c4.11-1.54,7.91-.42,11,2.91,3.62,3.94,5.12,8.7,6,13.86,2.44,13.56-7.82,33.53-18.22,39.09A31.73,31.73,0,0,1,279.45,288.18Zm31.34-36.63c-.34-5.64-1-10.63-3.76-15.1-4-6.66-10-8.3-16.81-4.52a20.28,20.28,0,0,0-4.09,2.71c-5.51,5.2-11.13,10.3-16.29,15.83A66.9,66.9,0,0,0,261.37,262c-3.06,5.16-2.19,9.59,1.88,14a35.83,35.83,0,0,0,11.66,8.56,20.49,20.49,0,0,0,8.51,1.67,20.25,20.25,0,0,0,15.88-7.77,62.37,62.37,0,0,0,6.65-10A45.13,45.13,0,0,0,310.79,251.55Z" />
            <path class="indonesia-cls-39" d="M309.06,252.09c-.8,9.5-4.43,19.08-13.21,26-5.9,4.64-12.49,5.6-19,1.31a61.89,61.89,0,0,1-9.1-7.52c-3.72-3.63-4-8.17-1.44-12.43a74.58,74.58,0,0,1,9-12.39c4.1-4.44,8.86-8.28,13.41-12.3a12.38,12.38,0,0,1,3.21-1.79c5.24-2.34,10.27-.75,13.3,4.15A28.33,28.33,0,0,1,309.06,252.09Zm-1.15-1.29c-.84-3.05-1.43-6.89-2.94-10.32-3-6.75-9.16-8.64-15.4-4.75-9.3,5.81-16.23,13.93-21.4,23.53-2,3.63-1.73,7.46,1.08,10.52a55.13,55.13,0,0,0,8.8,7.85c5.62,3.94,11.45,3.85,16.95-.25C303.58,271,306.61,261.76,307.91,250.8Z" />
            <path class="indonesia-cls-40" d="M305.25,250.07c-.51,6.75-2.43,12.73-7.06,17.67-5.09,5.44-10.82,6-16.81,1.61a23.87,23.87,0,0,1-3.46-3.19c-3.72-4.09-4.44-8.6-1.77-13.57a39.1,39.1,0,0,1,12.4-14.24c6.36-4.32,11.67-2.8,14.71,4.26C304.27,245,304.6,247.58,305.25,250.07Zm-1.44,1c-.79-2.72-1.2-5.63-2.43-8.13-2.69-5.48-7.39-6.61-12.42-3.17a31.19,31.19,0,0,0-11.08,12.92,10.85,10.85,0,0,0,3,13.49,23.37,23.37,0,0,0,4.8,3.1c4.46,2.17,7.66,1.63,11.14-1.94C301.17,262.87,303.21,257.4,303.81,251.06Z" />
            <path class="indonesia-cls-41" d="M301.74,250.63a18.56,18.56,0,0,1-4,10.74c-4.22,5.49-9.31,5.53-14.42.79a9.67,9.67,0,0,1-2.56-10.59,20.13,20.13,0,0,1,8.82-11c4.18-2.57,8.39-1.32,10.37,3.16C300.9,245.9,301.16,248.33,301.74,250.63ZM282.31,254a9.58,9.58,0,0,0,6.11,8.89,6.14,6.14,0,0,0,6.36-.93c4.94-3.74,6.61-12.12,3.48-17.47a5.79,5.79,0,0,0-7.4-2.64C286.51,243.54,282.42,249.33,282.31,254Z" />
            <path class="indonesia-cls-42" d="M298.85,251.42c-.19,2.59-.75,5.65-3.12,8-3.5,3.54-8.3,2.87-10.8-1.47-2.13-3.69-1.43-8.56,2-12,2-2.05,4.26-4.33,7.64-3.11C297.35,243.87,298.92,247,298.85,251.42Zm-1.22-.2a23.75,23.75,0,0,0-1.59-4.36,3.8,3.8,0,0,0-4.51-1.94c-4.47,1.25-7.16,7.36-5.06,11.46,1.9,3.72,6.76,4.18,9,.66C296.5,255.32,296.92,253.18,297.63,251.22Z" />
        </g>
    </g>
</svg>