<svg xmlns="http://www.w3.org/2000/svg" xmlns:xlink="http://www.w3.org/1999/xlink" viewBox="0 0 441.82 575.57">
    <defs>
        <style>.italy-cls-1{fill:url(#Dégradé_sans_nom_76);}.italy-cls-2{fill:url(#Dégradé_sans_nom_76-2);}.italy-cls-3{fill:url(#Dégradé_sans_nom_76-3);}.italy-cls-4{fill:url(#Dégradé_sans_nom_76-4);}.italy-cls-5{fill:url(#Dégradé_sans_nom_76-5);}.italy-cls-6{fill:url(#Dégradé_sans_nom_76-6);}.italy-cls-7{fill:url(#Dégradé_sans_nom_76-7);}.italy-cls-8{fill:url(#Dégradé_sans_nom_76-8);}.italy-cls-9{fill:url(#Dégradé_sans_nom_76-9);}.italy-cls-10{fill:url(#Dégradé_sans_nom_76-10);}.italy-cls-11{fill:url(#Dégradé_sans_nom_76-11);}.italy-cls-12{fill:url(#Dégradé_sans_nom_76-12);}.italy-cls-13{fill:url(#Dégradé_sans_nom_76-13);}.italy-cls-14{fill:url(#Dégradé_sans_nom_76-14);}.italy-cls-15{fill:url(#Dégradé_sans_nom_76-15);}.italy-cls-16{fill:url(#Dégradé_sans_nom_76-16);}.italy-cls-17{fill:url(#Dégradé_sans_nom_76-17);}.italy-cls-18{fill:url(#Dégradé_sans_nom_76-18);}.italy-cls-19{fill:url(#Dégradé_sans_nom_76-19);}.italy-cls-20{fill:url(#Dégradé_sans_nom_76-20);}.italy-cls-21{fill:url(#Dégradé_sans_nom_76-21);}.italy-cls-22{fill:url(#Dégradé_sans_nom_76-22);}.italy-cls-23{fill:url(#Dégradé_sans_nom_76-23);}.italy-cls-24{fill:url(#Dégradé_sans_nom_76-24);}.italy-cls-25{fill:url(#Dégradé_sans_nom_76-25);}.italy-cls-26{fill:url(#Dégradé_sans_nom_76-26);}.italy-cls-27{fill:url(#Dégradé_sans_nom_76-27);}.italy-cls-28{fill:url(#Dégradé_sans_nom_76-28);}.italy-cls-29{fill:url(#Dégradé_sans_nom_76-29);}.italy-cls-30{fill:url(#Dégradé_sans_nom_76-30);}.italy-cls-31{fill:url(#Dégradé_sans_nom_76-31);}.italy-cls-32{fill:url(#Dégradé_sans_nom_76-32);}.italy-cls-33{fill:url(#Dégradé_sans_nom_76-33);}.italy-cls-34{fill:url(#Dégradé_sans_nom_76-34);}.italy-cls-35{fill:url(#Dégradé_sans_nom_76-35);}.italy-cls-36{fill:url(#Dégradé_sans_nom_76-36);}.italy-cls-37{fill:url(#Dégradé_sans_nom_76-37);}.italy-cls-38{fill:url(#Dégradé_sans_nom_76-38);}.italy-cls-39{fill:url(#Dégradé_sans_nom_76-39);}.italy-cls-40{fill:url(#Dégradé_sans_nom_76-40);}.italy-cls-41{fill:url(#Dégradé_sans_nom_76-41);}.italy-cls-42{fill:url(#Dégradé_sans_nom_76-42);}.italy-cls-43{fill:url(#Dégradé_sans_nom_76-43);}.italy-cls-44{fill:url(#Dégradé_sans_nom_76-44);}</style>
        <linearGradient id="Dégradé_sans_nom_76" y1="287.79" x2="441.82" y2="287.79" gradientUnits="userSpaceOnUse">
            <stop offset="0" stop-color="#e8e33d" />
            <stop offset="1" stop-color="#ffdb37" />
        </linearGradient>
        <linearGradient id="Dégradé_sans_nom_76-2" x1="24.01" y1="290.34" x2="430.6" y2="290.34" xlink:href="#Dégradé_sans_nom_76" />
        <linearGradient id="Dégradé_sans_nom_76-3" x1="28.32" y1="290.48" x2="426.01" y2="290.48" xlink:href="#Dégradé_sans_nom_76" />
        <linearGradient id="Dégradé_sans_nom_76-4" x1="37" y1="291.41" x2="419.02" y2="291.41" xlink:href="#Dégradé_sans_nom_76" />
        <linearGradient id="Dégradé_sans_nom_76-5" x1="43.03" y1="291.03" x2="410.42" y2="291.03" xlink:href="#Dégradé_sans_nom_76" />
        <linearGradient id="Dégradé_sans_nom_76-6" x1="46.67" y1="291.6" x2="402.75" y2="291.6" xlink:href="#Dégradé_sans_nom_76" />
        <linearGradient id="Dégradé_sans_nom_76-7" x1="54.47" y1="292.02" x2="393.07" y2="292.02" xlink:href="#Dégradé_sans_nom_76" />
        <linearGradient id="Dégradé_sans_nom_76-8" x1="58.11" y1="292.67" x2="386.27" y2="292.67" xlink:href="#Dégradé_sans_nom_76" />
        <linearGradient id="Dégradé_sans_nom_76-9" x1="64.98" y1="294.27" x2="376.63" y2="294.27" xlink:href="#Dégradé_sans_nom_76" />
        <linearGradient id="Dégradé_sans_nom_76-10" x1="69.71" y1="295.06" x2="370.47" y2="295.06" xlink:href="#Dégradé_sans_nom_76" />
        <linearGradient id="Dégradé_sans_nom_76-11" x1="76.02" y1="296.05" x2="367.64" y2="296.05" xlink:href="#Dégradé_sans_nom_76" />
        <linearGradient id="Dégradé_sans_nom_76-12" x1="82.75" y1="296.89" x2="365.34" y2="296.89" xlink:href="#Dégradé_sans_nom_76" />
        <linearGradient id="Dégradé_sans_nom_76-13" x1="89.85" y1="297.69" x2="362.37" y2="297.69" xlink:href="#Dégradé_sans_nom_76" />
        <linearGradient id="Dégradé_sans_nom_76-14" x1="99.09" y1="298.33" x2="359.45" y2="298.33" xlink:href="#Dégradé_sans_nom_76" />
        <linearGradient id="Dégradé_sans_nom_76-15" x1="106.31" y1="298.35" x2="356.24" y2="298.35" xlink:href="#Dégradé_sans_nom_76" />
        <linearGradient id="Dégradé_sans_nom_76-16" x1="111.31" y1="297.83" x2="352.63" y2="297.83" xlink:href="#Dégradé_sans_nom_76" />
        <linearGradient id="Dégradé_sans_nom_76-17" x1="158.68" y1="273.47" x2="161.11" y2="273.47" xlink:href="#Dégradé_sans_nom_76" />
        <linearGradient id="Dégradé_sans_nom_76-18" x1="154.9" y1="260.6" x2="157.85" y2="260.6" xlink:href="#Dégradé_sans_nom_76" />
        <linearGradient id="Dégradé_sans_nom_76-19" x1="118.85" y1="299.1" x2="349.15" y2="299.1" xlink:href="#Dégradé_sans_nom_76" />
        <linearGradient id="Dégradé_sans_nom_76-20" x1="123.12" y1="297.25" x2="343.34" y2="297.25" xlink:href="#Dégradé_sans_nom_76" />
        <linearGradient id="Dégradé_sans_nom_76-21" x1="130.13" y1="294.14" x2="336.97" y2="294.14" xlink:href="#Dégradé_sans_nom_76" />
        <linearGradient id="Dégradé_sans_nom_76-22" x1="133.78" y1="292" x2="331.65" y2="292" xlink:href="#Dégradé_sans_nom_76" />
        <linearGradient id="Dégradé_sans_nom_76-23" x1="138.19" y1="289.6" x2="326.12" y2="289.6" xlink:href="#Dégradé_sans_nom_76" />
        <linearGradient id="Dégradé_sans_nom_76-24" x1="141.66" y1="287.51" x2="321.68" y2="287.51" xlink:href="#Dégradé_sans_nom_76" />
        <linearGradient id="Dégradé_sans_nom_76-25" x1="149.36" y1="285.39" x2="315.58" y2="285.39" xlink:href="#Dégradé_sans_nom_76" />
        <linearGradient id="Dégradé_sans_nom_76-26" x1="152.72" y1="283.33" x2="311.28" y2="283.33" xlink:href="#Dégradé_sans_nom_76" />
        <linearGradient id="Dégradé_sans_nom_76-27" x1="158.71" y1="281.63" x2="305.78" y2="281.63" xlink:href="#Dégradé_sans_nom_76" />
        <linearGradient id="Dégradé_sans_nom_76-28" x1="162.49" y1="280.18" x2="301.86" y2="280.18" xlink:href="#Dégradé_sans_nom_76" />
        <linearGradient id="Dégradé_sans_nom_76-29" x1="167.94" y1="278.71" x2="296.23" y2="278.71" xlink:href="#Dégradé_sans_nom_76" />
        <linearGradient id="Dégradé_sans_nom_76-30" x1="171.11" y1="277.71" x2="291.37" y2="277.71" xlink:href="#Dégradé_sans_nom_76" />
        <linearGradient id="Dégradé_sans_nom_76-31" x1="173.85" y1="275.52" x2="286.34" y2="275.52" xlink:href="#Dégradé_sans_nom_76" />
        <linearGradient id="Dégradé_sans_nom_76-32" x1="178.74" y1="275.29" x2="281.38" y2="275.29" xlink:href="#Dégradé_sans_nom_76" />
        <linearGradient id="Dégradé_sans_nom_76-33" x1="180.82" y1="270.78" x2="275.83" y2="270.78" xlink:href="#Dégradé_sans_nom_76" />
        <linearGradient id="Dégradé_sans_nom_76-34" x1="182.93" y1="267.11" x2="271.71" y2="267.11" xlink:href="#Dégradé_sans_nom_76" />
        <linearGradient id="Dégradé_sans_nom_76-35" x1="185.11" y1="264.48" x2="268.42" y2="264.48" xlink:href="#Dégradé_sans_nom_76" />
        <linearGradient id="Dégradé_sans_nom_76-36" x1="188.22" y1="261.43" x2="264.73" y2="261.43" xlink:href="#Dégradé_sans_nom_76" />
        <linearGradient id="Dégradé_sans_nom_76-37" x1="191.57" y1="259.4" x2="260.95" y2="259.4" xlink:href="#Dégradé_sans_nom_76" />
        <linearGradient id="Dégradé_sans_nom_76-38" x1="192.97" y1="257.94" x2="259.23" y2="257.94" xlink:href="#Dégradé_sans_nom_76" />
        <linearGradient id="Dégradé_sans_nom_76-39" x1="195.77" y1="257.48" x2="255.87" y2="257.48" xlink:href="#Dégradé_sans_nom_76" />
        <linearGradient id="Dégradé_sans_nom_76-40" x1="199.33" y1="259.47" x2="252.25" y2="259.47" xlink:href="#Dégradé_sans_nom_76" />
        <linearGradient id="Dégradé_sans_nom_76-41" x1="203.25" y1="260.89" x2="248.98" y2="260.89" xlink:href="#Dégradé_sans_nom_76" />
        <linearGradient id="Dégradé_sans_nom_76-42" x1="210.75" y1="263.09" x2="245.13" y2="263.09" xlink:href="#Dégradé_sans_nom_76" />
        <linearGradient id="Dégradé_sans_nom_76-43" x1="216.76" y1="263.91" x2="241.98" y2="263.91" xlink:href="#Dégradé_sans_nom_76" />
        <linearGradient id="Dégradé_sans_nom_76-44" x1="220.38" y1="264.19" x2="238.98" y2="264.19" xlink:href="#Dégradé_sans_nom_76" />
    </defs>
    <title>Fichier 13</title>
    <g id="Calque_2" data-name="Calque 2">
        <g id="Calque_1-2" data-name="Calque 1">
            <path class="italy-cls-1" d="M32.69,123.46c-1.36-1.27-.73-2.89-.45-4.43s.74-2.87,1.11-4.31a21.12,21.12,0,0,0,.45-5.87c-.08-3.26.75-6.54,1.21-9.81.06-.39.2-.77.28-1.17.38-1.82,0-2.36-1.95-2.76a8.7,8.7,0,0,1,.7-1.84c1.14-1.71,2.46-3.3,3.53-5s2.53-3.69,3-5.73c.76-3.31,3.88-4.22,5.65-6.46a6.8,6.8,0,0,1,6.43-2.44c1.39.14,2.87-.57,4.43-.93l-.78-1.6c1.75-.26,3.3-.51,4.85-.7a4.48,4.48,0,0,0,2.66-.89c1.07-.82,3.31-.29,5,0a36.92,36.92,0,0,1,4.58,1.28,2.61,2.61,0,0,0,.76-.06l-.54-2c1.57.58,3,.79,4.08,1.58A9.17,9.17,0,0,0,82.15,72c3.3.5,6.55,1.41,9.84,2.16.34-.15,1-.71,1.34-.55,3.07,1.52,6.26,1,9.43.67A5.42,5.42,0,0,1,107,75.46a6.71,6.71,0,0,0,6.07,1.38c.07-.16.16-.27.14-.36-.6-2.25-.6-2.35,1.67-2.41,1.7,0,3.4.29,5.1.33,2.08,0,4.16-.1,6.24,0a5.17,5.17,0,0,1,2.15.68,15.67,15.67,0,0,1,2,1.51l.59-2.17,2.65.57-.26-.42A8.38,8.38,0,0,1,135.35,73a6.82,6.82,0,0,0,3.27-2.26c.94-1.21,2.44-2,3.82-3l-1.5-2.17a3.78,3.78,0,0,1,1.11-.32c2.76.27,4.71-1.74,7.08-2.54.45-.15.76-.79,1.07-1.24.66-1,1.26-2,1.9-3,.06-.1.22-.19.21-.26-.42-2.36,1.67-2.47,2.92-3.47a46.48,46.48,0,0,0,4.29-4.4c1-1,1.91-1.58,3.35-.43,1.26,1,2.46-.13,3.58-.78s.81-1.49.5-2.41a1.88,1.88,0,0,1,.88-2.49,13.82,13.82,0,0,1,3-1.6,11.77,11.77,0,0,0,5.34-2.91c.81-.78,1.52-.68,2.34.13,2.48,2.43,2.65,2.41,5.56.76a2.82,2.82,0,0,0,1.53-3.42c-.58-2.53-.13-2.92,2.35-2.17,2.91.88,2.89.87,4.55-1.63.69-1,1.61-2,2.2-3,1.12-2.06,2.17-3.82,5-4.14,1.49-.17,2.85-1.58,4.23-2.48,1.11-.73,1.74-.45,2.54.59a4.67,4.67,0,0,0,2.54,1.6c1.09.24,2-.32,1.86-1.75A2,2,0,0,1,213,21.7a7.2,7.2,0,0,1,2.37,0c2.13.57,4.22,1.05,6.36.07a.64.64,0,0,1,.5,0c2.27,1.37,3.82-.38,5.56-1.27a26.43,26.43,0,0,0,2.35-1.4c1.1-.72,2.1-1.35,3.32-.06a2.21,2.21,0,0,0,1.92.18c1.94-.72,4-1.28,4.39-3.94.08-.61,1.07-1.3,1.79-1.57a6.73,6.73,0,0,0,4.26-4.07A7.47,7.47,0,0,1,249,6.25a66,66,0,0,1,8-3.53c1.87-.73,2-.58,2.19,1.42,0,.22.08.44.15.85,2.08-.5,4.11-1,6.13-1.48a1.32,1.32,0,0,0,.73-.64c.88-1.73,1.87-2.38,3.87-1.74a5.42,5.42,0,0,0,4.4-.64,3.25,3.25,0,0,1,2.88-.26,34.27,34.27,0,0,1,3.81,1.52c.43.21.67.82,1,1.26s.62,1.29,1.13,1.6c1.2.74,2.4,1.23,3,2.82.39,1.06,1.85,1.67,2.58,2.67a8.06,8.06,0,0,1,1.69,3.41c.23,1.73,1.45,2.17,2.61,2.83a3.73,3.73,0,0,1,1.13.69c1.52,1.92,3.07,3.83,4.43,5.87a9.62,9.62,0,0,1,1.45,3.52,8.3,8.3,0,0,0,2.57,4.81l1.36-1.6c1.18,1.31,2.35,2.51,3.42,3.8,1.26,1.53,1.95,3.73,4.51,3.63a.56.56,0,0,1,.42.28c.89,2,2.79,2.83,4.44,3.83a8.62,8.62,0,0,0,4.57,1.29,5.51,5.51,0,0,1,3.78,1.31c.9.66,1.83,1.28,2.7,2a20.52,20.52,0,0,0,2.39,2,13.09,13.09,0,0,0,2.94,1c.4.11,1,0,1.23.18,1.65,1.36,3.3,2.74,4.81,4.25a2.73,2.73,0,0,1,.83,2.12c-.54,2,.4,3.28,1.37,4.7,2.42-1.4,2.58-1.4,3.86,1.12a27.31,27.31,0,0,1,1.5,4c.42,1.29.85,2.47,2.7,2,.29,1.64.64,3.08.76,4.54a3.58,3.58,0,0,0,2,3.12c1.6.9,3.07,2,4.59,3.09a1.61,1.61,0,0,1,.41.53c1.28,2.2,2.59,4.38,3.79,6.61.35.65.74,1.66.47,2.18-1,2,0,3.5.82,5.26,1.88-1.18,2.57,0,3.13,1.48.94,2.56,1.94,5.09,2.87,7.65a1,1,0,0,1-.12.93c-1.32,1.06-.79,2.21-.29,3.4.31.74.61,1.48.87,2.23.74,2.14.85,2.2,3,1.61a5,5,0,0,1,1.05,0c-.47,1.89-1.55,3.84-1.17,5.44s2.22,2.94,3.56,4.56c-.12,2.1-.14,4.6-.48,7.06a4,4,0,0,1-1.61,2.4c-2,1.39-2.94,3.37-4,5.66h2.63L371,137c-.48,1.2-.53,2.14,1.18,2.2a1.52,1.52,0,0,1,1.54,2.12,64.41,64.41,0,0,1-2.53,8.34c-.37.9-1.84,1.64-2.94,1.9-1.82.42-3.25,1-4.17,2.8a48.53,48.53,0,0,1-3.23,4.89l3.27.2c-1.65,1.68-2.81,3.3-4.36,4.33-1.82,1.21-1.59,3.08-2.19,4.68-.2.53-.13,1.2-.43,1.65-1.52,2.27-3.07,4.54-4.74,6.71a11.79,11.79,0,0,1-2.18,1.68,4.1,4.1,0,0,0-1.25,1.18,9.9,9.9,0,0,0-.87,2.76,3.08,3.08,0,0,1-2.07,2.64c-2.11.9-4.32,5.51-3.74,7.72.5,1.91,1.24,3.75,1.86,5.63a1.73,1.73,0,0,1,.1.84c-.65,3.16.68,6.08,1.08,9.11a4.78,4.78,0,0,1-.46,2.65,4.45,4.45,0,0,0,1.48,5.44,2.12,2.12,0,0,1,.92,1.12c.51,1.81,1,3.63,1.34,5.48.37,2,.58,4,2.51,5.41.46.32.6,1.34.59,2a8.87,8.87,0,0,0,3.27,7.19c1.86,1.63,3.53,3.48,5.28,5.24a2.47,2.47,0,0,1,.42.54q2.62,4.79,5.23,9.59c.51.94.55,1.56-.6,2.18-1.49.8-.84,4.61,1,5.14,3.07.89,3.57,3.26,3.77,5.8.14,1.78.06,3.47,1.85,4.64.88.58,1,1.64.52,2.79a3.43,3.43,0,0,0,.17,2.52c1.05,2,2.35,3.92,3.51,5.89.89,1.53.69,1.93-1.08,2.27a18.54,18.54,0,0,0-2.53.44c-.56.19-1.47.84-1.41,1.08.17.67.67,1.66,1.2,1.77,1.73.36,2,1.46,2,2.89s.07,3,0,4.45.48,2.37,2.12,2.41c.76,0,2,.08,2.19.52a10.61,10.61,0,0,1,.91,3.77c0,.57-.56,1.19-1.12,1.61.54,1.92,1.16,4.16-.38,6.42a6.17,6.17,0,0,0,1.08.57c1.41.36,1.68,1.17,1.41,2.57-.43,2.24-.64,4.52-.86,6.79-.2,2,.66,3,2.63,3.26,2.72.39,2.87.74,1.24,3-2.64,3.63-2.66,3.65-.17,7.42,1.14,1.73,1.71,3.89,3.86,4.87.34.16.57,1,.53,1.5a5.49,5.49,0,0,0,2.15,4.81c2.36,2.06,4.77,4.09,7.25,6,3.29,2.56,6.69,5,10,7.54a21.18,21.18,0,0,1,2.31,2.5c1.07,1.16,2,2.6,3.27,3.42,6.16,3.91,10.89,9.23,15,15.12,3.13,4.5,6.06,9.14,8.77,13.9a18,18,0,0,1,1.59,6c.38,2.36.82,4.47,2.71,6.31,1.49,1.45,1.16,3.79.68,5.74a29.09,29.09,0,0,1-1.89,4.45l1.48.24c-1.4,1.76-2.74,3.12-4.94,3.62-1.85.42-3.54,1.5-5.37,2-4.67,1.32-9.4,2.41-14.06,3.77a20.76,20.76,0,0,0-5.09,2.34c-1.33.83-1.1,1.81.42,2.2s2.14,1.29,1.68,2.76a35.83,35.83,0,0,1-1.85,5.06c-.85,1.74-.38,4.52,1.18,5.47a3.16,3.16,0,0,1,.19,5.44c-.29.21-.35.95-.29,1.41.43,3.33.93,6.64,1.38,10,0,.31-.08.91-.23.94-2.18.49-2.1,3.08-3.6,3.92a12,12,0,0,1,.15,2.81c-.44,2.35-1,4.69-1.62,7-.27,1-.44,1.78.86,2.11.29.07.75.45.72.6-.32,1.76-.69,3.5-1.13,5.24a13.39,13.39,0,0,1-.78,1.68,1.9,1.9,0,0,0,0,.68c0,2.76-1.34,5.25-1,8.24.34,2.6-1,5.43-1.68,8.15a3.53,3.53,0,0,0,1.12,3.86c1.18.93,1.26,1.89.36,2.91-3.36,3.8-3.13,8.54-3.59,13.12a5.31,5.31,0,0,1-.66,2c-.79,1.43-1.81,2.73-2.49,4.21s-1.19,3-2.59,4.27c-1.6,1.43-2.64,3.48-3.92,5.26,0,0-.09.1-.09.14.42,3.91-3.26,5-5.12,7.28a13.15,13.15,0,0,1-1.79,1.59c-1.81,1.55-1.91,2.07-.59,4.29l-5.46,2.36c-.62.27-1.41.42-1.81.89-2,2.41-3.91,4.9-5.85,7.37-.28.35-.44.83-.77,1.09-2.48,1.91-5,3.84-7.51,5.63a2.87,2.87,0,0,1-2.11.21,3.63,3.63,0,0,0-4,2.14c-.52,1.83-2.19,2-3.63,2.41a58.18,58.18,0,0,1-5.83,1.17c-.45.07-1-.28-1.45-.44-.77,1.88-1.62,2-3.47.73-2,.63-3.94,1.19-5.81,1.81-1.07.36-1.62,0-1.87-1.05a5.59,5.59,0,0,0-.56-1.61c-.56-.92-1.23-.94-2.05-.18a2.31,2.31,0,0,1-1.57.68c-1.35-.17-2.66-.67-4-.84a1.91,1.91,0,0,0-1.56.68,2.76,2.76,0,0,1-4,.5c-1.35-1.4-4.79-1.78-6.42-.82a2.31,2.31,0,0,1-1.58.06c-1.32-.35-2.62-.81-3.92-1.24a3.32,3.32,0,0,0-4.18,1.39c-.88,1.37-1.69,1.05-2.28-.06-1-1.93-2.41-2.08-4.27-1.38-1.64.61-3.36,1-5,1.49a1.29,1.29,0,0,1-.66,0c-1.83-.51-3.65-1.09-5.5-1.54-1.09-.27-1.48-.7-1.28-1.9a3.79,3.79,0,0,0-.6-2.29,1.6,1.6,0,0,0-1.52-.08c-2,1.58-2,1.63-3.73-.17a8.38,8.38,0,0,1-.84-1.24c-.8.49-1.23,1-1.67,1a3.49,3.49,0,0,1-2-.47c-.39-.27-.49-1-.64-1.56-.19-.7-.06-1.74-.49-2.06s-1.36.17-2.07.29-1.21.37-1.67.18c-.29-.11-.35-.92-.41-1.43,0-.24.19-.5.35-.86-1.3-.25-2.37-.61-2.19-2.27,0-.33-.79-.89-1.32-1.12a35.37,35.37,0,0,0-3.7-1.35c-.94-.29-1.39-.81-1-1.77.85-2.09.12-3.64-1.33-5.23a27.58,27.58,0,0,1-2.73-4.29c-.26-.42-.5-.85-.69-1.17-1.44,0-1.42,2.67-3.13,1.48-1.33-.93-2.61-2.07-1.82-3.39l-3.92-5.69c-1.41.59-2.16-.57-2.81-1.94-1-2-2-4-2.94-6s-1.89-2.3-3.7-.74a10.2,10.2,0,0,1-1.14.67,28.11,28.11,0,0,1-.46-5c.28-3.11-1-5.21-3.41-7a22.74,22.74,0,0,1-2.95-3.24c-.19-.21-.38-.58-.57-.58-1.89,0-1.93-1.56-2.48-2.78a50.94,50.94,0,0,0-2.57-4.8c-1.1-1.87-2.33-3.66-3.38-5.56a2.52,2.52,0,0,1-.25-2.08c1.18-1.77.53-3.39-.08-5.06-.29-.8-.65-1.59-.94-2.39s-.67-1.24-1.65-.83c-1.26.52-2-.4-2.44-1.31a31.64,31.64,0,0,1-2.56-6.33,30.66,30.66,0,0,0-8.55-15.71,8.68,8.68,0,0,1-2-4.39c-.45-2.32-1.91-3.85-3.41-5.4a1.81,1.81,0,0,0-1.42-.22,4.42,4.42,0,0,1-5.1-4.9c.38-2-.41-2.94-1.91-4.06a72.85,72.85,0,0,1-6-5.54c-1.29-1.21-2.55-2.46-3.83-3.68a3,3,0,0,1-.79-3.29,24.37,24.37,0,0,0,.83-3.32,5.36,5.36,0,0,0-2.67-5c-.15-.07-.38-.2-.47-.14-2,1.32-2.5-.61-3.23-1.58-2.31-3-4.47-6.21-6.7-9.32-.33-.46-.71-.89-1.07-1.33-1.48-1.79-2.31-.25-3.48.94-2-2.81-6-4-6.09-8.19a1.49,1.49,0,0,0-.72-1.05c-3.37-1.69-5.21-4.7-6.9-7.84a2.66,2.66,0,0,0-2.24-1.53,4,4,0,0,1-2.32-1.42c-2.92-3.66-5.71-7.42-8.58-11.11-1.57-2-2.84-2.32-5.28-1.48-1.54.54-2.24-.45-2.72-1.62a49.31,49.31,0,0,0-1.87-4.78,10.36,10.36,0,0,0-2.77-3.34c-2.52-1.86-5-4.09-7.92-5s-3.31-3.07-4.4-5.09c-.62-1.15-1.5-2.15-2.19-3.26a67,67,0,0,1-3.75-6.31,4.25,4.25,0,0,1-.06-3.26,6.73,6.73,0,0,0,.24-5c-.24-.88-.61-1.74-.76-2.63-.26-1.47-.82-2.23-2.5-1.83-1.23.29-1.71-.7-1.93-1.71-.58-2.62-1.12-5.25-1.65-7.88-.23-1.14-.49-2.15-1.81-2.65a3.09,3.09,0,0,1-1.33-1.68,28.23,28.23,0,0,1-1.45-4.38,4.62,4.62,0,0,1,.16-2.48c1.23-3.4.1-5.66-3.29-6.59a2.37,2.37,0,0,1-1.33-1.45c-.31-1.05-1.38-2.29,0-3.27,1-.74.73-1.28.17-2.09-1.81-2.63-3.9-5.15-5.2-8-.84-1.86-1.36-3.43-3.62-3.68-.25,0-.56-.43-.67-.73-1.1-3-3.48-4.85-6-6.51-1.56-1-1.71-2-.41-3.34.74-.78,1.08-1.45.32-2.36s-1.2-2-2.85-1.47c-3.64,1.24-5.34.46-6.48-3.13-.64-2-1.58-3.36-3.71-3.75-.24,0-.45-.3-.85-.59l2.59-2.93-.18-.32-3.9,1.13v-2.44c-2.25,1.9-4.19.71-6.2,0a3.56,3.56,0,0,0-2-.14c-2.24.67-4.27-.2-6.38-.61a5.07,5.07,0,0,0-2.69.23c-1.46.58-2.63.77-3.43-.92a1.67,1.67,0,0,0-.7-.74c-2.3-1.15-4.14-3.11-6.89-3.53a51.26,51.26,0,0,1-6.21-1.71,1.41,1.41,0,0,1-.46-.23q-4.13-3.15-8.24-6.32c-.12-.1-.18-.28.11-.45a9.1,9.1,0,0,0-.07-3c-.49-1.28-1.81-1.22-3-1-1.91.4-3-.77-4-2-1.38-1.75-2.6-3.62-4-5.6L11.5,239c-.93-2.57-2.44-3.87-5.15-3.34a3.81,3.81,0,0,1-1.44-.33,5.15,5.15,0,0,1,.38-1.39c1.64-2.7,1.31-2.3-.69-4.15C3.27,228.5,2,227.23.69,226a1,1,0,0,1-.26-.61c-.16-2.25-.31-4.49-.43-6.74a1.79,1.79,0,0,1,.27-1.1c1-1.25,2-2.45,3.19-4-3.18-.65-2.41-2.59-2-4.47.26-1.2,1.09-2.51-.42-3.54-.16-.11-.15-.54-.13-.81.23-2.48.42-5,.77-7.43.08-.59.7-1.11,1.08-1.65.57-.8,1.21-1.56,1.72-2.39.69-1.12,0-1.68-.9-2.31-.34-.23-.43-1.15-.3-1.66a5,5,0,0,0-.77-4,8.35,8.35,0,0,1-.79-4.39,18.93,18.93,0,0,1,1.19-4.8c.81-2.42.87-2.4,2.94-1.12,1.81-1.37,2.79-4.79,2.64-6.8A4.18,4.18,0,0,1,10.32,165c1.73-1,1.67-2.9,2.59-4.28s1.34-2.67,2.12-3.94a24.53,24.53,0,0,1,2.36-3.15,4.14,4.14,0,0,1,1.35-.69l.4.44q2.62-5.16,5.24-10.31c.28-.55.5-1.35,1-1.56,2.6-1.19,2.35-3.4,2.37-5.66a11.18,11.18,0,0,1,.88-3.27c.85-2.51,1.7-5,2.64-7.49C31.46,124.53,32.08,124.12,32.69,123.46Zm328.39.89a36.07,36.07,0,0,0-4-14.94c-3.09-6.1-6.5-12.06-10-17.92-4.76-7.86-9.71-15.62-14.72-23.33A35.91,35.91,0,0,0,316,54.78c-2.88-1.25-5.76-2.52-8.56-3.93a27.75,27.75,0,0,1-12.81-12.2Q293,35.37,291.43,32c-1.94-4.21-3.85-8.42-6.91-12-3.55-4.14-7.87-6.69-13.49-6a27.42,27.42,0,0,0-8.11,2c-6.56,3.06-13,6.32-19.34,9.89-7.05,4-14.21,7.54-22.23,9.14-5.21,1-9.91,3.35-14.53,5.94-7.42,4.15-14.86,8.28-22.46,12.1a76.11,76.11,0,0,0-16.84,11c-3.41,3-6.93,6-10.46,8.86a55.11,55.11,0,0,1-29.47,12.71c-6.52.72-13.09,1.08-19.63,1.66a26.14,26.14,0,0,1-11.11-1.56c-4.52-1.59-9-3.36-13.59-4.73-15.22-4.56-28.7,1.27-35.72,15.38-2.84,5.69-3.5,11.92-4.06,18.12-1,10.73-3,21.13-8.2,30.73-2.55,4.72-5.06,9.47-7.64,14.17-3.83,7-7.47,14-9.2,21.86-2.19,10-2.51,20.16-2.77,30.33-.36,14.12,6.48,24,18.7,30.18,4.93,2.48,10.53,3.71,15.92,5.15,6.38,1.7,12.73,3.43,18.2,7.25,3.7,2.58,7.24,5.39,10.73,8.23,5.35,4.35,10.89,8.54,15.84,13.32,6.7,6.46,10.66,14.82,14,23.36,3.88,9.95,7.5,20,11,30.1,4.07,11.85,9.83,22.59,18.92,31.4,7.55,7.32,14.87,14.87,22.54,22.06,25.3,23.73,44.64,51.69,59.4,83,6.24,13.22,12.45,26.46,20.36,38.82,5.22,8.15,10.57,16.13,17.55,22.94,4.45,4.35,8.61,9,12.85,13.54,2.92,3.14,5.63,6.47,8.63,9.51a26.79,26.79,0,0,0,16.26,8.07c4.71.56,9.47.78,14.12,1.65,6.67,1.24,13.3,2.81,19.89,4.44,9.3,2.31,17.64.73,25.06-5.48,7.84-6.56,15.82-13,23.58-19.61a33.1,33.1,0,0,0,12.06-23.24,115.24,115.24,0,0,1,2.26-15.77c1.76-7.85,4-15.6,6.1-23.36,2.49-9.14,3.58-18.4,2.18-27.82-.69-4.68-1.79-9.31-2.56-14-1.16-7,1.63-12,8.18-14.59a49.84,49.84,0,0,1,6.4-1.86c4.69-1.18,9.53-1.94,14.07-3.52,5.79-2,7.49-6.29,5-11.89-1.68-3.8-3.78-7.42-5.84-11a79.69,79.69,0,0,0-26-28c-4.83-3.14-9.8-6.09-14.78-9-9-5.28-15.1-12.76-17.55-23-.81-3.39-1.89-6.73-2.48-10.15-2.15-12.55-4.13-25.13-6.22-37.7a174.48,174.48,0,0,0-11.7-40.74c-2.71-6.28-6-12.29-9-18.46-3.92-8.14-6.76-16.61-7.06-25.73-.43-13.34,3.6-25.32,11.44-36,4.32-5.91,8.72-11.74,11.74-18.48C358.28,138.78,360.92,132.28,361.07,124.35Z" />
            <path class="italy-cls-2" d="M24,199.34c.2-5.25.34-10.51.61-15.75.44-8.44,3.89-15.91,7.7-23.23,2-3.75,3.93-7.48,6-11.18,5.05-9.1,7.54-18.92,8.61-29.2.62-6,1-12,3.15-17.67,5.27-14.12,17.36-20.76,32.05-17.5a70.38,70.38,0,0,1,11.41,3.62c6.43,2.64,12.89,3.9,19.89,2.75,7.48-1.23,15.13-1.58,22.56-3,9.67-1.88,17.94-6.82,25.45-13.17a225.83,225.83,0,0,1,18.36-14.57c4.87-3.32,10.52-5.46,15.78-8.22,6.17-3.24,12.22-6.7,18.45-9.81a39.58,39.58,0,0,1,8.55-3c7.71-1.82,14.71-5.18,21.54-9.09,5.79-3.32,11.74-6.38,17.75-9.29a30.41,30.41,0,0,1,7.69-2.28c5.32-1,9.76.77,13.33,4.86a45.16,45.16,0,0,1,7.81,13.61c2.71,7,6.74,12.88,13.29,16.69a49.28,49.28,0,0,0,9.32,4.2,33.22,33.22,0,0,1,18.8,14.8c5.93,9.76,12.33,19.24,18.28,29a51.54,51.54,0,0,1,7.73,21.79c.68,6.76-1,13-3.58,19.16a95.44,95.44,0,0,1-11.31,19.53,62.7,62.7,0,0,0-11.37,25.43c-2.22,11.54-.47,22.65,4,33.34,2.84,6.78,6.21,13.34,9.28,20a138.64,138.64,0,0,1,11,37.36c1.73,11.46,3,23,4.62,34.47a130.69,130.69,0,0,0,5.5,23.14,37.25,37.25,0,0,0,16.25,20.32c5.67,3.54,11.47,6.86,17.08,10.49,13.17,8.54,22.51,20.41,29.36,34.37,3.44,7,1.69,11.26-5.81,13.38-4.38,1.24-8.94,1.86-13.39,2.85s-8.42,2.48-11.54,5.92a11.25,11.25,0,0,0-3,10.28c1,4.7,2.25,9.33,3.14,14a57.72,57.72,0,0,1-2.17,29.58c-2.06,6.11-4.1,12.24-6,18.39a63.9,63.9,0,0,0-3.1,18.88c-.07,9.31-4,16.66-10.82,22.59-6.21,5.39-12.61,10.57-18.91,15.84-1,.81-1.92,1.63-2.82,2.5-6.75,6.45-14.6,8-23.47,5.51-7.32-2-14.67-3.95-22.06-5.68-3.66-.86-7.44-1.18-11.17-1.73-6.81-1-12.07-4.63-16.37-9.81-3-3.65-5.78-7.54-9-11-4.49-4.78-9.35-9.22-14-13.84a95.15,95.15,0,0,1-16.19-22c-5.94-10.8-11.46-21.85-16.91-32.91a354.15,354.15,0,0,0-27.61-47.51c-12.11-17.23-26.27-32.65-41.52-47.11-4.19-4-8.28-8-12.48-12-8.08-7.6-13.34-16.92-16.58-27.41-2.9-9.38-5.33-18.92-8.43-28.24C113,284.94,104,270.2,90.2,258.58c-3.27-2.76-6.07-6.07-9.38-8.77-5.53-4.52-12.21-6.59-19-8.16-6.18-1.42-12.43-2.54-18.54-4.19-7.3-2-13.12-6.1-16.5-13.12-2.14-4.43-2.62-9.19-2.64-14,0-3.66,0-7.31,0-11Zm332.26-72c-.09-1.48-.12-3-.29-4.44-1-8.65-4.43-16.38-9-23.65-4.82-7.63-10-15.05-14.55-22.83-4.87-8.28-11.35-13.93-20.81-16.57-10.38-2.89-18.1-9.11-21.68-19.84a60.27,60.27,0,0,0-5.53-11.55c-3.52-5.91-8.68-9-15.83-7.52a40.86,40.86,0,0,0-5,1.34C255.48,25,248.41,29.84,241,33.94c-3.59,2-7.25,4.19-11.15,5.15A105.26,105.26,0,0,0,199,52.49a70.73,70.73,0,0,1-6.59,3.64c-3.73,1.82-7.87,3-11.23,5.34-6.41,4.45-12.51,9.38-18.54,14.35-8.65,7.15-18,12.76-29.29,14.43-7.11,1.06-14.3,1.61-21.42,2.63a32.51,32.51,0,0,1-16.27-2.16c-4.44-1.65-8.87-3.51-13.47-4.46-13.63-2.8-23.4,2-29.26,14.34-2.82,5.94-3.52,12.38-4.3,18.78-1.07,8.77-2.52,17.44-6.46,25.45-2.82,5.73-6,11.29-8.93,17-3.38,6.59-6.1,13.41-6.58,20.93a214.1,214.1,0,0,0,.89,33.54c.84,9,6.08,15.08,14.53,18.22a74.67,74.67,0,0,0,9.22,2.61c6,1.37,12,2.35,17.9,3.92,7.24,1.94,14,4.92,19.17,10.72,2.66,3,5.35,5.95,8.13,8.82,11.71,12.06,20.3,26,25,42.18,2.5,8.67,4.84,17.39,7.48,26,3,9.72,7.36,18.72,14.66,26,4.77,4.76,9.55,9.52,14.49,14.1a287.15,287.15,0,0,1,58.61,75.44c7.26,13.54,13.91,27.39,20.9,41.07,5.75,11.24,12.53,21.78,21.45,30.82,5.61,5.69,11.3,11.31,16.76,17.13,3.28,3.49,6.12,7.39,9.31,11a21.73,21.73,0,0,0,12.32,7c4.93,1,9.95,1.54,14.82,2.72,6,1.46,12,3.27,18,5.07,8.11,2.46,15.48,1.34,22-4.22,7.43-6.34,14.88-12.66,22.22-19.1,6.16-5.4,9.77-12.11,10-20.48a60.61,60.61,0,0,1,3.13-19.2c2-5.7,4-11.42,6-17.13,3.47-9.83,4.86-19.86,2.66-30.17-1-4.69-2.28-9.32-3.56-13.94-1.58-5.67.11-10.27,4.78-13.53a31.9,31.9,0,0,1,8.83-4.33c4.73-1.44,9.71-2.05,14.49-3.36,7.32-2,9.06-6,5.69-12.73a81.39,81.39,0,0,0-23.54-29,171.62,171.62,0,0,0-19-12.19c-10-5.75-17.34-13.8-20.48-25.08a181.31,181.31,0,0,1-4.79-20.5c-1.92-12.3-3.22-24.69-4.86-37A127.48,127.48,0,0,0,344.15,242c-3.19-7.2-6.62-14.29-9.65-21.56a57.39,57.39,0,0,1-4.24-27.33c1-11.8,5.47-22.25,12.21-31.92a139.16,139.16,0,0,0,9-14.94A39,39,0,0,0,356.27,127.32Z" />
            <path class="italy-cls-3" d="M354.64,127.94c.25,7.48-2.28,14.53-5.79,21.19-2.84,5.39-6.32,10.44-9.55,15.62-11.15,17.88-13.22,36.67-5.46,56.33,3,7.53,6.52,14.83,9.69,22.29a126.71,126.71,0,0,1,8.52,32.91c1.52,11.38,2.46,22.84,4.17,34.18a217.39,217.39,0,0,0,4.94,22.92c3.37,12.77,11.53,21.86,22.9,28.2a124.42,124.42,0,0,1,23.43,16.33,75.39,75.39,0,0,1,16.94,22.65,16.67,16.67,0,0,1,1.34,3.69c.75,3.34-.2,5.66-3.29,7.07a45.19,45.19,0,0,1-7.64,2.42c-3.92,1-7.93,1.68-11.83,2.76a22.82,22.82,0,0,0-9.93,5.87A10.3,10.3,0,0,0,390,433c1.27,4.8,2.72,9.56,4,14.37a49.62,49.62,0,0,1-1.61,30c-2.44,6.71-4.92,13.4-7.22,20.16a45.55,45.55,0,0,0-2.53,15.15c.09,9.33-3.74,16.83-10.59,22.87-5,4.38-10.16,8.51-15.21,12.8-2.18,1.85-4.22,3.85-6.41,5.68-4.82,4-10.34,5.57-16.49,4.11-4.49-1.07-8.88-2.57-13.36-3.71-6.36-1.63-12.68-3.55-19.14-4.53-8.4-1.28-14.43-5.73-19.58-12.07-4.31-5.32-8.78-10.53-13.41-15.57-3.47-3.78-7.41-7.12-11-10.82-7.94-8.21-13.89-17.83-19.12-27.9-5.48-10.54-10.68-21.22-16.18-31.75C207.65,424,190.2,398.35,168,376.12c-6.7-6.71-13.54-13.28-20.42-19.81C138.77,348,133.32,337.7,130,326.19c-2.46-8.51-4.68-17.08-7.2-25.56a100.42,100.42,0,0,0-21.87-39.18c-3.25-3.6-6.52-7.19-9.71-10.85a32.36,32.36,0,0,0-16.5-9.93c-7.22-1.93-14.55-3.47-21.84-5.12-5.32-1.21-10.57-2.63-15-6.08-4.14-3.26-7.1-7.36-7.6-12.75-1.12-12-2.78-24-1.6-36.06.66-6.79,3.19-12.94,6.22-18.92S41.14,150,44,144.06c3.48-7.25,4.82-15.07,5.66-23,.61-5.79,1.18-11.59,3.22-17.13,4.37-11.87,14.35-18.05,26.94-16.81A48.44,48.44,0,0,1,93.63,91c6.5,2.69,13.07,4.17,20.2,3,7.31-1.25,14.76-1.69,22-3.06,9.61-1.81,18.06-6.3,25.57-12.55,2.46-2,5-4,7.35-6.17a85.94,85.94,0,0,1,22-14.07c6.06-2.8,11.92-6,17.73-9.33a50.57,50.57,0,0,1,13.38-5.61c8.12-1.89,15.46-5.47,22.61-9.61,4.94-2.86,10-5.59,15.07-8.13a34,34,0,0,1,7.75-2.67c6.43-1.42,11.72.73,15.35,6.13,2,3,3.38,6.44,5,9.72,1.91,3.95,3.31,8.22,5.71,11.83,3.57,5.38,9.34,8.07,15.2,10.36a50.55,50.55,0,0,0,5.53,1.81,23.75,23.75,0,0,1,14.4,10.61c6.15,9.63,12.4,19.19,18.39,28.92C351.67,109.92,354.67,118.37,354.64,127.94ZM30.59,184.46a169.13,169.13,0,0,0,3.94,35.48,13.32,13.32,0,0,0,5.25,8c3.85,2.88,8.32,4.24,12.93,5.2,9.67,2,19.41,3.78,28.65,7.45,4,1.59,7.94,3.38,10.91,6.6,3.56,3.86,7,7.85,10.38,11.85,8.95,10.49,16.19,22,20.3,35.25,3.1,10,5.75,20.09,8.62,30.14,2.29,8,5.09,15.89,10.42,22.38a151.67,151.67,0,0,0,15,15.76c24.37,22.21,43.9,48.18,60.07,76.74,6.89,12.17,13,24.76,19.45,37.19,5.22,10.13,10.7,20.1,18.43,28.58,3.92,4.3,8.37,8.12,12.27,12.43,5.94,6.57,11.58,13.39,17.39,20.07,4.6,5.29,10.17,8.92,17.26,10a66.5,66.5,0,0,1,8.53,1.87c6.52,1.91,13,4,19.48,6,7.87,2.37,14.89,1.17,21.12-4.61,6-5.59,12.4-10.8,18.63-16.17a29.62,29.62,0,0,0,10.8-22.44,45,45,0,0,1,1.75-11.63c2.25-7.31,5-14.47,7.67-21.64,3.69-9.85,4.69-19.89,2.16-30.13-1.23-5-2.94-9.84-4.43-14.76-1.92-6.35-.69-10,4.6-14.06a34.17,34.17,0,0,1,13.21-5.86c4.27-1,8.63-1.78,12.79-3.13,5-1.61,6.19-4.71,4.14-9.52-3.82-8.95-9.81-16.3-17-22.75-7-6.3-15-11.24-23-16-10.75-6.34-18.93-15-22.59-27.16a153.45,153.45,0,0,1-5.08-22.36c-1.78-12.32-2.81-24.74-4.21-37.11a134.1,134.1,0,0,0-8.48-33.27c-3.1-8-6.74-15.86-9.79-23.92a58.43,58.43,0,0,1-2.26-34.68c2.13-9,6.36-17.06,11.65-24.61,4.75-6.8,8.65-14.07,10.18-22.29,2.42-13-.34-25-7.36-36.05C339.17,93.2,333.88,85.19,328.93,77,325,70.45,319.77,66,312.27,64.29c-12.78-3-21.94-9.94-25.77-23.08a42.34,42.34,0,0,0-4.95-10.48c-3.2-5.09-8.1-7.08-14-5.88a29.27,29.27,0,0,0-7,2.16c-6,2.89-11.83,6-17.64,9.13a99.87,99.87,0,0,1-20.22,8.79,73.75,73.75,0,0,0-11.46,4.44c-4.89,2.34-9.56,5.14-14.39,7.6-4.12,2.09-8.42,3.85-12.52,6-7.09,3.71-13,9-19,14.21-8.49,7.31-17.9,12.95-29,15.08-6.72,1.29-13.59,1.79-20.33,3-8,1.4-15.52,0-22.89-3.14a38.71,38.71,0,0,0-14.43-3.41c-11.37-.29-19.79,5.14-23.79,15.76a59.78,59.78,0,0,0-2.7,10.76c-1,5.9-1.52,11.91-2.67,17.78-1.6,8.16-5.35,15.5-9.49,22.65C33.87,166.06,30.13,177.14,30.59,184.46Z" />
            <path class="italy-cls-4" d="M37.07,184.54c-.55-8.47,2-17.44,6.79-25.8a97,97,0,0,0,11.7-35.4c.92-6.8,2.39-13.49,5.89-19.57,3.32-5.76,8.19-8.91,14.84-9.27a43.84,43.84,0,0,1,16.57,2.05c7.21,2.44,14.46,3.55,22.07,2.16,7.41-1.34,14.93-2.05,22.33-3.46,11-2.11,20.54-7.37,29.18-14.44a195.8,195.8,0,0,1,17.28-13.18c5.34-3.46,11.46-5.69,17-8.89,10.3-6,21.33-10.08,32.48-14.08,5.76-2.07,11.11-5.31,16.6-8.11,5.14-2.62,10.17-5.5,15.89-6.7,6.55-1.37,11.29.52,14.76,6.26a47.51,47.51,0,0,1,4.42,9.62,31.31,31.31,0,0,0,13.78,17.72,35,35,0,0,0,12.58,4.79c7.58,1.23,13,5.16,17,11.76,4.31,7.26,9.14,14.22,13.5,21.46,10.64,17.66,11,35.64,1.14,53.74-2.64,4.86-5.91,9.39-8.41,14.32-8.54,16.86-9.34,34.25-2.66,51.9,2.48,6.56,5.53,12.91,8,19.49a145.55,145.55,0,0,1,9,37.88c1,11.72,2.07,23.46,3.81,35.08A149.25,149.25,0,0,0,358,337c3.32,10.4,10.21,18.42,19,24.72,4.36,3.12,9.07,5.75,13.52,8.76,9.54,6.44,18.23,13.83,24.39,23.73a37.21,37.21,0,0,1,3.69,7.87c1,3.1-.08,5.5-3.11,6.71a75,75,0,0,1-9.81,3c-6,1.49-11.83,3.46-17,7-5.77,4-7.15,7.78-5,14.42,1.38,4.35,2.76,8.72,4.28,13a43.11,43.11,0,0,1-.64,31.64c-1.53,3.75-3,7.55-4.52,11.29a75.23,75.23,0,0,0-5.68,24.93c-.4,6.88-3.62,12.45-8.82,17-6.22,5.46-12.28,11.1-18.35,16.73-4.69,4.36-10,6.62-16.44,5-4.7-1.16-9.31-2.7-13.94-4.14-6.1-1.9-12.13-4.09-18.29-5.75a29.76,29.76,0,0,1-15.81-10.55c-3.36-4.19-6.77-8.34-10.09-12.56a100,100,0,0,0-13.08-14c-7.44-6.42-13-14.42-17.81-22.9-5.67-10-11-20.29-16.4-30.47a423.56,423.56,0,0,0-42.89-65.79A305.92,305.92,0,0,0,157.34,357c-7-6.67-13.63-13.68-17.19-22.82-2.58-6.63-4.51-13.53-6.51-20.37-2.47-8.44-4.51-17-7.09-25.41-4-13.09-11.12-24.57-18.85-35.78-5.48-7.94-12.86-12.8-21.76-15.78-3-1-6-1.9-9-2.75-6.87-1.93-13.77-3.78-20.64-5.72a32.6,32.6,0,0,1-4.13-1.66c-4.92-2.16-8.34-5.62-9.8-10.94C39.68,205.92,37.14,196.08,37.07,184.54Zm310.28-53.67c-.07-1.31-.13-2.33-.17-3.36A52,52,0,0,0,342.34,107c-4.84-10.29-11.59-19.4-17.68-28.91a14,14,0,0,0-8-5.87q-4.76-1.43-9.53-2.83c-12-3.5-20.42-10.72-24.26-22.92a40.77,40.77,0,0,0-3.5-7.79c-2.59-4.55-6.64-7-11.9-6.52a41.44,41.44,0,0,0-10.25,2.47A90.9,90.9,0,0,0,245.78,40c-8.21,4.46-17,7.57-25.52,11.21-11.64,4.95-22.82,11-34.1,16.79-6.65,3.41-12.2,8.45-17.9,13.2-9.4,7.83-19.87,13.45-32,15.59-7.93,1.4-15.92,2.43-23.88,3.6a32.26,32.26,0,0,1-14.24-1,68.4,68.4,0,0,0-16.82-3c-8.78-.42-15.28,2.85-19.12,11a62.3,62.3,0,0,0-5,17.58A100.15,100.15,0,0,1,45,160.38,41.55,41.55,0,0,0,39,180c-.34,13.87,2.17,27.18,8.57,39.6A11.78,11.78,0,0,0,50,222.71c2.79,2.63,6.38,3.69,9.95,4.77,10,3,20.07,5.82,30,9.19,6.92,2.36,13.28,6.05,17.85,12a124.92,124.92,0,0,1,17.4,30.19C130,291,133.09,303.65,136,316.34c3.28,14.29,9.59,26.75,20.37,36.92,6.15,5.8,12.11,11.82,17.75,18.11,18.07,20.15,33.33,42.37,46.85,65.77,6.83,11.82,13.11,23.95,19.69,35.9,5,9,10.16,18,17.42,25.35a301.79,301.79,0,0,1,25.75,29.56A35.52,35.52,0,0,0,303,541.32c4.93,1.37,9.73,3.19,14.58,4.81,4.12,1.37,8.22,2.78,12.35,4.12,7.17,2.31,13.52.84,19-4.3.58-.55,1.19-1.07,1.77-1.62,5.06-4.7,9.93-9.64,15.23-14.06a27.12,27.12,0,0,0,9.84-18.38c.7-5.73,1.42-11.45,3.47-16.91s4-10.94,6.15-16.36a44,44,0,0,0,1.12-30.2c-1.83-5.77-3.39-11.62-5.05-17.44a9.94,9.94,0,0,1,3.58-11.31,41.81,41.81,0,0,1,13.49-7.3c4.12-1.35,8.32-2.47,12.42-3.88,4.48-1.55,5.71-4.26,4.1-8.71a26,26,0,0,0-2.16-4.46c-5.55-9.26-13.47-16.22-22.13-22.4-5.53-3.95-11.47-7.36-16.79-11.56-7.86-6.21-14.23-13.81-17.58-23.42a137,137,0,0,1-6.68-30.39c-1.29-11.86-2.3-23.76-3.86-35.59-1.49-11.33-3.84-22.51-8.24-33.17-2.79-6.75-5.63-13.5-7.9-20.43C325,203.82,325,189.19,330.94,175c2.35-5.65,5.67-10.92,8.76-16.24C344.77,150,348.24,140.91,347.35,130.88Z" />
            <path class="italy-cls-5" d="M345.53,131.31c1,10.45-2.36,19.73-7.78,28.41-4.81,7.7-8.79,15.74-10.67,24.7-2.76,13.18-1.39,26,3.29,38.54,2.81,7.54,6,15,8.26,22.67a210.9,210.9,0,0,1,7.91,45.83c1,15.44,3.11,30.68,7.63,45.52a45.53,45.53,0,0,0,7.38,14,79.68,79.68,0,0,0,20.94,19.29c7.82,5,15.08,10.78,21,18a50.28,50.28,0,0,1,5.73,8.69c2.4,4.64,1.18,7.66-3.52,9.84-1.19.55-2.44,1-3.65,1.48-5.14,2.18-10.33,4.27-15.4,6.62a24,24,0,0,0-5.17,3.63,9.8,9.8,0,0,0-3.42,10.49c1.5,5.74,3.42,11.37,5,17.11a110.74,110.74,0,0,1,2.91,13.18c.9,6.46-1.1,12.56-3.28,18.55-2.42,6.65-5.09,13.22-7.19,20-1.17,3.78-1.51,7.83-2,11.79a27.07,27.07,0,0,1-8.65,16.85c-5.36,5-10.67,10-15.83,15.16-6.18,6.19-13.22,7.64-21.35,4.6s-16.13-6.13-24.3-8.88a36.63,36.63,0,0,1-18.17-13.12c-2.84-3.8-5.64-7.63-8.32-11.53a98.29,98.29,0,0,0-13.38-15.34,115.52,115.52,0,0,1-21-27.37c-6.61-11.75-12.92-23.67-19.7-35.31-12.52-21.51-26.34-42.16-42.63-61-6.9-8-14.29-15.57-21.78-23-9.63-9.57-15.4-21.08-18.8-34.05-3.29-12.59-6.75-25.14-10.45-37.62-3.21-10.83-8.76-20.57-15.16-29.82-4.51-6.52-10.88-10.83-18.13-13.57-8.86-3.34-17.93-6.12-26.94-9.07-4.79-1.57-9.65-3-13.48-6.47a18,18,0,0,1-3.68-4.44c-6.71-12.11-9.83-25-8.25-38.9A39.7,39.7,0,0,1,48,161.9c6.29-11.39,10.07-23.57,12.39-36.33a73.54,73.54,0,0,1,3.86-13.3c3.48-9,10.15-12.85,19.73-11.77,3.46.39,6.89,1,10.32,1.65a55.91,55.91,0,0,0,19.27-.07c7.72-1.28,15.47-2.33,23.17-3.71a65.67,65.67,0,0,0,32.69-15.62c11.5-10.24,24.91-17.32,38.5-24.12,5.75-2.88,11.87-5,17.74-7.68,8.53-3.85,17-7.9,25.48-11.79,4.25-1.94,8.45-4,13.18-4.72,6-.87,10.58,1.34,13.59,6.47a63.52,63.52,0,0,1,4,8.69c5,12.64,14.67,19.8,27.65,22.28,7.6,1.45,13.48,4.66,17.28,11.47,1.17,2.09,2.61,4,3.87,6.07,2.7,4.37,5.49,8.69,8,13.16a52.23,52.23,0,0,1,6.42,23.24C345.31,127.66,345.42,129.49,345.53,131.31Zm-2,2.19c-.48-4.48-.8-9-1.47-13.44-1.11-7.27-3.14-14.27-7.06-20.61q-4-6.48-7.89-13c-4.39-7.39-10.75-11.41-19.3-13-12.67-2.4-21.87-9.82-27.39-21.6a85.89,85.89,0,0,0-4.23-8.59c-3.34-5.44-8.45-7.47-14.58-5.79a74.42,74.42,0,0,0-10.62,3.8C243.9,44.35,237.06,48,230,51c-9.54,4.11-19.24,7.82-28.45,12.72-10.87,5.78-21.46,11.88-30.83,20a68,68,0,0,1-31.16,15.41c-7,1.45-14.17,2.48-21.27,3.62-4.17.67-8.36,1.66-12.54,1.67-6.32,0-12.64-.8-19-1a39.06,39.06,0,0,0-9.85.47c-5.57,1.24-8.78,5.55-10.65,10.54a128.94,128.94,0,0,0-4.91,16.56,128.91,128.91,0,0,1-10.84,30.59,44.26,44.26,0,0,0-4,10.35,54.92,54.92,0,0,0,6.18,40.35A29.39,29.39,0,0,0,57.91,219c3.64,3.46,8.42,4.95,13.07,6.56,8.63,3,17.35,5.75,25.86,9,7.79,3,14.64,7.55,19.5,14.55,5.46,7.87,10.26,16.18,13,25.37,4.32,14.31,8.2,28.77,12.13,43.2,3.07,11.27,8,21.47,16.14,30,6.7,7,13.59,13.89,20,21.2,16.44,18.8,30.63,39.27,43.4,60.7,7.57,12.7,14.63,25.71,22.08,38.49a119.61,119.61,0,0,0,16.21,21.81c5.81,6.19,11.12,12.86,16.47,19.47,3.44,4.26,6.42,8.89,9.85,13.17,3.85,4.81,8.31,9.05,14.17,11.32q14.7,5.69,29.53,11c6.4,2.31,12.11,1,17.05-3.76q8.34-8,16.78-15.9a26.85,26.85,0,0,0,8.49-15.85,81.68,81.68,0,0,1,4.22-17.1c2-5.27,3.94-10.6,5.82-15.93a38.19,38.19,0,0,0,2.18-18.88c-.7-4.39-1.74-8.73-2.87-13-1.35-5.14-3-10.18-4.4-15.31s.2-9.28,4.4-12.22a98.63,98.63,0,0,1,11-6.52c3.74-1.95,7.76-3.36,11.48-5.33,3-1.57,3.75-4.17,2.58-7.32a24.62,24.62,0,0,0-2.58-5.2c-4.86-7.2-11.27-12.87-18.25-17.92-6.63-4.78-13.36-9.4-18.92-15.51-6.17-6.78-11.69-13.93-14.23-22.93a171.53,171.53,0,0,1-5.89-29.36c-1-9.94-1.54-19.94-2.83-29.85-1.56-11.94-3.52-23.86-7.41-35.32-2.42-7.13-5.18-14.15-7.6-21.28a66.29,66.29,0,0,1-2.71-33.94,77.78,77.78,0,0,1,9.72-24.91C340.42,152.84,344.16,143.83,343.48,133.5Z" />
            <path class="italy-cls-6" d="M341,133.91c1,10.36-1.84,19.66-7.16,28.42a67.37,67.37,0,0,0-10.12,36.49,77.81,77.81,0,0,0,5.93,27.83c7.3,18.3,11.06,37.4,13.26,56.88,1.19,10.5,2,21,3.45,31.5.88,6.43,2.42,12.79,3.94,19.11,2.45,10.21,8.5,18.33,15.4,26,5.45,6,11.83,10.92,18.26,15.78a70.92,70.92,0,0,1,14.92,14.79,29.59,29.59,0,0,1,3.23,5.82c1.42,3.35.6,6.14-2.52,8-3.78,2.23-7.81,4-11.64,6.17a80.25,80.25,0,0,0-7.68,4.82c-4.72,3.38-6.53,8-5,13.66,1.64,6.06,3.48,12.07,5.09,18.14.88,3.31,1.5,6.69,2.19,10,1.28,6.21-.14,12.18-1.91,18.05-1.52,5-3.43,9.94-5,15-1.78,5.77-3.66,11.54-4.94,17.43a32.06,32.06,0,0,1-9.51,17.06c-4.57,4.31-9.21,8.55-13.69,13-6.5,6.41-13.85,7.9-22.3,4.41-8.07-3.33-16.19-6.56-24.3-9.79a31.71,31.71,0,0,1-12.7-9.1c-4-4.8-7.85-9.8-11.53-14.89a198.26,198.26,0,0,0-18-22c-8.55-8.84-14.83-19.37-21.06-29.92-9.24-15.64-18.42-31.32-28.14-46.66a328.91,328.91,0,0,0-36.07-47.62c-4.07-4.4-8.19-8.78-12.48-13-9.53-9.3-15.36-20.59-18.68-33.36s-6.6-25.31-10.09-37.91a100.94,100.94,0,0,0-10.32-23.83A47,47,0,0,0,97.28,233.5q-12.71-4.88-25.63-9.2A29.68,29.68,0,0,1,54.23,210c-5-9.1-8.19-18.59-7.46-29.11A44.89,44.89,0,0,1,52,162.77c5.31-10,8.56-20.65,11-31.61,1.33-5.9,2.68-11.82,5.55-17.24,3.39-6.4,8.61-9.57,15.94-8.95,4,.34,8,.71,12,1a70.59,70.59,0,0,0,18.4-1.37c7.73-1.5,15.53-2.65,23.29-4,13-2.31,24.33-8.09,34.37-16.5a117.6,117.6,0,0,1,24-15.82c7.64-3.73,15-8,22.74-11.57,6.67-3.1,13.68-5.46,20.46-8.33,5.15-2.18,10.14-4.74,15.29-6.93a30.83,30.83,0,0,1,7.06-2c5.49-.89,9.73,1.33,12.66,5.94a38.91,38.91,0,0,1,3.57,6.82c3,7.83,9,13,15.59,17.5a33.93,33.93,0,0,0,14.46,5.52c6.83,1,12,4.47,16,9.86,7.57,10.08,13.42,21,15.54,33.56.85,5,1,10.21,1.54,15.32Zm-247-25.63c-3.94,0-7.89-.22-11.8.06-5,.35-8.73,3-11.19,7.46-2.82,5.06-4.19,10.61-5.55,16.16-2.71,11.08-6.21,21.86-11.74,31.91a41.71,41.71,0,0,0-4.43,13.45c-1.42,8.63.31,16.82,3.52,24.79,4.14,10.24,10.84,17.77,21.59,21.51,9,3.13,17.91,6.57,26.72,10.2a44.09,44.09,0,0,1,20.49,16.56,77.71,77.71,0,0,1,10.28,21.39c4,14,7.76,28.06,11.39,42.15,3.4,13.15,9.08,24.95,18.94,34.54,16.58,16.13,30.67,34.28,43.56,53.43,10.12,15,19.4,30.58,28.48,46.24,7.41,12.77,15.4,25.15,25.29,36.17a254.63,254.63,0,0,1,20,25.47,149.32,149.32,0,0,0,9.41,12,23.64,23.64,0,0,0,5.64,4.93c10.39,6.24,21.75,10.33,33.12,14.32,6.84,2.4,12.88.65,18.06-4.45q7-6.91,14.28-13.58a27.08,27.08,0,0,0,7.31-10.41c.78-2.08,1.38-4.23,2.07-6.35,2.9-8.9,5.71-17.83,8.74-26.69,3.49-10.18,4.16-20.4,1.2-30.82-1.89-6.65-3.62-13.34-5.34-20-1.61-6.25.37-11.24,5.51-15,.92-.68,1.85-1.35,2.82-1.94,3.76-2.28,7.56-4.49,11.3-6.81a14.52,14.52,0,0,0,3.46-2.76c2.37-2.79,1.57-5.77,0-8.63a47.9,47.9,0,0,0-11.2-13.29c-7.07-6.14-14.55-11.79-21-18.69-8.2-8.83-14.74-18.52-17.05-30.55-1.59-8.29-3.23-16.6-4.2-25-1.62-13.95-2.53-28-5.16-41.81-2.38-12.5-5.3-24.77-9.93-36.63A83.31,83.31,0,0,1,322.67,200c-.47-13.19,2.94-25.45,9.28-36.92,4.2-7.61,7.43-15.49,7-24.37-.36-7.24-.92-14.48-1.6-21.69a39.27,39.27,0,0,0-5.07-16.59c-2.24-3.78-4.69-7.44-6.92-11.22-4.33-7.35-10.79-11.07-19.1-12.77a42.29,42.29,0,0,1-28.38-19.84c-1.69-2.72-3.11-5.6-4.86-8.27-3.32-5.06-8-7.48-14.06-6.21a40.94,40.94,0,0,0-8,2.59c-7.53,3.29-14.82,7.21-22.51,10.07-15,5.59-29,13.23-42.63,21.46-6.38,3.85-12.1,8.78-18.12,13.23a59.37,59.37,0,0,1-23.6,10.94c-9.18,1.85-18.42,3.35-27.58,5.28A108.5,108.5,0,0,1,93.95,108.28Z" />
            <path class="italy-cls-7" d="M336.07,132.52c.32,5.47,1.15,11-.44,16.36a98.57,98.57,0,0,1-4.35,12.06c-3.39,7.63-6.72,15.24-8.37,23.49-2.55,12.82-1.2,25.36,2.63,37.71,2.14,6.92,5,13.65,6.78,20.65,4,15.6,7.3,31.37,8.48,47.5a303.8,303.8,0,0,0,5.84,41.53A57.69,57.69,0,0,0,361.37,360c6.4,6.75,13.18,13.14,19.85,19.63,3.53,3.43,7.05,6.85,9.6,11.12a20.29,20.29,0,0,1,1.48,2.89c1.47,3.73.91,6.5-2.2,9.05-2.42,2-5.1,3.65-7.68,5.43-1.32.91-2.69,1.73-4,2.63-6.93,4.7-8.92,9.71-6.8,17.83,1.53,5.86,3.23,11.67,5,17.46a52.2,52.2,0,0,1-.89,33c-3.24,9.39-6.31,18.85-9.37,28.3a25.51,25.51,0,0,1-6.09,10.21c-5,5.09-10.1,10.09-15.18,15.11s-11.44,6.67-18.13,4c-9.34-3.69-18.57-7.71-27.6-12.1-7.07-3.44-11.95-9.47-16-16.06-5-8.17-10-16.37-16.36-23.64-4.12-4.74-8.5-9.26-12.61-14-6.31-7.27-11.51-15.35-16.54-23.53-7.88-12.79-15.41-25.79-23.47-38.46-11.1-17.46-22.82-34.5-36.84-49.82q-6.37-7-13-13.7A68.81,68.81,0,0,1,147,313.47c-3.08-12.17-6-24.39-9-36.57a102.33,102.33,0,0,0-8.66-22.67c-5.69-10.83-14.4-18.32-25.48-23.18-8.21-3.6-16.64-6.74-24.67-10.69C65.84,213.8,57.72,202.91,55,188.24a31.14,31.14,0,0,1,2.92-19.88c5.45-10.84,9.15-22.28,12.76-33.78.9-2.88,2-5.71,3.2-8.49,2.95-6.92,8-11.19,15.74-11.16,9.45,0,18.17-2.81,27-5.59A166.5,166.5,0,0,1,139.27,104c13.7-2.26,25.92-7.4,36.5-16.48,9.56-8.2,20.68-14,31.62-20.08,8.86-4.93,18.25-8.68,27.58-12.57a125.39,125.39,0,0,0,12.09-5.26c3.42-1.87,7-2.56,10.72-3.25,6-1.11,10.59,1.17,14,6.13,2.2,3.2,4.07,6.74,6.78,9.44,8.28,8.24,17.17,15.64,29.36,17.47,3.73.56,7.42,1.53,10.49,3.93a15.44,15.44,0,0,1,3.82,3.63c3.47,5.63,7,11.27,10,17.16,3.26,6.45,3.76,13.59,3.88,20.72C336.11,127.38,336.07,130,336.07,132.52Zm-2.27-.31h.27c-.2-4.91-.31-9.82-.61-14.72s-.75-10-3.11-14.47-4.89-8.77-7.53-13a15.61,15.61,0,0,0-9.25-6.92c-3.9-1.12-7.72-2.51-11.64-3.54a40,40,0,0,1-13.8-6.67c-2.61-1.94-5.13-4-7.72-6-4.5-3.45-7.81-8-11.29-12.37-3.92-4.95-8.95-6.41-15-4.94a29.63,29.63,0,0,0-3.3.9c-15.63,5.83-31.05,12.12-45.7,20.22-9.51,5.26-19,10.51-27.58,17.22a139.8,139.8,0,0,1-13.12,9.3c-8,4.87-17.1,6.53-26.12,8.41-6.47,1.35-13.07,2.48-19.26,4.67-9.46,3.35-18.88,6.49-28.94,7.45-6.45.62-11,4.23-13.71,10a104.06,104.06,0,0,0-4.13,10.15,243.74,243.74,0,0,1-11.38,28.64c-5.74,11.68-5.51,23.49.81,34.86,4.74,8.54,12,14.64,20.74,18.86,6.68,3.22,13.57,6,20.37,9,9.58,4.18,18,9.83,24.19,18.5a73.46,73.46,0,0,1,11.1,24.34c3.23,12.48,6.11,25.06,9.23,37.57,2.2,8.85,5.07,17.54,10.48,25a170.07,170.07,0,0,0,13.6,16.06A326.15,326.15,0,0,1,200.26,386c12.6,17.9,23.73,36.75,35.39,55.26,6.09,9.67,12.28,19.28,19.75,28,4.35,5.07,9,9.92,12.95,15.28,5.47,7.38,10.48,15.11,15.6,22.76,4.38,6.55,9.38,12.44,16.64,15.9,8,3.83,16.09,7.67,24.3,11.11,6.68,2.8,13.22,2,18.68-3s10.68-10,15.57-15.42a31.85,31.85,0,0,0,5.82-9.6c3.42-8.71,6.63-17.53,9.38-26.46,2.11-6.86,4-13.93,3-21.23-.66-5-1.72-9.9-2.85-14.79-1.4-6.06-3.25-12-4.57-18.1s.72-11.37,5.66-15.36c2.84-2.29,5.75-4.5,8.58-6.81,5.31-4.32,6.1-8.2,2.19-13.78a102.24,102.24,0,0,0-8.94-10.55c-6.36-6.87-13-13.49-19.24-20.47-5.71-6.38-10-13.74-11.72-22.2q-3.24-16-5.59-32.22c-1.14-7.9-1.22-16-2.41-23.86-2.81-18.65-6.57-37.06-13.15-54.86a76.63,76.63,0,0,1-3.39-41.84c1.62-8.37,4.84-16.16,8.19-23.93a41.38,41.38,0,0,0,3.73-17.46C333.74,139,333.8,135.58,333.8,132.21Z" />
            <path class="italy-cls-8" d="M332.14,131.88c0,3.31-.06,6.63,0,9.94A45.16,45.16,0,0,1,328,161.94c-6,13-9.25,26.62-8.39,41a89.13,89.13,0,0,0,5.51,25.52c4.29,11.67,7,23.71,9.58,35.86,2.51,12,3.57,24,4.71,36.16a245.41,245.41,0,0,0,6.13,36.64c2.35,9.37,7.26,17.37,13.58,24.51,5.91,6.67,12.21,13,18.12,19.65a70.17,70.17,0,0,1,7.61,10.27c2.4,4,1.75,7.62-1.62,10.89-2.7,2.62-5.67,5-8.58,7.34-5,4.1-6.87,9.36-5.46,15.59,1.36,6,3,12,4.68,17.89,3.08,10.88,3.79,21.76.89,32.82A151.22,151.22,0,0,1,367,498.06a12.77,12.77,0,0,0-.71,1.74c-2.44,9.14-8.14,16.1-14.93,22.33-2.73,2.51-5.4,5.1-8.12,7.62-5,4.61-10.71,5.88-17.13,3.57-10.73-3.85-21.11-8.47-30.57-14.88-5.76-3.9-9.9-9.45-13.64-15.22a343.25,343.25,0,0,0-28.36-38c-8.24-9.53-14.71-20.35-21.44-31-9-14.19-17.89-28.42-27.08-42.48a270.69,270.69,0,0,0-35.22-43.7c-12.19-12.15-19.13-26.8-22.78-43.32-2.34-10.59-4.59-21.2-7.27-31.7-2.8-11-7.41-21.1-15.12-29.61-6-6.65-13.43-11.23-21.53-14.91-7.22-3.28-14.51-6.49-21.41-10.36a52.84,52.84,0,0,1-16.43-14.08c-7.4-9.76-9.28-20.69-4.54-31.87,5.43-12.79,10-25.88,15.05-38.8C79,125,84.93,119.93,94,118.72a92.55,92.55,0,0,0,24.25-7.12c7.19-3.08,14.93-4.19,22.53-5.75q5.11-1.06,10.22-2.17c9-2,16.91-6.46,23.93-12.18,12.7-10.34,27.2-17.59,41.51-25.21A232.85,232.85,0,0,1,246.84,53a44,44,0,0,1,7.29-1.87c5.63-1,10.48.62,13.61,5.48,4.82,7.48,12,12.05,19.19,16.76a55.89,55.89,0,0,0,19.51,8.07c9.11,1.88,15.11,7.61,19.57,15.35a46.34,46.34,0,0,1,6.2,24.77c-.09,3.43,0,6.85,0,10.28ZM329.69,130h.73c0-4.34.07-8.68,0-13-.13-7-1.46-13.58-5.43-19.53-4.71-7.06-10.64-12.34-19.18-14.17-1.67-.36-3.29-.95-4.95-1.39a46.09,46.09,0,0,1-13.19-5.62c-7.47-4.78-14.74-9.83-20.87-16.32-4.95-5.24-10.81-7.27-17.85-5.2-3.12.92-6.26,1.8-9.28,3a307.18,307.18,0,0,0-33.7,16c-9.15,4.94-18.21,10-26.58,16.25a156.45,156.45,0,0,1-14.59,9.87c-7.67,4.46-16.36,6-24.95,7.61-6.85,1.3-13.8,2.29-20.14,5.35a120.74,120.74,0,0,1-26.82,9.21,18,18,0,0,0-12.67,9.42c-2.32,4.51-4.26,9.21-6.24,13.89Q69.59,155.63,65.45,166a85,85,0,0,0-3.91,10.58c-2.75,10.78-.15,20.47,7.27,28.61a64.89,64.89,0,0,0,18.41,14.4C94,223,101,226,107.78,229.38c10.88,5.37,19.63,13.09,25.58,23.77a93.07,93.07,0,0,1,9.24,25.32q3.24,14.53,6.51,29.05c3.57,16,11.32,29.52,22.88,41.19a278.11,278.11,0,0,1,20.64,23.81c12.2,15.51,22.71,32.2,33,49,8.19,13.34,16.5,26.61,26.24,38.91,6.06,7.66,12.29,15.19,18.11,23,5.27,7.11,10.06,14.57,15.1,21.85,3.31,4.78,7.06,9.27,12.18,12.11,8.24,4.56,16.59,9,25.11,13,7.33,3.44,14.46,2.8,20.65-3,1.08-1,2.23-2,3.31-3,6.67-6.29,13-12.85,17-21.27a146.79,146.79,0,0,0,9.67-27.06,60.36,60.36,0,0,0-.26-31.67c-1.63-5.83-3.17-11.68-4.7-17.54-2-7.52-.19-14,5.54-19.34a67.09,67.09,0,0,0,5.76-6.09,8.64,8.64,0,0,0,1.91-7.85c-1.12-4.61-4-8.16-7-11.63-5.73-6.67-11.63-13.21-17.3-19.93-6.38-7.57-11.37-16-13.24-25.81-2.15-11.27-4.37-22.56-5.58-34-1.72-16.2-3.72-32.32-7.1-48.27-2.16-10.21-5.74-20-9-29.83A81.07,81.07,0,0,1,318.71,189c1.07-8.86,3.8-17.26,6.86-25.58,2.26-6.13,4.18-12.34,4.12-19C329.66,139.62,329.69,134.82,329.69,130Z" />
            <path class="italy-cls-9" d="M327.19,131.37c-.27,5-.65,10-.77,15.06-.16,6.89-1.9,13.43-4,19.91a118.36,118.36,0,0,0-5.68,24.13c-1.31,12.19.38,24,4.06,35.65,2.77,8.76,5.8,17.46,8.06,26.35a283.3,283.3,0,0,1,7.89,49.5,219,219,0,0,0,5.12,34,64.14,64.14,0,0,0,12.26,25.24c4.79,6.11,9.82,12,14.62,18.15a84.57,84.57,0,0,1,5.92,8.59c3.43,5.69,2.18,10.9-2,15.7-1.24,1.42-2.39,2.92-3.48,4.45-4,5.62-4.49,11.83-2.82,18.33,1.72,6.69,3.62,13.34,5.26,20.05a62.07,62.07,0,0,1-.44,30.2c-2.76,11-6.46,21.72-13.05,31.11A85.07,85.07,0,0,1,340,526.61c-4.63,3.53-9.95,3.84-15.15,1.83A124.19,124.19,0,0,1,311,521.76c-4.78-2.56-9.45-5.33-14.06-8.19-5.06-3.14-8.65-7.76-11.9-12.63-4.37-6.55-8.28-13.45-13-19.74-8.37-11.14-17.45-21.74-25.75-32.93-6.66-9-12.76-18.4-18.83-27.79-10.26-15.87-20.07-32-31.41-47.2a320.75,320.75,0,0,0-23.86-27.83c-7.65-8.1-14.25-16.89-17.48-27.71-2.21-7.42-4.08-15-5.92-22.49-2.38-9.69-4.21-19.52-6.94-29.1-5-17.6-16.19-30.25-32.41-38.6-6.6-3.39-13.17-6.88-19.51-10.71a90.79,90.79,0,0,1-17.31-14c-7.52-7.57-9.26-16.57-6.09-26.54,1.15-3.62,3-7,4.47-10.55,3-7.23,6-14.43,8.79-21.75,3.86-10.3,10.82-16.93,21.6-19.59A70.14,70.14,0,0,0,121,116.11c6-3.64,12.84-5,19.6-6.43,4.69-1,9.43-1.78,14.07-3a56.48,56.48,0,0,0,20.77-10.24,160.84,160.84,0,0,1,29.48-18.31c9.05-4.35,17.83-9.27,26.86-13.68A57.41,57.41,0,0,1,249,59.05a17.77,17.77,0,0,1,15,4.74,77.18,77.18,0,0,0,9.64,7.09c5,3.18,10.06,6.11,15.13,9.1s10.49,4.45,16,6c5.1,1.42,10,3.32,13.86,7.15a30.19,30.19,0,0,1,8.8,19.95c.38,6.08.08,12.21.08,18.32Zm-.94-12.11H326c0-1.66.09-3.32,0-5-.79-13.27-8.83-23.08-21.58-26.74a85.84,85.84,0,0,1-14.06-4.88,193.77,193.77,0,0,1-29.58-17.55c-3.46-2.53-7.25-4.06-11.49-3.66a42.38,42.38,0,0,0-10.52,2.08,149.18,149.18,0,0,0-15.31,6.81c-8.17,4.08-16.33,8.21-24.28,12.7a173.8,173.8,0,0,0-19.86,12.44c-10.63,8.07-22.5,12.64-35.49,14.87-7.8,1.34-15.45,3.41-22.33,7.42a100.18,100.18,0,0,1-19.72,9.09c-9.29,3-15.56,9.24-19.43,18.09-3.08,7.07-6.25,14.09-9.36,21.15a89.34,89.34,0,0,0-3.87,9.14c-4.46,14.24-1,21.86,8.8,30.18a165.43,165.43,0,0,0,32.27,21.25,64.11,64.11,0,0,1,25.12,22.25,78.31,78.31,0,0,1,10.38,25.39c2.35,10.16,4.38,20.4,6.53,30.61a79.56,79.56,0,0,0,20.51,39.58c8.31,8.71,16.09,18,23.56,27.41,10.64,13.46,19.39,28.25,28.75,42.59,6.93,10.62,13.71,21.36,21.16,31.6,12.43,17.08,26.44,33,37.66,51,2.95,4.73,6.25,9.38,10.9,12.67a184.94,184.94,0,0,0,28.84,16.44c5.77,2.69,11.43,2.05,16.54-2.1a86.21,86.21,0,0,0,27.07-37.64c4.14-11.13,5.92-22.47,4-34.15a175.16,175.16,0,0,0-5.25-22.67c-3-9.72-2.49-18.61,3.58-27,2.75-3.81,3.95-8.23,2.06-12.82a39.3,39.3,0,0,0-4.35-7.93c-3.93-5.47-8.14-10.75-12.24-16.1-6.64-8.66-11.92-18-14.31-28.76-3.21-14.54-4.85-29.28-6.41-44.06-2.23-21.07-5.77-41.83-13.54-61.71-7.07-18.1-7.61-36.66-2.63-55.36,3-11.32,6.2-22.53,6.33-34.43C324.51,134.06,325.61,126.66,326.25,119.27Z" />
            <path class="italy-cls-10" d="M323.49,121.54c-.85,11.22-1.38,22.48-2.68,33.65-.77,6.66-2.68,13.19-4.2,19.75a116.36,116.36,0,0,0-3.22,33.82,76.61,76.61,0,0,0,6.27,25.32c5.67,13.31,8.53,27.37,10.73,41.52,2,13,2.91,26.22,4.62,39.29,1,7.41,2.41,14.76,3.9,22.09,2.29,11.25,7.71,21,14.37,30.26,3.78,5.23,7.35,10.61,10.83,16,3.87,6,4.67,12.48,1.42,19.07-4.28,8.66-4.13,17.45-1.38,26.51,1.86,6.11,3.29,12.36,4.81,18.57,2.66,10.9,1.6,21.58-1.48,32.29-4.64,16.16-13.61,29.42-26,40.58-6.44,5.82-12.39,6.91-20.12,2.82-7.51-4-14.63-8.66-22-12.89a42.3,42.3,0,0,1-13.6-12.82c-2-2.8-3.64-5.82-5.64-8.59-6.6-9.18-13-18.53-20-27.39a618.14,618.14,0,0,1-37.63-53.11c-9.13-14.43-18.39-28.81-29.18-42.08-6.41-7.88-13-15.66-20-23a77.11,77.11,0,0,1-19.84-38.41c-2.17-10.55-4.35-21.11-6.84-31.59-2-8.4-4.78-16.55-9.41-24a64.47,64.47,0,0,0-23.93-22.34c-12.16-6.72-23.33-14.79-34.19-23.38-8.89-7-11.41-15-7.91-25.79a41,41,0,0,1,1.4-3.86c4-9.15,8-18.31,12.13-27.42a31.84,31.84,0,0,1,18.5-17.1A104.26,104.26,0,0,0,121.88,120c6.45-4.07,13.72-6.16,21.08-7.89,4.22-1,8.5-1.76,12.7-2.85A63.46,63.46,0,0,0,177,99a168.93,168.93,0,0,1,26.42-15.8c9.43-4.49,18.54-9.64,27.9-14.29,5.77-2.87,11.85-5.07,18.45-4.16a23.33,23.33,0,0,1,7.55,2.52C267.73,72.77,277.9,78.71,288.39,84c4.91,2.48,10.32,4,15.59,5.7,12.27,3.93,19.49,13.6,19.58,26.52,0,1.77,0,3.54,0,5.31ZM322,119.82l-.2,0c0-.91,0-1.83,0-2.74.2-10.45-4.22-18.3-13.39-23.31a66.79,66.79,0,0,0-7.78-3.12c-6.21-2.44-12.57-4.56-18.61-7.38-9.67-4.52-19.13-9.49-28.66-14.32a17.94,17.94,0,0,0-14.46-1A88.26,88.26,0,0,0,228,72.37c-7,3.51-13.73,7.52-20.76,10.94-9.41,4.57-18.83,9-27.32,15.27a79.12,79.12,0,0,1-31.19,13.51c-9.19,1.91-18.09,4.64-26.23,9.63A142.44,142.44,0,0,1,105,131a35.28,35.28,0,0,0-19,18.58c-3.18,7.09-6.5,14.11-9.71,21.19A53.22,53.22,0,0,0,72.07,185a14.48,14.48,0,0,0,3.31,12,51.83,51.83,0,0,0,6.83,6.7,264.77,264.77,0,0,0,31.47,21.92c16.65,9.86,28.14,23.84,32.83,42.86,2.66,10.79,5.14,21.63,7.33,32.52,3.19,15.9,9.23,30.24,20.77,42,5.58,5.71,10.71,11.88,15.9,18,11.46,13.42,21,28.23,30.58,43,8.67,13.3,17,26.8,26.76,39.4,12.28,15.92,24.47,31.92,35.67,48.63a95.45,95.45,0,0,0,6.53,8.36c4,4.7,9.17,7.85,14.43,10.88,6.48,3.73,12.86,7.65,19.46,11.15,4.63,2.45,9.33,1.88,13.49-1.44a103,103,0,0,0,16.86-17.47c10.51-13.49,15.59-28.67,14.54-45.8a111.71,111.71,0,0,0-5.28-26.5c-3.22-10.27-4.14-20.38-.75-30.79a19,19,0,0,0-1.5-15.31c-3.09-5.65-6.36-11.23-9.91-16.61-5.83-8.84-10.82-18-13.3-28.4a287.25,287.25,0,0,1-6.19-39.57c-1.13-11.88-2.08-23.77-4.82-35.44-2.18-9.28-4-18.64-7.76-27.48a124.45,124.45,0,0,1-5.56-15.26c-3-10.75-2.59-21.75-1.16-32.66.94-7.18,2.44-14.3,4-21.37a150.65,150.65,0,0,0,3-22.9C320.18,136.86,321.2,128.35,322,119.82Z" />
            <path class="italy-cls-11" d="M319.27,122.21c-.69,9-1.62,17.6-1.94,26.21-.47,12.47-3.34,24.54-5.48,36.74s-2.94,24.56-.23,36.78a69.78,69.78,0,0,0,5.06,14.51c3.73,7.92,6,16.24,8.06,24.68,3.07,12.43,4,25.13,5.52,37.76,1.47,12,3.34,24,5.19,35.94,1.94,12.53,7,23.8,13.93,34.36,2.68,4.11,5.08,8.41,7.45,12.71,3.15,5.74,4.52,11.94,3.13,18.38-2.35,10.95-.41,21.39,2.56,31.91a144.47,144.47,0,0,1,4.64,22.09c2.09,17.56-2.46,33.39-13.83,47.13-4.62,5.59-9.08,11.33-14.68,16-5.2,4.35-10.67,5.17-16.47,1.67C313,513.58,304,507.73,295,501.79c-4.38-2.92-7.52-7.2-10.32-11.58a481.84,481.84,0,0,0-30.64-42.31c-12.73-15.84-23.84-32.81-34.73-49.92a388.45,388.45,0,0,0-43.51-56.35c-7.19-7.72-13.34-16.15-16.3-26.45-1.9-6.62-3.48-13.35-4.94-20.09-2.4-11-4.71-22.06-8.06-32.86a59.25,59.25,0,0,0-20.66-30c-7.49-5.8-15.33-11.15-22.94-16.8C96.62,210.75,90.32,206,84.2,201a32.52,32.52,0,0,1-5.95-6.56,12,12,0,0,1-1.48-11.16,251.48,251.48,0,0,1,14.44-33.67c3.23-6.22,8.21-10.67,14.31-14.1,6.87-3.86,13.56-8,20.3-12.11a83.84,83.84,0,0,1,26-10,72.13,72.13,0,0,0,25.57-10.78c10.72-7.3,22.24-13,34.05-18.28,6.35-2.83,12.3-6.54,18.53-9.66,5.7-2.86,11.72-4.94,18.16-3.48a58.73,58.73,0,0,1,10.72,3.95c9.91,4.43,19.7,9.11,29.63,13.5,4.48,2,9.2,3.43,13.76,5.27a47.09,47.09,0,0,1,6.74,3.33c6,3.63,9.13,9.13,9.83,16C319.08,116.42,319.12,119.51,319.27,122.21ZM356.9,401.63c-.16-2.59-.14-6.49-.69-10.31-.85-5.91-3.6-11.15-6.33-16.39-3.69-7.09-7.71-14-10.86-21.37-4.89-11.4-6.23-23.71-7.81-35.88-1.69-13-3.15-26.08-4.64-39.13-.79-7-2.54-13.67-4.23-20.44a99.07,99.07,0,0,0-6.55-19.25,68.31,68.31,0,0,1-6.25-17.72c-2.13-12-1.09-24,.85-36,1.59-9.8,3.3-19.6,4.42-29.46.94-8.22,1.12-16.52,1.58-24.8.29-5.19.65-10.38.66-15.57a16.42,16.42,0,0,0-5.69-12.95A35.73,35.73,0,0,0,303.13,97c-7.17-3.27-14.52-6.13-21.78-9.19-10.43-4.38-20.82-8.83-31.27-13.16A18.06,18.06,0,0,0,238,73.76a46.12,46.12,0,0,0-7.34,2.83c-8.64,4.17-17.14,8.63-25.85,12.65-7.06,3.26-14.28,6.23-20.65,10.72-10.72,7.56-22.62,12.28-35.22,15.53a71.62,71.62,0,0,0-19.82,8.35q-12.32,7.61-24.55,15.35a30.61,30.61,0,0,0-10.1,9.86,147.66,147.66,0,0,0-15.61,36.06,10,10,0,0,0,1.37,8.72,33.41,33.41,0,0,0,6.34,7.11c9,7,18.17,13.66,27.2,20.56,5.26,4,10.49,8.09,15.53,12.39,10.36,8.85,16.46,20.35,19.72,33.37,2.86,11.44,5.38,23,7.95,34.48,2.32,10.38,5.38,20.47,11.85,29.1,3.87,5.16,8,10.14,12.29,15a415.56,415.56,0,0,1,36.62,47.65q14.58,22.09,29.85,43.73c10.77,15.19,22,30,33,45.1,6.13,8.43,12.28,16.7,21.62,22.09,6.86,4,13.17,8.87,20,12.84,6.29,3.65,11.25,2.72,16.51-2.31,6.67-6.38,12.29-13.67,17.78-21.05,7.41-10,10.21-21.26,9.76-33.54-.38-10.37-2.85-20.35-5.74-30.22C357.88,421.2,355.85,412.28,356.9,401.63Z" />
            <path class="italy-cls-12" d="M314.1,139.68c-.5,8.55-.69,17.14-1.6,25.65-.87,8.11-2.6,16.12-3.74,24.21-1.51,10.72-2.37,21.47-.63,32.26a47,47,0,0,0,4.7,15c6,11.11,9.38,23.07,11.39,35.39,1.79,11,2.81,22.08,4.17,33.13,1.55,12.64,3,25.3,5.78,37.74,2.06,9.11,5.77,17.55,10.15,25.74,2.1,3.93,4.08,7.92,6,12a46.09,46.09,0,0,1,4.28,19.79c0,10.34,2.14,20.25,4.76,30.19a248.62,248.62,0,0,1,5.45,26.13c2,12.94-1.52,24.86-9.15,35.27-5.39,7.35-11.6,14.1-17.69,20.9-3.52,3.93-8.07,5.17-13.07,2.86a66,66,0,0,1-8.72-4.7C310,507.11,304,502.84,298,498.62c-5.61-3.92-9.86-9.14-13.86-14.6-14.26-19.51-28.67-38.91-42.71-58.56-8.86-12.41-17.26-25.15-25.72-37.83-10.08-15.1-21.59-29-33.46-42.74a201.37,201.37,0,0,1-13.64-17.36c-5.53-8-8.05-17.32-10.22-26.69-2.64-11.43-5.14-22.9-7.89-34.3a64.77,64.77,0,0,0-21.28-34.95c-4.22-3.59-8.36-7.29-12.7-10.72-8.25-6.51-16.65-12.83-24.92-19.31a46.36,46.36,0,0,1-5.34-5.06c-3.71-4-4.22-8.67-2.56-13.73,3.62-11,7.84-21.7,14.16-31.47a35.74,35.74,0,0,1,10.31-10.39c7.7-5.13,15.48-10.15,23.26-15.16,7.47-4.81,15.73-7.84,24.22-10.21a89,89,0,0,0,25.53-11.46,156.41,156.41,0,0,1,25-13c8.23-3.54,16.25-7.56,24.32-11.47,6.79-3.29,13.64-3.83,20.72-1,14.56,5.88,29.15,11.69,43.71,17.58,3.07,1.24,6.1,2.59,9,4.11,6.19,3.18,10.11,8.21,10.38,15.25.29,7.52-.1,15.06-.19,22.6,0,.51-.06,1-.1,1.54Zm-2.64,1.17H312c.09-7.14.35-14.28.23-21.41-.14-8.15-4-14.1-11.42-17.68A438.76,438.76,0,0,0,250.16,81a27.79,27.79,0,0,0-21.6,1.33c-5.63,2.65-11.23,5.37-16.93,7.86-9.68,4.23-19.48,8.16-28.43,13.9a118.87,118.87,0,0,1-30.5,13.77A64.31,64.31,0,0,0,136.23,125q-12.49,8-24.9,16.07a40.85,40.85,0,0,0-12.45,12.56C93,163,89.14,173.24,86,183.77a12.64,12.64,0,0,0,3.56,13.63c1.76,1.7,3.55,3.4,5.47,4.93,8.54,6.79,17.23,13.39,25.65,20.32,4.71,3.88,9,8.24,13.43,12.47,9.18,8.79,14.17,20,17.32,32,3,11.23,5.36,22.61,8,33.93,2.68,11.62,6.6,22.7,14.26,32.08q5.74,7,11.72,13.88a415.9,415.9,0,0,1,30.47,39.22c8.06,11.86,16.09,23.74,24.43,35.4q19.9,27.8,40.25,55.28c3.79,5.13,7.7,10.33,12.34,14.64,9,8.33,19.07,15.28,29.54,21.61,5.26,3.19,10.29,2.4,14.68-2a156.54,156.54,0,0,0,19.24-23.6c6.16-9.21,8.33-19.24,7.21-30.17a144.62,144.62,0,0,0-5.46-25.95c-2.69-9.17-5.31-18.34-5.88-27.94A78.64,78.64,0,0,0,344,373.73c-2.87-6-5.67-12-8-18.2-4.76-12.91-6.24-26.53-7.94-40.07-1.63-12.92-2.68-25.91-4.58-38.78-1.83-12.34-4.84-24.46-10.67-35.62a65.56,65.56,0,0,1-7.09-36.33c.56-7.1,1.55-14.18,2.62-21.23,1.46-9.6,3.19-19.16,3.07-28.93C311.41,150,311.46,145.42,311.46,140.85Z" />
            <path class="italy-cls-13" d="M310.28,143.45c-.58,10.49-.88,21-1.84,31.45-.79,8.69-2.48,17.3-3.55,26-1.1,8.94-1.45,18,.91,26.73a75.91,75.91,0,0,0,5.46,14.55,116.67,116.67,0,0,1,11.31,38.08c1.68,12.85,2.91,25.76,4.51,38.62s3.18,25.65,7.5,37.91c1.8,5.11,3.9,10.13,6.11,15.08,4.24,9.5,7.63,19.22,8.81,29.62,1.32,11.66,5.13,22.71,8.21,33.94,2.33,8.48,4.54,17,4.65,25.9.12,9.68-2.25,18.58-8.44,26.19-5.58,6.87-11.28,13.64-16.94,20.44a12.2,12.2,0,0,1-1.36,1.3c-4,3.55-8,4.19-12.57,1.37-5.23-3.24-10.31-6.76-15.28-10.41-4.32-3.18-8.33-6.77-12.58-10.05a60.66,60.66,0,0,1-11.41-12.25c-23.31-31.36-46.53-62.79-68.45-95.15-9.3-13.74-20-26.37-30.76-39a206.6,206.6,0,0,1-14.13-18.28c-5.67-8.45-8.08-18.3-10.4-28.09q-3.74-15.79-7.51-31.58c-3.23-13.54-10.16-24.89-20-34.63a329.1,329.1,0,0,0-27.88-24.58,138,138,0,0,1-11.82-10.66,9.76,9.76,0,0,1-2.34-10.48c2.2-6.85,4.06-13.84,6.75-20.49A51.65,51.65,0,0,1,118.14,140c9.05-5.65,18.06-11.4,27.32-16.69a73.57,73.57,0,0,1,13-5.3,100.75,100.75,0,0,0,21.2-9.56,186.44,186.44,0,0,1,32.42-15.85c5.7-2.18,11.26-4.75,16.85-7.21A27,27,0,0,1,247.8,84.2a302.51,302.51,0,0,1,49.14,19.06c7.74,3.73,11.88,9.94,12.22,18.57.29,7.19.5,14.39.75,21.58Zm-2.38,6.61c-.58-9.41-1.07-18.82-1.78-28.21-.45-5.89-2.55-11.1-7.89-14.27a161.4,161.4,0,0,0-14.42-7.88c-12.47-5.79-25.6-9.77-38.83-13.41a21.7,21.7,0,0,0-11.87,0,121.23,121.23,0,0,0-11.48,4c-8.9,3.57-17.79,7.17-26.58,11a108.69,108.69,0,0,0-11.14,6,156,156,0,0,1-25.05,11.86c-16.12,5.92-30,15.68-43.87,25.47a39.51,39.51,0,0,0-14.53,18.27c-2.88,7.56-5.07,15.38-7.41,23.14-1.3,4.31-.07,8.16,3.09,11.31a68.62,68.62,0,0,0,5.87,5.26,295.67,295.67,0,0,1,32,29c8.21,8.69,14.64,18.4,18,29.94,2.21,7.66,4,15.42,6,23.14,2.14,8.39,4,16.84,6.39,25.16,3.19,11.23,9.84,20.48,17.38,29.2,11.71,13.52,23.26,27.19,33.58,41.81,17.89,25.34,35.42,50.93,54.16,75.67,4.42,5.83,8.76,11.71,13.11,17.59,6.46,8.74,14.61,15.69,23.26,22.11,5.09,3.78,10,7.89,15.23,11.38,6,4,10.88,3.25,15.49-2.17,5.51-6.48,10.83-13.13,16-19.86,6.81-8.79,9.63-18.78,7.69-29.8-1.3-7.36-2.93-14.66-4.74-21.91-2.44-9.8-5.52-19.46-7.73-29.31-2.33-10.4-4.91-20.66-9.09-30.49a147.91,147.91,0,0,1-9.36-29.69c-3.37-17.41-4.95-35.05-6.85-52.65-1.85-17.12-5.14-33.85-13-49.42-6.36-12.63-8.14-26.05-6.23-40,1-7.47,1.91-15,3.13-22.39C308.08,169.94,307.9,160,307.89,150.06Z" />
            <path class="italy-cls-14" d="M306.49,164.39A153.92,153.92,0,0,1,304,190.33a132.29,132.29,0,0,0-1.85,30.38,66.64,66.64,0,0,0,7.39,25.67,108.64,108.64,0,0,1,10.66,35.78c2.31,18.93,4.48,37.89,6.93,56.8a118.26,118.26,0,0,0,7.51,29.31c5.77,14.24,9.68,29,13.42,43.88,2.2,8.74,5.15,17.29,7.64,26a95.27,95.27,0,0,1,3.7,20.36,32.12,32.12,0,0,1-6.43,22.21q-7.31,9.62-14.63,19.23a34.53,34.53,0,0,1-2.71,3.09c-3.93,4-7.78,4.77-12.67,2a75.28,75.28,0,0,1-9.43-6.52c-6.6-5.28-13.19-10.59-19.52-16.19-6.89-6.08-12.3-13.5-17.73-20.86-11.81-16-23.69-31.94-35.38-48-8.87-12.2-17.19-24.8-26.3-36.81-10-13.2-20.3-26.21-31.08-38.77a94.59,94.59,0,0,1-21.07-41.69c-2.51-11.22-5.37-22.37-8.18-33.52s-8.51-20.87-16.17-29.41c-6.06-6.76-12.1-13.55-18.47-20-4.32-4.39-9.23-8.19-13.79-12.34a47.37,47.37,0,0,1-4.68-5,8,8,0,0,1-2-6.22c1.32-9.36,3.24-18.59,7-27.29,3.18-7.28,8.47-12.77,15-17.17,11.14-7.48,22.07-15.31,34.11-21.33,9.6-4.8,19.31-9.37,29-14.06,6.67-3.24,13.18-6.88,20-9.7,8-3.28,16.14-6.1,24.36-8.67a33.89,33.89,0,0,1,19.94.25c8.6,2.52,17.29,4.79,25.81,7.56a59.84,59.84,0,0,1,20.92,11.44,21,21,0,0,1,6.83,11.23c2.05,8.49,2.63,17.15,3.21,25.82C305.81,153.72,306.19,159.76,306.49,164.39Zm-1.31,5.13c-1.23-11.51-2.35-23.17-3.78-34.79a74.59,74.59,0,0,0-2.67-12.2c-2.48-8.29-8.52-13.66-16-17.2a144.25,144.25,0,0,0-18.43-6.84c-6-1.89-12.12-3.31-18.21-4.83-8.3-2.06-16.38-1.14-24.43,1.58-11.54,3.89-23,7.83-33.75,13.72q-12.61,6.92-25.58,13.2A263.54,263.54,0,0,0,121,147.4c-7.67,5.67-13.18,13-15.25,22.48-1.39,6.42-2.5,12.9-3.75,19.34a7.93,7.93,0,0,0,1.28,6.21,27.74,27.74,0,0,0,3.72,4.45c3.91,3.68,8,7.19,11.92,10.84,8.63,8,15.85,17.24,23.15,26.39A68.1,68.1,0,0,1,155,262.8c2.58,10,5.24,20.06,7.43,30.18a98.3,98.3,0,0,0,21.52,43.92c10.82,12.69,21.39,25.62,31.38,39,19.23,25.71,37.88,51.85,56.94,77.69,7.48,10.15,14.89,20.42,24.75,28.54,7.36,6.06,14.55,12.34,22.09,18.18,8,6.18,12.76,4.45,17.65-2.08,5-6.72,9.94-13.53,15-20.22a29.43,29.43,0,0,0,5.87-18.43A63,63,0,0,0,355,442q-5.51-18.92-11.27-37.76c-3.21-10.48-6.43-21-9.92-31.36-2.8-8.35-5.8-16.67-7-25.4-2.4-17.54-4.43-35.13-6.55-52.7-1.23-10.21-2.07-20.51-5.47-30.28-2.69-7.76-6-15.31-9-22.95a72.3,72.3,0,0,1-4.89-17.78c-1.25-9.88,0-19.6,1.29-29.36C303.24,186.18,304.17,178,305.18,169.52Z" />
            <path class="italy-cls-15" d="M303.48,172.07c.11,8.33-1.39,16.5-2.78,24.66a89.45,89.45,0,0,0-.74,27.64,87.46,87.46,0,0,0,7.85,25.25,116.15,116.15,0,0,1,10.35,37.11C320.06,303.87,322,321,324,338.14a178.15,178.15,0,0,0,8.08,34.48c4.6,13.94,8.8,28,13.16,42,2.92,9.38,5.9,18.74,8.67,28.16a54,54,0,0,1,2.3,16.4,24,24,0,0,1-4.41,14c-5.42,7.5-10.81,15-16.28,22.48a38.41,38.41,0,0,1-3.62,3.88,5.76,5.76,0,0,1-7.37,1.14,57,57,0,0,1-7.23-4.56,216.81,216.81,0,0,1-46.85-47.51q-27.31-38-55.46-75.37c-9.75-13-20-25.56-30.54-37.89-11-12.89-17.79-27.59-21.38-44-2-9-4.24-17.83-6.48-26.72a72,72,0,0,0-13-27.3c-6.64-8.44-13.3-16.86-20.28-25-3.32-3.88-7.44-7.09-11.12-10.67a35.7,35.7,0,0,1-3.59-4.13,10.74,10.74,0,0,1-2.19-8.37c.62-4.24,1-8.5,1.49-12.76,1.4-13.18,7.93-23.08,19-30.21,16.76-10.81,33.54-21.56,51.58-30.19,8.6-4.11,16.84-9,25.65-12.6,8.06-3.25,16.62-5.32,25.05-7.54,4.64-1.22,9.46-.64,14.11.45,9.78,2.29,19.57,4.57,29.27,7.19a38,38,0,0,1,14.16,7.46,30.55,30.55,0,0,1,10.12,15.75c2.53,8.88,3.75,18,4.77,27.15.6,5.39,1.24,10.78,1.84,16.17A18.76,18.76,0,0,1,303.48,172.07ZM161.11,278.39l0-.09a15,15,0,0,0,.2,1.68c1,4.16,1.91,8.32,2.91,12.46,2.47,10.24,5.73,20.17,11.54,29.09a10.24,10.24,0,0,0,1.34,1.4l10.77,14.19c.67,1,1.27,2.11,2,3.06,9.58,11.94,19.5,23.62,28.71,35.84,16.58,22,32.72,44.29,49.07,66.45,11.91,16.14,24.92,31.29,40.54,44a170.6,170.6,0,0,0,14.17,10.47c3.73,2.44,7.09,1.73,10.2-1.49a37.53,37.53,0,0,0,3.63-4.55c4.13-5.89,8.09-11.89,12.32-17.7,4.4-6,6.37-12.69,5.35-20a103.8,103.8,0,0,0-3.42-16.57c-5.72-18.37-11.6-36.7-17.78-54.93a223,223,0,0,1-11.18-49.52c-1.42-14.21-2.86-28.41-4.41-42.61-1.28-11.68-3.62-23.11-8.33-34-2.7-6.23-5.41-12.49-7.47-18.94-4.22-13.24-3.92-26.81-1.81-40.38,1.46-9.39,2.85-18.82,1.8-28.31-1.43-13.05-3.37-26-7-38.73-3.56-12.44-11.32-20.63-23.74-24-9-2.44-18.24-4.24-27.36-6.33-6.08-1.39-12.11-1.84-18.3-.27-9.86,2.5-19.86,4.6-28.89,9.47-14.93,8-29.84,16.15-44.51,24.64-8.83,5.11-17.38,10.77-25.76,16.6-8.81,6.13-14.13,14.63-15.15,25.52-.42,4.55-.57,9.14-1.27,13.64-.8,5.13,1.14,9,4.56,12.48,2.86,2.88,5.88,5.59,8.67,8.54,9.26,9.78,17,20.74,24.76,31.69a15.41,15.41,0,0,0,1.32,1.45l6.31,13.5c.8,2.75,1.6,5.51,2.42,8.25.06.21.34.36.52.54l.83,3.55Z" />
            <path class="italy-cls-16" d="M187.82,337.13l-10.77-14.19L175.29,320c-5.81-9.56-8.83-20.15-11.46-30.89-.88-3.62-1.84-7.21-2.76-10.82l0,.08-2.43-9.84-.83-3.55-2.95-8.79-6.31-13.5c-2.56-3.77-5-7.65-7.72-11.3-5.19-7-10.43-13.88-15.9-20.61-3.09-3.8-6.78-7.11-10-10.81a13.34,13.34,0,0,1-3.63-9.71c.27-4.62.61-9.23.76-13.86a30.86,30.86,0,0,1,11-23.28,70.75,70.75,0,0,1,8.93-6.32c16.72-10.42,33-21.59,50.52-30.66,11.17-5.77,22.11-11.91,34.53-14.77,7.83-1.8,15.55-2.83,23.53-.84,6.31,1.57,12.76,2.57,19.14,3.9,3.63.76,7.3,1.43,10.83,2.53,9.27,2.91,16.22,8.51,19.56,17.93,4.9,13.79,7.59,28.11,9.69,42.53,1.42,9.7.17,19.36-1.36,29a104.63,104.63,0,0,0-1.8,17.51c.14,12.73,3.56,24.82,8.65,36.43s8.75,23.41,10.12,36c1.7,15.61,3.34,31.23,5.1,46.83,1.21,10.73,2.59,21.49,5.75,31.83,6,19.71,12.42,39.31,18.78,58.93,2.78,8.58,5.94,17,7.17,26.05,1.13,8.28-.28,15.73-6.17,22.12-2.26,2.45-3.89,5.48-5.78,8.27-2.82,4.15-5.44,8.46-8.49,12.44s-6.09,4.33-10.44,1.67c-.49-.3-1-.63-1.43-.95a174.53,174.53,0,0,1-26.11-22.12c-12.94-13-24.07-27.49-35-42.15-19.09-25.59-37.51-51.7-57.83-76.36C196.66,347.6,192.22,342.38,187.82,337.13Zm37,43.55a16.49,16.49,0,0,0,1.07,1.9q9.51,12.79,19.06,25.55c12.53,16.66,24.62,33.68,38.57,49.22,10.78,12,22.13,23.41,35.33,32.82,6,4.24,9.38,3.74,13.32-2.46,4.55-7.17,8.18-14.92,13.84-21.4,3.86-4.42,4.9-9.82,4.13-15.43A87.24,87.24,0,0,0,347,436c-4.93-15.33-10.21-30.54-15.37-45.8-4.95-14.63-9.33-29.43-11.15-44.82-2-16.79-3.66-33.61-5.5-50.42-1-9.2-1.95-18.45-4.85-27.28-2.31-7-5.23-13.88-7.94-20.79-4.57-11.66-7.45-23.67-6.78-36.26.31-5.86,1.42-11.67,2.13-17.5,1.37-11.31,1.27-22.46-1.5-33.68-2.58-10.47-4.23-21.16-7.73-31.42-3.64-10.65-10.65-17.54-21.8-19.85q-12.42-2.57-24.89-4.83a93.38,93.38,0,0,0-12.88-1.67c-8.37-.32-16.3,2-24,5a187.87,187.87,0,0,0-30.2,15.36c-15.43,9.48-30.66,19.27-45.86,29.12-8.76,5.68-13.89,13.75-14.41,24.38-.21,4.22,0,8.46-.25,12.68a18.29,18.29,0,0,0,4.43,13.14c2.37,2.86,5.08,5.43,7.35,8.36,4.73,6.08,9.27,12.31,13.9,18.48,7.2,9.59,13.62,19.66,17.06,31.24,2.9,9.76,5.35,19.66,7.68,29.58,3.62,15.37,9.44,29.62,19.65,41.89,10.78,13,21.41,26,32.12,39a6.27,6.27,0,0,0,1,.83Z" />
            <path class="italy-cls-17" d="M158.68,268.55l2.43,9.84Z" />
            <path class="italy-cls-18" d="M154.9,256.2l2.95,8.79c-.18-.18-.46-.32-.52-.54C156.5,261.71,155.71,259,154.9,256.2Z" />
            <path class="italy-cls-19" d="M217.29,370.8c-3.21-4.15-6.38-8.34-9.65-12.46-7.54-9.48-15-19-22.71-28.37-9.48-11.58-15.54-24.74-19.07-39.21q-3.54-14.52-7.55-28.92a95.65,95.65,0,0,0-11.77-25.35c-6.89-10.85-13.51-21.86-21.77-31.78a22.52,22.52,0,0,1-5.28-14c-.15-5.13-.83-10.27-.61-15.38.35-8.35,4.63-14.72,11.42-19.33,11.77-8,23.7-15.73,35.46-23.73,9.56-6.49,19.29-12.68,29.73-17.66,8.4-4,17.13-7.17,26.52-7.57a47.8,47.8,0,0,1,12.75,1A252,252,0,0,0,261.71,113c12.11,1.46,19.35,8.45,22.86,19.95a238.38,238.38,0,0,1,6.12,25.82,96.68,96.68,0,0,0,2.5,10.14A62.85,62.85,0,0,1,295,196.24c-3,20.73.17,40.52,8.66,59.53a125.25,125.25,0,0,1,9.67,36.45c2.12,17.63,4,35.3,6.19,52.92,1.8,14.51,5.62,28.57,10.18,42.42,4.83,14.7,9.84,29.35,14.6,44.07,1.6,4.94,2.68,10,4,15.06,1.84,6.9.69,13.26-4,18.62s-8,11.37-11.11,17.62a41.39,41.39,0,0,1-3.39,5.35c-2.08,2.93-4.61,3.69-7.92,2.21a31,31,0,0,1-5.78-3.3c-11.13-8.24-20.58-18.24-29.88-28.41-17.74-19.39-33.19-40.59-48.84-61.63Q232,390,226.68,382.87c-.58-.77-1.26-1.45-1.89-2.18ZM294,188.36a50.73,50.73,0,0,0-2.41-15.55,155.73,155.73,0,0,1-5.15-22.17,103.38,103.38,0,0,0-5.36-20c-3.8-9.78-11-14.55-21.32-15.74A157.66,157.66,0,0,1,237.19,111a53.88,53.88,0,0,0-38.35,3.39A180.37,180.37,0,0,0,172.09,130c-12,8.46-23.87,17.09-36.48,24.65a40.41,40.41,0,0,0-7.3,5.64c-5.33,5.18-8.33,11.38-7.44,19.06.44,3.8.8,7.61,1.16,11.42.53,5.63,2.1,10.87,5.71,15.35,6.11,7.59,10.92,16,16,24.29,6.51,10.5,12.55,21.22,15.78,33.26q3.65,13.61,7,27.29a94.2,94.2,0,0,0,18.3,37.52c8.16,10,16.31,20,24.27,30.18q15.17,19.35,30,38.94c13.87,18.23,27.68,36.51,42.84,53.72,8.8,10,17.48,20.1,27.86,28.54a66.72,66.72,0,0,0,9.82,6.81c3.71,2,6.89,1.06,9.2-2.49a45,45,0,0,0,3.56-7.19A45.28,45.28,0,0,1,341,463.09c4.16-4.41,6.26-9.72,5.19-15.86a95.8,95.8,0,0,0-3-13.35c-4.6-14.05-9.52-28-14.26-42-4.36-12.89-8.36-25.91-10.1-39.44-2.19-17-4-34.15-5.9-51.23-1.13-10.11-2.17-20.27-5.27-30-2.56-8-5.83-15.85-8.79-23.75a99.77,99.77,0,0,1-6.26-42.71C293.06,199.28,293.56,193.82,294,188.36Z" />
            <path class="italy-cls-20" d="M292,188.18c-.48,8.67-1.1,15.34-1.18,22A105.26,105.26,0,0,0,299.55,253c4,9.38,7.63,18.88,9.14,29,1.4,9.37,2.52,18.79,3.61,28.2,2.16,18.72,3.45,37.55,7.5,56,2.77,12.64,7.11,24.8,11.22,37,3.42,10.18,7,20.31,10.23,30.54a40.61,40.61,0,0,1,2,15.55,13.81,13.81,0,0,1-3.66,8.66c-1.4,1.5-2.69,3.11-4,4.69A27.79,27.79,0,0,0,331,471.1a58.57,58.57,0,0,1-4.24,9.32c-2.13,3.67-4.85,4.54-8.56,2.5a66.07,66.07,0,0,1-9.51-6.66c-9.48-7.65-17.14-17.07-25.15-26.15q-26.6-30.17-50.49-62.52c-14.1-19.16-29.29-37.44-44.49-55.71a110.71,110.71,0,0,1-23.12-47.69c-2.51-11.27-5.08-22.6-9.91-33.16-3.34-7.29-7.27-14.34-11.28-21.3-4.56-7.91-9.37-15.69-14.34-23.35-3.9-6-5.26-12.72-6.19-19.59-.39-2.88-.46-5.81-.61-8.72-.4-8.21,3-14.51,9.8-19,5.86-3.87,12-7.39,17.71-11.43,9.16-6.43,18.05-13.25,27.17-19.75,9.92-7.07,20.45-13,32.36-16a36.64,36.64,0,0,1,20.79.25c9.31,3,19,4.08,28.59,5.32a44.78,44.78,0,0,1,5.9,1c6.71,1.8,10.53,6.72,13.22,12.72a57.27,57.27,0,0,1,4.55,16.12c1.38,10.64,4.16,20.92,7.11,31.19A68.37,68.37,0,0,1,292,188.18Zm-2.23,5.47A50,50,0,0,0,287,174.79a90.89,90.89,0,0,1-3.8-14c-1.63-8.94-3-17.92-5.88-26.57s-8.65-13.79-17.91-14.66c-2.16-.2-4.32-.42-6.48-.6A68.18,68.18,0,0,1,235,115.47c-13.21-4.84-26-3.77-38.44,2.69A140,140,0,0,0,176,131.4c-11.85,9-23.48,18.38-36.44,25.87a48.79,48.79,0,0,0-7.16,5c-5.4,4.58-8.06,10.4-7.22,17.6.19,1.65.28,3.31.55,4.94,1.32,8.25,2.8,16.42,7.31,23.74,4.08,6.6,8,13.31,11.68,20.15,4.27,7.93,8.58,15.87,12.18,24.1,4.6,10.51,7,21.78,9.61,32.91a108.27,108.27,0,0,0,22.68,45.67c16.57,19.8,33.14,39.61,48.58,60.33q19.25,25.85,40.79,49.88c8.36,9.38,16.73,18.75,25.24,28a41.42,41.42,0,0,0,12.45,9.54c4.36,2.1,7.89.86,9.74-3.64a51.14,51.14,0,0,0,1.83-6.06c1-3.55,2.1-7,4.57-9.86,1.8-2.07,3.49-4.23,5.32-6.27a11.17,11.17,0,0,0,2.79-6.14,30.52,30.52,0,0,0-1.33-13.38c-3.39-10.84-7.06-21.6-10.56-32.41-4.41-13.64-8.92-27.25-11.53-41.4-3.38-18.34-4.88-36.91-6.89-55.42a251.06,251.06,0,0,0-4.31-28.59c-1.79-7.85-4.82-15.46-7.77-23-4.83-12.33-8.35-24.93-8.75-38.21C289.13,207.7,289.58,200.67,289.74,193.64Z" />
            <path class="italy-cls-21" d="M288.07,204.41c-1,17.39,3.06,33.8,9.75,49.65,5.74,13.6,8.8,27.84,10.38,42.44,1.86,17.21,3.49,34.44,5.47,51.63,1.75,15.27,5.73,30.05,10.45,44.64,3.36,10.38,6.91,20.69,10.21,31.09a96.36,96.36,0,0,1,2.24,9.84c1.36,6.62-.79,12.09-5.85,16.37a15.51,15.51,0,0,0-5,8.55c-.78,3.16-1.5,6.33-2.25,9.5-.07.28-.16.55-.25.82-1.72,5-3.9,6-8.84,3.89a33.08,33.08,0,0,1-11.19-8.35q-10.8-11.82-21.23-24c-11.1-12.91-22.27-25.77-33-38.94-9.08-11.09-17.5-22.72-26.49-33.89-10.1-12.55-20.33-25-30.84-37.21a108.45,108.45,0,0,1-24.17-48.12c-4.49-20.35-12.15-39.48-22-57.81-2.86-5.33-5.79-10.65-8.3-16.14a72.14,72.14,0,0,1-7-32.72c.21-6.27,3.72-10.5,8.7-13.74s10.41-6.24,15.25-9.86c8-5.95,15.61-12.3,23.36-18.5,8-6.37,16.16-12.35,25.73-16.16,9.06-3.61,18.12-4.11,27.41-.69a76.2,76.2,0,0,0,23.7,5.09,57.33,57.33,0,0,1,8.49.85,16.13,16.13,0,0,1,11.41,8.53c3.4,6.06,4.86,12.68,5.51,19.48.92,9.71,2.58,19.18,6.23,28.33,1.51,3.78,1.9,8.1,2.26,12.23.33,3.79-.08,7.64-.15,11.47C288.06,203.27,288.07,203.84,288.07,204.41Zm-2.16-1.86.48,0c0-1,0-2.06,0-3.08a54.54,54.54,0,0,0-3.93-22.78A65.51,65.51,0,0,1,278,156.28c-.46-6.57-1.32-13.06-3.65-19.29-3.22-8.58-8.36-12.39-17.5-12.83-1.65-.08-3.31-.11-5-.26A89.34,89.34,0,0,1,229,118.43a34.16,34.16,0,0,0-27.91,1.3,95,95,0,0,0-21.19,14.11c-12.64,11-25.7,21.42-40.1,30.09-5,3-7.55,7.84-7.53,13.82,0,1.31,0,2.63.12,3.94a84.66,84.66,0,0,0,6,25.43c3.31,7.95,7.05,15.73,10.95,23.42a222.72,222.72,0,0,1,17.81,48.11c2.17,8.91,4.67,17.74,8.49,26.12,4.28,9.41,10.58,17.45,17.13,25.32,10,12,20.34,23.81,30.07,36.07,15.63,19.69,31,39.55,47.6,58.48,8.58,9.8,16.83,19.89,25.35,29.74a74.77,74.77,0,0,0,15.67,14.25c4.86,3.14,8.62,1.51,10-4.1.12-.5.16-1,.23-1.52q.47-3.48.93-7a16.42,16.42,0,0,1,5.65-10.61,16,16,0,0,0,5.44-15.59,40.94,40.94,0,0,0-1-4.87c-2.7-8.85-5.23-17.76-8.26-26.49a280.1,280.1,0,0,1-14.27-66.16c-1.25-13.48-2.5-27-4-40.41a129.22,129.22,0,0,0-9.53-37.37c-3.6-8.34-6.83-16.89-8.09-25.93C287.34,220,286.77,211.23,285.92,202.55Z" />
            <path class="italy-cls-22" d="M331.65,431c0,4.43-1.33,8.05-5.15,10.65a13.72,13.72,0,0,0-5.82,9.9c-.4,2.77-.67,5.56-1.14,8.32a20.26,20.26,0,0,1-1.23,4.44,3.93,3.93,0,0,1-4.91,2.38c-3.53-.82-6.22-3.07-8.87-5.32-6.21-5.28-11.31-11.61-16.55-17.8-13.64-16.15-27.45-32.16-40.94-48.42-8.17-9.84-15.72-20.2-23.85-30.08-10.06-12.21-20.48-24.13-30.65-36.25-8-9.49-15.3-19.43-19.23-31.35-2.78-8.42-5.18-17-7.46-25.55a250.54,250.54,0,0,0-14.77-39.66c-4.75-10.37-10-20.56-13.13-31.61a115.67,115.67,0,0,1-4-19.95,15.1,15.1,0,0,1,5.75-14.11c4-3.16,8.29-5.86,12.51-8.69,8.75-5.88,16.62-12.84,24.59-19.69,5.19-4.46,10.66-8.62,16.2-12.65a43.48,43.48,0,0,1,19.07-8.1,26.5,26.5,0,0,1,12.65,1.25c6.28,2.08,12.57,4.18,19,5.8a47.54,47.54,0,0,0,10.87,1.1c8.24.12,14.64,3.11,17.8,11.09a53.52,53.52,0,0,1,3,10.51c.83,4.77.88,9.68,1.73,14.45a100.19,100.19,0,0,0,3.84,16.3A70.59,70.59,0,0,1,285,201.76c.05,10.06.48,20.18,3,29.94A226.51,226.51,0,0,0,296,255.37a134.7,134.7,0,0,1,8.42,32.93c1.76,15.14,3.27,30.32,4.77,45.49a294.72,294.72,0,0,0,14.54,66.63c2.62,7.66,4.76,15.49,6.94,23.3A52.74,52.74,0,0,1,331.65,431Zm-2.59-3.88a44.55,44.55,0,0,0-.86-5.58c-2.42-8.57-4.75-17.18-7.5-25.65a279.29,279.29,0,0,1-12.4-56.12c-1.55-14.31-2.82-28.65-4.21-43a153.63,153.63,0,0,0-10.7-44.47c-3.46-8.34-6.64-16.84-7.77-25.85-1.08-8.66-1.68-17.38-2.41-26.08-.52-6.1-.88-12.26-3.36-17.94-3.13-7.17-4.51-14.69-5.34-22.4a147.48,147.48,0,0,0-2.57-17.43c-2.31-10-7.87-14.23-18.07-14.76-3.53-.19-7.06-.56-10.56-1-6.24-.83-12-3.29-17.75-5.68-8.24-3.43-16.14-2.74-24,1a78.84,78.84,0,0,0-18.15,12.5c-12.77,11.36-25.64,22.56-40.15,31.74-5.52,3.49-8.11,8.9-7,15.46,1.23,7.42,2.69,14.83,4.47,22.14,2.2,9,6.55,17.28,10.27,25.74,6.4,14.57,12.24,29.31,16.25,44.76,2.2,8.47,4.78,16.88,7.77,25.11,4,10.95,11.09,20,18.58,28.78,9.47,11.07,19.2,21.92,28.53,33.11,7.68,9.21,14.77,18.92,22.41,28.16,11.61,14,23.42,27.93,35.24,41.8,6.85,8,13.78,16,20.89,23.83,2.95,3.24,6.39,6.09,10.79,7.32,2.45.68,3.82-.07,4.58-2.5a19.79,19.79,0,0,0,.79-3.5q.57-4.68,1-9.37a9.27,9.27,0,0,1,3.36-6.85,60,60,0,0,0,4.64-4.56A11.51,11.51,0,0,0,329.05,427.12Z" />
            <path class="italy-cls-23" d="M138.28,181.21c-.61-5,1.76-8.65,5.26-11.7a85.88,85.88,0,0,1,8.13-6.27c9.4-6.37,17.83-13.9,26.2-21.52,6-5.43,11.89-10.88,18.72-15.23a38.18,38.18,0,0,1,14-5.67,20.37,20.37,0,0,1,10.78,1c3.91,1.45,7.87,2.79,11.71,4.4,6.77,2.84,13.89,3.5,21.11,3.94,6.34.38,11.54,2.82,14.08,9.14a29.22,29.22,0,0,1,2,6q1.45,8.87,2.49,17.8a79.6,79.6,0,0,0,5,20.75c2.78,6.9,3.35,14.19,4,21.48.94,11.5,1.83,23,5.59,34.05,2.27,6.64,4.71,13.23,7.14,19.82,4.85,13.18,7.2,26.88,8.53,40.8,1.39,14.56,2.54,29.14,4.26,43.66a273.45,273.45,0,0,0,11,49.61c2.32,7.41,4.41,14.9,6.54,22.37a50.56,50.56,0,0,1,1,5c.94,5.29-.26,9.95-4.92,12.93-5,3.21-6.18,7.89-6.21,13.28a51,51,0,0,1-.31,7c-.66,4.52-3.49,5.89-7.51,3.7a40.94,40.94,0,0,1-11.14-9.55c-6.94-8-13.69-16.26-20.53-24.38-10.46-12.41-21-24.72-31.38-37.22-10.1-12.18-19.88-24.64-30-36.79-6.26-7.5-12.79-14.78-19.42-22A100.12,100.12,0,0,1,170.08,283c-4.83-19.83-11.89-38.87-19.83-57.62a168.69,168.69,0,0,1-11-36.15c-.28-1.57-.5-3.16-.7-4.75C138.41,183.38,138.37,182.29,138.28,181.21Zm27.11,81,1.5,5.74a16.64,16.64,0,0,0,.28,1.66c1.28,4.66,2.57,9.32,3.86,14,3.75,13.64,9.43,26.29,18.91,37a18.47,18.47,0,0,0,1.85,1.61l4.93,5.62a11.5,11.5,0,0,0,1,1.66c4.91,5.5,10,10.83,14.73,16.49,10.53,12.64,20.79,25.51,31.3,38.17,10.15,12.22,20.48,24.29,30.71,36.44,7.1,8.43,14,17,21.33,25.27a45.54,45.54,0,0,0,9.12,7.69c3.53,2.33,6.22.8,6.69-3.42.24-2.21.18-4.45.25-6.67.18-6,2.43-10.86,7.75-14a5.23,5.23,0,0,0,2.82-3.9c.27-2.71.78-5.56.23-8.14-1.64-7.7-3.41-15.4-5.73-22.91a296,296,0,0,1-11.91-56.41c-1.61-15.28-2.82-30.6-4.47-45.88a140.27,140.27,0,0,0-9.36-38.13c-5.64-13.86-9.81-28.08-10.53-43.2-.37-7.69-1.16-15.45-4-22.72-3.84-10-5.68-20.3-6.77-30.86a71.06,71.06,0,0,0-2.57-13.59c-2.07-6.7-7-10.55-14-11a69.26,69.26,0,0,1-19.05-4c-4.4-1.55-8.8-3.16-13.05-5.06a19.56,19.56,0,0,0-10-1.9,27.74,27.74,0,0,0-14.82,6.2c-4.78,3.8-9.39,7.82-13.94,11.9-10.59,9.5-20.91,19.31-32.86,27.15-7.12,4.68-10,11-8.74,19.64a175.73,175.73,0,0,0,10,37.66c4.7,12.3,9.21,24.66,13.81,37A3.64,3.64,0,0,0,165.4,262.25Z" />
            <path class="italy-cls-24" d="M166.9,268l-1.5-5.74c-3.19-9-6.21-18.1-9.62-27-5.49-14.43-10.44-29-13-44.28-.22-1.29-.37-2.6-.64-3.89-1.58-7.54,1.21-13.38,7.19-17.77,13.34-9.79,25.53-20.91,37.66-32.12a71.21,71.21,0,0,1,15.93-11.51,21.11,21.11,0,0,1,19.61-.27c5.83,2.76,11.62,5.67,18.13,6.61,4.13.59,8.24,1.28,12.38,1.77,7.26.87,11.86,4.9,13.7,11.82a97.29,97.29,0,0,1,2.36,13c1.1,8.85,2,17.74,5.18,26.15A87.48,87.48,0,0,1,279.34,208a153.87,153.87,0,0,0,10.18,43,130.05,130.05,0,0,1,8.71,32c1.73,13.77,3,27.59,4.46,41.39s2.77,27.77,6,41.35c3,12.61,6.79,25,10,37.55a130.64,130.64,0,0,1,2.86,14.58,8,8,0,0,1-4.1,8.55c-4.93,3-7,7.61-7,13.3,0,1.88.06,3.77,0,5.65a18.24,18.24,0,0,1-.29,3.41c-.55,2.59-2.36,3.67-4.84,2.85a9.9,9.9,0,0,1-3.51-1.72c-3.48-3.11-7.17-6.09-10.16-9.64q-25.17-29.89-50-60c-9.48-11.43-18.76-23-28.37-34.36-5.28-6.22-11-12-16.59-18l-4.93-5.62C188.07,317,184,312,180.68,306.51c-5.06-8.32-7.73-17.67-10.37-27C169.22,275.67,168,271.84,166.9,268ZM319,414c-.76-4-1.27-8-2.32-11.91-2.34-8.71-5.13-17.3-7.39-26-5.33-20.54-7.74-41.5-9-62.65-.82-13.69-2-27.4-5.31-40.73-2.19-9-5.46-17.66-8.54-26.37-3.43-9.72-6.39-19.53-7.48-29.82-1-9.56-2.55-19-5.77-28.13a134.7,134.7,0,0,1-5.85-26c-.7-5-1.43-10-2.6-14.83-1.52-6.33-5.72-10.13-12.23-11.16-3-.47-6-.72-9-1.16a65.52,65.52,0,0,1-20.32-7,22.85,22.85,0,0,0-10.78-3,23.69,23.69,0,0,0-15,5.85c-6.16,5.1-12.09,10.46-18.16,15.67q-14.63,12.55-29.31,25A15.62,15.62,0,0,0,144,185.48c.09,1.19.26,2.39.42,3.57,2.15,15.69,6.61,30.76,12,45.63,4.17,11.56,7.93,23.28,11.75,35,2.71,8.28,5,16.71,7.86,24.92,4.23,12,11.92,21.76,20.38,31,7.37,8,15.09,15.79,22.1,24.14,18.25,21.75,36.19,43.77,54.28,65.65,6.66,8.05,13.26,16.17,20.2,24a53.59,53.59,0,0,0,9.59,7.92c2.31,1.61,4.11.72,4.63-2.06a54.23,54.23,0,0,0,1-9.34c0-5,1.42-9.2,5.94-11.93C317.84,421.65,318.92,418.16,319,414Z" />
            <path class="italy-cls-25" d="M315.57,408.7c.06,4.42-1.41,8.05-5.24,10.54-3.41,2.21-4.82,5.4-4.9,9.42a81.65,81.65,0,0,1-.81,9.9c-.51,3.63-2.16,4.49-5.11,2.28a60.89,60.89,0,0,1-10-9c-9-10.57-17.68-21.41-26.47-32.15-14.37-17.55-28.57-35.24-43.17-52.6-7.05-8.38-14.78-16.21-22.35-24.15a100.3,100.3,0,0,1-23.81-41.07c-5.74-19.15-12-38.17-17.41-57.4a184.85,184.85,0,0,1-6.86-37.35,14.84,14.84,0,0,1,5-12.6c13.74-12.48,27.45-25,41.35-37.31a46.88,46.88,0,0,1,10.55-6.9,15.69,15.69,0,0,1,15,.67,81.64,81.64,0,0,0,28.07,9.54c.51.08,1,.24,1.5.33,8.06,1.37,11.79,6.72,13.13,14.28,1.46,8.27,2.64,16.59,4.47,24.78,1.5,6.73,4,13.22,5.64,19.94,1.85,7.77,3.14,15.67,4.73,23.5A191.09,191.09,0,0,0,288,253.84a141,141,0,0,1,8.55,36.58c1.27,12.67,2.25,25.38,3.4,38.06a303.84,303.84,0,0,0,11.46,60.85c1.74,5.77,2.76,11.76,4.09,17.66A10.21,10.21,0,0,1,315.57,408.7Zm-2.63-2.82.63,0c-1.15-5.17-2-10.43-3.51-15.5-5.33-18.13-9.48-36.5-11.3-55.32-1.12-11.54-1.65-23.13-2.55-34.69-1.3-16.81-4.28-33.26-10.41-49.08a150.39,150.39,0,0,1-8.46-29.07,160.08,160.08,0,0,0-6.55-27.1,148.41,148.41,0,0,1-7-29.63,70.76,70.76,0,0,0-2.24-10.71c-1.65-5.47-4.84-9.68-10.8-11.09-1.55-.37-3-1-4.61-1.33a107.43,107.43,0,0,1-26.82-9.73,16.37,16.37,0,0,0-6.59-1.56c-5-.26-9,2.11-12.73,5.13-15.21,12.3-29.06,26.11-43.35,39.42a16.46,16.46,0,0,0-5.25,14.75c.33,2.72.76,5.43,1.1,8.15,1.4,11.12,3.14,22.17,6.4,32.92,4.43,14.61,9.23,29.11,13.33,43.8,5.29,18.95,14.39,35.49,28.42,49.41,7.86,7.8,15.56,15.84,22.66,24.33,14,16.74,27.46,33.93,41.26,50.84q12.68,15.53,25.76,30.74a31.54,31.54,0,0,0,7.32,6.08c2.79,1.73,4.5.7,5-2.62a51.77,51.77,0,0,0,.49-7.17c0-4,1-7.45,4.24-10a13.52,13.52,0,0,0,1.29-1.37C311.21,412.77,314,410.22,312.95,405.89Z" />
            <path class="italy-cls-26" d="M310.82,403A11.61,11.61,0,0,1,307,412.4a17.71,17.71,0,0,0-5.63,12.83,27.75,27.75,0,0,1-.9,6.24c-.63,2.32-2.18,3.07-4.17,1.78a31.79,31.79,0,0,1-7-5.66c-8.5-9.86-16.92-19.81-25.12-29.93-11.9-14.7-23.29-29.82-35.45-44.29-8.51-10.13-17.64-19.8-27-29.13a110.49,110.49,0,0,1-29-50c-4.49-16.19-9.87-32.15-13.94-48.43-2.77-11.1-4.11-22.56-5.78-33.91-.95-6.45,1.26-12.09,6.05-16.57q17.35-16.2,34.78-32.29a64.1,64.1,0,0,1,9-7.09c5.7-3.59,11.86-4.34,17.87-.83,8.31,4.85,17.31,7.76,26.6,9.71,6.71,1.41,11,5.05,12.78,11.58a60.9,60.9,0,0,1,1.73,7,244.59,244.59,0,0,0,8.88,36.05c2.36,7.49,3.48,15.37,5.56,23,2.72,9.9,5.44,19.83,8.87,29.5,6.1,17.18,8.89,34.9,10.17,53,.87,12.3,1.66,24.63,3,36.88,1.81,16.27,5.59,32.17,10,47.92,1.23,4.38,2,8.88,3,13.33ZM154.72,193.51c1.47,11.69,2.75,25,6.25,38,3.15,11.65,6.46,23.28,10,34.8,2.76,8.85,5.73,17.67,9.23,26.25,4.67,11.44,12.54,20.76,21.17,29.45,12.17,12.24,24.29,24.52,34.93,38.16,11,14.1,22,28.22,33.17,42.16,6.08,7.56,12.54,14.81,19,22.08a23.75,23.75,0,0,0,5.51,4.29c2,1.19,3.13.67,3.74-1.53.72-2.58,1.17-5.23,1.67-7.86.63-3.29,1.41-6.49,4.22-8.74A11.47,11.47,0,0,0,308.11,399c-1-5.78-2-11.59-3.6-17.25-3.78-13.74-6.94-27.61-8.34-41.79-1.23-12.44-1.94-24.94-2.69-37.43a190.93,190.93,0,0,0-9.75-50.8c-3.38-9.87-6.15-20-9-30-2.13-7.46-3.91-15-6-22.5-1.82-6.66-4-13.23-5.63-19.93-1.56-6.26-2.55-12.66-4-18.93-1.53-6.48-4.87-11.45-12-12.83-.89-.17-1.74-.57-2.62-.8-8.92-2.36-17.61-5.29-25.7-9.82a12.73,12.73,0,0,0-12.95-.22,46.55,46.55,0,0,0-8.81,6.14c-11.84,10.75-23.48,21.72-35.28,32.52C156.85,179.84,154.54,185.33,154.72,193.51Z" />
            <path class="italy-cls-27" d="M305.77,396.67a10.37,10.37,0,0,1-2.56,7.6,23.27,23.27,0,0,0-6.05,14.06,13.13,13.13,0,0,1-.83,3.49c-.75,2.07-2.37,2.81-4.2,1.59a29.73,29.73,0,0,1-6-5c-7.24-8.31-14.51-16.61-21.38-25.22-7.94-10-15.61-20.14-23.16-30.4-10.54-14.33-22.81-27.07-35.4-39.55-8.34-8.26-16.24-16.88-21.92-27.3-4.78-8.76-8-18.13-10.89-27.62-4.17-13.63-8.27-27.29-10.59-41.37-1.65-10.08-2.71-20.25-3.91-30.4a29.66,29.66,0,0,1,.13-6,17.77,17.77,0,0,1,5-11,413,413,0,0,1,38.75-36.28c5.71-4.63,11.87-5.37,18.31-1.67,7.47,4.28,15.69,6.58,23.84,9,7.32,2.14,11.53,6.95,13.53,13.9,1.4,4.88,2.19,9.92,3.47,14.84,1.84,7.07,3.85,14.09,5.84,21.12,2.21,7.8,4.39,15.6,6.73,23.36,3.13,10.38,6.24,20.77,9.65,31.06a149.82,149.82,0,0,1,7.24,35.49c.94,12,1.34,24,2.08,35.92a245.31,245.31,0,0,0,8.41,50.09c1.62,5.88,2.56,11.94,3.78,17.92A18.59,18.59,0,0,1,305.77,396.67Zm-1.91-3.27c-1.24-5.76-2.2-11.58-3.76-17.23a239.35,239.35,0,0,1-8.56-50.06c-.64-11.18-.84-22.38-1.55-33.55a136.47,136.47,0,0,0-6.35-34.78c-3.18-9.53-6.33-19.07-9.27-28.67-2.74-8.94-5.14-18-7.75-27-1.93-6.63-4.06-13.2-5.89-19.86-1.3-4.73-2.14-9.59-3.39-14.33-2.14-8.09-6.59-14-15.43-15.46a27.47,27.47,0,0,1-5.55-1.72c-6.09-2.45-12.14-5-18.21-7.5a13.24,13.24,0,0,0-12.2.67,39.33,39.33,0,0,0-7,4.91c-9,8.3-17.8,16.75-26.66,25.16-1.57,1.49-3,3.18-4.63,4.57-6.31,5.31-7.93,12.2-7.23,20.05,1.55,17.23,3.33,34.43,8.24,51.11,3.08,10.48,6.16,21,9.7,31.32,4.92,14.32,13.69,26.21,24.31,36.85,8.15,8.17,16.34,16.31,24.28,24.68,9.38,9.9,16.87,21.3,25.17,32.06,9.77,12.66,19.81,25.1,29.92,37.49a34.33,34.33,0,0,0,7.34,6.33c2.14,1.46,3.52.67,4.4-1.82a39.67,39.67,0,0,1,1.73-4.64c2.06-4.07,4.39-8,6.35-12.14A44.25,44.25,0,0,0,303.86,393.4Z" />
            <path class="italy-cls-28" d="M301.86,391.21a29.32,29.32,0,0,1-1.36,5.05c-2.41,5.16-5,10.22-7.52,15.36-1.89,3.92-3.62,4.62-6.91,1.72A112.57,112.57,0,0,1,275,402c-10.69-12.53-20.41-25.81-29.87-39.28-9.76-13.9-21.27-26.24-33.36-38.12a284.53,284.53,0,0,1-19.56-21.09c-7.76-9.34-12.27-20.49-16-32A262,262,0,0,1,165,224.17c-1.13-8.66-1.77-17.39-2.43-26.1A21,21,0,0,1,168.65,181c11.38-11.39,22.74-22.81,35.61-32.6a13.83,13.83,0,0,1,14.47-2c8.93,3.5,17.87,7,26.9,10.21,5.81,2.08,9,6.11,10.44,11.9,2,7.75,3.89,15.52,6.14,23.19,2.67,9.09,6,18,8.48,27.14,3.49,12.61,7.54,25,11.79,37.39,4.47,13,6.16,26.57,6.83,40.24.51,10.38.54,20.79,1,31.18.6,13.87,3.37,27.4,6.72,40.84,1.68,6.75,3,13.6,4.39,20.41a16.37,16.37,0,0,1,.17,2.22ZM287.64,308.8c0-3.14,0-6.28,0-9.43-.14-13.6-1.52-27-5.6-40.08-2.85-9.1-6-18.1-8.9-27.18-2.71-8.54-5.21-17.15-7.86-25.71-2-6.54-4.28-13-6.19-19.59-1.53-5.26-2.54-10.67-4.06-15.93-1.67-5.78-5.15-10.1-11-12.22-8.21-3-16.42-6-24.58-9.07-6.24-2.38-11.78-1.27-16.78,2.94-4.54,3.83-9.08,7.66-13.51,11.61-5.71,5.09-11.44,10.19-16.93,15.51-4.22,4.09-7.39,9-7.87,15a69.71,69.71,0,0,0,.22,9.91c.43,6.78.77,13.58,1.53,20.33a227.07,227.07,0,0,0,9.1,41.18c3.69,12,8.2,23.59,15.66,33.85a141.84,141.84,0,0,0,18.94,20.72,277.63,277.63,0,0,1,42,48.91,305,305,0,0,0,25.73,33.15c2.45,2.72,5,5.35,8.49,6.8,2.15.9,3.24.46,4.41-1.56,1.58-2.71,3.1-5.47,4.71-8.17,3.14-5.27,4.88-10.79,3.42-17-.95-4.06-1.46-8.23-2.6-12.23A209.08,209.08,0,0,1,287.64,308.8Z" />
            <path class="italy-cls-29" d="M285.88,309c-.29,11.42,0,24.11,2.47,36.62,1.55,7.78,3.6,15.46,5.23,23.22,1,5,1.79,10,2.54,15a9.51,9.51,0,0,1-1.75,7c-2.39,3.41-4.69,6.89-7.2,10.2-1.5,2-3,2.3-5.06.82a55.42,55.42,0,0,1-7.88-6.79c-7.41-8-13.45-17-19.74-25.86S242,351.32,235.34,342.68c-7-9.13-15.75-16.68-24.1-24.57-7.11-6.72-13.93-13.7-19.66-21.68-7-9.68-11.2-20.6-14.67-31.88a183.83,183.83,0,0,1-8-46.08c-.24-5.42-.75-10.83-1-16.25A25,25,0,0,1,176.33,182c6-5.5,12.31-10.73,18.49-16.06,2.29-2,4.64-3.89,6.95-5.85,6-5.15,12.66-6.94,20.35-4.06s15.7,5.59,23.55,8.38a9.07,9.07,0,0,1,5.47,4.91,132.73,132.73,0,0,1,5.09,12.87c3.91,12.3,7.47,24.7,11.4,37,3.56,11.15,7.39,22.21,11.15,33.29A137.66,137.66,0,0,1,285.89,300C285.83,302.57,285.88,305.14,285.88,309ZM284,304.73c0-3.34-.08-6,0-8.71a107.26,107.26,0,0,0-5.2-38.67c-3.84-11.36-7.8-22.67-11.51-34.07-3.79-11.61-7.34-23.3-11-35-1.39-4.41-2.66-8.86-4.28-13.18s-4.61-7.76-9.4-9.27c-7.23-2.28-14.36-4.9-21.6-7.16-6.14-1.91-11.89-.68-17,3.12-3.12,2.3-6.14,4.76-9.16,7.2-5.28,4.28-10.61,8.5-15.74,12.94-7.12,6.16-10.3,14.06-9.7,23.48.26,4.16.5,8.33.64,12.49a173.38,173.38,0,0,0,4.83,36.24c3.21,12.89,7.29,25.45,14.37,36.81,6.07,9.74,14,17.87,22.46,25.53,9.65,8.77,19.4,17.45,27.12,28,5.82,8,11.33,16.19,16.93,24.33,5.41,7.86,10.67,15.84,17.51,22.58a52.32,52.32,0,0,0,6.51,5.24,3.59,3.59,0,0,0,4.84-.41,33.56,33.56,0,0,0,8-10.63,9.68,9.68,0,0,0,1.17-4.88A93.51,93.51,0,0,0,291.51,367C286.17,346.32,283.05,325.44,284,304.73Z" />
            <path class="italy-cls-30" d="M282,305.32a192.85,192.85,0,0,0,6.34,56.31,129.08,129.08,0,0,1,2.8,14.62c1,6.77-1.93,11.87-8,14.77-2.88,1.37-5.63,1.44-8.36-.62a54.66,54.66,0,0,1-11.75-12.84c-6.21-8.9-12.25-17.91-18.3-26.92-7.86-11.7-17.57-21.73-27.85-31.28-6.56-6.1-13.09-12.28-19.15-18.87-9.86-10.73-15.47-23.78-19.58-37.61-4.25-14.34-5.94-29-6.49-43.88-.13-3.6-.24-7.2-.5-10.78-.64-8.67,1.85-16.15,8.3-22.12a102.3,102.3,0,0,1,8.37-7.06c5.32-4,10.79-7.68,16.18-11.54a20.87,20.87,0,0,1,13-4.08,39.72,39.72,0,0,1,8.2,1.62c3.71.93,7.34,2.18,11.07,3,8.54,1.95,13.17,7.75,15.65,15.65,3.2,10.18,6.05,20.48,9.48,30.59,3.89,11.46,8.18,22.78,12.42,34.11a132.92,132.92,0,0,1,8.17,54.49C282,303.72,282,304.52,282,305.32Zm-1.67,0c0-3.31-.12-6.63,0-9.94.71-16.35-2.38-32-8.15-47.27q-7.57-20-14.66-40.21c-2.62-7.49-4.64-15.18-7.08-22.74s-6.84-12.94-15-14.66c-3.91-.82-7.77-1.88-11.59-3.06-7.37-2.28-13.87-.76-20,3.73-4.74,3.46-9.82,6.47-14.7,9.76-2.32,1.56-4.57,3.23-6.73,5a25.85,25.85,0,0,0-10,21.4c0,2.68.18,5.37.19,8.05.08,15.64,1.56,31.1,5.92,46.2,3.58,12.37,8.46,24.1,16.63,34.24,6.23,7.72,13.49,14.44,20.89,21,11.21,9.92,21.42,20.72,29.72,33.25,5,7.52,10,15,15.15,22.43,3.3,4.73,6.79,9.38,11.63,12.69a7.68,7.68,0,0,0,3.93,1.36c5.61.11,13.68-5.21,12.21-13.6-.88-5.06-1.51-10.18-2.73-15.16C281.86,340.52,279.63,323.08,280.38,305.31Z" />
            <path class="italy-cls-31" d="M278.91,305a197.56,197.56,0,0,0,5.72,53.15,71.22,71.22,0,0,1,1.7,13.56,8.93,8.93,0,0,1-5.32,8.56c-3.65,1.76-7.55,1.86-11.06-.69-4.55-3.31-7.92-7.75-11.09-12.29-4.75-6.79-9.3-13.7-13.9-20.59-7.35-11-16.34-20.51-26.16-29.34-6.75-6.07-13.37-12.31-19.66-18.85-10-10.42-15.62-23.29-19.56-37s-5.4-28-5.52-42.3q0-5.4-.2-10.8a24.75,24.75,0,0,1,10.8-21.78c4.48-3.24,9.28-6,14-9,2.95-1.85,5.91-3.69,8.95-5.4a22.3,22.3,0,0,1,13.07-2.62c6.3.52,12.22,2.58,18.17,4.48a13.15,13.15,0,0,1,7.83,7.07,105.6,105.6,0,0,1,4.92,12.38c4,12,7.65,24.16,11.79,36.13,2.87,8.3,6.52,16.33,9.49,24.6,4.92,13.72,6.54,28,6.07,42.49C278.83,299.5,278.91,302.24,278.91,305Zm-1.74-2.23c0-3.33-.1-6.25,0-9.16a103.85,103.85,0,0,0-8.32-46c-5.78-13.32-11.13-26.77-15.05-40.77-1.86-6.65-3.91-13.26-6.32-19.72-2.1-5.64-5.66-10.26-11.89-11.86-4.09-1.05-8.24-1.9-12.39-2.68a20.68,20.68,0,0,0-12.1,1.18,43.73,43.73,0,0,0-4.39,2.31c-5.91,3.35-11.84,6.67-17.7,10.11-8.83,5.18-14,12.61-13.79,23.19.17,8.62.2,17.24.6,25.85a118.78,118.78,0,0,0,8.62,38.21c5.27,13.33,14.15,24,24.64,33.5,7.81,7.1,15.53,14.33,23,21.82,8.38,8.42,14.56,18.59,21.37,28.24,3.71,5.26,7.85,10.23,12.06,15.1a9.18,9.18,0,0,0,5.05,2.86,21.51,21.51,0,0,0,10.6-1.35,3.29,3.29,0,0,0,2.33-2.91,30.08,30.08,0,0,0,.21-5.8,99.22,99.22,0,0,0-1.48-10.68A227.88,227.88,0,0,1,277.17,302.76Z" />
            <path class="italy-cls-32" d="M275.93,303.51a265.35,265.35,0,0,0,4.54,48.89,64.35,64.35,0,0,1,.9,11.42c0,4.71-2.15,6.59-6.91,6.47-6.07-.16-10.86-3-14.44-7.75-4.35-5.73-8.57-11.56-12.6-17.51-7.8-11.53-17.27-21.54-27.45-31-6.37-5.89-12.78-11.77-18.73-18.07-10.67-11.3-16.57-25.11-19.93-40.13-2.58-11.53-2.71-23.22-2.51-34.93a99.53,99.53,0,0,1,.75-11.78c1-7,4.83-12.17,10.91-15.54,6.64-3.68,13.41-7.14,20.19-10.55,7.49-3.77,15.15-3.32,23-.89,5.65,1.75,9.77,5.08,11.91,10.47,2.36,5.93,4.53,12,6.3,18.09,3.74,13,9,25.39,14.6,37.65a100.83,100.83,0,0,1,9.49,43.14C275.91,295.52,275.93,299.52,275.93,303.51Zm-1.68-2.42c0-.86,0-1.71,0-2.57-.17-6.62,0-13.27-.59-19.86-.95-10.81-4.57-20.92-9.1-30.73-4.83-10.48-9.46-21-12.88-32.09-2.05-6.65-4.17-13.3-6.61-19.81-2.63-7-7.46-11.35-15.24-12.66-5.88-1-11.54-1.26-16.93,1.31-7.57,3.62-15.06,7.43-22.41,11.48a18.31,18.31,0,0,0-9.57,13.9,96.56,96.56,0,0,0-.79,10.07c-.49,12.23-.64,24.43,2.24,36.47,3.09,12.92,7.69,25.21,16.69,35.21,6.1,6.78,12.79,13,19.51,19.23,9.6,8.85,18.83,18,26.54,28.59,4.26,5.86,8.56,11.71,13,17.45,4.08,5.3,9.89,6.65,16.18,6.47,3.26-.09,4-1,4.41-4.24a16,16,0,0,0,.12-2.91c-.28-3.87-.45-7.76-1-11.61A421.73,421.73,0,0,1,274.25,301.1Z" />
            <path class="italy-cls-33" d="M180.82,233.74c.55-7.88.89-14.27,1.48-20.64.61-6.59,3.76-11.76,9.68-14.84,7.39-3.85,14.82-7.68,22.44-11a24.66,24.66,0,0,1,10.48-2.12c8.67.34,15.49,4.17,18.76,12.67,2,5.16,3.8,10.41,5.34,15.72,3.48,12,8.4,23.44,13.73,34.69a97.8,97.8,0,0,1,9.85,43.19c-.13,17.5,1.55,34.92,3.08,52.34a50.58,50.58,0,0,1-.1,9.22c-.29,3-1.47,3.7-4.39,3.46-1.14-.09-2.27-.24-3.41-.33-6.58-.53-11.3-4-15.19-9.13q-7-9.22-14.44-18.08c-7.48-8.9-16.2-16.58-24.78-24.39-7-6.39-13.84-13-19-21a80.15,80.15,0,0,1-11.55-31.07C181.72,245.73,181.35,239,180.82,233.74Zm90,65.14c0-3.1.11-8.64,0-14.18-.31-12.68-4-24.49-9.44-35.83a242.54,242.54,0,0,1-14.69-37.42,105.44,105.44,0,0,0-5.06-13.62A16.18,16.18,0,0,0,228.6,188a27.71,27.71,0,0,0-17,2.64c-6.14,3-12.14,6.37-18.28,9.39a16.11,16.11,0,0,0-9.29,12.36c-2.13,12.85-2.8,25.76-.69,38.7,2.89,17.77,10.14,33.3,23.5,45.7q11.49,10.67,22.87,21.45c7.9,7.48,14.64,16,21.67,24.27a21.13,21.13,0,0,0,5.76,5,26.32,26.32,0,0,0,11.74,2.79c2.75.09,4-.73,4.3-3.49a49.12,49.12,0,0,0,.38-8.87C272.84,325.71,271.91,313.52,270.86,298.88Z" />
            <path class="italy-cls-34" d="M182.93,235.13c.64-6.08,1.23-13.3,2.2-20.47a15.41,15.41,0,0,1,8.77-12.46c7.75-3.89,15.08-8.62,23.36-11.41a21.55,21.55,0,0,1,15.1.32,15.21,15.21,0,0,1,8.46,8.57,123.38,123.38,0,0,1,4.51,12.9A253.34,253.34,0,0,0,259,247.08c3.77,8,7.15,16.18,8.82,25a145.62,145.62,0,0,1,2,21.29c.5,11.81,1.32,23.61,1.81,35.42a79.91,79.91,0,0,1-.47,11.78c-.36,3.41-1.42,4.19-4.87,4.13-6.3-.12-12-1.58-16.41-6.67-13.1-15.23-27.94-28.73-42.61-42.39-13.15-12.25-20.48-27.51-23.11-45.12C183.48,245.8,183.39,241,182.93,235.13Zm87.18,88.33-.49,0c-.51-10.55-1.42-21.11-1.42-31.66a95.61,95.61,0,0,0-10.11-43.27,209.81,209.81,0,0,1-12.91-31.88c-1.74-5.68-3.19-11.49-6.36-16.58-1.36-2.17-3-4.55-5.19-5.73-5.44-3-11.35-3.91-17.23-1-7.16,3.54-14.23,7.28-21.39,10.82a15.15,15.15,0,0,0-8.55,11.49C184.57,226,183.6,236.44,184.7,247c2,18.7,9.37,34.71,23.23,47.7q19.37,18.16,38.32,36.78c4.86,4.77,10.26,7.64,17.09,7.82,3.53.1,5-.65,5.57-4.12C269.57,331.31,269.73,327.36,270.11,323.46Z" />
            <path class="italy-cls-35" d="M267.79,304.33c.22,6.05.55,12.1.63,18.16a35.45,35.45,0,0,1-.75,7.81c-.83,3.89-3.2,5.58-7.19,5.39a19.15,19.15,0,0,1-12-4.49c-5.61-4.94-10.89-10.26-16.36-15.36-8.39-7.84-16.89-15.56-25.21-23.48C194,280,187.24,264.7,185.49,247.07c-1-10.27.07-20.43,2.09-30.49a15.3,15.3,0,0,1,8.07-11c6.67-3.51,13.29-7.14,20.15-10.25a20.09,20.09,0,0,1,9.74-2.06c5.34.53,10.23,2.92,12.71,8.18a88,88,0,0,1,4.51,11.8,243.81,243.81,0,0,0,13.92,34.8c4.64,9.64,8.49,19.52,9.51,30.23.82,8.64,1.16,17.32,1.72,26Zm-1.44-3.71h-.3q-.37-7.62-.74-15.24a84.25,84.25,0,0,0-8.15-32.87,287.58,287.58,0,0,1-16.06-39.66c-1.32-4.27-2.81-8.46-5.62-12a13.58,13.58,0,0,0-15.32-4.64c-8.53,2.79-16.34,7-24,11.66a15.41,15.41,0,0,0-7.23,9.79A85,85,0,0,0,187.18,253c2.34,13.77,7.82,26.12,17.93,35.86,12.84,12.36,26.1,24.27,39.3,36.24a18.36,18.36,0,0,0,6.74,3.89c2.85.87,6,.85,9,1.2a4.16,4.16,0,0,0,4.74-2.86,19.27,19.27,0,0,0,1.44-5.95C266.46,314.44,266.35,307.53,266.35,300.62Z" />
            <path class="italy-cls-36" d="M264.36,301.84c0,4.45.23,8.92-.05,13.36-.42,6.49-2.21,7.94-8.61,8.74-5.46.68-9.91-1.33-13.85-4.67q-12.62-10.68-25-21.63c-6.18-5.44-12.12-11.15-17-17.86a61.34,61.34,0,0,1-11.37-31.31,81.88,81.88,0,0,1,2.1-25.68c1.25-5.37,3.81-9.84,8.68-12.6,6-3.4,12.06-6.76,18.27-9.76a14,14,0,0,1,13-.06,14.73,14.73,0,0,1,6.48,7.09,98.94,98.94,0,0,1,4.4,11.13,245.21,245.21,0,0,0,13.35,31.91,89.5,89.5,0,0,1,9.09,34.9c.3,5.48.55,11,.83,16.43Zm-1.18-5-.22,0c-.15-3.08-.33-6.16-.44-9.25a87.08,87.08,0,0,0-7.89-34.14,403.35,403.35,0,0,1-16.72-40.16,29,29,0,0,0-4.43-7.85,10.73,10.73,0,0,0-11.39-4.2,29.41,29.41,0,0,0-5.21,1.64,92.1,92.1,0,0,0-18.36,10.62,14.2,14.2,0,0,0-5.84,8.23c-1.26,5.26-2.66,10.56-3.16,15.91-1.6,17.25,2.91,32.82,14.54,45.82,10.51,11.74,22.76,21.63,35,31.46,3.06,2.45,6.48,4.45,10.45,4.86,9,.93,11.78-1.48,12.73-8.93C262.85,306.19,262.89,301.49,263.18,296.82Z" />
            <path class="italy-cls-37" d="M260.91,290.06c0,5.85.23,11.12-1.26,16.25-1.35,4.65-3.84,6.72-8.67,7.18a19.49,19.49,0,0,1-14-4c-11.41-8.61-22.62-17.51-32.08-28.29-11-12.6-15-27.46-12.71-44a65.81,65.81,0,0,1,2.91-11.41A18.91,18.91,0,0,1,202,216.6a79.54,79.54,0,0,1,16.35-10c7.29-3.13,13.58-1.08,17,6.1,2.82,5.85,5,12,7.64,18,3.61,8.21,7.42,16.32,11,24.54a85.56,85.56,0,0,1,6.52,27.89C260.71,285.62,260.81,288.14,260.91,290.06Zm-1-3.09-.46-.05c.2-11.83-2.87-23-7.37-33.75-3.45-8.27-7.37-16.34-11.13-24.48-2.34-5.08-4.45-10.3-7.24-15.13-4.43-7.66-10-9-17.55-4.36-4.57,2.79-8.76,6.19-13.21,9.19a18.74,18.74,0,0,0-7.11,9.51c-6.84,18.24-3.88,35,7.72,50.24,8.68,11.38,20,20,31.79,27.95a18.12,18.12,0,0,0,13.87,2.73c4.85-.82,7.83-3.44,8.72-8.15C258.79,296.13,259.25,291.53,259.89,287Z" />
            <path class="italy-cls-38" d="M259.23,285.37c-.65,4.51-1,9.08-2,13.5-1.4,6.13-4.3,8.16-10.51,8.92-5.34.66-9.75-1.3-13.92-4.2-10.12-7-19.64-14.8-27.53-24.33-8.33-10.06-12.89-21.66-12.23-34.88.37-7.39,2.22-14.62,6.65-20.59,2.69-3.63,6.69-6.33,10.24-9.27a47.1,47.1,0,0,1,6.36-4.34c6.77-4,12.72-2.67,16.7,4.08a164.24,164.24,0,0,1,7.37,15.05c3.89,8.45,7.79,16.9,11.43,25.47,4.21,9.93,6.95,21.86,7,30.53Zm-2.27-.63c-.26-8.95-1.54-17.7-4.86-26-3.09-7.73-6.53-15.33-9.94-22.93-2.63-5.88-5.21-11.82-8.24-17.5-4.17-7.83-9.48-9.3-17.34-5.28a59.61,59.61,0,0,0-13,9.37A26.79,26.79,0,0,0,195.41,236c-3.81,15.58-.37,29.58,9.83,41.81,8.41,10.1,18.68,18.09,29.93,24.82a14,14,0,0,0,5.43,1.93c8.16.91,14.34-2.08,15.55-11.15C256.53,290.55,256.69,287.64,257,284.74Z" />
            <path class="italy-cls-39" d="M255.87,282.44c-.72,3.67-1.28,7.39-2.22,11a7.3,7.3,0,0,1-5,5.24c-2.77.87-5.6,1.91-8.44,2a13.13,13.13,0,0,1-6.65-1.83c-12.48-7.14-23.62-15.91-31.45-28.19a39.16,39.16,0,0,1-5-31.4c1.68-6.92,5.81-12.23,11.25-16.56a83.82,83.82,0,0,1,9.26-6.45c6.18-3.69,11.76-2.33,15.56,3.81a96.08,96.08,0,0,1,5.7,10.73c4.23,9.3,8.48,18.6,12.35,28.06,3.06,7.47,4.15,15.41,4.23,23.48Zm-2.07-2.77a66.16,66.16,0,0,0-3-18.23c-3-9.58-7.44-18.54-11.83-27.51a99.15,99.15,0,0,0-7.25-12.59c-3.29-4.78-7.8-5.74-12.92-3.08a47.1,47.1,0,0,0-7.6,4.92c-4.81,3.82-9.34,8-11.68,13.88-4.86,12.15-3.18,23.67,4.07,34.36,6.3,9.29,14.95,16.12,24.29,22.12a24.9,24.9,0,0,0,9.6,3.94,13.15,13.15,0,0,0,15.31-10.2C253.29,284.8,253.45,282.21,253.8,279.67Z" />
            <path class="italy-cls-40" d="M199.33,252.65A23.32,23.32,0,0,1,205.6,236c3.48-3.8,7-7.52,11.44-10.26,6.56-4.07,11.68-3.3,15.93,3.13,8.3,12.6,15.18,26,18.36,40.84a57.42,57.42,0,0,1,.88,13.59c-.07,2.32-1.21,4.74-2.34,6.87-1.87,3.54-5,5.14-9.07,5.5a19.78,19.78,0,0,1-12.32-3c-9.61-5.72-18-12.72-24-22.24A32.08,32.08,0,0,1,199.33,252.65Zm51.44,22.6a73.22,73.22,0,0,0-1.11-7.33,103.87,103.87,0,0,0-13.95-32,49.85,49.85,0,0,0-6-7.65,7.27,7.27,0,0,0-8.7-1.61,41.94,41.94,0,0,0-7.88,4.72c-4.37,3.37-8.3,7.31-10.6,12.38-4,8.87-2.88,17.58,2.2,25.65,6,9.56,14.5,16.43,24.51,21.57a17.08,17.08,0,0,0,11.44,1.52,10.76,10.76,0,0,0,7.58-5.36C250.2,283.84,250.73,280.27,250.77,275.25Z" />
            <path class="italy-cls-41" d="M249,275.15c-.09,1.1-.15,2.36-.32,3.6-1.08,7.95-8.14,12.7-16,10.76-6.94-1.72-12.45-5.85-17.57-10.57a38.79,38.79,0,0,1-9.22-12c-4.09-8.77-3.62-17,2.9-24.57a40.41,40.41,0,0,1,10.28-8.7c5-2.94,9.25-2.29,13.14,2.11a65.37,65.37,0,0,1,10.33,16.49c2.81,6.2,5.37,12.49,6.17,19.34C248.83,272.71,248.88,273.85,249,275.15Zm-15.84,12.43.18-.49a7.56,7.56,0,0,0,.85.07c7.53-.16,11.45-3.42,12.52-9.69a26,26,0,0,0,.22-7.32c-.88-7.54-3.77-14.45-7.32-21.07a45.54,45.54,0,0,0-9.19-12.29c-2.26-2.07-4.93-3.13-7.88-2a29.85,29.85,0,0,0-16.83,15.76c-2.79,6.08-1.26,12.15,1.92,17.73,4.26,7.48,10.78,12.64,18.25,16.62A53.32,53.32,0,0,0,233.14,287.58Z" />
            <path class="italy-cls-42" d="M245.13,271.32c.1,7.82-5.29,12.81-12.59,11.43-10-1.89-16.67-8.09-20.69-17.24-2-4.57-1.1-8.95,1.53-13a23,23,0,0,1,9.17-8,8.8,8.8,0,0,1,11,1.7,39.9,39.9,0,0,1,11.19,21.55c.14.73.24,1.47.32,2.2C245.11,270.44,245.11,271,245.13,271.32Zm-13.44,9.1c7,.14,11.1-3.26,11.49-8.59a24,24,0,0,0-.85-7.92,32.77,32.77,0,0,0-8.38-14.9c-3.76-3.74-7.68-4.23-12.29-1.67a19.85,19.85,0,0,0-8.47,9.78,9.09,9.09,0,0,0-.19,7.81,31.77,31.77,0,0,0,4.78,7.59C221.9,277.05,226.88,280.3,231.69,280.42Z" />
            <path class="italy-cls-43" d="M242,267.57c.07,7.27-3.67,10.59-9.78,10.06-8-.7-14.79-8.88-15.38-14.34-.73-6.71,6.46-14.08,13.11-13a8.88,8.88,0,0,1,4.36,2.14A23.06,23.06,0,0,1,242,267.57Zm-2-1a18.41,18.41,0,0,0-5-10.9c-3-3.34-6.52-3.91-10.47-1.87-4.29,2.21-6.75,7.25-5.3,11.44a15,15,0,0,0,11.09,10C236.07,276.61,240,273.23,240,266.55Z" />
            <path class="italy-cls-44" d="M239,266.44c0,5.26-3.5,8.35-8,7.46-5-1-8.67-3.66-10.28-8.7a8.47,8.47,0,0,1,3.43-9.29,7.39,7.39,0,0,1,9.47.31C237.18,259,238.29,262.94,239,266.44Zm-2.15-.61a10.66,10.66,0,0,0-3.8-7.44,6,6,0,0,0-5.58-1.4,6.78,6.78,0,0,0-3.66,10.47,10.75,10.75,0,0,0,5.51,3.86C233.25,272.82,236.86,270.35,236.83,265.82Z" />
        </g>
    </g>
</svg>