<svg xmlns="http://www.w3.org/2000/svg" viewBox="0 0 15.76 13.95" width="30px"><defs><style>.cls-1{fill:#fff;}</style></defs><title>Fichier 2</title><g id="Calque_2" data-name="Calque 2"><g id="Calque_1-2" data-name="Calque 1"><path class="cls-1" d="M1,13.95a1.1,1.1,0,0,1-.81-.38,1,1,0,0,1,.16-1.45l7-5.7a1,1,0,0,1,1.32,0l6.65,5.39a1,1,0,0,1-1.3,1.61l-6-4.87L1.71,13.72A1.08,1.08,0,0,1,1,13.95Z"/><path class="cls-1" d="M1,7.77a1.1,1.1,0,0,1-.81-.38A1,1,0,0,1,.39,5.93l7-5.7a1,1,0,0,1,1.32,0l6.65,5.39a1,1,0,0,1-1.3,1.61l-6-4.87L1.71,7.54A1.08,1.08,0,0,1,1,7.77Z"/></g></g></svg>