<svg xmlns="http://www.w3.org/2000/svg" viewBox="0 0 15.76 13.95" width="30px"><defs><style>.cls-1{fill:#fff;}</style></defs><title>Fichier 1</title><g id="Calque_2" data-name="Calque 2"><g id="Calque_1-2" data-name="Calque 1"><path class="cls-1" d="M14.71,0a1.1,1.1,0,0,1,.81.38,1,1,0,0,1-.16,1.45l-7,5.7A1,1,0,0,1,7,7.53L.39,2.15A1,1,0,0,1,1.69.54l6,4.87L14.05.23A1.08,1.08,0,0,1,14.71,0Z"/><path class="cls-1" d="M14.71,6.18a1.1,1.1,0,0,1,.81.38A1,1,0,0,1,15.37,8l-7,5.7a1,1,0,0,1-1.32,0L.39,8.33a1,1,0,0,1,1.3-1.61l6,4.87,6.36-5.18A1.08,1.08,0,0,1,14.71,6.18Z"/></g></g></svg>